<svg class="main-svg" xmlns="http://www.w3.org/2000/svg" xmlns:xlink="http://www.w3.org/1999/xlink" width="940" height="396" style="" viewBox="0 0 940 396"><rect x="0" y="0" width="940" height="396" style="fill: rgb(255, 255, 255); fill-opacity: 1;"/><defs id="defs-282303"><g class="clips"><clipPath id="clip282303xyplot" class="plotclip"><rect width="820" height="276"/></clipPath><clipPath class="axesclip" id="clip282303x"><rect x="60" y="0" width="820" height="396"/></clipPath><clipPath class="axesclip" id="clip282303y"><rect x="0" y="60" width="940" height="276"/></clipPath><clipPath class="axesclip" id="clip282303xy"><rect x="60" y="60" width="820" height="276"/></clipPath></g><g class="gradients"/></defs><g class="bglayer"/><g class="layer-below"><g class="imagelayer"/><g class="shapelayer"/></g><g class="cartesianlayer"><g class="subplot xy"><g class="layer-subplot"><g class="shapelayer"/><g class="imagelayer"/></g><g class="gridlayer"><g class="x"><path class="xgrid crisp" transform="translate(170.76999999999998,0)" d="M0,60v276" style="stroke: rgb(238, 238, 238); stroke-opacity: 1; stroke-width: 1px;"/><path class="xgrid crisp" transform="translate(281.53,0)" d="M0,60v276" style="stroke: rgb(238, 238, 238); stroke-opacity: 1; stroke-width: 1px;"/><path class="xgrid crisp" transform="translate(392.3,0)" d="M0,60v276" style="stroke: rgb(238, 238, 238); stroke-opacity: 1; stroke-width: 1px;"/><path class="xgrid crisp" transform="translate(503.06,0)" d="M0,60v276" style="stroke: rgb(238, 238, 238); stroke-opacity: 1; stroke-width: 1px;"/><path class="xgrid crisp" transform="translate(613.83,0)" d="M0,60v276" style="stroke: rgb(238, 238, 238); stroke-opacity: 1; stroke-width: 1px;"/><path class="xgrid crisp" transform="translate(724.6,0)" d="M0,60v276" style="stroke: rgb(238, 238, 238); stroke-opacity: 1; stroke-width: 1px;"/><path class="xgrid crisp" transform="translate(835.36,0)" d="M0,60v276" style="stroke: rgb(238, 238, 238); stroke-opacity: 1; stroke-width: 1px;"/></g><g class="y"><path class="ygrid crisp" transform="translate(0,273.53)" d="M60,0h820" style="stroke: rgb(238, 238, 238); stroke-opacity: 1; stroke-width: 1px;"/><path class="ygrid crisp" transform="translate(0,218.41)" d="M60,0h820" style="stroke: rgb(238, 238, 238); stroke-opacity: 1; stroke-width: 1px;"/><path class="ygrid crisp" transform="translate(0,163.29000000000002)" d="M60,0h820" style="stroke: rgb(238, 238, 238); stroke-opacity: 1; stroke-width: 1px;"/><path class="ygrid crisp" transform="translate(0,108.17)" d="M60,0h820" style="stroke: rgb(238, 238, 238); stroke-opacity: 1; stroke-width: 1px;"/></g></g><g class="zerolinelayer"><path class="xzl zl crisp" transform="translate(60,0)" d="M0,60v276" style="stroke: rgb(68, 68, 68); stroke-opacity: 1; stroke-width: 1px;"/><path class="yzl zl crisp" transform="translate(0,328.65)" d="M60,0h820" style="stroke: rgb(68, 68, 68); stroke-opacity: 1; stroke-width: 1px;"/></g><path class="xlines-below"/><path class="ylines-below"/><g class="overlines-below"/><g class="xaxislayer-below"/><g class="yaxislayer-below"/><g class="overaxes-below"/><g class="plot" transform="translate(60, 60)" clip-path="url('#clip282303xyplot')"><g class="scatterlayer mlayer"><g class="trace scatter trace7a32d1" style="stroke-miterlimit: 2; opacity: 1;"><g class="fills"/><g class="errorbars"/><g class="lines"><path class="js-line" d="M0,14.83L0.06,13.84L0.11,122.86L0.94,236.75L1,227.48L1.05,218.86L1.11,176.86L1.61,238.43L1.77,219.37L1.83,238.65L1.94,224.21L2.44,243.34L2.55,240.45L2.6,245.74L2.71,242.77L2.77,233.78L2.99,225.46L3.43,249.86L3.54,248.98L3.6,237.96L3.82,244.42L3.99,232.92L4.1,237.78L4.15,244.88L4.26,251.31L4.32,234.57L4.38,234.61L4.43,222.13L4.76,251.03L5.26,248.46L5.32,242.62L5.59,200.88L5.82,253.42L6.09,245.67L6.15,248.68L6.2,249.48L6.26,240.02L6.31,242.07L6.37,230.72L7.03,254.96L7.14,246.86L7.2,246.33L7.31,251.83L7.42,241.19L7.64,248.35L7.7,253L7.86,253.17L7.98,243.03L8.47,250.29L8.53,252.8L8.58,252.56L8.64,245.41L8.7,238.27L9.08,251.69L9.36,246.22L9.42,242.89L9.69,252.85L9.86,233.93L9.97,243.52L10.02,236.03L10.41,256.13L10.8,248.51L10.86,228.02L11.58,256.29L11.69,249.44L11.74,250.59L11.85,249.22L11.96,254.97L12.02,236.94L12.46,255.22L12.79,252.06L12.85,255.21L13.07,239.01L13.35,252.23L13.4,255.11L14.34,215.04L14.4,246.47L14.79,254.09L15.12,252.92L15.17,234.63L15.95,257.37L16.01,248.39L16.28,256L16.39,243.05L16.78,253.34L16.84,252.92L16.89,255.32L17.39,246.73L17.56,254.29L17.61,249.49L17.94,253.81L18.11,243.9L18.39,253.73L18.44,250.92L18.5,253.77L18.72,234.94L19.05,246.57L19.11,246.18L19.27,244.8L19.49,257.4L19.88,252.23L19.94,256.02L20.05,256.07L20.33,245.48L20.38,248.67L20.44,255.11L20.77,256.82L21.27,246.8L21.32,250.1L21.38,255.28L21.6,256.24L21.71,242.22L22.1,253.57L22.15,253.56L22.37,249.29L22.43,249.39L22.49,252.93L22.54,255.37L22.82,244.76L22.87,249.02L22.93,230.61L23.32,258.34L23.7,238.38L23.76,249.85L23.87,244.9L24.37,258.88L24.48,253.88L24.53,250.41L24.76,248.26L25.03,257.07L25.31,253.76L25.37,254.79L25.7,256.83L26.03,244.13L26.09,249.36L26.14,254.54L26.47,256.62L26.64,249.93L26.86,252.11L26.92,256.31L27.19,240.47L27.53,246.3L27.58,253.67L27.75,257.2L28.19,235.67L28.25,250.21L28.3,255.86L28.52,244.97L28.91,258.38L29.02,253.95L29.08,252.96L29.35,244.55L29.8,257.11L29.85,256.01L29.91,254.57L30.18,257.81L30.41,243.85L30.46,255.98L30.74,257.81L31.18,248.17L31.24,254.12L31.29,254.95L31.35,255.67L31.46,250.27L31.51,252.03L31.57,246.95L31.68,226.72L32.01,256.39L32.18,255.01L32.23,253.08L32.51,243.05L32.84,257.91L32.9,247.59L33.29,258.54L33.67,255.57L33.73,247.93L34.06,256.87L34.5,254.88L34.56,255.95L34.73,248.77L35.45,249.17L35.83,255.86L36.05,240.92L36.22,251.73L36.28,253.05L36.61,247.05L36.83,258.75L36.89,258.62L37.66,249.38L37.72,250.12L38.1,257.84L38.49,256.03L38.55,252.67L38.66,251.89L38.93,257.31L38.99,251.98L39.04,246.48L39.38,256.41L39.82,255.3L39.88,253.98L39.93,254.27L39.99,248.61L40.1,239.89L40.43,258.05L40.71,255.53L40.76,244.51L41.59,257.25L41.65,257.09L41.7,255.43L41.98,252.05L42.09,257.16L42.37,255.5L42.42,256.88L42.59,253.27L42.64,252.64L42.98,250.91L43.03,258.14L43.31,253.5L43.36,246.76L43.81,257.55L44.14,252.59L44.2,253.2L44.53,243.05L44.92,257.57L44.97,252.13L45.08,257.81L45.36,250.92L45.47,254.21L45.52,239.28L46.24,258.68L46.3,254.26L46.36,255.23L46.58,257.67L46.69,248.84L46.96,255.1L47.02,256.5L47.13,257.54L47.3,254.64L47.35,255.09L47.41,254.57L47.52,258.22L47.68,247.13L48.13,257.55L48.18,253.47L48.24,255L48.35,251.12L48.46,251.64L48.52,240.91L49.01,231.72L49.24,256.01L49.29,255.35L49.35,257.11L49.84,240.37L50.12,250.63L50.18,256.97L50.23,247.71L50.62,259.32L50.9,254.33L50.95,257.65L51.06,250.55L51.62,255.78L51.67,255.74L52.28,256.71L52.5,246.91L52.56,255.17L52.61,256.2L52.78,252.97L53.28,254.67L53.33,253.95L53.39,240.82L53.83,256.85L54.05,250.22L54.11,254.28L54.16,258.8L54.77,248.84L54.83,256.68L54.88,255.64L55,251.18L55.27,257.87L55.38,255.08L55.44,258.01L55.99,251.72L56.21,255.3L56.27,257.39L56.38,249.63L56.71,257.48L57.04,252.99L57.1,256.29L57.43,243.61L57.54,257.72L57.71,253.92L57.76,257.84L58.1,238.65L58.43,252.85L58.48,255.69L58.93,257.75L59.15,244.74L59.26,253.52L59.32,252.75L59.37,252.95L59.43,257.21L59.59,257.47L59.92,253.19L60.2,254.5L60.26,254.75L60.37,257.98L60.7,248.21L60.92,256.07L60.98,256.71L61.03,257.6L61.25,251.94L61.42,253.93L61.48,252.2L61.53,257.02L61.92,248.44L62.25,254.84L62.31,257.82L63.19,249.67L63.25,256.25L63.36,258.64L63.75,253.14L63.97,255.16L64.02,257.5L64.63,252.15L64.69,259.23L64.74,255.32L64.8,257.57L64.91,257.78L65.07,248.29L65.3,255.08L65.35,256.46L65.41,258.61L65.85,248.9L66.02,255.67L66.07,254.45L66.35,239L66.46,256.6L66.51,254.87L66.57,255.34L67.01,257.73L67.07,253.67L67.12,257.23L67.18,245.81L67.95,259.43L68.01,254.65L68.29,258.27L68.4,252.43L68.79,255.61L68.84,255.94L69.34,251.2L69.62,257.42L69.67,254.28L69.78,253.92L69.84,247.86L70.5,256.68L70.61,255.4L70.67,255.04L70.78,246.01L71.17,257.35L71.39,252.08L71.44,254.93L71.55,258.97L72.11,252.54L72.16,258.22L72.22,255.9L72.39,252.59L72.61,258.48L72.72,254.58L72.77,258.77L72.99,251.99L73.49,256.6L73.55,256.84L73.71,250.69L74.05,258.04L74.1,255.85L74.16,254.22L74.27,254.6L74.32,250.95L74.38,254.34L74.43,256.65L74.77,247.19L74.88,258.46L75.21,255.66L75.27,256.2L75.43,249.17L75.71,257.3L75.87,254.88L75.93,257.87L76.43,251.48L76.71,253.99L76.76,257.26L77.15,257.59L77.31,253.81L77.54,254.89L77.59,257.21L77.7,259.1L78.03,249.57L78.31,256.83L78.37,257.45L79.25,251.4L79.31,251.45L79.36,258.34L80.03,251.13L80.25,251.99L80.31,256.55L80.36,256.79L80.47,254.91L80.53,251.33L80.69,259.24L81.3,255.25L81.36,257.8L81.63,253.47L82.02,260.09L82.08,255.68L82.13,258.64L82.41,250.85L82.85,254.85L82.91,255.74L83.57,257.8L83.68,244.51L83.74,254.75L83.85,253.18L84.07,258.46L84.46,255.92L84.51,242.29L85.23,259.93L85.35,256.11L85.4,256.46L85.57,258.54L85.68,253.62L85.95,255.46L86.01,258.11L86.12,258.69L86.73,251.1L86.79,257.99L87.34,251.53L87.56,255.14L87.62,255.09L87.78,247.7L87.89,259.29L88.34,254.78L88.39,258.26L88.45,243L89.11,255.83L89.17,254.47L89.5,258.86L89.72,254.17L90,256.61L90.05,255.25L90.27,253.09L90.72,258.99L90.83,257.21L90.88,256.58L91.1,250.71L91.38,257.97L91.55,255.65L91.6,253.53L91.71,251.47L91.94,257.41L92.21,253.34L92.27,249.02L92.38,259.18L92.99,257.32L93.04,249.33L93.71,260.02L93.87,255.44L93.93,256.27L94.32,254.99L94.37,258.36L94.7,257.47L94.76,255.17L95.04,259.6L95.37,252.76L95.48,256.27L95.54,254.75L95.81,257.99L96.09,252.39L96.31,256.2L96.37,256.68L96.53,249.95L96.59,257.78L96.7,251.81L96.81,258.43L97.36,252.67L97.42,256.31L97.53,244.44L97.92,256.81L98.03,251.46L98.08,257.17L98.25,259.39L98.86,254.9L98.91,257.33L99.14,258.97L99.74,251.09L99.8,257.28L100.08,258.88L100.52,253.76L100.58,255.95L100.63,256.52L100.91,253.36L100.96,247.68L101.02,246.1L101.13,258.07L101.41,255.18L101.46,257.57L101.68,258.18L102.07,248.45L102.13,254.25L102.18,259.29L102.24,252.89L102.62,259.45L102.9,255.44L102.96,257.74L103.01,255.29L103.12,258.24L103.73,256.12L103.79,256.6L104.01,252.71L104.18,258.5L104.29,257.89L104.34,253.94L104.51,252.98L104.9,257.37L105.06,256.67L105.12,254.66L105.39,248.1L105.84,257.44L105.89,254.98L105.95,253.62L106.17,259.4L106.56,255.96L106.61,257.79L106.83,260L107.06,254.36L107.39,255.13L107.44,258.86L107.66,253.65L108.05,259.14L108.16,257.06L108.22,257.34L108.27,257.63L108.33,253.87L108.38,253.51L108.44,250.72L108.72,258.08L109.1,254.58L109.16,257.1L109.22,257.48L109.33,255.39L109.44,255.8L109.49,253.73L109.6,250.88L109.71,259.56L110.1,256.2L110.16,256.75L110.21,258.06L110.38,250.71L110.82,255.89L110.88,252.21L111.04,260.31L111.65,254.78L111.71,258.58L112.21,254.82L112.37,259.89L112.43,255.48L112.48,258.87L112.76,252.15L113.31,254.95L113.37,254.92L113.87,250.1L113.92,258.11L114.09,256.21L114.14,258.92L114.86,248.41L114.92,255.79L114.98,258.1L115.03,253.65L115.58,259.25L115.75,256.14L115.81,255.81L116.19,255.74L116.47,259.3L116.58,256.96L116.64,257.13L116.91,258.45L116.97,255.6L117.02,251.99L117.08,250.92L117.3,258.12L117.36,256.94L117.41,258.89L118.35,248.49L118.41,253.19L118.46,258.86L119.18,249.35L119.24,255.55L119.29,258.56L119.41,249.86L119.96,259.56L120.01,255.38L120.07,256.97L120.46,258.7L120.68,255.89L120.85,256.07L120.9,257.47L121.34,253.52L121.45,256.14L121.51,258.73L121.84,253.42L122.34,256.63L122.4,256.71L122.73,252.51L122.78,257.97L123.12,256.28L123.17,256.71L123.5,259.69L123.84,253.76L123.89,256.39L123.95,258.23L124.17,260.31L124.39,254.58L124.72,255.67L124.78,259.23L125,254.14L125.39,259.59L125.55,257.47L125.61,257.93L125.72,252.07L126.05,258.32L126.38,255.93L126.44,256.76L126.77,253.45L126.83,255.92L126.88,259.39L127.44,252.26L127.6,252.39L127.66,258L127.71,258.56L128.16,255.63L128.21,254.68L128.49,260.57L128.99,257.57L129.04,256.47L129.32,254.28L129.71,259.62L129.82,258.28L129.87,257.93L129.98,255.18L130.04,253.49L130.09,252.39L130.48,258.53L130.65,254.48L130.7,255.8L131.2,252.21L131.26,258.29L131.42,255.84L131.48,258.88L131.59,259.19L132.2,251.22L132.25,257.56L132.31,258.06L132.48,254.73L132.92,259.69L133.09,256.45L133.14,255.56L133.47,255.28L133.81,258.72L133.86,257.96L133.92,256.67L134.19,258.92L134.3,255.45L134.36,252.86L134.41,251.22L134.75,259.07L135.08,253.56L135.13,254.53L135.25,257.16L135.69,249.89L135.74,253.44L135.8,259.07L136.52,250.11L136.57,256.66L136.63,258.13L136.74,250.26L136.85,259.22L137.24,257.41L137.29,259.63L137.46,255.68L138.01,256.28L138.07,258.64L138.73,254.78L138.79,256.26L138.85,258.95L139.45,253.97L139.57,258.02L139.62,258.19L140.06,252.55L140.4,256.78L140.45,256.77L140.73,255.13L140.89,259.45L141.06,256.94L141.12,255.61L141.17,253.61L141.5,260.37L141.84,255.83L141.89,257.02L142.11,259L142.33,254.39L142.5,257.74L142.56,254.72L142.72,259.61L143.05,252.36L143.33,258.17L143.39,258.81L144.11,254.04L144.16,256.1L144.22,259.92L144.77,252.78L144.99,257.54L145.05,258.59L145.55,254.87L145.77,258.79L145.82,260.25L145.93,254.7L146.65,255.01L146.71,256.17L146.99,254.73L147.04,259.75L147.37,255.19L147.43,250.06L147.71,258.74L148.2,258.18L148.26,256.3L148.48,255.16L148.59,255.94L148.65,253.25L148.7,259.36L149.37,252.72L149.42,255.95L149.48,258.5L149.59,253.25L149.98,257.02L150.03,260.16L150.75,255.45L150.81,257.63L150.86,258.55L151.31,254.58L151.36,259.62L151.53,257.41L151.58,258.09L151.75,252.21L152.08,259.3L152.36,255.4L152.41,254.63L152.64,256.9L152.91,255.75L152.97,250.34L153.13,259.33L153.8,256.9L153.85,250.42L154.19,260.01L154.63,259.73L154.68,255.64L155.07,259.23L155.46,256.78L155.52,257.3L155.57,257.97L156.01,254.45L156.07,254.4L156.18,259.08L156.9,258.73L156.96,258.07L157.4,250.62L157.51,258.78L157.68,255.56L157.73,256.78L158.01,255.91L158.23,259.75L158.28,256.12L158.51,254.36L158.84,260.74L159,256.6L159.06,254.99L159.45,259.59L159.84,257.16L159.89,255.77L160.06,259.72L160.39,254.2L160.67,258.15L160.72,259.17L161.22,254.78L161.5,255.87L161.55,259.64L162.11,251.49L162.33,257.83L162.38,259.06L162.83,255.26L163.1,258.64L163.16,260.81L163.27,255.87L163.99,256.3L164.04,256.06L164.32,255.21L164.38,259.84L164.65,255.62L164.71,255.33L164.76,251.7L165.04,258.93L165.43,255.52L165.48,257.64L165.54,258.26L165.87,255.71L165.93,257.32L165.98,253.31L166.04,259.77L166.7,252.95L166.76,255.94L166.92,253.86L167.37,259.79L167.48,256.69L167.53,256.67L167.75,259.45L168.09,255.8L168.14,258.47L168.2,258.92L168.53,255.98L168.59,258.58L168.64,255.42L168.7,260.48L169.08,253.49L169.42,259.06L169.47,258.66L169.75,253.46L170.19,255.61L170.25,258.4L170.36,251.72L170.47,260.07L171.02,255.97L171.08,256.51L171.19,248.3L171.24,258.17L171.52,257.46L171.58,257.89L171.91,260.81L172.19,255.06L172.24,259.12L172.46,255.38L172.79,259.64L173.02,257.36L173.07,257.07L173.4,253.38L173.46,258.67L173.79,256.87L173.85,255.47L173.96,253.98L174.07,257.31L174.35,255.9L174.4,254.55L174.57,259.75L175.07,258.6L175.12,251.39L175.4,258.91L175.9,256.01L175.95,257.25L176.17,260.98L176.28,256.8L176.34,256.65L176.78,259.64L177,254.58L177.06,256.19L177.11,257.32L177.17,257.5L177.23,255.71L177.28,259.3L177.39,259.74L177.78,251.28L178,257.49L178.06,258.34L178.11,258.71L178.28,255.24L178.33,256.06L178.39,253.16L179.05,260.41L179.16,258.68L179.22,256.89L179.33,259.35L179.61,255.16L179.66,257.4L179.72,252.73L180.38,260.46L180.49,257.03L180.55,256.5L181.05,258.97L181.1,255.57L181.16,258.37L181.21,258.43L181.71,260.24L182.1,253.97L182.15,256.74L182.32,258.52L182.76,253.29L182.82,255.9L182.87,257.61L182.93,258.06L183.15,256.28L183.21,254.39L183.37,254.13L183.48,259.22L183.98,258.01L184.04,255.57L184.2,252.08L184.31,258.63L184.81,256.79L184.87,257.69L184.92,259.77L185.09,255.78L185.59,258.26L185.64,256.53L185.81,259.48L186.25,258.18L186.31,256.01L186.42,251.81L186.47,258.22L186.59,256.94L186.64,259.05L186.81,259.43L187.42,254.72L187.47,256.45L187.53,257L187.58,256.8L187.64,251.89L187.8,259.69L188.41,255.61L188.47,255.53L188.52,251.18L188.86,259.78L189.19,257.36L189.24,257.93L189.3,259.71L189.47,256.45L189.91,256.87L189.96,255.93L190.07,258.66L190.63,256.63L190.68,254.97L190.79,256.46L190.85,259.4L191.46,254.61L191.57,259.5L191.68,257.07L191.74,257.89L192.07,252.7L192.18,258.81L192.46,257.63L192.51,257.53L192.9,259.96L193.18,254.73L193.23,256.36L193.29,258.93L193.51,260.72L193.73,255.19L194.06,256.23L194.12,259.39L194.34,254.23L194.73,259.5L194.84,257.64L194.89,258.37L194.95,258.56L195,254.96L195.11,252.08L195.45,259.28L195.72,253.88L195.78,256.61L196.33,254.31L196.39,260.62L196.55,257.19L196.61,256.76L196.66,259.57L197.05,252.8L197.38,257.92L197.44,258.06L197.55,255.15L197.72,260.19L198.05,257.89L198.1,259.14L198.22,256.01L198.38,259.16L198.88,256.49L198.94,258.61L199.05,260.15L199.43,253.22L199.71,257.6L199.77,257.8L199.82,258.6L200.1,254.33L200.43,256.86L200.49,256.6L200.71,254.36L200.82,259.23L201.21,256.17L201.26,257.39L201.54,253.08L201.65,258.68L201.98,257.72L202.04,257.11L202.26,260.13L202.54,255.75L202.76,258.96L202.81,256.66L203.14,259.89L203.59,258.88L203.64,256.49L203.75,249.68L204.09,259.11L204.31,256.07L204.36,255.61L204.47,255.14L204.53,257.48L204.58,258.04L204.97,253.14L205.14,259.72L205.3,258.36L205.36,258.21L205.69,259.18L205.86,251.41L206.14,254.71L206.19,259.13L206.63,260.21L206.69,256.17L206.91,256.56L206.97,258.45L207.08,259.85L207.3,255.93L207.74,257.36L207.8,257.08L208.07,254.82L208.18,259.1L208.41,256.93L208.46,255.62L208.9,259.39L209.24,257.57L209.29,257.22L209.4,253.86L209.51,259.09L209.96,257.24L210.01,257.51L210.18,260.26L210.51,255.14L210.68,255.81L210.73,258.33L210.84,260.8L211.01,256.52L211.06,256.01L211.45,259.69L211.73,255.76L211.84,257.12L211.9,256.57L212.06,260.16L212.39,252.77L212.67,258.42L212.73,259.27L212.84,255.04L213.5,256.22L213.56,259.66L214.11,253.5L214.33,258.08L214.39,258.59L214.83,255.75L215.11,259.18L215.16,261.37L215.27,255.66L215.99,256.18L216.05,256.94L216.27,258.95L216.33,255.9L216.38,260.3L216.77,253.33L217.16,258.58L217.21,257.27L217.43,254.18L217.6,258.35L217.88,254.64L217.93,258.98L218.04,254.28L218.15,259.77L218.71,255.63L218.76,258.12L218.87,253.26L218.98,258.61L219.48,257.22L219.54,257.91L219.59,260.16L220.2,256.29L220.26,258.28L220.31,256.96L220.48,259.68L220.98,256.19L221.03,255.65L221.09,252.5L221.42,259.35L221.75,255.45L221.81,255.73L222.31,253.54L222.47,259.88L222.58,258.02L222.64,258.02L222.92,255.18L222.97,256.33L223.03,259.27L223.19,251.68L223.53,259.37L223.8,258.16L223.86,257.65L223.97,259.91L224.02,256.22L224.08,256.98L224.13,255.65L224.41,259.83L224.91,258.49L224.97,257.63L225.41,255.31L225.52,259.22L225.8,255.66L225.85,257.46L226.02,257.75L226.13,255.72L226.18,256.99L226.24,259.73L226.74,253.73L227.01,256.43L227.07,257.45L227.51,260.32L227.62,256.25L227.73,258.02L227.79,255.94L227.85,255.18L228.12,259.06L228.18,260.96L228.73,255.66L228.95,256.15L229.01,256.45L229.34,256.16L229.4,259.83L229.67,256.24L229.73,254.24L230.06,259.37L230.5,257.24L230.56,255.85L230.89,259.64L231.06,255.57L231.39,258.03L231.45,252.69L231.72,258.97L232.22,255.7L232.28,258.21L232.5,261.39L232.61,256.44L233.05,257.09L233.11,259.38L233.66,255.93L233.72,260.24L233.88,258.45L233.94,258.95L234.1,251.23L234.44,259.57L234.71,255.62L234.77,256.08L235.32,253.64L235.38,259.97L235.54,257.07L235.6,257.28L235.65,259.35L236.04,253.71L236.37,258.54L236.43,258.5L236.71,260.25L236.93,255.31L237.04,258.77L237.09,259.73L237.65,255.6L237.87,256.28L237.93,257.7L238.04,260.47L238.42,253.55L238.59,257.44L238.65,259.23L238.76,259.76L239.14,255.02L239.48,256.72L239.53,257.39L239.59,257.67L239.64,253.8L239.81,259.82L240.36,259.73L240.42,256.07L240.53,251.64L240.86,260.03L241.19,258L241.25,258.45L241.3,260.15L241.58,256.74L241.91,257.86L241.97,257.35L242.08,259.02L242.74,255.2L242.8,257.05L243.13,255.97L243.57,259.56L243.63,258.44L244.07,252.89L244.13,259.05L244.35,256.59L244.4,257.99L244.85,260.3L245.18,255.81L245.24,256.65L245.51,261.12L245.73,256.48L246.01,257.76L246.07,256.35L246.68,255.93L246.73,259.69L246.84,258.33L246.9,258.27L246.95,258.58L247.01,256.04L247.06,254.23L247.4,259.72L247.84,256.99L247.89,256.06L248.23,260.35L248.39,255.81L248.72,258.8L248.78,253.26L249.28,259.83L249.56,256.22L249.61,258.45L249.83,260.87L249.94,256.42L250.39,256.99L250.44,259.11L251,256.64L251.05,260.07L251.44,252.24L251.83,257.61L251.88,256.89L251.94,255.18L252.21,258.37L252.55,256.81L252.6,259L252.71,260.1L253.38,252.43L253.43,257.52L253.6,255.05L254.04,260.6L254.15,257.29L254.21,256.86L254.26,256.15L254.43,259.93L254.82,258.25L254.87,258.67L255.37,260.31L255.76,253.68L255.81,257.86L256.09,259.33L256.42,254.57L256.53,258.66L256.59,257.86L256.92,259.36L257.03,254.74L257.09,256.65L257.14,260.47L257.86,250.84L257.92,259.14L258.08,256.45L258.53,257.84L258.58,260.82L258.86,255.58L259.36,258.64L259.41,257.96L259.47,259.88L260.02,256.35L260.08,253.66L260.13,259.15L260.85,256.89L260.91,256.85L261.13,255.97L261.24,259.93L261.63,258.55L261.68,256.99L261.8,252.25L262.07,259.38L262.4,257.26L262.46,257.94L262.85,261.16L263.07,256.17L263.18,256.63L263.24,257.9L263.46,259.77L263.68,256.08L263.96,259.22L264.01,256.3L264.07,260.01L264.45,253.45L264.79,259.64L264.84,256.35L265.06,253.42L265.17,258.36L265.62,257.9L265.67,254.72L265.73,261.14L266.39,252.73L266.45,257.87L266.61,255.36L267.06,260.56L267.11,256.77L267.17,256.84L267.44,259.45L267.56,256.42L267.67,257.04L267.72,259.13L267.78,255.67L268.39,260.44L268.44,257.07L268.5,258.83L268.66,256.35L268.72,256.8L268.77,254.05L269,259L269.55,258.77L269.6,258.35L270.05,254.94L270.16,260.29L270.32,255.97L270.38,258.07L270.43,259.41L270.88,253.6L271.04,257.78L271.1,256.87L271.15,256.53L271.43,258.5L271.54,258.22L271.6,259.9L271.82,256.39L272.37,257.43L272.43,258.27L272.48,259.99L273.04,255.88L273.09,251.65L273.48,259.98L273.87,258.53L273.92,258L274.31,254.11L274.48,259.74L274.59,258.04L274.64,258.87L275.03,259.47L275.2,252.4L275.25,258.45L275.31,259.05L275.42,254.96L275.53,260.07L275.86,258.18L275.92,258.71L275.97,260.29L276.25,256.84L276.58,257.29L276.64,257.16L276.75,258.79L276.8,256.92L277.3,257.93L277.36,256.66L277.41,254.67L277.52,259.34L278.02,256.95L278.08,258.02L278.24,259.37L278.74,253.58L278.8,259.12L278.85,259.01L279.24,256.38L279.52,260.06L279.63,256.92L279.68,256.97L279.85,255.49L280.18,261.16L280.46,257.57L280.51,256.29L280.79,260.01L281.29,259.3L281.35,256.25L281.4,260L281.79,252.55L282.12,259.06L282.18,256.09L282.34,256.61L282.4,253.38L283.06,261.19L283.17,259.24L283.23,257.27L283.34,260.42L283.73,252.97L284,257.94L284.06,258.73L284.23,256.88L284.34,258.34L284.39,260.37L284.61,255.83L285.17,258.75L285.22,259.04L285.72,260.4L286.11,254.03L286.16,258.14L286.33,259.26L286.77,254.87L286.88,258.34L286.94,258.71L287.38,254.37L287.49,259.63L287.66,256.4L287.71,258.2L287.77,259.73L288.21,253.22L288.38,257.66L288.43,256.91L288.93,260.34L289.1,257.15L289.15,256.24L289.82,260.06L289.93,257.95L289.99,257.8L290.21,259.25L290.43,252.51L290.59,257.57L290.65,259.31L290.82,259.77L291.15,255.48L291.43,255.67L291.48,257.22L291.59,257.54L291.65,255.14L291.81,260.59L292.37,259.94L292.42,256.4L292.53,252.59L293.31,260.67L293.36,256.73L293.59,256.6L293.75,260.23L294.14,257.79L294.19,257.03L294.75,256.13L294.86,260.06L294.97,258.85L295.02,256.39L295.14,256.03L295.58,259.55L295.91,258L295.97,257.15L296.08,253.94L296.19,259.16L296.63,257.66L296.69,258.27L296.91,260.38L297.18,255.76L297.41,258.55L297.46,259.08L297.52,261.2L298.07,255.87L298.18,259.18L298.24,258.48L298.74,259.78L299.07,254.28L299.12,258.8L299.4,259.78L299.51,255.87L299.9,256.27L299.95,257.03L300.12,257.44L300.18,257.07L300.23,260.26L300.78,253.27L301.01,258.5L301.06,259.07L301.28,259.66L301.56,255.88L301.78,259.5L301.84,261.66L302.06,256.83L302.67,257.51L302.72,257.89L303.06,260.51L303.44,253.86L303.5,257.8L303.55,255.7L303.66,259.58L304.22,258.82L304.27,258.72L304.72,254.66L304.83,259.97L304.99,256.4L305.05,258.85L305.1,259.83L305.49,255.65L305.55,253.8L306.27,260.3L306.32,257.68L306.38,258.29L306.49,256.44L306.71,259.9L307.1,258.15L307.15,259.92L307.76,253.37L307.93,257.25L307.98,259.07L308.15,259.85L308.76,255.36L308.82,257.59L308.98,254.78L309.15,260.27L309.54,257.58L309.59,255.74L309.7,259.76L309.76,256.06L309.87,251.92L310.2,260.44L310.64,260.21L310.7,257.38L310.81,256.78L311.14,260.64L311.47,257.84L311.53,257.46L312.08,255.95L312.19,259.95L312.3,259.15L312.36,256.45L312.58,258.45L312.8,256.07L312.86,257.32L312.91,260.03L313.41,253.52L313.69,257.13L313.74,258.13L314.08,257.05L314.19,260.35L314.24,259.95L314.3,256.51L314.52,256.01L314.85,260.93L315.07,257.12L315.13,257.57L315.41,255.97L315.46,259.92L315.79,258.25L315.85,258.36L316.07,260.26L316.4,254.32L316.57,258.18L316.62,258.02L316.74,259.66L317.01,255.62L317.18,257.38L317.23,256.09L317.57,260.68L318.06,259.01L318.12,253.67L318.62,260.13L318.9,256.56L318.95,259.08L319.06,256.9L319.17,261.19L319.67,258.02L319.73,258.04L320.33,257.05L320.39,260.53L320.5,258.89L320.56,258.77L320.78,252.81L321.11,259.82L321.39,255.94L321.44,256.73L322,254.61L322.05,260.33L322.22,258.29L322.27,258.19L322.33,259.71L322.72,253L322.88,259.5L322.94,255.2L323.38,259.7L323.77,259.64L323.82,257.58L324.05,259.19L324.32,256.4L324.43,256.81L324.49,258.7L324.71,259.9L325.1,253.71L325.26,257.64L325.32,258.89L325.49,259.97L326.09,255.14L326.15,257.21L326.32,254.98L326.48,260.52L326.87,257.57L326.93,256.33L326.98,256.18L327.04,259.56L327.2,251.96L327.53,260.25L327.76,257.46L327.81,258.52L327.87,258.34L327.98,260.38L328.03,256.53L328.42,259.98L328.81,257.51L328.86,257.87L328.97,258.52L329.36,256.4L329.42,254.92L330.25,259.8L330.3,258.84L330.75,253.94L330.86,259.26L331.08,258.12L331.13,258.5L331.41,257.02L331.52,260.03L331.58,260.22L331.85,256.23L332.19,261.07L332.35,257.35L332.41,257.9L332.74,256.63L332.8,259.9L332.96,257.5L333.02,256.79L333.35,256.25L333.41,260.48L333.68,256.85L333.74,254.3L334.07,260.13L334.51,257.06L334.57,256.41L334.9,260.77L335.4,259.39L335.45,253.71L335.95,259.87L336.17,256.88L336.23,255.6L336.51,260.77L337.01,258.57L337.06,257.31L337.67,256.84L337.73,260.9L337.84,259.3L337.89,258.93L338.11,253.32L338.22,257.15L338.28,258.74L338.45,259.4L338.56,257.13L338.61,255.69L338.89,259.07L339.28,259.03L339.33,253.87L339.39,260.3L340.05,253.42L340.11,258.45L340.16,259.43L340.22,259.22L340.27,256.22L340.72,260.37L341.1,259.76L341.16,257.24L341.82,259.48L341.88,256.78L342.05,260L342.43,254.19L342.65,259.55L342.71,257.78L342.77,259.8L343.1,255.74L343.43,257.19L343.49,258L343.71,255.8L343.82,260.54L344.04,258.42L344.09,260.52L344.54,252.1L344.81,257.36L344.87,258.7L345.04,257.52L345.2,258.93L345.26,261.32L345.53,255.93L346.03,258.86L346.09,257.82L346.14,260.36L346.75,254.21L346.81,259.01L346.86,256.67L347.03,259.13L347.31,256.02L347.58,257.12L347.64,257.38L347.92,260.06L348.25,256.34L348.41,259.44L348.47,254.1L348.97,259.56L349.24,257.14L349.3,258.34L349.52,261.43L349.74,257.34L349.8,257.97L349.85,257.17L350.13,260.08L350.57,256.44L350.63,259.32L350.68,256.68L350.74,260.38L351.13,254.2L351.46,259.41L351.52,256.94L351.74,254.8L351.85,258.96L352.29,258.48L352.35,255.3L352.4,261.36L353.07,253.14L353.12,258.91L353.18,259.01L353.29,256.33L353.73,260.71L353.79,257.21L354.12,260.19L354.34,256.26L354.62,258.26L354.67,257.73L355,256.63L355.06,261.06L355.28,258.75L355.34,256.78L355.45,254.69L355.5,258.02L355.56,255.28L355.78,259.48L356.22,258.58L356.28,258.48L356.72,255.04L356.83,260.04L357,256.03L357.05,258.58L357.11,260.21L357.55,254.1L357.72,257.91L357.77,257.65L357.94,258.9L358.05,257.38L358.22,258.48L358.27,260.48L358.55,256.02L359.05,257.96L359.1,257.76L359.16,260.48L359.71,256.46L359.77,252.31L360.16,260.3L360.54,259.12L360.6,258.28L360.93,258.37L361.1,255.28L361.15,260.34L361.87,252.07L361.93,259.05L361.98,259.65L362.15,254.81L362.2,260.06L362.48,258.34L362.54,258.57L362.65,260.28L362.7,257.33L363.2,257.52L363.26,257.81L363.42,258.95L363.92,257.31L363.98,257.17L364.09,255.42L364.2,259.65L364.53,258L364.59,258.48L364.92,260.12L365.42,254.32L365.47,259.57L365.53,259.41L365.58,256.83L366.25,260.35L366.41,258.03L366.47,256.48L366.52,256.14L366.64,259.3L366.75,259.1L366.8,259.6L366.86,261.21L367.41,256.9L367.52,259.28L367.58,259.02L368.08,260.34L368.46,254.68L368.52,257.68L368.8,259.41L368.85,257.35L368.91,257.17L369.02,257.01L369.07,254.74L369.74,261.08L369.9,258.32L369.96,257.1L370.01,260.42L370.4,253.46L370.73,259.41L370.79,258.51L370.9,256.43L371.07,260.66L371.4,258.28L371.45,260.19L371.56,256.35L372.23,257.84L372.28,259.01L372.39,260.62L372.78,255.09L373.06,257.64L373.11,259.23L373.28,256.04L373.5,256.84L373.56,258.76L373.83,257.15L373.95,259.11L374,257.62L374.06,255.38L374.17,260.24L374.78,257.99L374.83,256.13L374.89,254.04L375,259.3L375.5,258.24L375.55,259.06L375.61,260.38L375.77,256.63L376.27,259.04L376.33,257.33L376.49,259.92L376.71,258.05L376.77,258.06L376.88,259.46L376.99,256.27L377.05,256.91L377.1,253.8L377.49,260.27L377.88,259.55L377.93,257.84L378.1,256.38L378.15,257.09L378.21,258.25L378.43,255.61L378.49,260.33L378.99,256.29L379.04,260.37L379.21,252.33L379.82,258.12L379.87,258.51L380.26,257L380.48,260.54L380.54,257.54L380.7,257.22L380.76,259.03L381.26,258.04L381.31,257.4L381.42,255.62L381.53,259.55L381.92,258.13L381.98,258.54L382.25,260.07L382.75,253.34L382.81,259.29L382.92,256.95L383.47,257.79L383.53,260.11L383.58,260.65L383.8,257.11L383.86,255.51L384.19,261.26L384.69,258.73L384.75,256.55L385.41,260.36L385.52,259.35L385.58,259.24L385.74,254.9L386.07,259.94L386.35,256.57L386.41,258.7L386.57,256.54L386.85,257.81L386.91,260.69L387.46,254.31L387.68,259.08L387.74,258.7L387.96,260.25L388.23,255.77L388.4,257.42L388.46,259.66L388.51,261.23L388.84,257.12L389.18,259.07L389.23,258.69L389.34,257.07L389.45,258.84L389.56,257.36L389.62,259.04L389.73,260.97L390.12,254.94L390.28,258L390.34,260L390.84,256.4L391.11,257.98L391.17,257.46L391.39,255.73L391.5,260.41L391.89,257.6L391.95,257.89L392.22,253.67L392.33,259.42L392.67,258.31L392.72,257.35L392.94,260.89L393.16,256.77L393.44,260.35L393.5,257.34L393.83,260.48L394.27,258.91L394.33,257.01L394.38,257.31L394.44,253.6L394.49,259.24L394.55,256.01L394.66,260.08L395.21,258.72L395.27,258.49L395.77,255.4L395.82,260.74L396.54,252.66L396.6,258.94L396.65,259.93L396.82,255.75L396.87,260.01L397.26,258.7L397.32,260.48L397.59,256.95L397.82,260.92L398.09,259.15L398.15,258.09L398.26,258.88L398.65,257.93L398.7,256.31L398.87,259.88L398.98,259.36L399.03,256.8L399.14,256.49L399.2,258.19L399.26,258.45L399.48,256.51L399.59,259.84L399.86,257.71L399.92,258.94L400.09,254.19L400.2,259.51L400.58,257.17L400.64,258.29L400.75,256.99L400.92,260.01L400.97,256.57L401.19,256.53L401.53,261.45L401.75,257.91L401.8,258.22L402.08,256.53L402.14,260.01L402.47,258.74L402.52,258.73L402.74,260.35L403.08,255.57L403.3,258.01L403.35,259.16L403.41,260.27L403.52,256.49L404.02,258.35L404.07,258.1L404.24,260.99L404.41,256.91L404.68,257.95L404.74,259.4L404.79,254.33L405.29,259.98L405.51,257.1L405.57,256.16L405.85,261.41L406.34,258.87L406.4,257.57L407.01,256.81L407.06,260.6L407.18,259.44L407.23,259.36L407.45,253.98L407.62,258.4L407.67,258.89L407.78,260L407.84,258.23L407.9,256.71L408.01,257.04L408.06,256.43L408.12,256.75L408.17,259.53L408.67,253.65L408.73,260.63L408.95,258.28L409,260.02L409.39,253.83L409.78,258.92L409.83,258.27L410.28,256.91L410.44,260.23L410.55,257.32L410.61,258.36L411.16,259.06L411.33,256.96L411.38,260.72L411.77,254.22L412.1,260.36L412.16,259.99L412.77,256.09L412.99,256.25L413.05,258.83L413.1,255.87L413.16,260.54L413.77,256.64L413.82,258.7L413.88,252.14L414.21,260.48L414.54,258.43L414.6,258.98L415.1,260.73L415.21,257.34L415.32,258.12L415.37,257.85L415.59,259.37L416.04,256.94L416.09,255.86L416.92,260.55L416.98,259.37L417.42,254.01L417.53,259.8L417.7,257.58L417.75,258.88L418.2,260.35L418.53,255.66L418.58,257.41L418.64,259.63L418.86,261.46L419.42,256.59L419.47,259.98L419.91,257.21L420.08,260.1L420.25,259.21L420.3,258.83L420.41,255.46L420.74,260.12L421.02,256.32L421.08,258.59L421.58,260.5L421.74,256.67L421.8,259.81L422.13,254L422.57,258.54L422.63,260.59L422.9,255.96L423.18,261.34L423.4,256.34L423.46,258.94L423.73,257.66L423.79,259.95L424.23,258.01L424.29,259.19L424.4,261.13L424.79,254.37L425.01,258.93L425.06,259.39L425.12,259.81L425.29,256.24L425.62,258.25L425.67,257.63L426.01,253.85L426.06,261.06L426.28,258.33L426.34,260.12L426.73,253.34L427.11,259.03L427.17,257.98L427.61,257.19L427.78,260.11L427.89,258.07L427.94,258.22L428.05,259.19L428.11,257.82L428.44,258.97L428.5,259.1L428.72,260.47L429.11,253.75L429.27,258.17L429.33,259.98L429.44,260.48L429.77,256.11L430.1,257.59L430.16,258.41L430.38,255.89L430.77,260.57L430.93,257.65L430.99,258.51L431.1,257.7L431.16,258.15L431.21,251.6L431.93,261.26L431.99,257.25L432.04,258.28L432.15,258.1L432.21,256.21L432.43,260.69L432.98,258.83L433.04,257.88L433.21,259.38L433.37,256.23L433.43,253.16L433.7,259.51L434.2,258.02L434.26,257.37L434.59,260.67L434.92,256.41L434.98,258.39L435.03,257.51L435.14,253.79L435.64,259.92L435.75,257.74L435.81,258.1L435.92,256.62L436.2,261.36L436.53,257.59L436.58,258.36L436.75,257.08L436.81,259.96L437.3,259.71L437.36,257.41L437.8,254.58L438.13,260.39L438.19,256.9L438.41,256.15L438.58,259.19L438.97,257.58L439.02,255.45L439.08,261.62L439.74,253.19L439.8,258.57L439.85,259.1L439.96,256.98L440.41,260.86L440.46,257.15L440.79,260.5L441.01,256.74L441.29,258.52L441.35,258.2L441.73,260.49L442.01,256.99L442.07,257.79L442.12,254.66L442.34,259.74L442.9,259.6L442.95,258.95L443.4,255.76L443.51,260.18L443.67,257.11L443.73,259.27L443.78,260.61L444.23,254.05L444.39,257.55L444.45,258.4L444.95,260.38L445.17,257.13L445.22,257.17L445.28,259.48L445.67,257.23L445.83,260.45L446.11,257.55L446.17,259.56L446.22,260.06L446.33,256.81L446.39,257.45L446.44,252.69L446.83,260.31L447.22,259.5L447.27,259.11L447.77,255.77L447.83,260.45L447.99,259.01L448.05,258.95L448.38,260.15L448.55,251.78L448.6,259.23L448.82,256.52L449.32,260.62L449.38,257.83L449.6,257.39L449.65,259.46L449.76,260.55L449.99,257.23L450.43,258.28L450.48,258.75L450.71,257.04L450.76,256.42L450.87,259.85L451.15,256.12L451.48,257.45L451.54,257.53L451.59,259.9L452.09,253.84L452.26,257.15L452.31,258.28L452.48,259.26L452.59,257.29L452.81,258.84L452.87,260.27L453.2,255.54L453.53,261.63L453.7,258.21L453.75,257.85L453.86,256.84L454.14,260.51L454.53,258.05L454.58,257.41L454.75,260.56L455.14,254.49L455.3,258.98L455.36,258.19L455.47,259.82L455.75,256.15L456.08,257.48L456.13,256.95L456.36,255.65L456.41,261.47L456.91,259.58L456.96,256.42L457.08,252.61L457.74,260.78L457.8,257.48L458.13,260.71L458.24,257.1L458.57,259.62L458.63,258.12L458.96,259.23L459.01,257.15L459.07,261.25L459.46,254.96L459.84,259.29L459.9,258.48L460.12,256.17L460.23,259.48L460.56,258.09L460.62,260.18L460.73,256.13L461.12,260.33L461.4,257.07L461.45,258.39L461.56,253.79L461.67,259.54L462.12,258.84L462.17,258.34L462.28,260.84L462.45,257.19L462.78,260.01L462.84,257.94L463.17,260.45L463.39,257.86L463.61,258.96L463.67,257.09L463.78,254.06L464.11,260.12L464.33,258.2L464.39,256.97L464.55,259.25L464.77,256.14L465.05,258.43L465.11,255.48L465.16,260.34L465.83,259.17L465.88,253.12L466.66,260.49L466.71,257.77L466.93,257.15L467.1,260.46L467.49,258.19L467.54,257.76L468.04,256.91L468.21,259.71L468.32,259.14L468.37,257L468.48,256.61L468.93,260.06L469.2,258.03L469.26,258.63L469.43,254.11L469.48,259.28L469.54,259.76L469.59,256.64L470.04,258.44L470.09,257.98L470.53,256.07L470.87,261.45L470.92,259.47L471.42,256.89L471.48,260.25L471.7,257.41L471.75,258.91L472.08,260.6L472.42,255.88L472.47,259.31L472.75,259.93L472.86,256.94L473.25,257.07L473.3,258.06L473.58,260.87L473.75,256.99L474.08,259.6L474.13,254.29L474.63,260.21L474.85,257.42L474.91,256.45L475.19,261.68L475.68,258.85L475.74,257.92L476.35,257.3L476.4,260.61L476.51,259.56L476.57,259.48L476.79,255.61L477.01,260.26L477.35,257.31L477.4,257.38L477.95,259.91L478.07,255.85L478.12,258.03L478.18,260.46L478.51,256.93L478.79,258.65L478.84,256.58L478.9,254.43L479.01,259.63L479.51,258.44L479.56,259.18L479.62,260.56L479.84,256.98L480.28,259.2L480.34,258.2L480.5,260.62L480.95,258.97L481,257.37L481.11,253.8L481.44,260.53L481.78,258.21L481.83,256.51L482.44,255.99L482.55,260.37L482.61,259.06L482.66,258.96L482.83,259.24L482.94,257.79L482.99,256.88L483.05,260.44L483.22,252.92L483.71,258.29L483.77,258.21L484.05,257.43L484.49,260.97L484.55,258.29L484.66,257.87L484.77,259.64L484.99,258.59L485.04,257.79L485.43,256.92L485.65,260.07L485.71,256.79L485.82,255.58L486.26,260.12L486.48,257.85L486.54,257.93L486.76,254.53L486.82,259.59L487.2,258.66L487.26,257.09L487.59,260.58L487.87,256.81L488.09,259.2L488.15,259.86L488.2,261.65L488.75,256.81L488.87,259.24L488.92,259.07L489.03,257.42L489.42,260.22L489.53,259.32L489.59,259.32L489.75,254.87L489.97,258.8L490.03,259.61L490.08,259.84L490.14,258.44L490.19,256.67L490.91,260.76L491.03,259.98L491.08,257.47L491.14,260.23L491.47,254.4L491.86,259.56L491.91,258.85L492.24,256.12L492.52,261.38L492.58,259.7L492.63,257.67L493.07,257.6L493.13,260.16L493.41,258.99L493.46,258.8L493.68,257.32L493.74,261.15L494.07,257.53L494.13,253.43L494.85,259.89L494.9,259.56L494.96,258.74L495.35,254.32L495.4,260.98L495.62,258.55L495.68,260.53L496.07,253.31L496.45,258.99L496.51,258.19L496.73,260.14L496.79,256.82L497.06,259.55L497.12,260.23L497.34,257.12L497.89,257.32L497.95,258.8L498.06,261.17L498.45,254.26L498.61,258.41L498.67,259.6L498.83,260.22L499.06,256.49L499.44,256.9L499.5,258.5L499.61,258.35L499.67,256.89L499.78,255.73L500.38,260.74L500.44,257.13L500.55,251.61L500.88,260.57L501.22,258.87L501.27,259.38L501.6,257.28L501.77,260.7L501.94,258.34L501.99,258.02L502.38,257.96L502.54,259.4L502.66,259.12L502.71,257.14L502.77,256.32L502.88,259.81L503.38,258.14L503.43,259.5L503.6,260.5L504.1,254.3L504.15,259.63L504.21,259.87L504.59,257.32L504.93,260.47L504.98,257.88L505.04,257.82L505.2,256.34L505.54,261.68L505.81,258.25L505.87,257.28L506.14,260.51L506.64,259.48L506.7,257.4L507.09,255.5L507.42,260.5L507.47,258.7L507.53,256.79L507.75,259.47L508.14,258.92L508.19,257.33L508.25,260.72L508.8,254.47L508.91,259.49L508.97,257.34L509.3,260.29L509.58,256.14L509.69,259.4L509.74,257.8L509.86,261.49L509.97,257.34L510.46,260.04L510.52,258.79L511.02,257.7L511.07,261.07L511.3,259.36L511.35,257.58L511.46,254.53L511.79,260.21L512.07,257.42L512.13,257.99L512.68,255.35L512.74,260.9L512.9,259.12L512.96,258.73L513.01,260.64L513.4,253.16L513.73,259.74L513.79,259.16L514.06,260.23L514.29,257.05L514.56,258.52L514.62,258.47L514.9,259.66L515.23,257.9L515.28,258.78L515.34,257.5L515.39,260.99L515.78,254.76L516.11,259.99L516.17,260.47L516.45,256.82L516.89,258.05L516.94,260.6L517,256.07L517.17,260.67L517.66,258.69L517.72,258.48L517.83,258.81L517.89,252.17L518.61,261.05L518.66,257.23L518.72,258.81L518.88,256.35L519.1,260.63L519.33,258.19L519.38,259.22L519.49,260.05L520.1,254.77L520.16,259.46L520.38,259.58L520.66,256.64L520.93,258.13L520.99,258.23L521.26,260.89L521.6,257.3L521.76,259.67L521.82,253.76L522.32,260.06L522.59,257.4L522.65,258.53L522.87,261.54L523.2,257.74L523.37,259.17L523.42,257.57L523.48,260.48L524.03,257.36L524.2,259.53L524.26,259.43L524.48,255.11L524.81,260.54L525.09,256.9L525.14,258.28L525.69,256.25L525.75,261.18L525.86,259.82L525.92,258.36L526.03,260.79L526.14,257.82L526.25,259.91L526.3,256.24L526.41,253.94L527.08,260.5L527.13,257.86L527.25,257.73L527.3,257.88L527.36,259.38L527.47,260.45L527.63,257.48L528.13,258.84L528.19,258.94L528.41,261.08L528.8,255.15L528.96,258.13L529.02,259.86L529.46,256.76L529.63,259.95L529.85,257.49L529.9,257.75L530.07,256.59L530.18,260.48L530.68,259.01L530.73,257.34L530.79,259.72L530.9,254.43L531.45,258.84L531.51,258.44L531.62,260.96L531.79,257.32L532.17,258.04L532.23,257.9L532.51,260.84L532.95,259.38L533.01,257.09L533.12,253.82L533.45,261.09L533.78,258.12L533.84,257.41L534.45,256.15L534.5,261.11L534.61,258.72L534.67,259.42L535,256.67L535.05,260.52L535.17,259.58L535.22,252.43L536,260.98L536.05,257.78L536.27,257.28L536.44,260.89L536.83,258.31L536.88,258.26L537.44,257.13L537.55,259.96L537.66,259.37L537.71,257.23L537.82,256.15L538.27,260.99L538.43,259.2L538.49,258.27L538.6,258.74L538.71,258.27L538.77,254.16L539.54,260.26L539.6,261.02L539.87,256.39L540.21,261.59L540.37,258.35L540.43,257.86L540.76,257.12L540.81,260.39L541.2,258.7L541.26,258.07L541.42,260.51L541.81,255.62L541.98,259.26L542.03,258.4L542.14,260.4L542.42,257L542.75,258.3L542.81,257.65L543.03,256.29L543.09,261.45L543.58,260.25L543.64,256.86L543.75,253.43L544.41,261.07L544.47,257.62L544.58,257.41L544.8,260.73L545.25,259.8L545.3,258.63L545.47,258.26L545.63,259.63L545.69,257.37L545.74,261.46L546.13,256.23L546.46,259.38L546.52,259.79L546.63,256.72L546.91,259.82L547.24,258.04L547.29,259.89L547.41,256.74L547.52,260.84L548.07,257.66L548.13,259.15L548.24,254.64L548.35,259.64L548.85,258.72L548.9,259.74L548.96,260.59L549.23,256.97L549.51,258.24L549.57,258.07L549.84,260.59L550.06,257.73L550.29,259.79L550.34,257.15L550.45,254.09L550.78,260.46L551.12,257.91L551.17,257.19L551.78,256.58L551.84,260.7L551.95,259.25L552,259.52L552.33,257.31L552.39,260.49L552.56,252.68L552.89,260.65L553.16,259.02L553.22,259.37L553.33,261.01L553.39,258.14L553.44,258.63L553.5,257.37L553.83,261.35L554.33,258.93L554.38,259.07L554.88,259.86L555.16,255.72L555.21,258.67L555.6,260.54L555.88,257.67L555.93,259.52L556.1,254.46L556.21,260L556.6,257.62L556.65,258.48L557.21,256.92L557.54,261.2L557.6,259.47L558.09,257.7L558.15,260.42L558.37,257.79L558.43,259.08L558.76,260.42L559.09,255.52L559.2,257.6L559.26,259.22L559.42,260.37L559.53,257.18L559.59,256.71L560.25,260.97L560.36,259.79L560.42,257.29L560.48,260.57L560.81,254.14L561.14,258.11L561.2,258.64L561.31,260.5L561.53,257.98L561.58,256.01L561.86,261.8L562.36,259.71L562.41,257.94L563.02,257.62L563.08,260.99L563.19,260.18L563.24,259.35L563.47,255.5L563.69,259.95L564.13,256.78L564.19,257.33L564.74,256.51L564.85,260.65L564.96,259.67L565.02,256.74L565.13,260.87L565.57,254.34L565.79,259.09L565.85,257.57L566.29,260.86L566.57,257.49L566.62,259.54L566.68,258.35L567.01,258L567.18,260.52L567.4,258.59L567.45,258.51L567.79,254.29L568.12,260.49L568.17,260.42L568.23,257.84L568.4,256.81L568.56,259.85L568.95,259.24L569,257.49L569.12,256.28L569.17,260.95L569.72,260.67L569.78,257.73L569.89,252.44L570.67,260.83L570.72,258.38L570.83,257.48L571.11,261.12L571.5,258.68L571.55,258.55L572.11,257.1L572.33,260.03L572.38,257.56L572.49,256.84L572.94,260.24L573.16,258.53L573.21,257.77L573.44,254.67L573.55,259.94L573.99,258.36L574.04,258.93L574.27,261.01L574.54,256.97L574.71,258.49L574.76,259.61L574.88,261.82L575.1,257.81L575.15,259.07L575.21,257.48L575.43,257.18L575.48,260.51L575.98,260.2L576.04,257.28L576.09,260.98L576.43,255.64L576.76,260.51L576.81,258.47L576.87,257L577.15,259.13L577.53,258.11L577.59,261.09L578.14,254.46L578.36,259.47L578.42,259.25L578.64,260.63L578.92,256.39L579.08,257.82L579.14,260.26L579.19,261.98L579.42,257.51L579.86,259.33L579.91,259.54L580.41,261.35L580.8,254.28L580.86,257.87L581.13,260.43L581.3,256.8L581.47,257.72L581.52,260L582.02,255.66L582.07,261.21L582.3,258.98L582.35,260.6L582.74,253.11L583.13,259.22L583.18,258.62L583.24,258.48L583.29,259.13L583.35,258.72L583.4,260.63L583.46,257.36L584.12,257.96L584.18,259.12L584.57,257.46L584.73,261.3L584.79,257.06L585.12,255.06L585.45,260.67L585.51,260.24L585.56,257.71L585.84,256.72L585.9,260.22L586.06,259.09L586.12,256.69L586.45,256.37L586.51,261.03L586.89,258.76L586.95,257.85L587.06,260.87L587.23,252.1L587.5,257.02L587.56,260.27L588,261.02L588.17,257.61L588.33,259.49L588.39,258.24L588.5,261.12L588.67,258.03L589.16,259.42L589.22,259.61L589.55,260.23L589.83,256.26L589.99,258.82L590.05,258.95L590.22,258.49L590.27,260.68L590.77,252.69L591.05,257.48L591.1,259.32L591.27,257.93L591.6,260.6L591.66,257.48L591.88,256.78L592.21,261.51L592.49,259.1L592.54,257.9L592.76,256.89L592.82,260.31L593.32,260.12L593.37,257.91L593.43,261.12L593.76,255.42L594.09,260.57L594.15,258.93L594.26,257.14L594.43,259.42L594.87,257.81L594.92,261.07L595.48,254.17L595.7,258.86L595.75,259.36L595.98,260.36L596.25,255.55L596.42,258.13L596.47,260.38L596.53,262.16L596.64,257.72L597.19,259.55L597.25,259.58L597.75,261.6L598.14,254.61L598.19,257.65L598.47,260.42L598.63,257.22L598.75,257.41L598.8,257.09L599.35,255.08L599.41,261.26L599.58,259.14L599.63,259.05L599.69,260.38L600.07,253.41L600.24,258.66L600.3,257.09L600.74,260.57L601.13,260.4L601.18,258.64L601.4,259.97L601.46,257.7L601.79,259.06L601.85,259.59L602.07,261.25L602.46,254.96L602.62,258.82L602.68,259.8L603.06,257.19L603.23,260.04L603.45,257.89L603.51,258.93L603.73,256.87L603.84,261.15L604.06,259.52L604.12,260.84L604.56,252.13L604.89,259.36L604.95,258.98L605.06,257.71L605.22,259.4L605.28,261.58L605.56,256.39L606.06,259.47L606.11,257.94L606.17,260.3L606.78,255.61L606.83,259.84L606.89,257.09L607.05,259.86L607.66,258.34L607.72,259.65L607.94,260.82L608.49,254.21L608.55,259.07L608.77,260.14L609.27,257.08L609.32,259.24L609.54,261.8L609.88,257.49L609.93,259.03L609.99,259.97L610.1,257.4L610.15,260.59L610.6,257.86L610.65,260.22L610.76,260.69L611.15,255.74L611.37,258.85L611.43,259.99L611.48,260.76L611.76,256.42L611.98,258.87L612.04,257.61L612.37,255.93L612.42,261.41L612.81,258.82L612.87,258.31L613.09,253.64L613.42,259.94L613.64,259.03L613.7,259.15L613.75,261.14L613.81,257.77L614.42,259.94L614.47,257.7L615.08,261.25L615.25,259.58L615.3,259.29L615.47,255.55L615.69,259.87L616.08,257.49L616.14,257.23L616.74,256.17L616.86,260.86L616.97,259.9L617.02,257.95L617.13,261.29L617.58,254.59L617.74,258.32L617.8,258.83L618.3,261.01L618.57,257.5L618.63,260L619.02,258.17L619.18,260.52L619.46,258.42L619.51,260.09L619.68,257.96L619.74,259.44L619.79,254.61L620.12,260.82L620.57,259.88L620.62,258.88L620.79,256.87L620.95,259.41L621.12,257.26L621.18,260.86L621.9,253L621.95,259.92L622.17,257.12L622.23,260.67L622.56,258.97L622.62,260L622.84,257.64L623.17,261.6L623.28,258.68L623.34,257.85L623.78,259.44L624,258.56L624.06,257.61L624.11,256.82L624.22,260.2L624.72,258.54L624.78,258.97L624.94,260.52L625.44,254.17L625.5,259.75L625.61,257.14L626.27,260.65L626.33,257.56L626.55,256.41L626.88,261.56L627.05,258.13L627.1,257.74L627.43,257.21L627.49,260.49L627.88,258.53L627.93,258.18L628.1,260.86L628.49,255.35L628.71,259.11L628.76,260.04L628.82,260.81L629.09,257.14L629.32,259.44L629.37,257.31L629.7,256.47L629.76,261.65L630.15,259.22L630.2,258.46L630.26,260.06L630.42,253.18L630.92,258.3L630.98,259.23L631.09,261.3L631.59,257.52L631.64,258.76L631.7,258.18L631.81,257.7L632.42,261.62L632.47,258.68L632.81,255.91L633.03,260.12L633.19,259.35L633.25,258.77L633.47,257.11L633.58,260.08L633.91,257.95L633.97,260.49L634.08,256.49L634.47,261.16L634.74,257.96L634.8,259.21L634.91,255.09L635.46,259.55L635.52,258.49L635.57,259.79L635.63,261.01L635.91,257.27L636.18,258.24L636.24,257.7L636.52,260.65L636.96,259.74L637.01,257.15L637.13,255.06L637.46,260.64L637.79,257.84L637.85,257.21L638.45,256.21L638.51,261.01L638.62,259.5L638.68,259.64L639.01,257.3L639.06,260.93L639.17,259.26L639.23,253.01L640.01,261.11L640.06,258.39L640.17,257.86L640.5,261.23L640.78,259.83L640.84,258.35L641.45,256.68L641.56,260.21L641.67,259.7L641.72,257.82L641.83,256.96L642.28,260.48L642.44,259.84L642.5,258.4L642.77,254.21L642.89,260.57L643.16,259.33L643.22,259.29L643.55,260.87L643.88,255.98L643.94,257.77L643.99,260.38L644.21,261.69L644.55,257.51L644.77,258.01L644.82,260.9L645.38,257.84L645.6,259.61L645.65,259.47L645.77,255.73L646.1,260.24L646.37,257.97L646.43,259.65L646.6,257.37L646.93,261.25L647.09,257.9L647.15,260.62L647.48,254.73L647.93,259L647.98,260.4L648.26,256.37L648.53,261.23L648.76,257.98L648.81,259.73L649.14,260.1L649.31,258.38L649.59,258.42L649.64,259.46L649.75,261.63L650.14,255.74L650.42,258.66L650.47,260.13L650.81,257.27L651.25,258.19L651.3,260.21L651.41,256.77L651.8,261.09L652.08,257.52L652.13,259.53L652.25,254.49L652.3,259.89L652.8,259.36L652.85,259.03L652.97,260.99L653.19,257.53L653.46,260.26L653.52,258.11L653.85,260.94L654.02,259.07L654.07,258.56L654.24,260.66L654.35,257.47L654.4,259.08L654.46,254.37L654.85,260.73L655.24,260.3L655.29,259.05L655.62,259.46L655.79,256.34L655.84,261.41L656.56,253.22L656.68,259.86L656.73,259.47L656.79,257.04L657.34,260.93L657.51,258.09L657.56,258.45L657.62,257.95L657.84,261.08L658.23,258.65L658.28,259.01L658.56,259.72L658.72,258.11L658.78,256.59L658.89,260.1L659.61,260.05L659.67,258.65L660.11,254.32L660.22,260.04L660.44,259.56L660.5,259.47L660.94,261.18L661.22,256.58L661.27,257.84L661.33,260.07L661.55,261.67L662.1,257.32L662.16,260.83L662.71,257.87L662.77,261.17L662.93,259.84L662.99,259.45L663.1,255.77L663.43,260.18L663.71,257.51L663.76,259.43L663.93,257.75L664.21,258.06L664.26,261.03L664.82,254.48L665.04,258.92L665.09,259.87L665.32,260.31L665.59,256.56L665.81,260.23L665.87,261.59L666.2,258L666.7,258.76L666.76,259.23L666.98,259.38L667.03,257.92L667.09,261.38L667.48,255.4L667.86,259.08L667.92,257.9L668.08,256.86L668.25,259.78L668.47,258.23L668.53,259.76L668.69,255.58L668.75,260.93L669.3,257.07L669.36,259.02L669.41,254.32L670.08,260.97L670.13,258.03L670.3,257.41L670.47,260.62L670.96,259.72L671.02,258.55L671.41,261.07L671.46,257.14L671.63,259.7L671.68,257.39L671.8,254.03L672.18,260.67L672.4,257.18L672.46,257.7L672.52,257.21L672.57,260.13L673.01,257.82L673.07,259.34L673.12,256.34L673.18,261.08L673.79,257.98L673.84,259.56L673.9,252.77L674.23,260.63L674.56,259.7L674.62,260.22L674.95,258.14L675.17,261.52L675.28,258.71L675.34,258.64L675.45,259.58L675.51,258.33L675.95,258.62L676,259.15L676.12,256.67L676.23,260.4L676.72,258.47L676.78,259.51L676.95,260.04L677.44,254.32L677.5,260.21L677.72,257.14L678.22,260.62L678.28,260.88L678.55,256.74L678.88,261.42L679.05,258.8L679.11,258.67L679.22,257.48L679.49,260.52L679.88,259.13L679.94,258.28L680.1,260.74L680.43,256.2L680.71,260.45L680.77,260.8L680.88,257.18L681.54,258.12L681.6,261.17L682.15,253.47L682.37,259.37L682.43,259.68L682.65,260.44L682.93,256.21L683.15,260.21L683.2,261.9L683.54,257.77L684.03,258.35L684.09,259.42L684.26,258.65L684.31,259.16L684.37,257.38L684.42,261.02L684.81,254.85L685.14,260.47L685.2,258.93L685.42,257.46L685.53,260.27L685.81,258.61L685.86,259.61L686.03,255.35L686.08,261.26L686.64,257.49L686.69,259.3L686.75,253.91L687.41,261.2L687.47,258L687.8,260.65L688.13,257.63L688.3,259.52L688.35,258.8L688.58,257.48L688.74,261.39L688.96,260.08L689.02,257.33L689.13,255.39L689.46,260.5L689.74,257.68L689.79,257.07L690.29,260.7L690.35,257.62L690.46,257.23L690.51,261.15L690.74,259.44L690.79,260.94L691.23,251.55L691.51,258.64L691.57,260.05L691.95,261.14L692.23,256.64L692.29,260.46L692.45,261.07L692.56,257.64L693.06,258.55L693.12,258.34L693.23,260.31L693.45,255.35L693.84,259.5L693.89,257.75L694,257.13L694.11,259.23L694.34,258.79L694.39,259.31L694.61,260.64L694.95,257.85L695.06,258.35L695.11,260.57L695.17,253.88L695.83,258.22L695.89,258.58L695.94,257.44L696.22,261.53L696.61,259.16L696.66,260.14L696.77,257.85L696.83,260.9L697.38,258.14L697.44,260.64L697.83,255.79L698.16,261.2L698.21,258.31L698.27,258.46L698.43,257.18L698.55,259.91L698.82,258.22L698.88,259.82L699.1,261.62L699.65,256.42L699.71,259.18L699.76,253.71L700.43,261.3L700.48,258.16L700.54,258.34L700.65,257.28L700.71,259.97L700.82,261.34L701.15,257.4L701.37,258.86L701.43,259.02L701.59,258.48L701.65,260.02L701.7,258.54L701.76,261.43L702.15,256.33L702.53,259.66L702.59,258.99L702.81,257.28L702.92,260.04L703.25,258.42L703.31,260.12L703.42,256.66L703.81,260.86L704.08,257.73L704.14,258.92L704.25,254.26L704.36,259.8L704.86,258.1L704.91,259.7L704.97,261.15L705.25,257.77L705.63,259.44L705.69,258.58L705.86,260.65L706.08,258.46L706.3,259.59L706.35,258.1L706.46,255.04L706.69,260.49L707.02,258.58L707.07,257.57L707.18,256.66L707.24,260.38L707.74,258.21L707.79,256.63L707.85,261.52L708.51,259.83L708.57,253.02L709.34,260.95L709.4,258.14L709.51,257.92L709.84,261.32L710.18,259.02L710.23,258.78L710.78,257.56L710.9,260.27L711.01,259.91L711.06,257.73L711.17,256.89L711.34,259.36L711.56,258.7L711.62,260.36L712.11,254.56L712.39,258.06L712.45,259.31L712.94,260.93L713,257.76L713.11,259.16L713.17,257.79L713.22,256.56L713.55,261.83L713.89,257.95L713.94,259.02L714.11,257.61L714.16,260.61L714.66,260.21L714.72,258.24L714.77,260.99L715.16,255.76L715.49,260.68L715.55,257.83L715.77,257.02L715.94,260.14L716.32,259.38L716.38,256.55L716.43,261.46L717.04,258.87L717.1,253.16L717.76,261.08L717.87,258.71L717.93,258.01L717.98,257.51L718.15,261.02L718.48,257.67L718.54,259.5L719.04,258.07L719.09,261.56L719.26,259.74L719.31,259.54L719.48,256.65L719.81,260.18L720.14,257.21L720.2,257.81L720.75,256.7L720.86,261.16L720.98,259.36L721.03,258.08L721.14,261.28L721.58,254.68L721.75,258.27L721.81,258.81L722.3,260.86L722.53,257.82L722.58,258.13L722.64,260L723.02,258.14L723.19,261.08L723.41,258.41L723.47,258.79L723.8,255.42L724.19,260.77L724.24,257.82L724.41,256.74L724.58,260.12L724.96,259.56L725.02,258.26L725.13,255.88L725.18,261.3L725.74,260.82L725.79,258.11L725.9,253.03L726.24,260.62L726.57,259.24L726.62,259.6L727.18,261.43L727.23,257.56L727.29,259.07L727.34,258.02L727.46,259.88L728.01,258.73L728.06,257.9L728.23,260.32L728.51,257.34L728.78,259.88L728.84,258.2L728.95,260.53L729.39,259.23L729.45,254.3L730.22,261.3L730.28,260.75L730.56,257.02L730.89,261.9L731.05,258.52L731.11,258.23L731.22,258.17L731.5,260.97L731.83,259.65L731.89,258.5L732.11,260.99L732.44,256.05L732.77,260.46L732.83,259.17L732.88,257.28L733.38,259.97L733.55,258.73L733.6,261.4L734.16,254.64L734.38,259.43L734.43,259.66L734.65,260.56L734.93,256.59L735.15,260.45L735.21,261.83L735.76,258.17L736.04,258.97L736.09,259.41L736.43,261.69L736.81,255.97L736.93,257.18L736.98,258.46L737.04,260.49L737.48,257.58L737.7,259.04L737.76,258.54L738.09,256.46L738.48,261.05L738.53,257.74L738.92,255.07L739.03,260.06L739.36,259.1L739.42,258.5L739.64,261.05L739.81,257.93L740.14,260.34L740.19,258.56L740.36,258.42L740.53,260.83L740.97,259.78L741.02,257.76L741.13,255.22L741.36,260.48L741.74,257.25L741.8,257.98L741.91,260.34L742.46,256.84L742.52,261.82L743.24,252.97L743.29,259.52L743.35,260.44L743.52,257.94L744.01,260.93L744.18,258.26L744.24,258.34L744.51,261.35L744.68,257.97L745.01,258.95L745.07,259.06L745.57,260.08L745.73,257.26L745.84,257.92L745.9,259.06L746.17,258.29L746.29,260.85L746.73,259.62L746.78,254.55L747.56,260.73L747.61,261.12L747.89,256.9L748.22,261.71L748.39,258.99L748.45,258.69L748.78,257.1L748.83,260.98L749.22,259.33L749.28,258.49L749.44,260.92L749.77,256.29L750.05,259.75L750.11,260.5L750.22,257.26L750.88,257.81L750.94,261.17L751.49,254.51L751.71,259.17L751.77,260.33L751.99,260.72L752.27,256.76L752.49,260.71L752.54,261.56L752.65,258.1L753.32,259.21L753.37,258.91L753.71,257.78L753.76,261.5L753.98,259.71L754.04,257.83L754.15,255.39L754.48,260.43L754.76,257.76L754.81,258.08L755.37,255.22L755.42,261.58L755.59,259.72L755.65,258.99L755.7,260.46L756.09,254.08L756.42,259.85L756.48,259.46L756.75,260.98L756.81,257.81L757.08,259.41L757.14,260.98L757.47,258.18L757.92,258.21L757.97,259.4L758.08,261.58L758.47,254.52L758.64,258.78L758.69,260.2L758.86,261.04L759.08,257.09L759.47,257.77L759.52,259.24L759.8,257.02L759.85,261.06L760.24,259.31L760.3,258.29L760.41,260.98L760.57,252.83L760.96,258.95L761.02,260.08L761.35,260.89L761.63,257.7L761.74,258.27L761.79,261.2L761.85,261.43L761.9,258.23L762.01,258.02L762.12,259.98L762.68,258.73L762.73,257.94L762.79,257.11L762.9,260.49L763.4,258.76L763.45,260.18L763.62,260.32L764.12,254.06L764.17,259.87L764.23,260.17L764.4,257.63L764.95,261.14L765,258.05L765.06,258.76L765.23,257.28L765.56,262.06L765.78,258.58L765.84,258.99L766.11,257.89L766.17,261L766.61,258.48L766.67,259.99L766.78,260.94L767.11,256.41L767.39,260.23L767.44,260.88L767.94,257.63L768.22,258.26L768.27,260.68L768.83,254.67L768.99,258.21L769.05,259.77L769.16,258.27L769.32,260.58L769.55,258.61L769.6,256.66L769.88,262.2L770.38,259.9L770.43,258.14L771.1,261.35L771.21,260.11L771.26,259.51L771.43,258.05L771.48,255.89L771.82,260.72L772.26,259.91L772.32,259.15L772.7,255.62L772.76,261.62L772.98,259.89L773.04,260.96L773.42,254.26L773.81,259.88L773.87,258.86L774.09,261.32L774.31,257.52L774.64,258.51L774.7,258.87L775.25,257.9L775.42,261.27L775.47,257.82L775.8,256.07L776.19,260.89L776.25,258.51L776.36,258.9L776.41,257.26L776.52,258L776.58,260.92L777.08,257.08L777.19,261.29L777.36,258.25L777.41,259.02L777.47,261.04L777.91,252.78L778.13,258.92L778.19,258.54L778.63,261.45L778.68,258.02L778.85,258.33L778.91,257.18L779.13,261.15L779.68,259.72L779.74,258.92L779.9,260.64L780.12,255.7L780.51,259.4L780.57,258.07L780.68,257.41L780.79,259.18L781.01,259.01L781.07,259.93L781.29,260.89L781.84,254.71L781.9,259.57L782.34,260.48L782.62,257.53L782.67,259.45L782.89,261.81L783.45,257.93L783.5,260.75L784.06,258.06L784.11,261.16L784.28,259.25L784.33,259.4L784.5,256.44L784.83,260.98L785.11,257.15L785.16,258.29L785.72,257.24L785.77,261.77L785.88,259.71L785.94,258.42L786.05,260.92L786.33,257L786.38,259.8L786.44,254.12L787.1,261.23L787.21,258.35L787.27,258.59L787.49,261.26L787.82,257.69L787.88,259.97L787.93,260.14L788.43,261.36L788.71,257.84L788.76,258.32L788.82,257.02L789.15,260.2L789.48,257.24L789.54,258.21L789.98,260.64L790.09,256.76L790.31,259.98L790.37,257.61L790.48,261.14L790.92,254.97L791.15,259.51L791.2,258.66L791.64,261.1L791.87,258.04L791.98,259.44L792.03,258.99L792.2,258.65L792.53,261.04L792.75,258.84L792.81,259.16L793.14,254.89L793.47,260.6L793.53,260.41L793.58,258.59L793.75,256.91L793.91,260.2L794.3,259.65L794.36,258.23L794.47,256.38L795.08,261.19L795.13,258.09L795.24,253.35L795.58,260.8L795.96,260.34L796.02,260.99L796.3,257.83L796.52,261.18L796.79,259.76L796.85,258.65L796.96,259.61L797.35,258.79L797.4,257.93L797.51,258.6L797.57,260.29L797.85,257.32L798.29,260.54L798.35,259.05L798.4,259.64L798.46,260.21L798.73,258.68L798.79,255.03L799.56,260.73L799.62,260.55L799.9,256.55L800.23,262.01L800.39,258.95L800.45,258.51L800.78,257.44L800.84,260.67L801.23,259.06L801.28,258.02L801.45,260.64L801.83,255.64L802.06,259.36L802.11,260.21L802.17,261.34L802.44,257.45L802.78,259.14L802.83,258.35L803.05,256.93L803.39,261.52L803.61,260.43L803.66,257L803.77,253.71L804.44,260.92L804.49,257.94L804.83,261.19L805.05,257.86L805.27,260.19L805.32,258.61L805.71,258L805.77,261.45L805.99,259.45L806.04,257.67L806.15,255.85L806.38,260.34L806.76,258L806.82,257.36L807.43,256.59L807.54,260.86L807.65,259.71L807.7,257.86L807.82,260.93L808.26,254.54L808.48,259.45L808.54,258.3L808.98,261.33L809.2,257.9L809.31,259.64L809.37,259.38L809.53,258.35L809.86,261.4L810.09,258.96L810.14,259.21L810.47,255.15L810.86,260.8L810.92,257.71L811.08,256.93L811.25,260.21L811.69,258.33L811.75,259.59L811.8,256.52L811.86,261.57L812.47,257.87L812.52,260.02L812.58,253.21L812.91,260.79L813.24,258.92L813.3,259.43L813.35,261.25L813.63,258.06L813.96,258.8L814.02,258.18L814.46,259.42L814.74,258.14L814.79,257.81L815.13,257.41L815.62,260.66L815.68,260.13L816.12,254.42L816.18,260.17L816.29,257.48L816.9,260.76L816.95,261.15L817.23,257.39L817.56,261.34L817.73,258.69L817.78,258.73L818.12,258.14L818.17,260.77L818.5,259.79L818.56,258.92L818.78,261.06L819.11,256.42L819.28,259.03L819.34,259.32L819.45,260.97L819.56,257.7L820.06,259.65L820.11,259.13L820.28,261.01L820.61,257.95L820.78,260.29L820.83,254.37L821.33,260.73L821.61,256.74L821.66,260.05L821.88,261.89L822.1,257.81L822.44,258.46L822.49,260.76L823.1,261.38L823.38,257.43L823.43,258.63L823.49,256.77L823.71,260.46L824.21,258.12L824.26,260.39L824.76,256.89L824.87,260.8L825.04,257.86L825.1,260.14L825.15,260.58L825.21,257.73L825.54,258.31L825.59,255.18L826.31,261.23L826.42,259.15L826.48,258.47L826.59,257.86L826.81,260.88L827.09,259.42L827.14,259.67L827.2,261.07L827.7,257.9L827.75,258.81L827.81,255.29L828.14,260.73L828.64,259.48L828.7,259.24L828.81,257.74L829.08,259.78L829.14,256.74L829.19,261.46L829.91,253.39L829.97,260.1L830.02,260.21L830.14,257.96L830.25,260.85L830.63,259.95L830.69,261.03L830.86,257.77L831.19,261.83L831.58,259.11L831.63,259.76L831.91,260L832.13,257.85L832.18,259.01L832.24,260.3L832.52,257.87L832.96,260.7L833.07,259.2L833.13,260.04L833.46,254.84L833.57,260.56L834.01,259.85L834.07,258.92L834.29,261.13L834.57,257.75L834.79,259.75L834.84,260.19L834.9,261.66L835.45,257.94L835.67,258.91L835.73,259L836.12,261.18L836.39,257.98L836.45,256.27L836.78,260.97L837.39,259.81L837.45,258.94L837.56,258.08L837.61,261.2L838.11,260.04L838.17,254.64L838.66,260.59L839.11,258.19L839.16,260.63L839.22,261.89L839.33,258.05L839.99,259.57L840.05,259.3L840.44,261.45L840.71,257.69L840.77,258.48L840.82,255.22L841.16,260.85L841.82,258.59L841.88,259.5L842.1,261.15L842.76,253.78L842.82,258.83L842.87,260.23L843.43,261.81L843.65,257.42L843.7,260.14L843.76,260L843.81,260.67L844.59,258.11L844.65,259.51L844.7,258.32L844.76,261.48L845.14,254.92L845.64,258.77L845.7,258.97L846.47,256.88L846.53,261.25L846.64,259.42L846.69,259.99L847.08,261.29L847.25,253.27L847.75,259.05L847.8,259.03L848.02,261.52L848.08,258.57L848.25,258.75L848.3,257.98L848.52,261.43L849.35,258.88L849.41,258.35L849.46,257.52L850.29,260.62L850.35,259.58L850.41,259.83L850.79,254.81L850.9,260.55L851.07,258.88L851.13,260.14L851.62,261.08L851.9,256.71L852.12,259.8L852.18,260.36L852.23,261.55L852.79,257.12L853.17,259.43L853.23,259.65L853.45,261.19L853.78,256.23L854.34,257.77L854.39,258.47L854.61,257.57L854.95,261.21L855.45,260.69L855.5,254.51L856.55,261.89L856.61,260.56L856.66,258.39L857.11,258.1L857.77,261.61L857.88,260.48L857.94,259.58L858.16,256.12L858.49,261.07L858.77,258.01L858.82,257.96L859.38,255.76L859.43,261.47L859.93,259.59L859.99,258.25L860.1,254.72L860.76,261.36L861.15,261.1L861.2,259.19L861.43,259.89L861.92,258.45L862.04,258.49L862.09,261.42L862.48,255.46L863.2,258.31L863.25,260.78L863.81,257.51L863.86,261.25L864.47,258.88L864.53,259.41L864.58,252.89L865.3,261.72L865.69,258.54L865.75,260.67L865.8,261.67L866.69,258.1L866.74,258.76L866.8,255.73L867.96,260.78L868.02,258.9L868.07,259.94L868.18,260.72L868.52,254.27L869.29,258.05L869.35,259.61L869.57,262L870.12,257.74L870.56,258.77L870.62,258.74L870.79,260.99L871.17,256.97L871.73,257.78L871.78,257.18L872.45,261.68L873.06,259.79L873.11,254.45L874.16,261.19L874.39,258.15L874.44,260.2L875.11,261.46L875.49,256.37L875.66,259.08L875.72,260.34L876.66,260.95L876.77,256.84L877.04,258.19L877.1,260.34L877.6,255L878.32,261.1L878.37,258.93L878.6,257.81L878.82,260.97L879.65,259.81L879.7,258.01L879.81,254.95L880.2,260.83L881.03,258.55L881.09,258.9L881.2,261.15L881.92,253.52L882.36,260.28L882.42,258.79L882.97,257.78L883.19,261.47L883.8,259.33L883.86,259.61L884.13,257.31L884.96,260.95L885.24,258.69L885.3,259.67L885.46,254.14L886.24,261.1L886.29,260.97L886.57,256.8L886.9,261.77L887.68,258.86L887.73,259.22L888.51,257.27L888.84,261.17L889.01,258.87L889.06,258.11L889.73,256.88L889.78,261.97L890,258.98L890.06,261.35L890.45,254.13L891.44,259.39L891.5,261.42L892.44,261.54L892.83,256.61L892.94,257.91L892.99,259.04L894.1,256.92L894.49,260.91L894.55,258.33L894.93,254.51L895.65,261.43L896.15,261.06L896.21,258.23L896.54,260.9L897.04,257.87L897.09,258.77L897.15,254.58L898.53,261.39L898.64,259.69L898.7,259.58L899.03,257.66L899.09,261.28L899.2,259.74L899.25,253.98L900.53,261.48L900.8,260.14L900.86,258.95L901.47,257.7L902.3,260.97L902.47,259.91L902.52,258.67L902.8,254.65L903.63,260.98L903.85,258.32L903.91,257.22L904.24,261.88L905.46,261.16L905.51,259.36L905.79,255.9L906.95,261.17L907.06,260.07L907.12,258.54L907.51,254.86L908.56,261.81L908.67,258.73L908.72,258.7L909.78,261.41L910.05,257.26L910.11,258.37L910.16,256.78L911.82,261.33L911.88,258.16L912.27,254.89L912.99,261.36L913.49,261.05L913.54,258.64L914.48,255.31L914.87,260.85L915.04,258.81L915.09,257.45L915.81,257.23L915.87,261.41L916.53,259.8L916.59,253.68L917.86,261.52L918.25,258.67L918.3,259.84L918.8,257.72L919.63,261L919.91,258.36L919.97,259.87L920.13,254.57L920.96,261.05L921.46,259.67L921.52,260.57L921.57,262.11L922.13,258.16L923.07,258.25L923.12,256.59L924.29,261.5L924.78,260.29L924.84,254.61L925.89,261.9L926.61,259.73L926.67,259.2L927.11,261.58L927.5,255.91L928.33,259.46L928.38,258.16L928.77,261.49L929.44,254.19L930.16,258.31L930.21,258.56L930.32,256.69L931.43,261.72L931.76,259.77L931.82,255.45L933.2,261.5L933.59,259.44L933.65,258.34L933.76,261.19L933.92,253.58L935.09,258.43L935.14,261.05L936.14,257.73L936.91,259.3L936.97,261.06L937.47,254.4L938.8,259.46L938.85,260.47L938.91,261.93L940.46,256.79L940.62,260.11L940.68,259.62L941.62,261.59L942.17,255.02L942.45,259.97L942.51,258.2L942.95,257.4L943.23,262.01L944.45,261.54L944.5,259.24L946.05,255.37L946.11,261.46L946.38,260.44L946.44,259L946.77,254.7L947.44,261.24L948.43,259.35L948.49,258.6L949.15,255.83L950.32,261.67L950.37,257.99L950.43,257.35L950.54,261.72L951.26,253.37L952.48,261.33L952.53,258.3L952.86,261.24L953.47,255.3L954.53,258.69L954.58,258.68L955.19,255.13L956.24,261.91L956.52,259.09L956.57,258.11L956.85,261.25L957.85,256.62L958.62,260.07L958.68,259.73L959.12,261.76L959.79,254.07L960.67,258.35L960.73,259.75L961.78,261.57L962.17,257.17L962.89,258.15L962.94,260.4L963.83,261.19L964.27,254.99L964.94,260.18L964.99,261.27L966.49,255.07L967.15,258.28L967.21,257.15L968.43,261.38L968.59,253.88L969.37,261.08L969.42,258.5L969.87,261.56L970.81,257.73L970.97,259.68L971.03,260.65L972.14,254.85L972.97,261.14L973.24,256.91L973.3,257.89L973.58,261.92L975.18,257.12L975.52,260.6L975.57,258.82L976.46,262.12L977.12,254.03L977.68,259.11L977.73,259.51L979.12,261.2L979.5,256.95L979.89,259.75L979.95,259.51L981.16,261.55L981.61,254.91L982.16,259.95L982.22,259.46L982.33,261.61L983.82,255.18L984.21,260.85L984.27,258.53L985.76,261.37L985.93,253.29L986.59,260.09L986.65,259.78L987.2,261.68L988.86,257.77L988.97,260.98L989.03,259.77L989.47,255.25L990.91,262.34L991.3,259.08L991.35,260.32L992.13,261.12L992.46,256.29L993.57,259.03L993.63,261.9L994.18,255.36L996.01,259.72L996.06,259.29L996.45,261.65L996.84,257.14L998.06,259.42L998.11,257.06L998.94,255.21L999.66,261.51L1000.55,261.01L1000.6,260.1L1001.16,255.39L1002.54,261.72L1003.04,257.4L1003.1,261.1L1003.26,253.43L1004.54,261.44L1005.53,258.67L1005.59,260.11L1006.81,254.74L1007.64,261.17L1008.08,258.33L1008.14,260.02L1008.25,262.21L1009.8,256.67L1010.57,259.09L1010.63,258.28L1011.51,254.83L1012.57,262.16L1013.18,260.51L1013.23,259.67L1013.78,261.67L1014.06,258.04L1014.12,258.63L1014.17,255.04L1015.45,261.41L1016.11,254.66L1016.78,260.98L1016.83,258.6L1018.1,261.77L1018.49,255.97L1019.43,259.66L1019.49,258.33L1020.6,253.57L1021.87,261.64L1022.09,258.94L1022.15,259.81L1023.64,261.09L1024.14,254.82L1024.81,259.04L1024.86,259.83L1025.25,257.69L1025.58,261.85L1027.02,259.88L1027.08,258.56L1028.3,261.43L1028.85,254.26L1029.68,260.1L1029.74,259.51L1029.9,262.01L1031.51,256.77L1032.39,258.5L1032.45,259.74L1032.78,261.72L1033.45,254.24L1035.16,259.53L1035.22,260.01L1035.44,261.47L1037.93,253.32L1037.99,260.11L1038.65,261.69L1040.15,255.08L1040.98,258.44L1041.03,259.33L1041.86,255.18L1042.92,262.34L1043.8,260.32L1043.86,259.62L1045.8,261.77L1046.46,254.49L1046.57,260.14L1046.63,260.71L1047.13,261.56L1048.84,257.03L1048.9,259.36L1050.5,261.67L1050.95,255.53L1051.72,259.08L1051.78,259.46L1053.16,255.56L1054.55,261.35L1054.66,259.48L1054.71,260.03L1055.27,253.27L1056.04,261.47L1057.21,259.59L1057.26,260.18L1058.81,255.22L1059.64,261.53L1060.14,259.54L1060.2,260.82L1060.25,262.12L1061.86,257.2L1063.02,260.51L1063.08,257.43L1063.41,261.88L1063.8,254.2L1066.07,258.13L1066.12,258.42L1068.28,255.52L1069,261.51L1069.11,258.86L1069.17,258.55L1069.5,261.25L1070.5,255.03L1072.05,260.03L1072.1,259.82L1072.6,253.76L1073.88,261.78L1074.37,259.48L1074.43,259.73L1075.65,261.4L1076.15,254.6L1077.48,259.65L1077.53,260.65L1077.59,261.94L1079.14,256.85L1080.58,259.32L1080.63,258.91L1080.85,254.75L1081.91,262.05L1083.9,260.55L1083.96,260.31L1085.17,261.56L1085.62,255.25L1087.17,259.46L1087.22,260.96L1089.22,261.47L1089.94,253.93L1090.49,259.18L1090.55,260.08L1091.21,261.63L1092.54,257.05L1093.43,259.9L1093.48,255.23L1094.92,262.02L1096.8,261.15L1096.86,259.24L1098.19,255.06L1099.24,261.72L1100.13,260.13L1100.18,259.6L1100.46,261.77L1102.07,255.89L1102.73,259.92L1102.79,255.23L1104.78,261.63L1106.16,258.12L1106.22,259.29L1107.27,253.56L1108.55,261.92L1109.71,260.61L1109.76,258.46L1110.82,255.06L1112.26,262.08L1113.09,259.16L1113.14,259.93L1113.47,261.61L1115.52,255.32L1116.52,260.57L1116.58,261.87L1119.4,256.06L1119.51,260.62L1119.57,259.9L1120.12,254.85L1122.11,261.76L1123.06,259.71L1123.11,257.62L1124.61,253.62L1125.33,261.91L1126.66,260.07L1126.71,257.92L1128.54,254.88L1129.59,261.98L1130.14,258.41L1130.2,261.34L1132.47,261.93L1133.14,254.65L1133.91,259.39L1133.97,258.86L1135.13,261.67L1135.52,257.3L1137.57,258.97L1137.62,255.53L1138.34,261.83L1141.33,259.89L1141.39,260.35L1141.94,253.53L1143.21,261.52L1144.77,258.76L1144.82,260.73L1145.49,254.93L1146.93,262.15L1148.59,259.35L1148.64,259.33L1150.47,254.64L1152.46,261.84L1152.52,259.4L1154.96,255.04L1155.68,261.72L1156.34,260.32L1156.4,259.15L1159.28,253.71L1160.05,261.59L1160.22,258.47L1160.27,258.83L1162.82,254.67L1164.26,262.37L1164.32,260.37L1164.37,258.97L1167.2,261.43L1167.53,254.76L1168.25,258.57L1168.3,257.33L1168.58,261.92L1170.19,257.1L1172.24,258.47L1172.29,255.23L1175.89,261.55L1176.33,259.13L1176.39,257.72L1176.61,254.13L1177.39,261.84L1180.43,259.09L1180.49,260.4L1181.6,262.12L1183.15,256.76L1184.7,258.84L1184.75,259.19L1184.86,255.67L1185.92,262.11L1188.85,260.54L1188.91,259.63L1189.46,254.26L1190.12,261.62L1192.01,259.28L1192.06,260.72L1193.95,253.7L1195.22,262.04L1196.22,258.75L1196.27,260.49L1197.49,254.97L1198.93,262.24L1200.59,258.58L1200.65,260.2L1202.2,255.3L1203.25,262.27L1204.97,258.91L1205.02,259.9L1206.79,253.74L1208.79,261.58L1209.12,259.84L1209.18,256.51L1211.28,252.84L1212,262.01L1213.55,259.89L1213.61,257.97L1215.21,254.77L1216.27,261.93L1218.04,259.48L1218.09,259.56L1219.42,261.87L1219.81,255.13L1222.52,260.77L1222.58,260.04L1223.85,261.5L1224.3,254.69L1227.23,258.18L1227.29,260.41L1228.45,261.79L1228.62,253.24L1231.94,258.54L1231.99,259.99L1232.16,255.03L1233.6,262.19L1236.42,257.23L1236.48,262.18L1237.14,253.8L1241.13,260.39L1241.19,261.5L1241.63,255.01L1245.78,261.73L1245.84,258.74L1245.89,260.28L1245.95,253.55L1247.22,261.86L1250.6,257.78L1250.66,258.8L1254.2,255.43L1255.25,262.24L1255.42,259.63L1255.48,258.97L1256.47,261.67L1258.97,255.36L1260.24,259.08L1260.29,259.05L1263.29,253.93L1264.56,261.93L1265.17,259.93L1265.22,260.1L1266.83,255.16L1268.27,262.23L1270.04,259.59L1270.1,260.74L1271.54,255.41L1272.59,262.12L1274.86,257.98L1274.92,261.01L1275.47,261.75L1276.13,255.17L1279.84,258.05L1279.9,261.76L1280.62,254.11L1284.88,259.94L1284.94,261.3L1285.6,262.17L1288.87,255.02L1290.04,258.84L1290.09,260.02L1292.8,261.73L1293.47,255.29L1295.19,259.66L1295.24,260.54L1297.95,253.73L1298.67,262.03L1300.39,260.14L1300.45,260.65L1301.89,255.52L1302.94,261.97L1305.65,258.87L1305.71,260.2L1306.1,261.78L1310.97,254.85L1311.03,260.74L1311.69,261.78L1315.29,253.67L1316.34,258.75L1316.4,260.16L1318.83,255.2L1320.27,262.17L1321.82,258.09L1321.88,257.57L1323.15,262.28L1323.82,254.58L1327.36,260.82L1327.42,259.4L1327.86,261.71L1332.62,254.1L1332.85,258.98L1332.9,258.77L1336.17,254.58L1337.61,262.02L1338.38,259.93L1338.44,259.46L1340.88,255.68L1343.15,262.01L1343.98,260.1L1344.03,258.94L1345.64,255.24L1349.24,261.73L1349.68,259.03L1349.74,257.94L1349.96,253.76L1354.94,262.36L1355.39,260.44L1355.44,260.35L1358.21,255.42L1359.26,261.9L1361.09,260.25L1361.15,260.64L1362.14,261.81L1362.81,254.93L1367.07,258.13L1367.13,261.56L1367.29,253.64L1372.28,262.12L1372.94,260.28L1373,260.21L1373.5,261.36L1375.55,254.73L1378.87,258.4L1378.92,261.06L1382.14,262.07L1384.63,253.38L1384.91,259.52L1384.96,260.56L1385.35,262.15L1388.56,255.64L1390.94,259.85L1391,260.41L1392.49,262.09L1393.16,254.78L1397.09,258.57L1397.15,259.99L1401.96,253.85L1403.24,262.26L1403.29,258.91L1405.51,254.71L1406.95,262.41L1409.39,260.48L1409.44,258.34L1409.83,262.25L1410.49,254.57L1415.7,261.76L1415.75,259.26L1419.3,253.78L1420.57,261.61L1421.85,258.82L1421.9,258.04L1422.84,254.83L1424.28,262.28L1428.22,259.41L1428.27,259.01L1432.31,255.53L1433.92,261.56L1434.47,260.08L1434.53,256.21L1436.63,253.93L1437.91,261.91L1441.01,261.53L1441.06,258.75L1444.89,255.6L1447.16,262L1447.49,259.01L1447.54,256.97L1453.25,261.98L1453.97,253.37L1454.13,260.07L1454.19,258.78L1457.51,254.67L1458.95,262.06L1460.84,261.08L1460.89,259.85L1463.27,262.25L1466.82,255.11L1467.59,259.25L1467.65,259.37L1471.3,253.98L1472.52,262.05L1474.35,259.11L1474.4,259.19L1479.17,262.01L1479.83,254.74L1481.16,260.48L1481.22,258.52L1484.32,255.35L1487.92,261.81L1488.08,260.21L1488.14,259.98L1488.47,261.92L1488.64,254.03L1494.79,259.33L1494.84,261.4L1496.5,262.09L1497.17,254.97L1501.93,259.87L1501.99,260.58L1502.87,261.39L1505.97,253.78L1509.41,259.8L1509.46,260.31L1509.52,254.96L1515.28,262.42L1516.55,259.81L1516.61,260.69L1518.55,261.6L1523.31,253.65L1523.86,259.37L1523.92,259.99L1526.85,254.96L1528.29,262.46L1531.12,260.61L1531.17,258.75L1531.56,255.07L1532.61,262.38L1538.48,260.27L1538.54,256.43L1540.64,253.75L1541.92,262.3L1545.96,259.12L1546.02,259.97L1549.95,261.96L1553.49,255.46L1553.55,259.68L1557.98,253.57L1559.2,262.32L1561.36,261.06L1561.41,259.17L1561.91,255.4L1568.5,261.9L1568.83,259.51L1568.89,257.5L1575.31,253.64L1576.59,262.09L1576.64,259.14L1578.86,255.01L1583.18,262.28L1583.79,260.6L1583.84,254.87L1587.88,261.84L1591.71,260.76L1591.76,258.89L1592.65,254.35L1597.63,262.32L1599.63,258.76L1599.68,258.42L1603.17,262.1L1605.66,255.43L1607.71,260.51L1607.77,258.35L1609.98,254.04L1614.97,262.54L1615.69,259.99L1615.74,259.93L1618.23,255.41L1623.5,261.76L1623.66,259.65L1623.72,258.14L1627.32,253.81L1628.59,262.07L1631.91,259.14L1631.97,258.07L1635.57,255.26L1636.62,262.1L1640.11,260.58L1640.17,255.46L1644.21,262.07L1644.65,253.59L1648.53,261.35L1648.58,255.99L1649.64,262.2L1653.18,255.21L1657,260.53L1657.06,260.39L1658.39,262.01L1661.99,253.62L1665.59,260.47L1665.64,260.81L1666.97,262.53L1670.52,254.99L1674.23,259.39L1674.28,261.19L1674.56,262L1679.32,253.82L1682.92,260.48L1682.98,261.25L1684.31,262.28L1687.57,255.49L1691.67,260.66L1691.73,260.18L1693.06,261.74L1696.66,253.74L1700.53,260.7L1700.59,260.6L1701.64,262.32L1709.51,255.28L1709.56,259.9L1711.5,262.09L1717.54,255.41L1718.92,260.78L1718.98,262.24L1723.3,262.43L1726.84,255.29L1728.11,259.34L1728.17,260.13L1729.55,261.57L1731.33,253.3L1737.47,259.21L1737.53,261.53L1739.47,262.04L1739.86,254.95L1746.83,259.79L1746.89,261.53L1748.66,254.2L1749.94,262.19L1756.25,258.97L1756.3,260.29L1756.53,261.97L1757.19,254.87L1765.77,258.37L1765.83,261.76L1766,254.14L1770.98,262.71L1775.3,262.43L1775.36,261.43L1783.33,253.74L1784.6,262.21L1784.94,259.97L1784.99,259.86L1788.32,262.41L1794.24,257.19L1795.24,259.19L1795.29,260.54L1795.52,261.97L1800.67,253.59L1804.99,261.47L1805.04,261.77L1805.65,262.14L1813.51,255.42L1814.9,259.25L1814.95,259.54L1818,253.95L1824.92,261.83L1825.09,259.5L1825.15,258.56L1826.53,254.89L1835.17,262.06L1835.28,260.61L1835.34,254.02L1843.2,262.45L1845.47,260.01L1845.53,260.17L1847.91,261.65L1852.67,254.34L1855.83,260.42L1855.88,261.06L1857.66,262.46L1865.69,255.49L1866.18,259.77L1866.24,260.86L1876.54,257.24L1877.65,258.98L1877.7,261.31L1879.31,262.46L1887.34,253.94L1888.39,259.42L1888.45,260.41L1895.59,255.73L1899.36,259.43L1899.41,261.47L1904.68,254.29L1909.66,262.55L1910.1,260.5L1910.16,260.15L1912.54,262.15L1917.69,255.56L1921.23,258.12L1921.29,261.82L1922.01,254.49L1926.99,262.57L1932.26,260.17L1932.31,260.78L1934.58,261.96L1939.34,254.16L1943.55,259.92L1943.61,260.59L1944.33,262.2L1952.36,255.59L1954.85,259.6L1954.91,261.49L1956.51,262.07L1956.68,254.36L1966.32,259.47L1966.37,259.75L1974.01,253.5L1977.06,261.72L1977.5,260.27L1977.56,254.98L1983.32,262.51L1989.02,259.83L1989.08,260.58L1991.35,253.57L1992.57,262.22L2000.65,259.99L2000.71,259.32L2008.68,254.18L2009.96,262.23L2012.17,260.01L2012.23,255.23L2013.67,262.38L2017.21,254.73L2023.97,261.43L2024.03,258.3L2026.02,254.68L2035.32,262.6L2035.99,260.36L2036.04,260.01L2038.09,261.64L2046.9,255.01L2048.28,261.04L2048.34,262.16L2060.69,254.13L2060.74,260.9L2075.92,256.99L2076.2,259.32L2076.25,261.89L2078.02,253.79L2078.74,262.57L2088.66,260.97L2088.71,261.01L2094.64,262.09L2095.36,253.65L2101.17,260.13L2101.23,260.68L2103.22,262.38L2112.69,253.89L2113.91,261.57L2113.97,262.28L2120.95,255.48L2126.71,259.37L2126.76,260.47L2129.31,262.26L2138.28,255.55L2140.16,260.03L2140.22,260.85L2142.1,261.96L2147.36,253.52L2153.4,260.27L2153.46,261.05L2156.67,262.36L2164.7,253.83L2166.64,260.77L2166.69,260.96L2172.56,262.44L2173.23,255.26L2179.93,257.03L2179.98,261.16L2190.56,255.16L2193.66,259.37L2193.72,261.15L2194.6,261.84L2199.37,254.3L2207.51,259.81L2207.56,261.28L2208.67,262.47L2216.7,253.66L2221.13,259.52L2221.19,259.62L2224.95,255.94L2234.81,262.06L2234.98,259.49L2235.03,258.81L2237.58,255.57L2248.88,262.09L2248.99,261.12L2249.05,259.86L2251.37,254.2L2263.94,261.46L2264.33,260.02L2264.39,255.75L2268.71,254.24L2273.69,262.49L2278.51,259.48L2278.57,261L2289.59,255.12L2293.68,259.38L2293.74,261.79L2295.35,262.12L2303.38,254.13L2308.25,260.42L2308.31,260.98L2324.26,255.46L2324.42,258.36L2324.48,261.23L2325.7,262.52L2338.05,254.17L2339.6,259.05L2339.65,261.63L2343.03,262.37L2351.06,255.35L2354.61,257.8L2354.66,261.78L2356.66,262.41L2368.4,255.64L2369.5,260.01L2369.56,261.41L2372,262.08L2380.97,255.65L2384.96,259.7L2385.01,261.74L2386.45,261.96L2390.05,254.35L2400.41,260.05L2400.46,261.07L2402.24,262.05L2407.39,253.95L2416.08,260.69L2416.14,261.8L2416.69,262.52L2424.72,254.37L2431.87,258.79L2431.92,259.15L2433.25,254.94L2447.04,262.39L2448.15,260.88L2448.2,259.75L2451.25,262.36L2462.94,255.69L2465.54,259.78L2465.59,261.97L2476.73,254.54L2481.6,260.61L2481.65,261.49L2494.06,254.08L2498.99,261.02L2499.04,262.43L2511.4,254L2515.72,259.88L2515.77,260.77L2540.69,259.31L2540.75,260.07L2540.8,261.75L2546.07,254.39L2547.34,262.36L2557.47,259.71L2557.53,259.67L2559.8,262.23L2571.65,256.29L2575.42,259.55L2575.47,262.09L2580.73,254.06L2585.72,262.49L2592.42,261.01L2592.48,260.4L2595.58,262.18L2606.6,255.63L2610.03,259.12L2610.09,260.34L2614.68,262.4L2623.93,255.84L2627.64,259.66L2627.7,261.04L2629.14,261.96L2632.74,254.49L2645.26,260.53L2645.31,262.07L2650.07,254.2L2663.03,260.83L2663.09,260.87L2680.26,255.96L2683.36,259.15L2683.41,261.67L2685.46,262.53L2697.76,255.94L2701.86,258.67L2701.91,262.07L2703.35,262.67L2719.41,254.27L2720.02,260.93L2720.08,260.76L2740.29,255.68L2741.01,260.95L2741.07,261.94L2754.08,253.93L2761.95,259.37L2762,261.77L2763.39,262.7L2771.42,254.05L2780.83,259.26L2780.89,261L2805.31,258.4L2805.37,262.12L2807.36,262.43L2823.42,254.48L2824.59,259.67L2824.64,261.66L2840.76,254.1L2845.63,260.66L2845.69,261.15L2866.62,255.43L2868.56,259.54L2868.62,262.18L2875.43,254.05L2888.44,256.22L2888.5,260.84L2910.1,254.57L2911.32,261.54L2911.37,262.58L2927.43,254.4L2932.36,261.19L2932.42,262.84L2953.3,255.59L2954.29,260.45L2954.35,262.51L2975.12,256.1L2976.22,259.82L2976.28,261.39L2996.77,254.81L2999.6,260L2999.65,261.3L3001.76,262.73L3014.11,254.1L3020.64,257.77L3020.7,261.45L3023.41,262.46L3039.97,255.72L3043.07,259.29L3043.13,261.09L3045.18,262.38L3061.79,255.97L3065.11,260.8L3065.17,261.35L3067.38,262.78L3083.45,254.97L3086.99,255.63L3087.05,261.14L3135.45,254.63L3136.67,261.61L3136.72,262.38L3152.79,254.4L3160.43,259.98L3160.48,262L3162.09,262.37L3170.12,254.61L3183.02,260.64L3183.08,261.21L3204.79,254L3208.61,259.84L3208.67,261.64L3209.77,262.6L3222.12,254.51L3231.48,259.79L3231.54,259.48L3263.33,257.98L3264.44,259.6L3264.49,262.04L3266.1,262.67L3286.98,255.76L3287.98,260.77L3288.03,261.77L3312.34,255.48L3314.34,258.9L3314.39,261.89L3339.15,256.42L3341.09,261.45L3341.14,261.65L3360.8,254.61L3366.62,260.57L3366.67,260.84L3370.11,262.74L3393.37,257.22L3393.65,260.09L3393.7,261.93L3396.75,262.66L3412.81,254.89L3418.96,260.22L3419.01,262.08L3442.99,256.22L3444.93,259.83L3444.99,262.29L3452.46,262.92L3464.81,254.02L3470.13,259.71L3470.19,260.6L3497.38,257.43L3498.71,258.6L3498.76,262.36L3500.76,262.65L3516.82,254.22L3524.46,259.98L3524.52,262.09L3526.12,262.76L3534.15,254.68L3550.49,260.54L3550.55,261.84L3552.21,262.37L3568.82,254.78L3576.63,258.49L3576.69,262.64L3599.17,255.82L3603.27,258.88L3603.33,262.29L3608.48,262.76L3620.83,254.51L3629.85,258.72L3629.91,260.75L3659.04,255.86L3663.19,259.37L3663.25,261.95L3665.08,262.38L3690.17,254.59L3690.44,260.36L3690.5,262.28L3720.35,255.94L3722.07,260.7L3722.12,261.18L3725.56,262.58L3750.7,255.59L3751.7,260.45L3751.75,262.23L3780.38,256.07L3784.48,259.74L3784.54,262.06L3786.14,262.71L3811.51,254.63L3812.67,261.46L3812.73,262.66L3841.86,256.46L3844.35,260.78L3844.41,261.81L3846.51,262.51L3871.77,255.68L3873.98,260.15L3874.04,262.33L3902.12,256.34L3905.05,261.57L3905.11,262.09L3932.85,254.66L3935.57,260.83L3935.62,260.85L3979.54,259.86L3979.6,262.46L4002.19,255.17L4009.89,259.85L4009.95,261.86L4049.71,256.28L4051.43,260.83L4051.48,261.72L4080.06,255.68L4084.05,261.01L4084.11,262.13L4119.22,256.26L4121.1,260.58L4121.16,261.74L4153.72,255.91L4154.33,261.02L4154.39,262.25L4188.56,256.6L4189.22,261.13L4189.28,262.57L4223.06,255.78L4224.78,260.78L4224.83,261.7L4257.9,256.3L4259.45,260.75L4259.5,261.78L4292.57,256.43L4294.45,261.13L4294.5,261.66L4327.07,256.06L4329.01,260.23L4329.06,262.22L4331.56,254.51L4333.66,259.78" style="vector-effect: non-scaling-stroke; fill: none; stroke: rgb(31, 119, 180); stroke-opacity: 1; stroke-width: 2px; opacity: 1;"/></g><g class="points"/><g class="text"/></g></g></g><g class="overplot"/><path class="xlines-above crisp" d="M0,0" style="fill: none;"/><path class="ylines-above crisp" d="M0,0" style="fill: none;"/><g class="overlines-above"/><g class="xaxislayer-above"><g class="xtick"><text text-anchor="middle" x="0" y="349" transform="translate(60,0)" style="font-family: 'Open Sans', verdana, arial, sans-serif; font-size: 12px; fill: rgb(68, 68, 68); fill-opacity: 1; white-space: pre;">0</text></g><g class="xtick"><text text-anchor="middle" x="0" y="349" transform="translate(170.76999999999998,0)" style="font-family: 'Open Sans', verdana, arial, sans-serif; font-size: 12px; fill: rgb(68, 68, 68); fill-opacity: 1; white-space: pre;">2k</text></g><g class="xtick"><text text-anchor="middle" x="0" y="349" transform="translate(281.53,0)" style="font-family: 'Open Sans', verdana, arial, sans-serif; font-size: 12px; fill: rgb(68, 68, 68); fill-opacity: 1; white-space: pre;">4k</text></g><g class="xtick"><text text-anchor="middle" x="0" y="349" transform="translate(392.3,0)" style="font-family: 'Open Sans', verdana, arial, sans-serif; font-size: 12px; fill: rgb(68, 68, 68); fill-opacity: 1; white-space: pre;">6k</text></g><g class="xtick"><text text-anchor="middle" x="0" y="349" transform="translate(503.06,0)" style="font-family: 'Open Sans', verdana, arial, sans-serif; font-size: 12px; fill: rgb(68, 68, 68); fill-opacity: 1; white-space: pre;">8k</text></g><g class="xtick"><text text-anchor="middle" x="0" y="349" transform="translate(613.83,0)" style="font-family: 'Open Sans', verdana, arial, sans-serif; font-size: 12px; fill: rgb(68, 68, 68); fill-opacity: 1; white-space: pre;">10k</text></g><g class="xtick"><text text-anchor="middle" x="0" y="349" transform="translate(724.6,0)" style="font-family: 'Open Sans', verdana, arial, sans-serif; font-size: 12px; fill: rgb(68, 68, 68); fill-opacity: 1; white-space: pre;">12k</text></g><g class="xtick"><text text-anchor="middle" x="0" y="349" transform="translate(835.36,0)" style="font-family: 'Open Sans', verdana, arial, sans-serif; font-size: 12px; fill: rgb(68, 68, 68); fill-opacity: 1; white-space: pre;">14k</text></g></g><g class="yaxislayer-above"><g class="ytick"><text text-anchor="end" x="59" y="4.199999999999999" transform="translate(0,328.65)" style="font-family: 'Open Sans', verdana, arial, sans-serif; font-size: 12px; fill: rgb(68, 68, 68); fill-opacity: 1; white-space: pre;">0</text></g><g class="ytick"><text text-anchor="end" x="59" y="4.199999999999999" transform="translate(0,273.53)" style="font-family: 'Open Sans', verdana, arial, sans-serif; font-size: 12px; fill: rgb(68, 68, 68); fill-opacity: 1; white-space: pre;">5</text></g><g class="ytick"><text text-anchor="end" x="59" y="4.199999999999999" transform="translate(0,218.41)" style="font-family: 'Open Sans', verdana, arial, sans-serif; font-size: 12px; fill: rgb(68, 68, 68); fill-opacity: 1; white-space: pre;">10</text></g><g class="ytick"><text text-anchor="end" x="59" y="4.199999999999999" transform="translate(0,163.29000000000002)" style="font-family: 'Open Sans', verdana, arial, sans-serif; font-size: 12px; fill: rgb(68, 68, 68); fill-opacity: 1; white-space: pre;">15</text></g><g class="ytick"><text text-anchor="end" x="59" y="4.199999999999999" transform="translate(0,108.17)" style="font-family: 'Open Sans', verdana, arial, sans-serif; font-size: 12px; fill: rgb(68, 68, 68); fill-opacity: 1; white-space: pre;">20</text></g></g><g class="overaxes-above"/></g></g><g class="polarlayer"/><g class="ternarylayer"/><g class="geolayer"/><g class="funnelarealayer"/><g class="pielayer"/><g class="treemaplayer"/><g class="sunburstlayer"/><g class="glimages"/><defs id="topdefs-282303"><g class="clips"/></defs><g class="layer-above"><g class="imagelayer"/><g class="shapelayer"/></g><g class="infolayer"><g class="g-gtitle"><text class="gtitle" x="470" y="30" text-anchor="middle" dy="0em" style="font-family: 'Open Sans', verdana, arial, sans-serif; font-size: 17px; fill: rgb(68, 68, 68); opacity: 1; font-weight: normal; white-space: pre;">DeepFM_train_loss</text></g><g class="g-xtitle"/><g class="g-ytitle"/></g></svg>