<svg class="main-svg" xmlns="http://www.w3.org/2000/svg" xmlns:xlink="http://www.w3.org/1999/xlink" width="940" height="396" style="" viewBox="0 0 940 396"><rect x="0" y="0" width="940" height="396" style="fill: rgb(255, 255, 255); fill-opacity: 1;"/><defs id="defs-b0a282"><g class="clips"><clipPath id="clipb0a282xyplot" class="plotclip"><rect width="820" height="276"/></clipPath><clipPath class="axesclip" id="clipb0a282x"><rect x="60" y="0" width="820" height="396"/></clipPath><clipPath class="axesclip" id="clipb0a282y"><rect x="0" y="60" width="940" height="276"/></clipPath><clipPath class="axesclip" id="clipb0a282xy"><rect x="60" y="60" width="820" height="276"/></clipPath></g><g class="gradients"/></defs><g class="bglayer"/><g class="layer-below"><g class="imagelayer"/><g class="shapelayer"/></g><g class="cartesianlayer"><g class="subplot xy"><g class="layer-subplot"><g class="shapelayer"/><g class="imagelayer"/></g><g class="gridlayer"><g class="x"><path class="xgrid crisp" transform="translate(164.79000000000002,0)" d="M0,60v276" style="stroke: rgb(238, 238, 238); stroke-opacity: 1; stroke-width: 1px;"/><path class="xgrid crisp" transform="translate(269.59000000000003,0)" d="M0,60v276" style="stroke: rgb(238, 238, 238); stroke-opacity: 1; stroke-width: 1px;"/><path class="xgrid crisp" transform="translate(374.38,0)" d="M0,60v276" style="stroke: rgb(238, 238, 238); stroke-opacity: 1; stroke-width: 1px;"/><path class="xgrid crisp" transform="translate(479.17,0)" d="M0,60v276" style="stroke: rgb(238, 238, 238); stroke-opacity: 1; stroke-width: 1px;"/><path class="xgrid crisp" transform="translate(583.97,0)" d="M0,60v276" style="stroke: rgb(238, 238, 238); stroke-opacity: 1; stroke-width: 1px;"/><path class="xgrid crisp" transform="translate(688.76,0)" d="M0,60v276" style="stroke: rgb(238, 238, 238); stroke-opacity: 1; stroke-width: 1px;"/><path class="xgrid crisp" transform="translate(793.56,0)" d="M0,60v276" style="stroke: rgb(238, 238, 238); stroke-opacity: 1; stroke-width: 1px;"/></g><g class="y"><path class="ygrid crisp" transform="translate(0,304.22)" d="M60,0h820" style="stroke: rgb(238, 238, 238); stroke-opacity: 1; stroke-width: 1px;"/><path class="ygrid crisp" transform="translate(0,263.71000000000004)" d="M60,0h820" style="stroke: rgb(238, 238, 238); stroke-opacity: 1; stroke-width: 1px;"/><path class="ygrid crisp" transform="translate(0,223.21)" d="M60,0h820" style="stroke: rgb(238, 238, 238); stroke-opacity: 1; stroke-width: 1px;"/><path class="ygrid crisp" transform="translate(0,182.70999999999998)" d="M60,0h820" style="stroke: rgb(238, 238, 238); stroke-opacity: 1; stroke-width: 1px;"/><path class="ygrid crisp" transform="translate(0,142.20999999999998)" d="M60,0h820" style="stroke: rgb(238, 238, 238); stroke-opacity: 1; stroke-width: 1px;"/><path class="ygrid crisp" transform="translate(0,101.71000000000001)" d="M60,0h820" style="stroke: rgb(238, 238, 238); stroke-opacity: 1; stroke-width: 1px;"/><path class="ygrid crisp" transform="translate(0,61.21)" d="M60,0h820" style="stroke: rgb(238, 238, 238); stroke-opacity: 1; stroke-width: 1px;"/></g></g><g class="zerolinelayer"><path class="xzl zl crisp" transform="translate(60,0)" d="M0,60v276" style="stroke: rgb(68, 68, 68); stroke-opacity: 1; stroke-width: 1px;"/></g><path class="xlines-below"/><path class="ylines-below"/><g class="overlines-below"/><g class="xaxislayer-below"/><g class="yaxislayer-below"/><g class="overaxes-below"/><g class="plot" transform="translate(60, 60)" clip-path="url('#clipb0a282xyplot')"><g class="scatterlayer mlayer"><g class="trace scatter tracebbef16" style="stroke-miterlimit: 2; opacity: 1;"><g class="fills"/><g class="errorbars"/><g class="lines"><path class="js-line" d="M0,52.62L0.13,13.8L0.62,232.32L0.64,207.98L0.65,245.81L0.96,161.58L1.4,243.23L1.41,241.26L1.58,245.94L2.05,205.97L2.16,237.52L2.17,236.58L2.47,219.71L2.84,251.58L2.86,247.84L2.87,210.6L3.45,250.1L3.54,207.65L3.63,240.08L3.64,236.12L3.93,253.52L4.24,218.5L4.39,247.43L4.4,240.55L4.49,212.85L4.86,251.48L5.13,238.14L5.15,239.38L5.33,205.44L5.56,252.3L5.88,234.38L5.89,231.62L6.15,212.08L6.21,253.92L6.63,242.03L6.64,236.33L6.82,210.6L7.21,253.95L7.38,237.93L7.39,230.11L7.71,215.14L7.92,256.44L8.14,252.79L8.15,241.75L8.61,209.75L8.84,253.78L8.9,245.02L8.91,238.54L9.43,215.25L9.49,255.08L9.67,252.62L9.68,244.14L10.1,212.73L10.37,252.79L10.39,253.02L10.91,254.93L10.99,217.25L11.14,239.22L11.15,247.25L11.2,256.8L11.86,226.83L11.9,237.86L11.92,245.47L12.24,254.6L12.31,229.93L12.66,242.26L12.67,237.15L12.77,255.59L13.38,214.64L13.42,244.74L13.43,243.33L13.76,230.95L14.19,255.12L14.2,242.88L14.27,218.47L14.48,257.33L14.95,246.72L14.96,239.32L15.14,227.73L15.52,254.88L15.69,243.02L15.7,241.12L15.99,206.35L16.22,255.5L16.41,232.03L16.42,247.94L16.73,254.6L16.74,220.13L17.15,242.7L17.17,253.98L17.3,255.2L17.61,221.1L17.92,248.19L17.93,244.68L17.98,254.13L18.45,215.29L18.66,246.61L18.67,252.77L18.87,231.86L19.24,255.86L19.26,252.58L19.27,219.66L19.33,256.58L19.94,218.25L20.03,245.19L20.04,240.99L20.32,231.59L20.58,255.33L20.79,249.87L20.8,244.81L20.89,221.49L21.01,255.14L21.54,240.47L21.55,244.33L21.73,216.78L21.96,255.04L22.28,238.27L22.29,234.99L22.55,220.39L22.61,257.14L23.04,240.62L23.05,243L23.22,219.79L23.61,254.64L23.78,242.27L23.79,233.85L24.11,222.15L24.32,257.62L24.54,254.71L24.55,244.73L25.01,217.05L25.24,255.92L25.28,249.63L25.29,241.21L25.83,221.44L25.89,257.19L26.04,246.3L26.05,242.91L26.07,255.42L26.5,220.69L26.8,244.62L26.81,240.77L27.39,222.88L27.6,257.85L27.61,242.32L27.96,254.9L28.13,234.52L28.25,250.53L28.26,229.98L28.39,255.93L29.03,250.5L29.04,250.17L29.11,221.38L29.17,257.11L29.74,243.68L29.75,250.4L29.78,221.72L30.05,255.03L30.4,248.58L30.41,253.07L30.67,223.37L30.88,257.97L31.18,235.35L31.19,243.46L31.54,230.1L31.67,256.08L31.87,247.52L31.88,248.8L31.92,255.98L32.39,212.89L32.61,254.6L32.62,256.92L33.14,223.69L33.37,241.1L33.38,244.32L33.88,256.77L34.01,224.63L34.13,255.62L34.14,243.54L34.2,256.15L34.46,235.91L34.84,246.01L34.85,220.01L35.54,256.59L35.6,250.5L35.61,248.98L35.67,222.69L35.73,257.28L36.34,223.21L36.35,252.93L36.72,234.23L36.98,255.98L37.09,243.13L37.1,249.09L37.16,256.92L37.29,225.36L37.86,237.08L37.87,238.68L38.13,220.43L38.36,256.32L38.63,254.53L38.64,244.12L38.95,222.73L39.01,257.58L39.41,252.37L39.42,243.21L39.62,223.86L39.89,256.14L40.17,244.65L40.18,243.1L40.51,224.42L40.72,258.07L40.91,248.25L40.92,250.89L41.41,220.62L41.65,257.04L41.67,244.94L41.68,250.11L42.23,223.12L42.29,257.23L42.43,244.1L42.44,247.34L42.47,256.95L42.9,223.59L43.16,253.93L43.17,256.58L43.79,225.1L43.88,247.25L43.89,254.61L44,258.15L44.53,234.65L44.64,242.4L44.65,251.08L44.66,231.29L45.38,256.68L45.4,248.98L45.41,255.02L45.51,223.14L45.75,257.07L46.16,248.87L46.17,250.27L46.18,224.36L46.46,256.78L46.92,243.15L46.93,248.56L47.07,225.03L47.28,258.18L47.7,238.72L47.71,246.14L47.94,231.71L48.32,256.74L48.47,253.65L48.48,246.98L48.79,215.64L49.02,257.47L49.21,235.55L49.22,250.22L49.54,225.7L49.74,256.89L49.96,244.63L49.97,255.97L50.28,257.37L50.41,225.82L50.72,249.84L50.73,247.85L50.78,256.17L51.25,222.64L51.46,248.29L51.47,253.79L51.67,235.41L51.94,257.01L52.06,253.85L52.07,223.65L52.31,257.23L52.83,247.41L52.84,242.29L53.12,235.49L53.56,257.48L53.59,251.42L53.6,245.71L53.69,226.6L53.88,257.17L54.35,247.74L54.36,251.35L54.53,222.37L54.77,256.71L55.1,246.25L55.11,250.53L55.35,223.65L55.59,257.35L55.86,246.62L55.87,247.06L55.91,242.32L55.93,255.08L56.01,250.45L56.02,225.64L56.3,256.97L56.77,249.58L56.78,244.87L56.91,225.97L57.11,258.32L57.52,244.65L57.53,244.5L57.81,222.64L58.05,257.34L58.27,244.22L58.28,252.4L58.63,223.44L58.87,257.6L59.03,246.94L59.04,247.02L59.3,225.27L59.58,257.2L59.78,251.56L59.8,243.79L60.19,226.7L60.39,258.49L60.55,245.27L60.56,252.01L61.06,231.99L61.19,256.75L61.31,249.97L61.33,243.61L61.78,257.01L61.91,223.92L62.08,248L62.09,245.22L62.15,257.57L62.33,241.7L62.57,250.34L62.58,225.48L62.86,257.42L63.33,249.85L63.34,245.14L63.47,226.36L63.67,258.48L64.08,242.85L64.09,240.03L64.34,232.27L64.47,256.78L64.67,248.64L64.68,249.92L64.72,256.85L65.19,216.03L65.41,255.31L65.42,257.87L65.94,226.06L66.17,242.4L66.18,244.71L66.68,257.77L66.81,227.13L66.93,256.45L66.94,244.38L67.01,257.46L67.26,237.96L67.64,246.27L67.65,224.19L68.34,257.22L68.41,250.07L68.42,246.87L68.47,224.29L68.71,257.74L69.17,244.44L69.18,248.9L69.42,257.54L69.52,236.29L69.91,241.69L69.92,249.73L69.96,257.71L70.09,227.54L70.67,240.43L70.68,246.18L70.93,223.06L71.17,257.02L71.43,255.61L71.44,245.28L71.75,224.3L71.99,257.9L72.21,253.45L72.22,244.01L72.42,225.91L72.7,257.44L72.97,246.28L72.98,244.39L73.31,226.93L73.51,258.95L73.71,249.64L73.72,251.26L74.21,223.97L74.45,257.73L74.47,245.51L74.48,250.51L75.03,224.53L75.1,258.01L75.23,244.71L75.24,248.54L75.27,258.24L75.7,226.38L75.96,254.51L75.98,257.69L76.59,226.91L76.74,244L76.75,250.61L76.79,258.96L77.46,232.1L77.51,241.94L77.52,248.92L77.59,257.2L77.91,236.59L78.26,246.38L78.27,240L78.31,224.38L78.55,258.09L79.02,249.28L79.04,247.68L79.26,257.76L79.36,236.92L79.79,256.5L79.8,245.14L79.87,226.96L80.07,259.09L80.55,248.32L80.57,242.3L80.74,232.33L80.87,257.2L81.31,242.54L81.32,239.53L81.51,256.51L81.58,253.3L81.59,216.67L81.82,258.24L82.34,227.02L82.35,249.73L82.54,257.85L82.64,236.83L83.07,237.11L83.08,258.05L83.21,227.51L83.83,246.43L83.85,248.3L84.06,223.52L84.29,257.25L84.61,239.06L84.62,247.55L84.87,224.71L84.94,258.05L85.35,246.4L85.36,243.83L85.54,226.74L85.82,257.63L86.11,244.52L86.12,237.46L86.36,258.02L86.49,227.86L86.88,250.88L86.89,251.97L87.34,224.41L87.57,257.04L87.63,244.27L87.64,253.84L88.15,224.26L88.22,258.41L88.38,255.65L88.39,258.12L88.82,226.57L89.14,244.85L89.15,247.73L89.33,256.69L89.71,227.34L89.89,247.41L89.9,253.61L89.91,259.1L90.22,238.31L90.6,245.85L90.62,224.91L90.85,257.7L91.37,250.32L91.38,247.47L91.43,224.72L91.67,258.4L92.13,245.26L92.15,249.48L92.38,257.83L92.48,237.06L92.88,246.4L92.89,255.42L92.99,226.89L93.19,259.34L93.65,244.01L93.66,245.95L93.86,232.58L93.99,257.58L94.3,250.92L94.31,236.89L94.71,224.57L94.95,258.32L95.07,249.01L95.08,251.63L95.38,226.85L95.66,257.9L95.84,244.28L95.85,250.03L96.27,227.08L96.47,259.29L96.57,249.7L96.58,240.35L97.14,232.45L97.27,257.7L97.34,256.26L97.35,249.07L97.52,257.32L97.99,217.43L98.1,246.96L98.11,246.03L98.22,258.42L98.74,227.11L98.85,249.08L98.86,246.27L98.94,258.02L98.96,246.05L98.97,243.34L99.48,258.34L99.61,228.21L99.73,257.3L99.74,245.08L99.81,257.97L100.06,238.9L100.44,245.94L100.46,224.63L101.14,257.78L101.21,250.57L101.22,247.66L101.27,224.89L101.34,258.28L101.97,245.49L101.99,249.31L102.22,257.83L102.32,237.43L102.71,242.48L102.72,251.07L102.76,258.27L102.89,228.15L103.47,241.86L103.48,247.01L103.74,225.36L103.97,257.36L104.23,256.03L104.24,245.65L104.55,224.91L104.62,258.59L105.01,254.07L105.02,244.48L105.22,227.16L105.5,257.8L105.77,247.04L105.78,244.94L106.11,227.37L106.31,259.34L106.51,250.24L106.52,252.04L107.02,224.98L107.25,257.94L107.27,246.15L107.28,250.82L107.83,225.26L107.9,258.49L108.03,244.94L108.04,248.69L108.07,258.59L108.5,227.16L108.77,254.8L108.78,257.91L109.39,227.59L109.54,244.26L109.55,251.35L109.59,259.47L110.26,232.93L110.28,252.16L110.3,252.39L110.39,257.94L110.71,237.48L111.05,249.95L111.06,247.28L111.11,224.86L111.35,258.57L111.81,245.79L111.83,249.59L112.06,257.86L112.16,238.13L112.52,245.27L112.53,251.14L112.67,227.51L112.87,259.48L113.3,241.4L113.31,248.57L113.54,232.8L113.67,257.99L114.07,255.37L114.08,247.88L114.39,218.6L114.62,258.69L114.81,238.53L114.82,251.56L115.14,228.18L115.34,258.23L115.56,244.48L115.57,257.16L115.88,258.47L116.01,228.32L116.33,248.86L116.34,246.91L116.86,225.57L117.09,257.88L117.1,242.66L117.67,224.72L117.74,258.43L117.85,246.3L117.86,246.86L117.91,258.34L118.34,227.16L118.59,250.75L118.61,254.71L119.15,238.2L119.16,258.45L119.28,252.5L119.29,228.57L119.49,258.13L120.05,257.3L120.06,246.36L120.14,225.57L120.37,257.78L120.8,253.66L120.81,239.66L120.95,225.16L121.02,258.6L121.56,252.64L121.57,249.62L121.62,227.18L121.9,257.91L122.3,240.77L122.32,246.14L122.51,227.9L122.71,259.58L123.01,248.33L123.02,239.43L123.42,225.5L123.65,258.37L123.78,252.67L123.79,254.31L124.23,225.39L124.47,258.69L124.55,245.25L124.56,248.04L124.9,227.29L125.18,258.16L125.27,249.33L125.28,238.61L125.79,228.37L125.99,259.66L126.02,245.62L126.04,243.45L126.66,233.19L126.79,258.13L126.8,245.83L127.11,237.83L127.38,257.84L127.5,254.05L127.51,225.19L127.75,258.66L128.27,249.12L128.28,244.16L128.46,258.08L128.56,238.91L129.03,247.27L129.04,246.4L129.07,228.18L129.27,259.68L129.76,248.83L129.77,243.38L129.94,233.25L130.07,258.16L130.51,242.47L130.52,240.28L130.79,219L131.02,259.06L131.2,248.5L131.21,238.95L131.54,228.07L131.74,258.31L131.97,257.13L131.98,249.54L132.28,258.68L132.41,228.72L132.72,251.52L132.73,249.17L133.17,257.55L133.26,225.91L133.47,249.77L133.48,254.87L134.07,225.6L134.14,258.55L134.22,254.92L134.23,247.72L134.31,258.6L134.74,227.74L134.97,251.56L134.98,244.88L135.55,238.52L135.56,258.65L135.68,252.85L135.69,228.61L135.89,258.06L136.45,257.6L136.46,246.48L136.54,225.92L136.77,258.07L137.2,253.93L137.21,240.09L137.35,225.37L137.59,258.64L137.96,252.85L137.97,249.82L138.02,227.93L138.3,258.14L138.7,241.28L138.72,246.94L138.91,228.18L139.11,259.54L139.41,248.47L139.42,239.7L139.82,225.69L140.05,258.59L140.18,252.82L140.19,254.37L140.63,225.78L140.87,258.88L140.92,245.13L140.93,251L141.3,227.81L141.58,258.24L141.68,239.14L141.69,255.83L142.19,228.31L142.39,259.65L142.44,243.65L142.45,251.55L142.92,257.95L143.06,233.43L143.18,248.83L143.19,258.08L143.91,225.64L143.94,249.61L143.96,243.49L144.15,258.85L144.58,227.77L144.7,248.32L144.71,247.64L144.86,258.27L144.96,239.5L145.46,254.8L145.47,228.48L145.67,259.68L146.23,253.95L146.24,251.7L146.34,233.52L146.47,258.17L146.91,242.6L146.92,240.47L147.19,218.69L147.42,259.28L147.6,248.46L147.61,239.33L147.94,228.42L148.14,258.49L148.37,257.12L148.38,249.7L148.73,258.9L148.81,228.99L149.12,251.88L149.13,249.31L149.57,257.68L149.66,225.99L149.87,249.91L149.88,254.92L150.47,225.85L150.54,258.59L150.62,255.05L150.63,247.87L150.71,258.79L151.14,227.85L151.37,251.75L151.38,244.92L151.95,238.63L151.96,258.77L152.08,252.98L152.09,229.44L152.21,258.25L152.85,257.81L152.86,246.88L152.94,226.46L153.17,258.3L153.6,253.67L153.61,240.19L153.75,225.79L153.99,258.83L154.36,253.1L154.37,249.92L154.42,227.86L154.7,258.34L155.11,241.48L155.12,247.21L155.31,228.63L155.51,259.73L155.81,248.46L155.82,240.02L156.22,226.32L156.45,258.89L156.58,252.87L156.59,254.3L157.03,225.96L157.27,259.05L157.32,245.36L157.33,251.35L157.7,228.2L157.98,258.44L158.08,239.8L158.09,255.98L158.59,228.59L158.79,259.81L158.84,243.66L158.85,251.82L159.32,258.17L159.46,233.64L159.58,249.1L159.59,258.32L160.31,225.64L160.34,249.63L160.36,243.87L160.55,259.07L160.98,227.84L161.1,248.62L161.11,247.72L161.26,258.4L161.36,240.02L161.86,254.84L161.87,228.77L162.07,259.82L162.63,254.25L162.64,252.01L162.74,233.62L162.87,258.34L163.3,246.32L163.31,242.74L163.59,218.66L163.82,259.44L164.01,239.6L164.02,252.6L164.34,228.31L164.54,258.61L164.76,244.93L164.77,257.12L165.13,259.14L165.21,229.6L165.53,249.33L165.54,247.76L166.06,226.66L166.29,258.57L166.3,243.59L166.87,226.03L166.94,258.61L167.05,246.62L167.06,247.14L167.11,258.95L167.54,228.06L167.79,245.27L167.8,251.17L168.36,258.94L168.49,229.72L168.55,253.62L168.56,249.12L168.61,258.46L169.06,239.99L169.3,246.86L169.32,252.83L169.34,226.49L169.57,258.61L170.04,251.3L170.05,255.82L170.15,226.25L170.39,258.96L170.8,250.37L170.81,250.92L170.82,228.5L171.1,258.34L171.56,246.23L171.57,251.51L171.71,228.83L171.91,259.92L172.34,239.63L172.35,243.53L172.62,226.64L172.85,259.11L173.11,256.36L173.12,246.39L173.43,226.25L173.67,259.09L173.89,254.58L173.91,245.53L174.1,228.65L174.38,258.63L174.65,248.65L174.66,245.16L174.99,228.88L175.19,259.97L175.39,251.2L175.4,252.34L175.72,258.36L175.86,233.8L176.15,250.12L176.16,252.2L176.71,226.01L176.78,258.5L176.93,246.02L176.94,256.43L176.95,259.21L177.38,228.35L177.67,254.97L177.68,246L177.89,257.33L178.27,229.14L178.36,249.45L178.37,256.46L178.47,260.03L179.01,236.65L179.12,244.73L179.13,252.13L179.14,233.98L179.27,258.45L179.87,253.64L179.88,253.72L179.99,219.6L180.22,259.54L180.62,250.47L180.63,256.22L180.74,228.15L180.94,258.7L181.38,251.31L181.39,250.42L181.53,259.5L181.61,229.6L182.11,248.6L182.12,256.34L182.46,226.88L182.69,258.87L182.88,239.15L182.89,250.55L183.27,226.23L183.51,258.99L183.63,248.74L183.64,251.05L183.94,228.69L184.22,258.43L184.37,248.57L184.38,254.47L184.76,259.07L184.89,229.78L185.13,245.05L185.14,253.23L185.65,258.32L185.74,226.65L185.89,250.18L185.9,246.41L185.96,254.94L185.97,258.7L186.55,226.29L186.62,259.08L186.72,249.6L186.73,247.1L186.79,259.11L186.97,244.59L187.21,250.86L187.22,228.44L187.5,258.54L187.97,251.84L187.98,247.83L188.12,229.1L188.31,260.13L188.72,246.64L188.73,245.2L189.02,226.6L189.25,259.22L189.47,246.59L189.48,254.05L189.83,226.22L190.07,259.3L190.23,248.17L190.24,249.11L190.5,228.56L190.78,258.78L190.98,250.85L190.99,253.69L191.4,229.29L191.59,260.12L191.74,251.53L191.75,248.94L192.12,258.51L192.26,234.04L192.47,249.21L192.49,243.63L193.11,226.21L193.18,258.59L193.26,255.33L193.27,248.47L193.35,259.34L193.78,228.8L193.98,247.25L193.99,244.32L194.06,258.76L194.16,240.47L194.66,254.78L194.68,229.34L194.87,260.09L195.43,254.56L195.44,252.26L195.54,233.94L195.67,258.42L196.1,246.71L196.11,243.27L196.39,220.09L196.62,259.66L196.81,240.05L196.82,253L197.14,229.12L197.34,258.95L197.56,245.21L197.57,257.55L197.93,259.47L198.01,229.77L198.33,249.68L198.34,248.29L198.86,226.85L199.09,258.92L199.1,243.89L199.67,226.35L199.74,258.95L199.85,247.12L199.86,247.42L199.91,259.14L200.34,228.91L200.56,246.92L200.58,252.31L201.21,259.34L201.29,229.84L201.33,245.27L201.34,251.44L201.41,258.68L201.86,240.5L202.07,248.99L202.08,245.81L202.14,226.59L202.37,258.89L202.83,254.28L202.84,251.66L202.95,226.44L203.19,259.23L203.57,250.37L203.58,247.12L203.62,229.01L203.9,258.76L204.33,248.91L204.34,249.19L204.52,229.41L204.71,260.16L205.07,248.25L205.08,256.23L205.42,227.45L205.65,259.26L205.84,239.1L205.85,250.76L206.23,226.17L206.47,259.5L206.59,249.19L206.6,251.3L206.9,229.18L207.18,258.83L207.33,248.78L207.34,254.8L207.8,229.33L207.99,260.22L208.1,243.41L208.11,254.36L208.52,258.71L208.67,234.11L208.85,251L208.86,257.01L209.38,258.7L209.51,226.32L209.62,247.84L209.63,250.9L209.76,259.45L210.18,229.27L210.39,244.46L210.4,246.93L210.46,258.9L211.08,229.44L211.17,256.68L211.18,249.24L211.27,260.24L211.81,237.06L211.91,254.29L211.92,244.89L211.95,234.12L212.07,258.64L212.68,253.84L212.69,250.62L212.79,220.2L213.02,259.69L213.32,243.34L213.33,243.69L213.54,229.58L213.74,259.09L214.09,253.81L214.1,257.95L214.33,259.8L214.41,229.85L214.86,241.36L214.87,249.67L215.26,227.28L215.49,258.95L215.61,249.97L215.62,254.14L216.07,226.53L216.32,259.34L216.33,246.19L216.74,229.4L217.02,259.04L217.03,255.06L217.04,246.28L217.12,240.69L217.25,257.74L217.37,253.74L217.38,257.96L217.61,259.47L217.69,230.2L218.14,241.32L218.15,249.56L218.54,227.57L218.77,258.95L218.89,249.8L218.9,253.97L219.35,226.55L219.6,259.32L219.61,246.19L219.77,244.84L219.93,256.62L220.01,250.87L220.02,229.16L220.3,259.03L220.78,248.28L220.79,250.98L220.92,229.47L221.11,260.33L221.55,244.58L221.57,249.72L221.82,227.69L222.05,259.42L222.31,256.76L222.32,247.01L222.63,226.5L222.88,259.63L223.1,254.83L223.11,246.1L223.3,229.65L223.58,259.09L223.85,249.31L223.86,245.67L224.2,229.81L224.39,260.44L224.59,251.73L224.6,252.86L224.92,258.84L225.07,234.27L225.35,250.36L225.36,253.12L225.91,226.43L225.98,258.87L226.13,246.7L226.14,256.68L226.16,259.62L226.58,229.56L226.82,252.65L226.83,246.42L226.86,259.13L227.48,229.52L227.59,252.08L227.6,249.27L227.67,260.41L228.21,237.11L228.32,244.9L228.33,251.97L228.35,234.23L228.47,258.88L229.07,253.8L229.08,253.87L229.19,220.76L229.42,259.87L229.82,250.9L229.83,256.6L229.94,229.81L230.14,259.35L230.58,251.88L230.59,250.9L230.73,259.86L230.81,230.18L231.31,248.85L231.32,256.72L231.66,226.96L231.89,259.12L232.08,239.45L232.09,251.12L232.47,226.57L232.72,259.42L232.83,249.23L232.84,251.59L233.14,229.5L233.42,259.16L233.57,249.13L233.59,255L234.01,259.67L234.09,230.47L234.35,243.18L234.36,251.83L234.85,258.62L234.94,227.72L235.06,251.78L235.07,256.11L235.17,259.19L235.75,226.82L235.81,248.47L235.82,259.38L236,259.42L236.43,229.44L236.57,256L236.58,254.76L236.7,259.04L237.32,229.83L237.33,252.72L237.34,252.36L237.51,260.43L237.94,240.73L238.08,255.69L238.09,254.14L238.13,258.55L238.16,246.04L238.21,246.6L238.22,227.87L238.45,259.5L238.97,251.46L238.98,249.43L239.03,226.72L239.28,259.73L239.72,254.54L239.73,253.95L239.98,259.13L240.27,240.89L240.48,248.14L240.49,257.51L240.6,229.82L240.79,260.47L241.24,251.49L241.25,251.62L241.47,234.21L241.59,259.04L241.98,256.73L241.99,256.75L242.31,226.64L242.56,259.73L242.74,245.33L242.75,254.17L242.99,229.67L243.26,259.21L243.48,245.28L243.49,258.02L243.88,229.95L244.07,260.5L244.25,248.91L244.26,249.15L244.75,234.28L244.87,259.08L245,252.54L245.01,246.3L245.59,220.79L245.73,258.98L245.76,249.15L245.77,248.07L245.82,259.87L246.34,229.91L246.51,249.81L246.52,248.63L247.13,259.99L247.21,229.99L247.27,253.89L247.28,249.86L247.33,259L247.78,241.45L248.03,247.32L248.04,253.03L248.06,227.95L248.29,259.19L248.76,251.96L248.77,256.22L248.87,226.75L249.12,259.56L249.52,250.29L249.53,250.82L249.55,229.74L249.82,259.24L250.28,249.19L250.29,246.23L250.41,259.83L250.49,230.41L251.04,247.69L251.05,245.81L251.34,228.15L251.57,259.31L251.79,247.2L251.8,254.6L252.15,226.86L252.4,259.5L252.55,248.39L252.56,249.61L252.83,229.85L253.1,259.17L253.3,251.75L253.31,254.07L253.72,229.87L253.92,260.52L254.06,252.3L254.07,249.81L254.53,258.59L254.62,228.13L254.82,250.43L254.83,251.53L254.85,259.71L255.43,226.76L255.58,256.13L255.59,248.91L255.68,259.84L256.11,230L256.3,247.77L256.31,245.01L256.38,259.26L256.67,241.05L256.99,254.99L257,229.88L257.2,260.61L257.75,254.96L257.76,252.58L257.87,234.32L257.99,259.2L258.42,245.68L258.43,244.54L258.71,226.83L258.96,259.86L259.12,249.6L259.13,245.07L259.29,257.03L259.37,250.91L259.39,229.94L259.66,259.4L260.14,248.71L260.15,251.01L260.28,230.05L260.48,260.63L260.9,244.05L260.92,252.06L260.97,245.48L260.98,252.53L260.99,247.48L261,259.12L261.15,234.21L261.27,259.36L261.75,251.95L261.76,245.26L261.99,221.04L262.23,259.92L262.5,245.51L262.51,244.24L262.52,244.05L262.59,253.04L262.62,250.97L262.63,256.82L262.74,229.75L262.94,259.5L263.38,252.22L263.39,251.21L263.54,260.16L263.61,230.1L264.11,248.9L264.12,256.79L264.46,227.84L264.69,259.37L264.88,239.93L264.89,251.56L265.27,226.79L265.52,259.64L265.63,249.46L265.64,251.85L265.95,230.1L266.22,259.3L266.38,249.6L266.39,255.07L266.82,260.02L266.89,230.64L267.15,243.43L267.16,252.21L267.65,258.87L267.74,228.66L267.86,251.98L267.87,256.39L267.97,259.34L268.55,227.03L268.61,248.66L268.62,259.59L269.23,230.1L269.37,256.4L269.38,255L269.5,259.27L270.12,229.9L270.13,252.8L270.14,252.59L270.32,260.61L270.74,241.41L270.88,256.09L270.89,254.27L270.93,258.74L270.96,246.51L271.01,246.62L271.02,228.13L271.25,259.73L271.77,251.69L271.78,249.78L271.83,226.98L272.08,259.79L272.52,254.47L272.53,253.97L272.78,259.43L273.07,241.22L273.28,248.2L273.29,257.79L273.4,230.36L273.6,260.71L274.04,252.37L274.05,252.02L274.27,234.38L274.39,259.41L274.78,256.74L274.79,256.89L275.11,226.98L275.36,259.89L275.54,245.46L275.55,254.39L275.79,230.12L276.06,259.51L276.28,245.52L276.29,258.15L276.68,230.37L276.88,260.72L277.05,248.94L277.06,249.54L277.55,234.38L277.67,259.43L277.8,252.74L277.81,246.31L278.31,259.31L278.39,221.48L278.56,249.3L278.57,248.41L278.63,260L279.14,230.23L279.31,250.05L279.32,248.83L279.94,260.4L280.01,230.36L280.07,254.14L280.08,249.94L280.13,259.37L280.59,241.86L280.83,247.57L280.84,253.28L280.86,228.23L281.09,259.4L281.56,252.08L281.57,256.4L281.67,226.92L281.92,259.62L282.32,250.43L282.34,250.95L282.35,230.34L282.62,259.34L283.09,246.36L283.1,251.49L283.22,260.15L283.29,230.83L283.85,246.07L283.87,241.83L284.14,228.98L284.37,259.39L284.63,257.21L284.64,247.69L284.95,227.19L285.02,259.72L285.4,254.46L285.41,251.67L285.63,230.26L285.9,259.42L286.16,253.84L286.17,250.03L286.52,230.29L286.72,260.7L286.91,252.2L286.93,253.33L287.42,228.72L287.65,259.8L287.68,252.45L287.69,246.9L288.23,227.15L288.3,259.74L288.44,250.24L288.46,247.52L288.48,259.92L288.91,230.33L289.2,246.75L289.21,247.3L289.41,258.05L289.8,230.71L289.84,253.86L289.85,254.53L290,260.79L290.53,237.32L290.6,250.26L290.61,250.46L290.67,234.58L290.79,259.44L291.35,248.14L291.36,254.89L291.52,227.09L291.76,260.07L292.11,252.12L292.12,253.9L292.19,230.36L292.46,259.65L292.88,249.69L292.89,249.36L293.08,230.46L293.28,260.86L293.57,247.39L293.58,242.92L293.95,234.51L294.07,259.44L294.34,255.39L294.35,251.99L294.4,241.72L294.71,259.35L294.78,253.91L294.8,221.58L295.03,260.02L295.55,251.59L295.56,251.69L296.27,239.28L296.28,259.87L296.3,254.56L296.31,252.6L296.34,260.54L296.41,230.62L297.04,248.55L297.05,250.72L297.26,228.44L297.49,259.31L297.81,242.52L297.82,253.53L298.08,227.21L298.32,259.86L298.53,251.73L298.54,255.25L298.75,230.61L299.02,259.53L299.3,244.55L299.31,246.23L299.62,260.27L299.69,231.01L300.03,252.34L300.05,253.64L300.54,229.2L300.77,259.41L300.81,246.55L300.82,249.26L301.36,227.29L301.42,259.76L301.55,247.13L301.56,250.42L301.6,259.74L302.03,230.57L302.28,252.25L302.29,255.4L302.3,259.64L302.92,230.63L303.03,252.79L303.04,249.81L303.12,260.82L303.55,241.78L303.72,254.05L303.73,258.93L303.82,229.03L304.05,259.77L304.49,241.06L304.5,259.27L304.64,227.35L304.88,259.98L305.26,248.2L305.27,253.66L305.31,230.62L305.58,259.66L305.99,244.2L306,249.99L306.09,257.98L306.2,230.87L306.39,254.62L306.4,260.96L307.07,234.51L307.11,245.22L307.12,252.27L307.19,259.56L307.52,240.7L307.85,251.55L307.86,249.91L307.92,227.23L308.16,260.11L308.6,254.56L308.61,253.89L308.86,259.77L309.15,241.59L309.36,248.45L309.37,257.97L309.48,230.81L309.68,260.93L310.12,252.79L310.13,252.11L310.35,234.54L310.47,259.55L310.86,256.73L310.87,256.43L311.2,221.62L311.43,260.08L311.62,254.15L311.64,244.01L311.94,230.61L312.14,259.89L312.4,254.18L312.41,250.95L312.74,260.57L312.81,230.77L313.15,252.59L313.17,253.76L313.66,228.52L313.89,259.34L313.93,246.66L313.94,249.35L314.48,227.26L314.54,259.78L314.61,253.34L314.62,256.41L314.72,259.95L315.15,230.82L315.37,247.58L315.38,253.18L316.02,260.28L316.09,231.09L316.13,247.02L316.14,252.79L316.21,259.66L316.67,242.11L316.86,248.22L316.88,249.56L316.94,228.98L317.17,259.42L317.57,250.13L317.58,253.46L317.76,227.45L318,259.94L318.32,248.77L318.33,257.47L318.43,230.92L318.7,259.71L319.11,244.34L319.12,250.18L319.32,230.89L319.52,260.88L319.74,246.88L319.75,257.64L320.22,229.13L320.45,259.79L320.51,248.79L320.52,255.79L321.04,227.47L321.1,259.89L321.26,248.02L321.27,257.14L321.28,260.26L321.71,230.88L321.99,255.39L322,246.95L322.21,258.21L322.27,241.65L322.59,255.37L322.6,231.03L322.8,260.95L323.35,255.48L323.36,252.8L323.47,234.63L323.59,259.59L324.02,246.37L324.03,245.1L324.17,241.4L324.18,259.21L324.3,254.68L324.32,227.41L324.56,260.22L325.07,250.96L325.08,245.68L325.26,259.89L325.55,241.66L325.83,248.77L325.85,248.74L325.88,230.88L326.08,261.06L326.56,251.16L326.57,246.09L326.6,259.6L326.75,234.64L327.31,244.72L327.32,242.9L327.6,222.51L327.83,260.22L328,249.8L328.01,241.46L328.34,231.03L328.54,260.02L328.77,258.41L328.78,252.17L329.14,260.74L329.21,231.15L329.42,250.2L329.43,243.72L329.97,259.31L330.06,229.46L330.19,256.68L330.2,249.03L330.29,259.47L330.48,240.75L330.87,254.59L330.88,227.51L331.12,260.02L331.63,250.86L331.64,245.67L331.82,259.91L332.35,239.57L332.4,252.99L332.41,249.55L332.42,260.29L332.49,231.13L333.16,254.84L333.17,252.93L333.34,229.46L333.57,259.49L333.91,252.17L333.93,248.07L334.16,227.61L334.4,260.04L334.68,250.45L334.69,249.22L334.83,231.05L335.1,259.85L335.44,252.88L335.46,256.62L335.72,231.18L335.92,260.93L336.22,242.89L336.23,250.75L336.62,229.24L336.85,259.79L336.97,250.72L336.99,254.79L337.44,227.62L337.68,260.27L337.69,246.97L338.11,231.08L338.38,259.84L338.43,251.02L338.44,244.99L339,231.23L339.2,261.01L339.21,259.43L339.22,244.17L339.72,259.72L339.87,234.62L339.99,259.6L340,247.96L340.32,240.91L340.58,259.26L340.71,254.71L340.72,227.46L340.96,260.25L341.47,251.01L341.48,245.81L341.66,259.98L341.95,241.9L342.22,251.66L342.24,248.86L342.28,231.24L342.48,261.05L342.88,245.39L342.9,244.08L343,259.69L343.15,234.74L343.59,252.71L343.6,242.13L344,222.77L344.23,260.3L344.36,255.65L344.37,253.78L344.74,231.16L344.94,260.07L345.1,250.71L345.11,255.01L345.54,260.82L345.61,231.18L345.87,243.92L345.88,253.21L346.37,259.37L346.46,229.76L346.65,247.67L346.66,250.87L346.69,259.54L346.88,240.97L347.27,254.56L347.28,227.67L347.52,260.13L348.03,250.95L348.04,245.7L348.22,259.96L348.75,239.62L348.8,253.13L348.81,249.7L348.82,260.41L348.89,231.32L349.56,254.99L349.57,253.13L349.74,229.79L349.97,259.62L350.31,252.28L350.33,248.08L350.56,227.74L350.62,260.12L351.08,250.49L351.09,249.36L351.23,231.11L351.5,259.92L351.84,252.98L351.86,256.75L352.12,231.27L352.32,261L352.62,242.96L352.63,250.86L353.02,229.44L353.25,259.94L353.37,250.82L353.39,254.92L353.84,227.71L354.08,260.41L354.09,247.03L354.51,231.19L354.78,260.02L354.83,251.11L354.84,245.1L355.4,231.42L355.6,261.12L355.61,259.51L355.62,244.21L356.12,259.77L356.27,234.8L356.39,259.64L356.4,248.02L356.72,241.07L356.98,259.33L357.11,254.81L357.12,227.56L357.36,260.32L357.87,251.1L357.88,245.89L358.06,260.15L358.35,242.01L358.62,251.86L358.64,248.9L358.67,255.54L358.68,231.1L358.88,261.07L359.43,255.61L359.44,252.95L359.55,234.82L359.67,259.7L360.1,248.78L360.11,244.96L360.4,222.78L360.63,260.31L360.82,241.63L360.83,254.36L361.14,231.52L361.34,260.21L361.58,252.49L361.59,253.05L361.94,260.9L362.01,231.27L362.32,253.04L362.33,250.41L362.39,257.99L362.59,242.6L362.67,253.5L362.68,255.16L362.86,229.19L363.09,259.59L363.41,243.25L363.42,254.61L363.68,227.79L363.92,260.21L364.18,251.43L364.19,250.14L364.23,246.92L364.25,257.72L364.34,251.27L364.35,231.29L364.62,260.08L365.1,252.08L365.11,246.32L365.22,260.58L365.29,231.37L365.86,246.68L365.87,242.56L366.14,229.71L366.37,259.64L366.63,257.51L366.64,248.37L366.96,227.78L367.2,260.23L367.38,246.2L367.39,245.84L367.63,231.31L367.9,260.04L368.14,252.14L368.15,253.12L368.52,231.57L368.72,261.01L368.88,254.03L368.89,249.33L369.15,242.45L369.33,259.4L369.41,247.19L369.42,229.84L369.65,259.99L370.17,252.18L370.18,250.63L370.24,227.73L370.48,260.46L370.92,254.57L370.93,254.15L371.18,260.03L371.47,242.01L371.68,248.83L371.69,258.38L371.8,231.49L372,261.13L372.44,253.72L372.45,252.29L372.52,259.94L372.67,234.84L373.18,257.17L373.19,257.27L373.52,227.68L373.76,260.41L373.95,245.92L373.96,254.92L374.19,231.16L374.46,260.14L374.71,253.23L374.72,254.23L375.08,231.49L375.28,261.16L375.47,250.46L375.48,253.04L375.8,259.98L375.95,234.81L376.16,250.43L376.17,246.54L376.71,259.8L376.8,222.59L376.93,259.67L376.94,246.29L377.03,260.35L377.54,231.58L377.7,252.69L377.71,250.67L378.34,260.9L378.41,231.21L378.43,251.99L378.44,254.37L378.54,259.68L378.99,242.74L379.19,248.37L379.2,250.18L379.26,229.37L379.49,259.62L379.91,248.98L379.92,255.21L380.08,227.79L380.32,260.24L380.67,252.99L380.68,254.23L380.75,231.26L381.02,260.17L381.44,241.96L381.45,247.42L381.62,260.62L381.69,231.54L382.21,253.8L382.22,252.41L382.54,229.92L382.77,259.69L382.96,241.11L382.97,252.64L383.36,227.85L383.6,260.33L383.71,250.3L383.72,252.79L384.03,231.47L384.3,260.14L384.46,250.44L384.47,255.43L384.92,231.57L385.12,261.08L385.22,245.7L385.23,255.62L385.74,259.47L385.82,229.6L385.99,248.24L386,247.98L386.05,259.98L386.06,246.31L386.64,227.84L386.7,260.26L386.81,248.59L386.82,249.09L386.88,260.56L387.31,231.44L387.44,252.21L387.45,257.26L387.58,260.15L387.87,242.12L388.18,250.56L388.19,255.6L388.2,231.62L388.4,261.18L388.93,238.12L388.94,257.84L389.07,234.98L389.19,259.8L389.71,246.15L389.72,251.88L389.92,227.73L390.16,260.49L390.45,249.58L390.46,254.11L390.59,231.28L390.86,260.22L391.21,253.23L391.22,256.97L391.48,231.57L391.68,261.15L391.98,243.82L391.99,248.76L392.2,260.1L392.35,234.88L392.71,246.66L392.72,258.47L393.2,223.03L393.43,260.42L393.49,246.22L393.5,256.59L393.94,231.59L394.14,260.21L394.24,243.49L394.25,257.43L394.74,261.15L394.81,231.46L395,251.17L395.01,259.44L395.58,259.61L395.66,230.17L395.77,248.09L395.78,252.58L395.89,259.7L396.08,241.33L396.47,254.84L396.48,227.89L396.72,260.29L397.23,251.11L397.24,246.09L397.42,260.19L397.95,239.93L398,253.33L398.01,250.21L398.02,260.69L398.09,231.59L398.76,255.36L398.77,253.42L398.94,229.9L399.17,259.68L399.52,252.44L399.53,248.48L399.76,227.87L400,260.36L400.28,250.71L400.29,249.8L400.43,231.55L400.7,260.19L401.03,252.2L401.05,253.31L401.32,231.72L401.52,261.14L401.79,251.63L401.8,247.28L402.22,229.98L402.45,260.04L402.56,250.66L402.58,251.14L403.04,227.86L403.28,260.61L403.33,253.1L403.34,249.23L403.61,257.9L403.71,231.56L403.97,255.75L403.98,260.22L404.6,231.71L404.74,246.93L404.76,253.79L404.8,261.24L405.47,234.98L405.51,246.76L405.52,252.86L405.59,259.87L405.92,241.32L406.25,252.09L406.26,250.56L406.32,227.79L406.56,260.55L407,254.7L407.01,254.14L407.26,260.28L407.55,242.37L407.76,248.84L407.77,258.47L407.88,231.67L408.08,261.27L408.52,254.33L408.53,252.51L408.6,260.18L408.75,234.96L409.26,257.04L409.27,256.78L409.6,223.18L409.83,260.43L410.02,242.05L410.03,254.7L410.34,231.8L410.54,260.3L410.78,252.97L410.79,253.13L411.14,261.14L411.21,231.51L411.52,253.19L411.54,250.71L411.59,258.24L411.79,243.07L411.96,254.84L411.98,259.67L412.06,230.37L412.29,259.73L412.73,241.7L412.74,259.49L412.88,227.93L413.12,260.36L413.51,249.05L413.52,254.1L413.55,231.55L413.82,260.29L414.24,242.23L414.25,247.64L414.42,260.81L414.49,231.68L415.01,253.97L415.02,252.6L415.34,230.07L415.57,259.72L415.76,241.33L415.77,252.89L416.16,227.94L416.4,260.5L416.51,250.39L416.52,252.97L416.83,231.66L417.1,260.28L417.26,250.58L417.27,255.57L417.72,231.84L417.92,261.26L418.02,246.09L418.03,255.82L418.54,259.57L418.62,229.9L418.79,248.41L418.8,248.08L418.85,260.09L418.86,246.6L419.03,252.39L419.04,241.39L419.44,227.93L419.68,260.71L419.8,252.99L419.81,250.5L420.11,231.56L420.38,260.33L420.55,255.54L420.56,248.52L420.61,258.65L420.67,242.43L420.99,255.74L421,231.8L421.2,261.33L421.75,255.85L421.76,253.2L421.87,235.07L421.99,259.88L422.42,247.48L422.43,245.89L422.57,241.89L422.58,259.39L422.71,255.12L422.72,227.88L422.96,260.61L423.47,251.47L423.48,246.3L423.66,260.38L423.95,242.46L424.23,252.2L424.24,249.34L424.27,255.84L424.28,231.77L424.48,261.32L425.03,255.87L425.04,253.24L425.15,235.06L425.27,259.89L425.7,249.36L425.71,245.39L426,223.42L426.23,260.5L426.42,242.11L426.43,254.77L426.74,231.93L426.94,260.38L427.18,253.15L427.19,253.11L427.54,261.25L427.61,231.61L427.92,253.2L427.94,250.81L428.38,259.7L428.46,230.42L428.57,248.33L428.59,252.66L429.28,227.95L429.34,260.37L429.35,249.63L429.52,260.42L429.95,231.63L430.1,256.17L430.12,248.94L430.75,239.91L430.82,260.82L430.86,256.11L430.87,246.09L430.89,231.72L431.02,260.13L431.62,255.12L431.63,251.85L431.74,230.16L431.97,259.71L432.34,253.2L432.35,246.28L432.56,227.98L432.8,260.53L433.1,254.35L433.11,247.64L433.23,231.75L433.5,260.34L433.78,247.49L433.79,242.49L434.12,231.91L434.32,261.31L434.55,258.18L434.56,252.24L435.02,230.2L435.25,260.1L435.26,246.75L435.84,227.98L435.9,260.5L436,250.9L436.02,248.81L436.08,260.77L436.27,246.1L436.5,251.59L436.51,231.84L436.78,260.37L437.26,250.39L437.27,251.68L437.4,231.95L437.6,261.37L438.03,245.6L438.04,254.55L438.12,260.37L438.27,235.13L438.77,249.89L438.78,257.34L439.12,227.89L439.36,260.63L439.55,246.13L439.56,255.13L439.79,231.56L440.06,260.5L440.31,253.35L440.32,254.58L440.68,231.86L440.88,261.38L441.07,250.85L441.08,253.36L441.4,260.36L441.55,235.09L441.76,250.62L441.77,247.31L442.4,223.54L442.53,260.05L442.54,246.77L442.63,260.55L443.14,232.07L443.3,253.19L443.31,250.93L443.94,261.27L444.01,231.56L444.03,252.24L444.04,254.59L444.14,259.99L444.59,243.32L444.79,248.6L444.8,250.49L444.86,230.51L445.09,259.8L445.49,250.88L445.5,254.44L445.68,228.02L445.92,260.5L446.24,248.96L446.25,258.02L446.35,231.76L446.62,260.37L447.04,242.47L447.05,247.99L447.22,260.9L447.29,231.81L447.81,254.05L447.83,252.71L448.14,230.09L448.37,259.79L448.58,246.16L448.59,248.33L448.96,228.03L449.02,260.58L449.34,251.66L449.36,249.4L449.63,231.88L449.9,260.43L450.11,255.18L450.12,246.44L450.52,232.07L450.72,261.36L450.87,251.35L450.89,254.24L451.34,259.66L451.42,230.2L451.63,252.81L451.64,255.91L452.24,228.09L452.3,260.55L452.38,257.26L452.39,249.82L452.48,260.79L452.91,231.92L453.11,248.85L453.12,246.12L453.18,260.41L453.47,242.66L453.79,255.91L453.8,232.06L454,261.4L454.55,255.95L454.56,253.35L454.67,235.18L454.79,259.92L455.22,247.8L455.23,246.08L455.37,242.01L455.38,259.38L455.51,255.27L455.52,227.95L455.76,260.72L456.27,251.68L456.28,246.51L456.46,260.54L456.75,242.73L457.03,252.4L457.04,249.54L457.08,232.02L457.28,261.38L457.67,249.29L457.68,246.26L457.8,260.46L457.81,238.31L457.94,253.11L457.95,235.1L458.71,260.03L458.72,248.27L458.8,223.64L459.03,260.59L459.49,254.77L459.5,248.02L459.54,232.27L459.74,260.48L460.26,256.57L460.27,240.19L460.34,261.29L460.41,231.55L461.02,253.34L461.03,248.63L461.26,230.64L461.49,259.86L461.67,252.99L461.68,241.79L462.08,228.05L462.32,260.56L462.43,250.66L462.44,253.1L462.75,231.88L463.02,260.41L463.18,250.86L463.19,255.75L463.62,260.96L463.69,231.85L463.95,244.67L463.96,253.87L464.46,259.81L464.54,230.27L464.67,252.86L464.68,257.69L465.36,228.15L465.42,260.64L465.43,249.94L465.44,255.13L465.6,260.63L466.03,231.98L466.17,257.52L466.19,256.37L466.3,260.43L466.92,232.19L466.94,253.36L466.95,249.21L467.12,261.37L467.66,243.34L467.7,255L467.72,252.05L467.82,230.41L468.05,260.17L468.46,254.63L468.47,249.58L468.64,228.13L468.88,260.87L469.22,255.01L469.23,253.62L469.31,231.97L469.58,260.5L469.86,247.74L469.87,242.81L470.2,232.17L470.4,261.43L470.63,258.28L470.64,252.61L470.92,260.52L471.07,235.15L471.32,253.53L471.33,247.23L471.92,228L471.98,260.29L472.07,249.55L472.09,250.88L472.16,260.7L472.59,231.82L472.83,248.1L472.84,253.29L472.86,260.61L473.48,232.12L473.57,257.98L473.58,251.11L473.68,261.44L474.21,238.39L474.32,255.16L474.33,246.8L474.35,235.21L474.47,260.04L475.08,254.59L475.09,252.67L475.2,223.89L475.43,260.66L475.77,249.05L475.78,248.56L475.94,232.43L476.14,260.51L476.53,250.44L476.54,248.14L476.74,261.39L476.81,231.76L477.15,250.63L477.16,253.52L477.58,259.82L477.66,230.74L477.84,247.85L477.85,248.49L478.48,228.08L478.54,260.53L478.62,257.21L478.63,249.72L478.72,260.67L478.91,246.15L479.14,251.63L479.15,232.01L479.42,260.54L479.9,252.68L479.91,247.16L480.02,261.01L480.09,231.88L480.66,247.43L480.67,243.74L480.94,230.37L481.17,259.94L481.43,258.07L481.44,249.06L481.76,228.13L482,260.72L482.18,247.01L482.19,246.32L482.43,232.1L482.7,260.5L482.94,253.44L482.95,253.39L483.32,232.3L483.52,261.42L483.69,254.42L483.7,250.23L484.06,243.47L484.14,259.81L484.21,247.56L484.22,230.5L484.45,260.25L484.97,252.62L484.99,251.38L485.04,228.18L485.28,260.89L485.74,248.69L485.75,254.23L485.98,260.56L486.27,242.89L486.48,248.95L486.49,258.8L486.6,232.33L486.8,261.45L487.24,255.04L487.25,252.75L487.32,260.64L487.47,235.21L487.98,257.43L487.99,257.73L488.32,228.1L488.56,260.77L488.75,246.33L488.76,255.25L488.99,231.92L489.26,260.64L489.51,253.53L489.52,254.68L489.88,232.29L490.08,261.47L490.27,251.12L490.28,253.62L490.6,260.71L490.75,235.24L490.96,250.82L490.97,247.68L491.51,260.17L491.6,223.94L491.73,260.11L491.74,247.01L491.83,260.72L492.34,232.5L492.5,253.4L492.51,251.11L492.54,260.58L493.08,240.19L493.13,250.86L493.14,261.46L493.21,231.81L493.9,243.71L493.91,251.79L494.06,230.46L494.29,259.96L494.66,253.45L494.67,246.54L494.88,228.15L495.12,260.69L495.42,254.64L495.43,248.02L495.55,232.12L495.82,260.56L496.09,251.63L496.1,245.92L496.42,261.11L496.49,232L496.9,254.38L496.91,252.53L497.34,230.99L497.57,260.05L497.65,253.73L497.67,252.41L497.76,241.92L497.83,258.13L498,255.6L498.01,241.96L498.16,228.18L498.4,260.75L498.76,253.85L498.77,254.92L498.83,232.19L499.1,260.53L499.51,245.99L499.52,252.06L499.72,232.38L499.92,261.39L500.25,249.99L500.26,256L500.62,230.64L500.85,260.28L501.02,247.63L501.03,252.82L501.44,228.17L501.68,260.92L501.78,251.7L501.79,250.83L502.11,232.22L502.38,260.61L502.55,255.85L502.56,248.99L502.61,258.9L502.67,243.02L502.99,256.22L503,232.38L503.2,261.49L503.75,256.13L503.76,253.52L503.87,235.27L503.99,260.1L504.43,246.39L504.45,246.88L504.72,228.11L504.96,260.78L505.17,252.54L505.18,256.31L505.39,232.03L505.66,260.69L505.93,251.76L505.94,247.99L506.28,232.33L506.48,261.51L506.67,251.21L506.68,253.7L507,260.77L507.15,235.24L507.36,250.86L507.37,247.82L508,224.14L508.13,260.23L508.14,247.05L508.23,260.77L508.74,232.64L508.9,253.48L508.91,251.19L508.94,260.65L509.48,240.31L509.53,250.93L509.54,261.52L509.61,231.85L510.3,243.81L510.31,251.8L510.46,230.5L510.69,259.98L511.06,253.47L511.07,246.64L511.28,228.17L511.52,260.75L511.82,254.75L511.83,248.18L511.95,232.22L512.22,260.61L512.49,251.72L512.5,245.97L512.82,261.18L512.89,232.06L513.3,254.45L513.31,252.65L513.74,231.12L513.97,260.04L514.05,253.77L514.07,252.5L514.16,242L514.23,258.19L514.4,255.64L514.41,242.1L514.56,228.22L514.8,260.76L515.16,253.95L515.17,255.01L515.23,232.27L515.5,260.64L515.91,246.1L515.92,252.16L516.12,232.45L516.32,261.47L516.65,250.02L516.66,255.99L517.02,230.7L517.25,260.34L517.42,247.68L517.43,252.84L517.84,228.24L518.08,260.94L518.18,251.72L518.19,250.9L518.51,232.26L518.78,260.61L518.95,255.9L518.96,249.06L519.07,243.08L519.29,258.95L519.39,256.23L519.4,232.39L519.6,261.52L520.15,256.16L520.16,253.58L520.27,235.27L520.39,260.09L520.82,248.27L520.84,246.47L520.97,242.31L521.09,259.62L521.11,255.63L521.12,228.15L521.36,260.84L521.87,251.74L521.88,246.93L522.06,260.72L522.35,243.14L522.63,252.78L522.64,249.95L522.68,232.43L522.88,261.54L523.17,248.68L523.18,244.6L523.4,260.82L523.55,235.24L523.95,256.49L523.96,252.99L524,243.19L524.31,260.31L524.39,254.57L524.4,224.21L524.63,260.81L525.15,253.1L525.16,252.55L525.34,260.72L525.88,240.36L525.89,260.12L525.94,261.53L526.01,231.92L526.66,247.26L526.67,254.43L526.86,230.76L527.09,260.08L527.38,248.47L527.4,246.66L527.53,242.2L527.65,260.1L527.67,255.52L527.68,228.24L527.92,260.82L528.43,251.68L528.44,246.94L528.62,260.68L529.16,240.26L529.2,254.01L529.21,251.06L529.22,261.25L529.29,232.03L529.96,256.2L529.97,254.06L530.14,231.17L530.37,260.09L530.72,252.87L530.73,249.26L530.96,228.27L531.2,260.8L531.48,251.15L531.49,250.6L531.63,232.32L531.9,260.65L532.24,252.88L532.25,254.04L532.52,232.5L532.72,261.52L532.99,252.5L533,248.06L533.42,230.89L533.65,260.38L533.76,253.04L533.77,251.42L533.84,242.02L533.91,258.01L534.08,256L534.09,242.16L534.24,228.29L534.48,260.97L534.84,253.98L534.85,255.05L534.91,232.34L535.18,260.72L535.59,246.31L535.6,252.35L535.8,232.54L536,261.54L536.34,254.12L536.35,253.42L536.52,260.93L536.67,235.29L537.09,253.82L537.1,247.99L537.52,228.14L537.76,260.88L537.85,252.72L537.86,252.11L538.09,258.32L538.19,232.13L538.33,252.8L538.34,257.75L538.46,260.78L538.75,243.23L539.06,250.94L539.07,256.33L539.08,232.5L539.28,261.59L539.81,238.65L539.82,258.08L539.95,235.3L540.08,260.24L540.6,249.78L540.61,252.84L540.8,224.36L541.03,260.84L541.35,249.17L541.36,252.82L541.54,232.71L541.74,260.72L542.1,255.01L542.11,259.1L542.34,261.61L542.41,231.97L542.86,243.89L542.87,252.32L543.26,230.81L543.49,260.11L543.62,252L543.63,256.44L544.08,228.23L544.32,260.82L544.33,247.56L544.75,232.33L545.02,260.77L545.07,252.35L545.08,246.15L545.62,261.3L545.69,232.13L545.84,251.77L545.85,249.34L545.89,259.59L546.38,243.84L546.45,255.46L546.46,260.06L546.54,231.11L546.77,260.12L547.21,242.22L547.22,259.71L547.36,228.26L547.6,260.83L547.99,249.88L548,254.74L548.03,232.39L548.3,260.76L548.71,246.33L548.72,252.44L548.92,232.59L549.12,261.58L549.45,250.16L549.46,256.13L549.82,231.02L550.05,260.41L550.22,247.85L550.23,252.96L550.64,228.29L550.88,261L550.98,251.87L550.99,251.01L551.31,232.41L551.58,260.75L551.68,251.14L551.69,243.86L552.2,232.6L552.4,261.58L552.44,247.19L552.45,254.46L552.92,260.96L553.07,235.3L553.18,251.31L553.2,260.2L553.92,228.17L553.96,248.92L553.97,250.27L554.16,260.9L554.59,232.2L554.71,250.72L554.73,252.89L554.86,260.83L555.15,243.38L555.47,256.36L555.48,232.57L555.68,261.64L556.23,256.19L556.24,253.67L556.35,235.32L556.48,260.23L556.79,253.86L556.8,243.29L557.2,224.5L557.43,260.88L557.55,252.76L557.57,256.9L557.94,232.75L558.14,260.75L558.3,251.51L558.31,255.82L558.74,261.66L558.81,232.01L559.07,245.19L559.08,254.29L559.58,260.13L559.66,230.97L559.79,253.17L559.8,258.07L560.48,228.27L560.54,260.66L560.55,250.27L560.56,255.28L560.72,260.9L561.15,232.41L561.3,257.72L561.31,256.73L561.96,240.37L562.02,261.34L562.07,246.75L562.08,254.78L562.09,232.15L562.22,260.5L562.82,255.03L562.83,255.51L562.94,231.41L563.17,260.18L563.59,250.26L563.6,255.91L563.76,228.34L564,260.86L564.35,255.31L564.36,254.14L564.43,232.44L564.7,260.8L565.07,251.23L565.08,245.97L565.32,232.63L565.52,261.62L565.83,252.47L565.84,245.38L566.22,231.21L566.45,260.51L566.6,257.65L566.61,254.34L567.04,228.29L567.28,261.07L567.36,252.02L567.37,252.59L567.71,232.46L567.98,260.79L568.09,243.97L568.1,257.9L568.6,232.69L568.8,261.66L568.86,248.65L568.87,248.74L569.32,260.99L569.47,235.3L569.62,251.48L569.63,250.02L570.29,259.81L570.32,228.21L570.37,250.33L570.38,260.65L570.56,261L570.99,232.28L571.13,252.89L571.14,257.84L571.26,260.9L571.56,243.44L571.86,251.13L571.87,256.4L571.88,232.63L572.08,261.68L572.61,238.8L572.62,258.14L572.75,235.35L572.88,260.29L573.4,250.02L573.41,252.96L573.6,224.5L573.83,260.93L574.16,252.96L574.18,249.43L574.24,258.58L574.34,232.83L574.43,252.16L574.44,257.87L575.08,240.54L575.14,261.68L575.19,246.73L575.2,254.6L575.21,232.1L575.34,260.32L575.94,255.12L575.95,255.6L576.06,231.22L576.29,260.14L576.71,250.31L576.72,256.25L576.88,228.33L577.12,260.96L577.47,255.34L577.48,254.18L577.55,232.37L577.82,260.87L578.19,259.33L578.2,251.31L578.35,257.3L578.36,240.46L578.37,260.34L578.42,261.4L578.49,232.19L579.14,247.54L579.15,254.69L579.34,231.33L579.57,260.2L579.85,252.25L579.87,248.79L580.16,228.31L580.4,260.92L580.59,246.68L580.6,255.52L580.83,232.51L581.1,260.88L581.35,253.68L581.36,254.91L581.72,232.69L581.92,261.66L582.11,251.37L582.12,253.83L582.54,260.09L582.62,231.38L582.8,248.78L582.81,249.22L583.44,228.3L583.5,260.78L583.57,254.56L583.59,257.71L583.68,261.15L584.11,232.48L584.35,248.63L584.36,254.13L584.38,260.92L584.68,243.51L584.99,256.48L585,232.71L585.2,261.7L585.75,256.2L585.77,253.79L585.87,235.35L586,260.28L586.43,248.71L586.44,246.81L586.72,228.25L586.96,261.02L587.13,251.56L587.14,247.45L587.39,232.32L587.66,260.89L587.77,244.21L587.78,258.03L588.28,232.65L588.48,261.73L588.54,248.85L588.55,248.85L589,261.1L589.15,235.34L589.3,251.6L589.31,250.15L589.92,260.49L590,224.47L590.04,251.78L590.05,253.11L590.23,260.94L590.42,242.98L590.73,257.58L590.74,232.97L590.94,260.88L591.5,255.93L591.51,255.43L591.54,261.71L591.61,232.1L592.2,248.15L592.21,253.8L592.46,231.28L592.69,260.22L592.94,257.46L592.95,258.48L593.28,228.34L593.52,260.99L593.71,246.64L593.72,255.5L593.95,232.5L594.22,260.91L594.47,253.79L594.48,254.99L594.82,261.42L594.89,232.24L595.23,251.21L595.24,253.77L595.74,231.69L595.97,260.28L595.98,247.46L596.56,228.43L596.62,260.84L596.73,251.67L596.74,249.55L596.76,249.11L596.8,260.97L596.81,247.77L597.23,232.54L597.5,260.88L597.55,252.66L597.56,246.43L598.12,232.8L598.32,261.69L598.33,259.9L598.34,245.53L598.94,260.12L599.02,231.38L599.09,253.29L599.11,251.71L599.25,260.56L599.84,228.39L599.85,252.12L599.86,254.92L600.08,261.13L600.51,232.56L600.61,251.8L600.62,252.45L600.78,260.92L601.08,243.57L601.29,249.26L601.3,259.2L601.4,232.77L601.6,261.72L602.06,249.91L602.07,248.95L602.12,261.14L602.27,235.4L602.82,252.53L602.83,248.8L603.12,228.25L603.36,261.1L603.55,246.74L603.56,255.54L603.79,232.32L604.06,260.99L604.31,253.86L604.32,255.06L604.68,232.73L604.88,261.74L605.07,251.65L605.08,254.01L605.4,261.14L605.55,235.42L605.76,251.21L605.77,248.46L606.32,260.54L606.4,224.71L606.54,260.4L606.55,247.58L606.63,261L607.14,233.01L607.3,254.12L607.31,251.31L607.34,260.9L607.45,244.92L607.7,255.24L607.71,259.31L607.94,261.75L608.01,232.16L608.46,244.26L608.47,252.63L608.78,260.25L608.86,231.47L609.22,252.29L609.23,256.71L609.68,228.39L609.92,261.02L609.93,247.79L610.35,232.54L610.62,260.91L610.67,252.78L610.69,246.55L611.22,261.46L611.29,232.24L611.44,252.02L611.45,249.62L611.49,259.76L611.74,244.29L612.05,255.59L612.06,260.19L612.14,231.85L612.37,260.33L612.81,242.55L612.82,259.86L612.96,228.44L613.2,260.96L613.59,250.23L613.6,255.03L613.63,232.58L613.9,260.94L614.31,246.67L614.32,252.81L614.52,232.84L614.72,261.74L615.06,250.35L615.07,256.35L615.42,231.48L615.65,260.64L615.82,248.21L615.83,253.19L616.24,228.45L616.48,261.15L616.57,252.77L616.59,252.01L616.91,232.6L617.18,260.96L617.29,244.24L617.3,258.11L617.8,232.88L618,261.78L618.06,248.98L618.07,248.92L618.52,261.2L618.67,235.4L618.82,251.61L618.83,250.25L619.49,260.05L619.52,228.33L619.57,250.53L619.58,260.75L619.76,261.14L620.19,232.46L620.33,253.03L620.34,257.95L620.46,261.02L620.76,243.74L621.06,251.35L621.07,256.61L621.08,232.82L621.28,261.79L621.81,239.05L621.82,258.25L621.95,235.41L622.08,260.3L622.54,246.04L622.55,256.15L622.8,224.74L623.03,261.06L623.32,246.57L623.33,249.11L623.54,233.1L623.74,260.95L624.08,252.39L624.09,253.19L624.34,261.79L624.41,232.21L624.83,253.25L624.84,248.68L625.26,231.6L625.49,260.27L625.6,253.41L625.61,251.78L625.68,242.46L626.05,260.47L626.07,255.78L626.08,228.42L626.32,261.03L626.83,251.96L626.84,247.56L627.02,260.97L627.56,240.66L627.6,254.33L627.61,251.5L627.62,261.55L627.69,232.32L628.36,256.74L628.37,254.41L628.54,231.92L628.77,260.39L629.12,253.11L629.13,249.69L629.36,228.46L629.6,261.04L629.88,251.53L629.89,251.15L630.03,232.63L630.3,260.98L630.64,253.2L630.65,254.43L630.92,232.92L631.12,261.76L631.39,252.88L631.4,248.53L631.82,231.7L632.05,260.66L632.16,253.38L632.17,251.74L632.24,242.44L632.61,260.41L632.63,255.76L632.64,228.47L632.88,261.2L633.39,252.06L633.4,247.65L633.58,260.98L633.88,243.76L634.15,253.26L634.16,250.45L634.2,232.93L634.4,261.81L634.79,250.28L634.8,247.04L634.92,261.23L635.07,235.48L635.49,254.13L635.5,248.46L635.92,228.36L636.16,261.16L636.25,253.04L636.27,252.34L636.35,246.85L636.38,256.87L636.49,249.4L636.5,258.54L636.59,232.51L636.86,261.04L637.27,246.84L637.28,252.87L637.48,232.92L637.68,261.81L638.02,253.35L638.03,254.42L638.2,261.25L638.35,235.46L638.68,252.68L638.69,254.09L639.2,224.95L639.34,260.54L639.42,256.99L639.43,261.14L639.94,233.19L640.18,248.58L640.2,253.42L640.74,261.82L640.81,232.27L640.93,251.88L640.94,260.46L641.66,231.62L641.69,249.75L641.7,254.84L641.89,260.32L642.08,242.53L642.44,245.59L642.45,260.56L642.48,228.44L642.72,261.12L643.2,252.93L643.21,255.05L643.42,261.03L643.84,244.02L643.9,253.46L643.92,248.26L644.02,261.58L644.09,232.35L644.66,248.15L644.67,244.9L644.94,231.83L645.17,260.38L645.43,258.57L645.45,249.69L645.76,228.5L646,261.09L646.22,256.81L646.23,248.37L646.43,232.69L646.7,261.01L646.98,252.27L646.99,248.61L647.32,232.97L647.52,261.78L647.72,254.01L647.73,255.07L648.22,231.79L648.45,260.76L648.49,248.84L648.51,250.71L648.64,242.47L649.01,260.45L649.03,255.71L649.04,228.45L649.28,261.29L649.79,252.12L649.8,247.74L649.98,261.04L650.28,243.83L650.56,250.47L650.57,250.6L650.6,232.99L650.8,261.81L651.26,250.08L651.27,249.07L651.32,261.31L651.47,235.5L652.02,252.71L652.03,249.1L652.32,228.37L652.56,261.19L652.75,246.91L652.76,255.7L652.99,232.49L653.26,261.07L653.51,253.9L653.52,255.24L653.88,232.98L654.08,261.85L654.24,252.11L654.25,255.07L654.6,261.29L654.75,235.44L655.01,248.28L655.02,253.27L655.13,259.31L655.2,243.68L655.34,246.2L655.35,256.39L655.6,225.03L655.83,261.21L656.12,246.76L656.13,249.11L656.34,233.28L656.54,260.99L656.88,252.5L656.89,253.34L657.14,261.87L657.21,232.32L657.63,253.38L657.64,248.82L658.06,231.7L658.29,260.37L658.4,253.55L658.41,251.86L658.48,242.62L658.85,260.62L658.87,255.86L658.88,228.49L659.12,261.12L659.63,252.08L659.64,247.77L659.82,261.02L660.24,244.07L660.35,257.56L660.36,240.84L660.42,261.63L660.49,232.37L661.11,249.66L661.12,249.84L661.34,231.92L661.57,260.45L661.86,252.68L661.87,249.13L662.16,228.55L662.4,261.17L662.59,247L662.6,255.75L662.83,232.71L663.1,261.02L663.35,253.78L663.36,255.2L663.72,233.05L663.92,261.8L664.08,252.04L664.09,255.03L664.54,260.23L664.62,231.98L664.83,253.9L664.84,256.26L665.44,228.48L665.5,260.89L665.59,257.81L665.6,250.38L665.68,261.3L666.11,232.69L666.34,254.83L666.35,248.84L666.38,261.05L667,233.08L667.1,258.4L667.11,251.82L667.2,261.84L667.73,239.2L667.84,255.85L667.85,247.82L667.87,235.49L668,260.46L668.6,253.55L668.62,257.35L668.72,228.41L668.96,261.25L669.39,232.57L669.4,255.31L669.66,261.08L669.77,244.75L669.88,247.92L669.89,259.47L670.28,233.03L670.48,261.83L670.64,252.16L670.65,255.12L671,261.36L671.15,235.49L671.41,248.38L671.42,253.36L671.53,259.35L671.6,243.78L671.81,253.45L671.82,257.7L672,225.09L672.23,261.23L672.58,249.77L672.59,249.4L672.74,233.35L672.94,261.03L673.33,251.42L673.34,249.26L673.54,261.89L673.61,232.34L673.98,248.95L673.99,258.92L674.46,231.8L674.69,260.43L674.75,250.48L674.76,251L675.28,228.51L675.52,261.14L675.53,248.06L675.95,232.65L676.22,261.08L676.28,253.08L676.29,246.88L676.82,261.69L676.89,232.41L677.04,252.21L677.05,249.88L677.09,259.9L677.34,244.54L677.65,255.82L677.66,260.34L677.74,232.02L677.97,260.47L678.41,242.83L678.42,259.95L678.56,228.6L678.8,261.2L679.19,250.51L679.2,255.17L679.23,232.78L679.5,261.09L679.91,247.12L679.92,253.25L680.12,233.08L680.32,261.84L680.66,250.56L680.67,256.51L681.02,232.08L681.25,260.84L681.42,248.52L681.43,253.56L681.84,228.49L682.08,261.31L682.18,252.91L682.19,252.18L682.51,232.74L682.78,261.1L682.89,244.68L682.9,258.27L683.4,233.1L683.6,261.86L683.66,249.38L683.67,249.13L684.12,261.38L684.27,235.54L684.42,251.86L684.43,250.5L685.09,260.37L685.12,228.45L685.17,250.76L685.18,260.86L685.36,261.29L685.79,232.61L685.93,253.12L685.94,258.15L686.06,261.12L686.36,244.18L686.61,249.57L686.62,259.37L686.68,233.07L686.88,261.84L687.37,248.54L687.38,255.69L687.4,261.38L687.55,235.52L688.14,246.41L688.15,256.56L688.4,225.1L688.63,261.25L688.92,246.91L688.93,249.5L689.14,233.38L689.34,261.06L689.71,259.42L689.72,251.7L689.76,244.79L689.87,257.57L689.88,241.08L689.94,261.94L690.01,232.4L690.63,249.91L690.64,250.04L690.86,231.97L691.09,260.47L691.38,252.78L691.39,249.41L691.68,228.49L691.92,261.21L692.11,247.12L692.12,255.75L692.35,232.71L692.62,261.12L692.87,253.91L692.89,255.34L693.22,261.76L693.29,232.45L693.63,251.67L693.64,253.99L694.14,232.28L694.37,260.56L694.38,248.12L694.96,228.58L695.02,260.97L695.13,251.91L695.14,250.16L695.2,261.23L695.39,247.11L695.53,249.66L695.54,258.7L695.63,232.76L695.9,261.11L696.31,247.15L696.32,253.25L696.52,233.12L696.72,261.86L697.06,250.61L697.07,256.54L697.42,232.01L697.65,260.89L697.82,248.62L697.83,253.48L698.24,228.55L698.48,261.38L698.58,252.99L698.59,252.24L698.91,232.77L699.18,261.13L699.29,244.79L699.3,258.31L699.8,233.16L700,261.9L700.06,249.41L700.07,249.18L700.52,261.44L700.67,235.57L700.82,251.88L700.83,250.55L701.49,260.43L701.52,228.46L701.57,250.85L701.58,260.93L701.76,261.32L702.19,232.64L702.33,253.19L702.34,258.18L702.46,261.19L702.76,244.29L703.01,249.62L703.02,259.41L703.08,233.1L703.28,261.91L703.77,248.62L703.78,255.78L703.8,261.46L703.95,235.55L704.54,246.46L704.55,256.62L704.8,225.24L705.03,261.37L705.32,246.99L705.33,249.44L705.54,233.43L705.74,261.12L706.11,259.47L706.12,251.76L706.27,257.56L706.28,241.13L706.29,260.18L706.34,261.98L706.41,232.39L707.06,248.14L707.07,255.3L707.26,232.04L707.49,260.53L707.78,252.78L707.79,249.48L708.08,228.53L708.32,261.25L708.51,247.21L708.52,255.81L708.75,232.76L709.02,261.16L709.26,255.01L709.28,253.94L709.62,261.8L709.69,232.48L710.01,253.95L710.02,252.32L710.46,260.48L710.54,232.21L710.67,253.81L710.68,258.55L711.36,228.64L711.42,260.98L711.43,250.76L711.44,255.83L711.6,261.25L712.03,232.84L712.18,258.14L712.19,257.24L712.3,261.16L712.92,233.17L712.94,254.28L712.95,250.95L713.12,261.89L713.42,244.81L713.71,255.73L713.72,252.83L713.82,232.15L714.05,260.92L714.46,256.06L714.47,250.83L714.64,228.56L714.88,261.34L715.22,258.73L715.23,255.73L715.31,232.79L715.58,261.17L715.88,244.28L715.89,255.51L716.2,233.22L716.4,261.92L716.64,254.39L716.65,254.19L716.92,261.47L717.07,235.58L717.38,253.26L717.39,252.18L717.52,242.94L717.89,260.6L717.91,256.26L717.92,228.49L718.16,261.37L718.67,252.44L718.69,248.01L718.86,261.23L719.16,244.4L719.44,250.8L719.45,251.01L719.48,233.18L719.68,261.92L720.09,248.13L720.1,246.92L720.2,261.48L720.22,239.45L720.34,254.07L720.35,235.6L720.48,260.61L721.11,254.87L721.12,260.84L721.2,225.28L721.43,261.35L721.87,251.32L721.88,258.25L721.94,233.47L722.14,261.14L722.59,252.88L722.6,252.61L722.74,262.01L722.81,232.47L723.32,251.48L723.33,257.74L723.66,232.28L723.89,260.6L724.1,247.59L724.11,249.24L724.48,228.58L724.72,261.3L724.86,251.84L724.87,252.51L725.15,232.78L725.42,261.21L725.61,250.64L725.62,254.15L726.02,261.83L726.09,232.53L726.35,255.68L726.36,246.05L726.86,260.47L726.94,232.35L727.11,249.49L727.12,248.89L727.17,260.63L727.36,242.94L727.71,252.73L727.72,246.08L727.76,228.69L728,261.31L728.47,255.74L728.48,253.23L728.7,261.21L729,244.31L729.22,259.51L729.23,252.66L729.32,233.21L729.52,261.93L729.98,253.97L729.99,249.65L730.07,244.89L730.14,260.41L730.21,247.98L730.22,232.32L730.45,260.98L730.97,255.14L730.98,253.67L731.04,228.57L731.28,261.41L731.55,252.11L731.56,251.85L731.6,249.55L731.62,258.72L731.7,251.95L731.71,232.86L731.98,261.23L732.46,255.88L732.47,251.86L732.6,233.25L732.8,261.96L733.18,254.13L733.19,250.66L733.33,261.51L733.47,235.62L733.92,243L733.93,254.1L734.32,228.5L734.56,261.37L734.68,252.57L734.69,255.14L734.99,232.73L735.26,261.25L735.45,250.83L735.46,254.27L735.88,233.22L736.08,261.95L736.18,252.96L736.19,248.03L736.61,261.49L736.75,235.6L736.95,258.36L736.96,251.67L737.52,260.77L737.6,225.39L737.7,249.42L737.71,252.12L737.83,261.44L738.34,233.54L738.43,252.6L738.44,258.1L739.08,241.25L739.14,262.07L739.19,247.68L739.2,255.14L739.21,232.46L739.34,260.7L739.94,255.35L739.95,256.08L740.06,232.22L740.29,260.61L740.69,252.27L740.7,256.2L740.88,228.6L741.12,261.33L741.45,249.73L741.46,258.74L741.55,232.84L741.82,261.22L742.24,244.66L742.25,249.95L742.42,261.84L742.49,232.57L743.01,257.67L743.02,255.03L743.34,232.41L743.57,260.66L743.71,256.96L743.72,258.28L744.16,228.71L744.4,261.32L744.48,249.87L744.49,252.46L744.59,247.34L744.74,258.75L744.82,252L744.83,232.91L745.1,261.23L745.58,255.96L745.59,251.89L745.72,233.28L745.92,261.95L746.24,253.26L746.25,246.1L746.62,232.42L746.85,261.03L747.01,254.85L747.02,248.9L747.44,228.58L747.68,261.46L747.77,252.4L747.78,253.08L748.11,232.9L748.38,261.26L748.49,245.03L748.5,258.38L749,233.32L749.2,261.99L749.26,249.62L749.27,249.36L749.73,261.57L749.87,235.64L750.02,252.08L750.03,250.71L750.69,260.55L750.72,228.52L750.77,250.98L750.78,260.98L750.96,261.4L751.39,232.78L751.53,253.35L751.54,258.29L751.66,261.29L751.96,244.53L752.21,249.7L752.22,259.51L752.28,233.3L752.48,261.99L752.97,248.85L752.98,255.97L753.01,261.53L753.15,235.6L753.74,246.74L753.75,256.82L754,225.45L754.23,261.44L754.52,247.22L754.54,249.78L754.74,233.59L754.94,261.22L755.3,255.66L755.31,259.58L755.54,262.1L755.61,232.54L756.07,244.88L756.08,253.33L756.46,232.38L756.69,260.64L756.82,252.94L756.83,257.29L757.28,228.63L757.52,261.32L757.53,248.37L757.95,232.89L758.22,261.27L758.28,253.52L758.29,247.28L758.82,261.91L758.89,232.57L759.04,252.46L759.05,250.24L759.66,260.57L759.74,232.52L759.75,255.81L759.97,260.67L760.16,243.05L760.52,246.28L760.53,260.9L760.56,228.74L760.8,261.33L761.28,253.34L761.29,255.27L761.5,261.24L761.8,244.48L761.94,252.96L761.95,248.59L762.12,233.33L762.32,261.96L762.61,251.34L762.63,244.99L763.02,232.41L763.25,261.04L763.39,256.97L763.4,258.24L763.84,228.62L764.08,261.47L764.16,250.07L764.17,252.47L764.51,232.93L764.78,261.28L764.84,253.57L764.85,247.34L765.4,233.36L765.6,262.01L765.61,260.37L765.62,246.38L766.13,261.58L766.27,235.68L766.38,254.28L766.39,251.98L766.4,260.62L766.72,243.12L767.11,256.42L767.12,228.55L767.36,261.43L767.87,256.62L767.88,252.57L768.06,261.34L768.36,244.57L768.61,249.79L768.62,259.58L768.68,233.34L768.88,262L769.37,248.91L769.38,256.08L769.41,261.58L769.55,235.64L770.14,246.81L770.15,256.87L770.4,225.54L770.63,261.48L770.91,247.82L770.93,247.29L771.15,233.67L771.34,261.25L771.71,259.63L771.72,251.92L771.76,245.25L771.78,255.37L771.84,248.96L771.85,256.58L771.94,262.13L772.01,232.57L772.6,249.03L772.61,254.65L772.78,260.56L772.86,232.44L772.99,253.92L773,258.77L773.68,228.65L773.74,260.96L773.75,250.75L773.77,255.9L773.92,261.39L774.35,232.94L774.52,250.09L774.53,251.83L775.16,241.31L775.22,261.92L775.26,257.2L775.27,247.81L775.3,232.62L775.42,260.99L776.03,256.15L776.04,253.02L776.14,232.62L776.37,260.74L776.78,256.42L776.79,251.18L776.96,228.77L777.2,261.38L777.54,258.87L777.55,255.97L777.63,232.99L777.9,261.32L778.2,244.54L778.21,255.72L778.52,233.38L778.72,262L778.96,254.72L778.97,254.36L779.42,232.46L779.65,261.09L779.69,254.85L779.7,249.35L780.24,228.65L780.3,261.01L780.43,250.22L780.44,249.89L780.48,261.52L780.91,232.98L781.19,256.53L781.21,249.17L781.74,259.58L781.8,233.43L781.97,252.26L781.98,251.53L782,262.02L782.67,235.66L782.72,254.11L782.74,256.01L782.8,260.69L783.12,243.16L783.48,246.36L783.49,260.64L783.52,228.59L783.76,261.46L784.24,253.46L784.25,255.45L784.46,261.38L784.76,244.68L784.86,248.47L784.87,247.53L785.08,233.38L785.28,262.04L785.63,254.87L785.64,254.42L785.81,261.66L785.95,235.66L786.37,254.67L786.38,249.13L786.8,225.59L787.03,261.55L787.13,252.22L787.14,254.68L787.55,233.69L787.74,261.25L787.9,252.06L787.91,256.45L788.34,262.14L788.42,232.6L788.66,248.36L788.67,255.98L789.18,260.56L789.26,232.56L789.42,253.1L789.43,249.77L789.49,260.73L789.68,243.2L790.04,246.25L790.05,260.99L790.08,228.67L790.32,261.42L790.8,253.25L790.81,255.34L791.02,261.34L791.13,245.29L791.43,248.45L791.44,244.99L791.62,261.98L791.7,232.68L792.21,257.78L792.22,255.2L792.54,232.72L792.77,260.77L792.91,257.14L792.92,258.4L793.36,228.74L793.6,261.41L793.68,250.06L793.69,252.55L794.03,232.99L794.3,261.3L794.36,253.64L794.37,247.31L794.92,233.44L795.12,262L795.13,260.44L795.14,246.4L795.74,260.52L795.82,232.62L795.9,253.69L795.91,252.42L796.05,261.1L796.64,228.66L796.65,252.76L796.66,255.46L796.88,261.52L797.31,233L797.41,248.38L797.42,252.38L797.58,261.33L797.88,244.68L798.12,258.01L798.13,249.88L798.2,233.45L798.4,262.05L798.88,253.41L798.89,249.16L798.93,261.72L799.07,235.71L799.63,249.9L799.64,247.75L799.92,228.6L800.16,261.49L800.33,252.57L800.34,248.41L800.59,232.9L800.86,261.38L801.02,251.73L801.03,256.55L801.48,233.4L801.68,262.04L801.79,248.36L801.8,257.16L802.21,261.7L802.35,235.68L802.54,254.1L802.55,258.42L803.12,260.92L803.2,225.66L803.3,249.71L803.31,252.38L803.43,261.57L803.95,233.73L804.03,252.8L804.04,258.18L804.68,241.57L804.74,262.2L804.79,247.99L804.8,255.41L804.82,232.61L804.94,260.82L805.54,255.51L805.55,256.33L805.66,232.67L805.89,260.77L806.29,252.53L806.3,256.55L806.48,228.65L806.72,261.41L807.05,249.91L807.06,258.92L807.15,233.01L807.42,261.36L807.84,245.06L807.85,250.25L808.02,262L808.1,232.7L808.61,257.83L808.62,255.21L808.94,232.77L809.17,260.8L809.31,257.19L809.32,258.37L809.76,228.79L810,261.41L810.08,250.13L810.09,252.58L810.43,233.06L810.7,261.36L810.76,253.7L810.77,247.36L811.32,233.46L811.52,262.02L811.53,260.45L811.54,246.47L812.14,260.5L812.22,232.69L812.3,253.74L812.31,252.49L812.45,261.11L813.04,228.68L813.05,252.8L813.06,255.48L813.28,261.56L813.71,233.05L813.81,248.49L813.82,252.39L813.98,261.38L814.28,244.75L814.52,258.04L814.53,249.93L814.6,233.52L814.8,262.07L815.28,253.5L815.29,249.22L815.33,261.76L815.47,235.74L816.03,250L816.04,247.81L816.32,228.59L816.56,261.55L816.73,252.66L816.74,248.44L816.99,232.96L817.26,261.4L817.37,245.55L817.38,258.52L817.88,233.46L818.08,262.09L818.13,255.51L818.15,249.93L818.31,259.21L818.39,245.85L818.6,250.78L818.61,261.75L818.75,235.68L819.36,253.47L819.37,248.84L819.6,225.68L819.83,261.58L820,250.98" style="vector-effect: non-scaling-stroke; fill: none; stroke: rgb(31, 119, 180); stroke-opacity: 1; stroke-width: 2px; opacity: 1;"/></g><g class="points"/><g class="text"/></g></g></g><g class="overplot"/><path class="xlines-above crisp" d="M0,0" style="fill: none;"/><path class="ylines-above crisp" d="M0,0" style="fill: none;"/><g class="overlines-above"/><g class="xaxislayer-above"><g class="xtick"><text text-anchor="middle" x="0" y="349" transform="translate(60,0)" style="font-family: 'Open Sans', verdana, arial, sans-serif; font-size: 12px; fill: rgb(68, 68, 68); fill-opacity: 1; white-space: pre;">0</text></g><g class="xtick"><text text-anchor="middle" x="0" y="349" transform="translate(164.79000000000002,0)" style="font-family: 'Open Sans', verdana, arial, sans-serif; font-size: 12px; fill: rgb(68, 68, 68); fill-opacity: 1; white-space: pre;">10k</text></g><g class="xtick"><text text-anchor="middle" x="0" y="349" transform="translate(269.59000000000003,0)" style="font-family: 'Open Sans', verdana, arial, sans-serif; font-size: 12px; fill: rgb(68, 68, 68); fill-opacity: 1; white-space: pre;">20k</text></g><g class="xtick"><text text-anchor="middle" x="0" y="349" transform="translate(374.38,0)" style="font-family: 'Open Sans', verdana, arial, sans-serif; font-size: 12px; fill: rgb(68, 68, 68); fill-opacity: 1; white-space: pre;">30k</text></g><g class="xtick"><text text-anchor="middle" x="0" y="349" transform="translate(479.17,0)" style="font-family: 'Open Sans', verdana, arial, sans-serif; font-size: 12px; fill: rgb(68, 68, 68); fill-opacity: 1; white-space: pre;">40k</text></g><g class="xtick"><text text-anchor="middle" x="0" y="349" transform="translate(583.97,0)" style="font-family: 'Open Sans', verdana, arial, sans-serif; font-size: 12px; fill: rgb(68, 68, 68); fill-opacity: 1; white-space: pre;">50k</text></g><g class="xtick"><text text-anchor="middle" x="0" y="349" transform="translate(688.76,0)" style="font-family: 'Open Sans', verdana, arial, sans-serif; font-size: 12px; fill: rgb(68, 68, 68); fill-opacity: 1; white-space: pre;">60k</text></g><g class="xtick"><text text-anchor="middle" x="0" y="349" transform="translate(793.56,0)" style="font-family: 'Open Sans', verdana, arial, sans-serif; font-size: 12px; fill: rgb(68, 68, 68); fill-opacity: 1; white-space: pre;">70k</text></g></g><g class="yaxislayer-above"><g class="ytick"><text text-anchor="end" x="59" y="4.199999999999999" transform="translate(0,304.22)" style="font-family: 'Open Sans', verdana, arial, sans-serif; font-size: 12px; fill: rgb(68, 68, 68); fill-opacity: 1; white-space: pre;">1</text></g><g class="ytick"><text text-anchor="end" x="59" y="4.199999999999999" transform="translate(0,263.71000000000004)" style="font-family: 'Open Sans', verdana, arial, sans-serif; font-size: 12px; fill: rgb(68, 68, 68); fill-opacity: 1; white-space: pre;">2</text></g><g class="ytick"><text text-anchor="end" x="59" y="4.199999999999999" transform="translate(0,223.21)" style="font-family: 'Open Sans', verdana, arial, sans-serif; font-size: 12px; fill: rgb(68, 68, 68); fill-opacity: 1; white-space: pre;">3</text></g><g class="ytick"><text text-anchor="end" x="59" y="4.199999999999999" transform="translate(0,182.70999999999998)" style="font-family: 'Open Sans', verdana, arial, sans-serif; font-size: 12px; fill: rgb(68, 68, 68); fill-opacity: 1; white-space: pre;">4</text></g><g class="ytick"><text text-anchor="end" x="59" y="4.199999999999999" transform="translate(0,142.20999999999998)" style="font-family: 'Open Sans', verdana, arial, sans-serif; font-size: 12px; fill: rgb(68, 68, 68); fill-opacity: 1; white-space: pre;">5</text></g><g class="ytick"><text text-anchor="end" x="59" y="4.199999999999999" transform="translate(0,101.71000000000001)" style="font-family: 'Open Sans', verdana, arial, sans-serif; font-size: 12px; fill: rgb(68, 68, 68); fill-opacity: 1; white-space: pre;">6</text></g><g class="ytick"><text text-anchor="end" x="59" y="4.199999999999999" transform="translate(0,61.21)" style="font-family: 'Open Sans', verdana, arial, sans-serif; font-size: 12px; fill: rgb(68, 68, 68); fill-opacity: 1; white-space: pre;">7</text></g></g><g class="overaxes-above"/></g></g><g class="polarlayer"/><g class="ternarylayer"/><g class="geolayer"/><g class="funnelarealayer"/><g class="pielayer"/><g class="treemaplayer"/><g class="sunburstlayer"/><g class="glimages"/><defs id="topdefs-b0a282"><g class="clips"/></defs><g class="layer-above"><g class="imagelayer"/><g class="shapelayer"/></g><g class="infolayer"><g class="g-gtitle"><text class="gtitle" x="470" y="30" text-anchor="middle" dy="0em" style="font-family: 'Open Sans', verdana, arial, sans-serif; font-size: 17px; fill: rgb(68, 68, 68); opacity: 1; font-weight: normal; white-space: pre;">train_loss</text></g><g class="g-xtitle"/><g class="g-ytitle"/></g></svg>