<svg class="main-svg" xmlns="http://www.w3.org/2000/svg" xmlns:xlink="http://www.w3.org/1999/xlink" width="940" height="396" style="" viewBox="0 0 940 396"><rect x="0" y="0" width="940" height="396" style="fill: rgb(255, 255, 255); fill-opacity: 1;"/><defs id="defs-ad2af3"><g class="clips"><clipPath id="clipad2af3xyplot" class="plotclip"><rect width="820" height="276"/></clipPath><clipPath class="axesclip" id="clipad2af3x"><rect x="60" y="0" width="820" height="396"/></clipPath><clipPath class="axesclip" id="clipad2af3y"><rect x="0" y="60" width="940" height="276"/></clipPath><clipPath class="axesclip" id="clipad2af3xy"><rect x="60" y="60" width="820" height="276"/></clipPath></g><g class="gradients"/></defs><g class="bglayer"/><g class="layer-below"><g class="imagelayer"/><g class="shapelayer"/></g><g class="cartesianlayer"><g class="subplot xy"><g class="layer-subplot"><g class="shapelayer"/><g class="imagelayer"/></g><g class="gridlayer"><g class="x"><path class="xgrid crisp" transform="translate(164.79000000000002,0)" d="M0,60v276" style="stroke: rgb(238, 238, 238); stroke-opacity: 1; stroke-width: 1px;"/><path class="xgrid crisp" transform="translate(269.59000000000003,0)" d="M0,60v276" style="stroke: rgb(238, 238, 238); stroke-opacity: 1; stroke-width: 1px;"/><path class="xgrid crisp" transform="translate(374.38,0)" d="M0,60v276" style="stroke: rgb(238, 238, 238); stroke-opacity: 1; stroke-width: 1px;"/><path class="xgrid crisp" transform="translate(479.17,0)" d="M0,60v276" style="stroke: rgb(238, 238, 238); stroke-opacity: 1; stroke-width: 1px;"/><path class="xgrid crisp" transform="translate(583.97,0)" d="M0,60v276" style="stroke: rgb(238, 238, 238); stroke-opacity: 1; stroke-width: 1px;"/><path class="xgrid crisp" transform="translate(688.76,0)" d="M0,60v276" style="stroke: rgb(238, 238, 238); stroke-opacity: 1; stroke-width: 1px;"/><path class="xgrid crisp" transform="translate(793.56,0)" d="M0,60v276" style="stroke: rgb(238, 238, 238); stroke-opacity: 1; stroke-width: 1px;"/></g><g class="y"><path class="ygrid crisp" transform="translate(0,252.13)" d="M60,0h820" style="stroke: rgb(238, 238, 238); stroke-opacity: 1; stroke-width: 1px;"/><path class="ygrid crisp" transform="translate(0,175.54000000000002)" d="M60,0h820" style="stroke: rgb(238, 238, 238); stroke-opacity: 1; stroke-width: 1px;"/><path class="ygrid crisp" transform="translate(0,98.95)" d="M60,0h820" style="stroke: rgb(238, 238, 238); stroke-opacity: 1; stroke-width: 1px;"/></g></g><g class="zerolinelayer"><path class="xzl zl crisp" transform="translate(60,0)" d="M0,60v276" style="stroke: rgb(68, 68, 68); stroke-opacity: 1; stroke-width: 1px;"/><path class="yzl zl crisp" transform="translate(0,328.72)" d="M60,0h820" style="stroke: rgb(68, 68, 68); stroke-opacity: 1; stroke-width: 1px;"/></g><path class="xlines-below"/><path class="ylines-below"/><g class="overlines-below"/><g class="xaxislayer-below"/><g class="yaxislayer-below"/><g class="overaxes-below"/><g class="plot" transform="translate(60, 60)" clip-path="url('#clipad2af3xyplot')"><g class="scatterlayer mlayer"><g class="trace scatter trace9a947d" style="stroke-miterlimit: 2; opacity: 1;"><g class="fills"/><g class="errorbars"/><g class="lines"><path class="js-line" d="M0,13.8L0.76,252.57L0.8,251.15L0.81,248.43L1.21,221.94L1.33,255.42L1.55,251.46L1.56,252.92L2.05,222.11L2.19,255.41L2.31,251.32L2.32,253.7L2.87,226.45L3.02,256.21L3.07,250.61L3.08,251.66L3.11,255.8L3.37,245.77L3.53,253.42L3.54,234.13L3.7,256.52L4.29,251.75L4.3,253.78L4.49,232.49L4.61,257.85L5.07,245.6L5.08,252.17L5.33,233.63L5.64,257.16L5.83,256.58L5.84,251.78L6.15,235.53L6.21,257.65L6.6,254.26L6.61,254.97L6.82,241.63L7.09,257.67L7.35,254.54L7.36,255.32L7.71,242.96L7.92,257.83L8.1,253.34L8.11,254.8L8.61,244.86L8.84,258.21L8.86,252.99L9.43,244.26L9.49,258.52L9.6,254.18L9.61,252.27L9.67,258.32L10.1,248.3L10.39,257.04L10.4,252.89L10.89,257.86L10.99,248.7L11.13,252.04L11.14,251.74L11.19,258.85L11.86,248.41L11.89,256.59L11.9,252.68L11.99,258.45L12.31,248.59L12.66,254.81L12.67,252.21L12.71,245.85L12.95,258.98L13.42,255.46L13.43,253.21L13.65,258.66L13.95,249.86L14.19,257.24L14.2,253.83L14.27,249.17L14.47,259.07L14.95,254.97L14.96,253L15.14,249.05L15.27,258.73L15.7,254.16L15.71,252.32L15.99,246.38L16.13,258.92L16.38,255.54L16.39,252.49L16.41,249.3L16.93,258.71L17.14,256.65L17.15,253.64L17.53,259.09L17.61,249.31L17.9,255.39L17.91,255.12L18.37,258.42L18.45,250.22L18.61,255.26L18.62,253.4L18.68,258.82L18.87,249.06L19.11,257.23L19.12,251.72L19.27,246.73L19.51,259.03L19.88,255.74L19.89,254.35L19.94,249.67L20.21,259.59L20.64,252.94L20.65,257.05L20.76,259.5L20.89,249.2L21.25,254.01L21.26,258.56L21.73,249.93L21.96,258.8L22.02,255.07L22.03,255.83L22.55,247.35L22.79,259.26L22.8,254.5L23.22,249.21L23.49,259.42L23.55,255.6L23.56,253.96L24.11,249.95L24.31,259.29L24.32,257.83L24.33,252.95L24.54,258.8L25.01,250.14L25.09,256.52L25.1,255.43L25.24,259.16L25.43,250.15L25.79,252.9L25.8,258.86L25.83,247.76L25.89,259.45L26.55,254.91L26.57,256.45L26.77,259.75L27.07,251.27L27.31,257.54L27.32,253.49L27.39,250.08L27.59,259.97L28.07,255.96L28.08,253.92L28.12,259.71L28.26,249.97L28.82,254.48L28.83,253.28L28.98,259.09L29.11,247.97L29.58,254.26L29.59,253.92L29.78,248.49L30.05,259.39L30.33,255.89L30.34,253.68L30.57,258.99L30.67,249.98L31.07,256.4L31.08,257.17L31.4,259.64L31.54,249.77L31.83,256.79L31.84,256.19L32.39,247.71L32.53,259.85L32.58,253.94L32.59,256.76L32.62,259.37L33.14,247.43L33.32,257.41L33.33,259.26L33.88,259.47L34.01,248.88L34.06,255.75L34.07,257.66L34.2,259.04L34.27,252.08L34.82,254.22L34.83,258.29L35.08,259.45L35.27,247.55L35.58,255.28L35.59,256.87L35.67,247.62L35.73,259.15L35.89,254.39L35.9,258.33L36.34,250.52L36.61,259.88L36.63,258.13L36.64,254.85L37.16,259.75L37.29,249.74L37.41,259.72L37.42,255.52L37.48,259.05L37.74,252.08L38.1,254.51L38.11,258.54L38.13,250.46L38.82,259.55L38.86,255.2L38.87,256.86L38.95,248.09L39.19,259.57L39.52,254.73L39.53,257.97L39.62,250.69L39.89,259.76L40.28,254.29L40.29,255.54L40.51,250.35L40.71,260.23L41.04,253.69L41.05,255.54L41.41,251L41.65,259.53L41.8,257.22L41.81,254.04L42.23,248.22L42.47,260.14L42.57,257.17L42.58,256.18L42.9,250.86L43.17,260.24L43.32,256.92L43.33,256.16L43.79,250.32L43.99,259.69L44.08,256.38L44.09,256.54L44.52,260.19L44.66,250.8L44.83,254.73L44.84,257.16L45.11,251.18L45.38,259.44L45.5,258.52L45.51,248.11L45.57,259.95L46.26,258.18L46.27,256.28L46.46,259.94L46.75,252.1L47.01,258.39L47.02,256.63L47.07,250.51L47.27,259.86L47.76,254.96L47.78,257.45L47.8,260.22L47.94,250.83L48.53,254.54L48.54,258.46L48.79,248.15L48.93,260.28L49.32,254.71L49.33,255.68L49.54,251.01L49.74,260.13L50.09,258.29L50.1,258.98L50.28,260.27L50.41,250.25L50.86,252.74L50.87,257.36L51.25,251.02L51.49,259.83L51.61,255.94L51.62,257.98L52.07,249L52.13,260L52.31,259.96L52.32,255.61L52.74,250.74L53.02,260.35L53.07,256.65L53.08,255.25L53.69,250.85L53.81,260.33L53.83,256.59L53.84,255.35L54.06,259.41L54.14,252.54L54.37,257.12L54.38,254.27L54.53,251.12L54.77,259.91L55.13,256.97L55.14,255.01L55.35,249.04L55.59,260.24L55.9,257.06L55.91,256.25L56.02,250.05L56.17,259.43L56.28,257.96L56.3,260.28L56.91,251.29L57.06,254.69L57.07,257.66L57.11,260.27L57.81,251.06L57.83,258.08L58.05,259.99L58.23,251.68L58.46,256.23L58.47,259.46L58.63,249.08L58.87,260.35L59.22,257L59.23,257.26L59.3,250.67L59.58,260.35L59.95,255.14L59.96,255.01L60.19,251.89L60.39,260.27L60.69,255.19L60.7,254.14L60.92,260.13L61.06,251.65L61.46,258.05L61.47,256.37L61.91,249.2L62.15,260.18L62.21,257.23L62.22,255.91L62.58,251.02L62.86,260.13L62.95,257.08L62.96,254.99L63.47,251.84L63.67,260.08L63.7,255.15L63.71,254.54L64.2,259.94L64.21,251.45L64.47,259.87L64.48,255.78L64.72,259.77L64.79,251.91L65.18,258.56L65.19,248.95L65.42,260.57L65.94,251.2L65.95,257.5L66.14,260.26L66.42,253.93L66.65,255.88L66.66,259.07L66.68,260.22L66.81,250.8L67.41,258.29L67.42,256.37L67.89,260.11L68.07,251.44L68.13,254.88L68.14,257.69L68.47,250.06L68.54,260.37L68.9,255.65L68.91,258.55L69.14,250.87L69.42,260.46L69.64,255.19L69.65,259.85L69.96,260.24L70.09,251.09L70.43,256.07L70.44,257.62L70.85,259.56L70.93,251.99L71.19,255.93L71.2,257.92L71.75,249.32L71.82,260.19L71.95,256.16L71.96,256.79L71.99,259.89L72.42,251.59L72.68,257.69L72.7,259.84L73.31,251.53L73.46,254.55L73.47,257.34L74.13,259.56L74.21,252.27L74.23,258.13L74.63,250.39L74.9,260.15L74.99,254.49L75,259.24L75.03,249.62L75.1,260.15L75.74,258.22L75.76,256.21L75.98,260.03L76.27,252.41L76.51,258.54L76.52,255.83L76.59,251.43L76.79,259.68L77.27,256.84L77.29,255.21L77.32,260.51L77.33,251.27L78.04,256.75L78.05,255.15L78.31,248.86L78.55,260.58L78.79,253.68L78.8,253.08L78.98,249.41L79.26,260.35L79.54,254.9L79.55,252.65L79.77,260L79.87,251.72L80.3,259.9L80.31,258.2L80.6,260.67L80.74,251.66L81.07,256.96L81.08,257.63L81.59,249.55L81.73,260.77L81.81,258.71L81.82,260.56L82.34,251.33L82.57,257.04L82.58,256.27L83.21,251.83L83.33,260.67L83.34,256.12L83.58,260.13L83.66,253.47L84.04,256.72L84.06,252.18L84.19,260.11L84.47,252.17L84.81,257.19L84.82,257.75L84.87,250.19L85.11,260.42L85.57,255.71L85.58,258.32L85.82,260.52L86.11,254.57L86.33,256.33L86.34,259.49L86.36,260.72L86.49,252.07L87.09,258.52L87.1,256.91L87.47,260.31L87.75,252.49L87.81,257.38L87.82,259.35L88.15,250.45L88.22,260.51L88.58,256.64L88.59,258.68L88.82,252.2L89.1,260.21L89.33,259.62L89.34,258.74L89.61,260.18L89.71,252.32L90.09,257.1L90.1,258.2L90.62,252.72L90.75,260.38L90.82,257.59L90.84,259.03L91.43,250.21L91.5,260.66L91.58,259.35L91.59,256.54L91.67,260.45L92.1,252.68L92.33,258.49L92.34,256.39L92.38,260.6L92.99,252.55L93.09,260.28L93.1,257.01L93.72,260.53L93.73,252.31L93.83,258.32L93.84,255.88L93.86,252.12L93.99,260.66L94.59,258.68L94.6,257.99L94.71,249.91L94.95,260.72L95.33,257.42L95.34,256.99L95.38,252.79L95.66,260.73L96.09,257.8L96.1,257.68L96.27,252.47L96.47,260.69L96.83,258.71L96.84,259.28L97.14,251.93L97.27,260.76L97.59,252.81L97.6,258.58L97.99,250.5L98.13,260.8L98.35,257.3L98.36,259L98.74,252.63L98.83,259.71L98.91,257.58L98.93,258.65L99.48,260.95L99.61,251.95L99.67,258.91L99.68,257.55L99.73,260.86L100.06,253.99L100.42,256.22L100.43,259.4L100.69,260.17L100.87,252.85L101.18,257.64L101.19,258.55L101.27,250.65L101.51,260.51L101.94,252.77L101.95,258.88L102.04,254.85L102.22,260.83L102.65,256.71L102.66,258.79L102.89,252.35L103.01,260.89L103.21,257.57L103.22,258.57L103.74,252.7L103.87,260.25L103.94,258.08L103.96,259.24L104.55,250.87L104.62,260.43L104.7,259.72L104.71,256.85L104.79,260.6L105.22,252.81L105.45,258.53L105.46,256.58L105.5,260.46L106.11,252.48L106.21,260.33L106.22,257.11L106.31,260.52L106.62,254.42L106.97,258.34L106.98,256.17L107.02,252.71L107.25,260.38L107.73,258.73L107.74,257.93L107.83,250.98L107.9,260.69L108.49,258.04L108.5,252.63L108.78,260.91L109.25,258.5L109.26,257.78L109.39,252.7L109.59,260.31L109.99,256.46L110,255.46L110.13,252.53L110.39,260.88L110.76,258.83L110.77,257.33L111.11,250.74L111.35,260.64L111.51,258.16L111.52,255.69L111.78,252.93L112.06,260.86L112.27,258.57L112.28,256.1L112.67,252.84L112.77,260.41L113.03,258.23L113.04,258.7L113.4,260.9L113.54,252.31L113.81,256.43L113.82,257.9L114.39,250.04L114.53,260.82L114.54,255.34L114.62,260.83L115.14,253L115.29,258.49L115.3,257.53L115.87,254.15L115.88,260.75L115.98,259.1L115.99,255.68L116.01,252.53L116.13,261.13L116.74,258.64L116.75,257.09L116.86,253L116.99,260.29L117.49,258.74L117.51,257.06L117.67,251.09L117.91,260.75L118.26,258.26L118.27,257.8L118.34,253.06L118.62,260.59L119.01,257.16L119.02,255.77L119.29,251.85L119.41,260.81L119.73,256.19L119.74,254.88L120.14,253.27L120.27,260.51L120.5,259.13L120.51,259.26L120.82,260.36L120.95,251.24L121.18,259.64L121.19,260.7L121.62,253.11L121.9,260.8L121.94,256.78L121.95,258.15L122.51,252.71L122.61,260.15L122.69,256.72L122.7,259.01L122.71,260.94L123.42,253.37L123.44,258.85L123.45,257.14L123.65,260.49L123.83,252.97L124.2,259.96L124.21,256.34L124.23,250.99L124.47,260.65L124.96,257.02L124.97,258.55L125.18,260.97L125.47,253.69L125.67,258.64L125.68,256.45L125.79,253.4L125.99,260.9L126.43,259.32L126.44,259.36L126.53,252.6L126.79,260.81L127.18,260.04L127.19,259.63L127.51,251.2L127.75,260.72L127.94,256.99L127.95,258.93L128.18,253.15L128.46,261.12L128.68,256.03L128.69,260.04L129.07,253.07L129.27,261.19L129.45,257.89L129.46,258.56L129.94,252.62L130.07,260.9L130.22,257.81L130.23,258.56L130.32,261.06L130.79,250.01L130.92,257.96L130.93,260.58L131.02,261.09L131.21,252.65L131.68,256.56L131.69,258.8L131.74,260.94L132.41,252.8L132.43,257.38L132.44,259.45L132.53,261.06L132.86,254.59L133.19,257.22L133.2,257.52L133.49,260.68L133.67,253.21L133.92,260.05L133.93,254.71L134.07,251.14L134.31,260.96L134.68,258.16L134.69,257.33L134.74,253.08L135.02,260.88L135.35,257.38L135.36,257.62L135.69,253L135.81,260.77L136.11,258.25L136.12,256.15L136.54,253.68L136.77,260.76L136.88,258.36L136.89,257.8L137.35,251.12L137.59,260.83L137.63,257.08L137.64,257.02L138.02,253.74L138.3,261.06L138.39,257.72L138.4,256.33L138.91,253.62L139.11,260.79L139.15,257.59L139.16,256.58L139.73,260.16L139.82,253.37L139.9,257.71L139.91,256.55L140.05,260.56L140.63,252.09L140.66,257.9L140.68,256.31L140.87,260.84L141.3,253.66L141.39,257.61L141.4,255.56L141.58,261.02L141.87,253.48L142.15,257.67L142.16,257.3L142.19,253.06L142.39,260.59L142.85,258.19L142.87,256.48L142.93,252.68L143.19,260.74L143.62,256.95L143.63,255.8L143.91,251.54L144.15,260.89L144.37,258.07L144.38,255.12L144.58,253.76L144.86,260.83L145.13,258.06L145.14,256.23L145.47,253.26L145.67,261.08L145.88,258.56L145.89,256.37L146.2,261.09L146.21,252.52L146.64,258.62L146.65,258.46L146.72,260.42L147.19,251.15L147.4,257.3L147.41,259.51L147.42,260.85L147.94,253.33L148.15,259.43L148.16,257.08L148.68,260.86L148.81,253.18L148.93,260.71L148.94,257.03L149.57,260.37L149.66,253.92L149.7,259.4L149.71,257.9L149.89,260.8L150.08,253.19L150.44,260.17L150.45,256.74L150.47,251.63L150.71,261.02L151.21,259.55L151.22,259.07L151.42,261.26L151.95,254.46L151.96,261.01L152.09,253.49L152.72,256.93L152.73,258.18L153.07,260.43L153.36,253.39L153.49,255.79L153.5,259.56L153.75,251.8L153.99,260.78L154.25,257.2L154.26,257.99L154.42,253.64L154.7,261.08L154.98,256.26L154.99,254.4L155.31,253.81L155.41,260.54L155.74,260.44L155.75,259.11L156.22,253.8L156.35,260.36L156.43,257.95L156.44,259.33L157.03,251.41L157.1,260.43L157.18,259.88L157.19,257.22L157.27,260.64L157.7,254.1L157.93,258.85L157.95,257.46L157.98,260.81L158.59,253.82L158.7,257.62L158.71,258.53L159.32,260.83L159.33,252.93L159.44,256.1L159.45,259.63L159.46,253.59L159.84,260.83L160.2,258.73L160.21,259.16L160.31,251.47L160.55,260.76L160.96,258.38L160.97,258.51L160.98,254.07L161.26,261.02L161.72,256.69L161.73,259.42L161.87,253.34L162.07,260.97L162.49,257.28L162.5,256.78L162.61,252.99L162.87,261.16L163.26,260.18L163.27,259.53L163.59,250.69L163.82,261.51L164.03,256.38L164.04,258.01L164.34,253.8L164.54,260.74L164.76,256.53L164.77,260.04L165.08,260.86L165.21,253.53L165.48,259.08L165.49,259.52L165.58,260.96L166.06,254.06L166.24,257.58L166.26,258.36L166.48,252.86L166.74,260.66L166.86,259.54L166.87,251.99L167.11,261.01L167.62,259.08L167.63,257.95L167.82,261.27L168.35,255.02L168.37,259.02L168.38,258.82L168.49,253.62L168.61,261.13L169.14,256.63L169.15,258.91L169.47,260.95L169.76,253.38L169.88,258.05L169.89,256.57L170.15,252.18L170.39,260.86L170.64,257L170.65,257.46L170.82,254.56L171.1,261.34L171.38,256.16L171.39,253.65L171.71,253.31L171.91,260.58L172.14,260.48L172.16,258.89L172.22,255.29L172.23,259.25L172.62,254.33L172.75,260.65L172.97,257.66L172.98,259.42L173.3,260.46L173.43,252.11L173.49,257.11L173.5,260.84L174.1,254.67L174.25,260.61L174.26,259.52L174.38,261.06L174.99,253.94L175.01,259.32L175.02,258.76L175.19,260.88L175.73,253.04L175.78,257.79L175.79,260.01L175.86,252.92L175.99,260.79L176.55,257.41L176.56,260.52L176.71,252.21L176.95,260.87L177.31,257.78L177.32,259.21L177.66,261.51L177.95,253.93L178.07,257.13L178.08,259.65L178.27,253.77L178.47,260.88L178.82,258.8L178.83,259.74L179.01,253.35L179.27,261.19L179.6,254.35L179.61,259.62L179.99,250.94L180.22,261.38L180.35,257.83L180.36,259.66L180.74,253.86L180.94,260.91L181.09,258.1L181.1,259.13L181.61,253.46L181.73,261.29L181.87,256.13L181.88,258.41L182.46,253.61L182.59,260.91L182.6,257.19L182.69,260.79L183.27,252.22L183.36,259.15L183.37,256.82L183.51,261L183.94,254.54L184.1,259.81L184.11,257.23L184.22,261.25L184.75,255.15L184.86,259.08L184.87,256.55L184.89,253.53L185.01,261.13L185.62,259L185.63,257.31L185.97,261.01L186.16,253.98L186.38,258.92L186.39,257.49L186.55,252.41L186.79,260.92L187.14,258.93L187.15,258.26L187.22,254.35L187.5,261.17L187.88,257.25L187.9,258.12L188.12,253.93L188.31,260.99L188.65,256.88L188.66,259.34L189.02,254.45L189.25,260.91L189.41,256.69L189.43,257.74L189.83,252.63L190.07,261.05L190.17,259L190.18,258.72L190.41,259.96L190.5,254.76L190.64,258.82L190.65,260.63L190.78,261.44L191.07,254.08L191.32,257L191.33,260.17L191.4,253.72L191.59,261.17L192.09,257.07L192.1,259.18L192.39,261.11L192.72,253.62L192.85,257.6L192.86,260.01L193.11,251.83L193.35,261.41L193.62,258.64L193.63,259.34L194.06,261.29L194.35,254.26L194.38,257.81L194.39,258.33L194.68,254.05L194.87,260.93L195.14,258.96L195.15,258.56L195.4,261.05L195.41,253.83L195.89,258.4L195.9,258.88L196.39,251.36L196.62,261.47L196.65,257.62L196.66,258.22L196.81,254.26L197.03,260.41L197.13,259.95L197.14,254.05L197.34,261.23L197.89,259.01L197.9,259.12L198.01,253.44L198.38,261.09L198.66,256.81L198.67,259.2L199.09,260.78L199.28,253.82L199.4,258.36L199.41,257.27L199.67,252.19L199.91,261.08L200.16,257.32L200.17,258.01L200.34,254.71L200.62,261.44L200.89,258.95L200.9,256.35L201.29,254.23L201.41,261.14L201.61,258.68L201.62,259.17L201.66,260.98L202.14,254.27L202.25,257.78L202.26,259.34L202.82,260.93L202.95,252.75L202.99,258.6L203,257L203.19,261.06L203.62,255.23L203.71,258.55L203.72,255.83L203.9,261.27L204.19,254.5L204.47,257.71L204.48,258.23L204.52,254.36L204.71,261.26L205.07,258.49L205.08,259.66L205.55,260.9L205.84,254.05L205.85,260.12L206.23,252.23L206.47,261.48L206.6,258.64L206.61,258.53L206.9,254.97L207.05,260.47L207.17,259.21L207.18,261.26L207.8,254.16L207.94,257.19L207.95,259.31L208.52,261.19L208.53,254.01L208.71,257.41L208.72,257.59L209.04,261.22L209.12,254.39L209.46,258.99L209.47,255.86L209.51,252.44L209.76,261.08L210.22,256.96L210.23,259.92L210.46,261.41L210.75,254.39L210.98,258.29L210.99,259.72L211.08,254.34L211.51,261.12L211.75,257.43L211.76,258.64L211.8,261.38L211.81,253.85L212.51,256.54L212.52,257.75L212.79,251.94L213.02,261.04L213.24,258.28L213.26,258.41L213.54,253.78L213.74,261.39L214,259.32L214.01,258.13L214.41,253.7L214.53,261.17L214.75,258.62L214.76,259.16L214.79,261.04L215.26,254.72L215.51,257.78L215.52,258.82L216.07,252.94L216.14,260.93L216.27,258.04L216.28,258.96L216.32,261.15L216.74,254.71L217.01,259L217.02,261.05L217.56,261.34L217.69,254.25L217.78,257.99L217.79,259.44L217.81,261.27L218.54,254.82L218.55,259.1L218.67,261.11L218.96,254.2L219.28,259.81L219.29,258.23L219.35,253.08L219.6,261.36L220.01,258.11L220.02,255.1L220.3,261.48L220.59,254.74L220.79,259.56L220.8,257.52L220.92,254.1L221.35,260.95L221.55,257.57L221.57,259.72L222.05,260.98L222.24,254.17L222.29,258.51L222.3,260.45L222.63,252.19L222.88,261.33L223.06,257.29L223.07,259.26L223.3,254.95L223.58,261.32L223.78,258.92L223.79,259.17L224.2,254.04L224.39,261.12L224.53,258.79L224.54,259.58L224.92,261.15L224.93,253.66L225.3,257.33L225.31,258.31L225.44,261.22L225.52,253.76L225.9,259.76L225.91,252.38L226.16,261.41L226.66,259.74L226.67,257.99L226.86,261.5L227.15,254.2L227.4,257.1L227.41,259.9L227.48,254.58L227.67,261L228.17,257.28L228.18,259.49L228.2,261.26L228.8,253.78L228.93,257.3L228.94,260.38L229.19,251.96L229.42,261.65L229.71,257.41L229.72,257.64L229.94,254.39L230.14,261.15L230.47,257.74L230.48,258.9L230.68,261.39L230.81,253.84L231.23,258.91L231.24,256.66L231.66,254.42L231.89,260.96L232.03,259.86L232.04,259.15L232.47,252.04L232.72,261.09L232.79,257.9L232.8,258.76L233.14,254.88L233.42,261.6L233.51,258.6L233.52,257.15L233.96,261.23L234.09,254.43L234.27,259.04L234.28,258.67L234.47,261.05L234.94,254.23L235.02,258.55L235.03,257.38L235.62,260.84L235.75,253.03L235.79,259.05L235.8,256.99L236,261.39L236.16,256.72L236.41,258.5L236.43,255.08L236.7,261.54L236.99,255.02L237.18,257.98L237.19,259.66L237.32,254.18L237.51,261.24L237.94,258.27L237.95,258.41L238.22,254.91L238.45,260.9L238.63,258.11L238.64,254.23L239.03,252.94L239.28,260.99L239.39,258.95L239.4,258.59L239.71,254.81L239.98,261.58L240.17,259.16L240.18,259.23L240.27,254.71L240.79,261.41L240.85,259.1L240.86,257.81L241.47,254.43L241.59,261.41L241.61,259.05L241.62,258.31L241.84,260.93L242.31,253.05L242.37,257.67L242.38,261.13L242.99,254.91L243.13,260.81L243.14,259.95L243.26,261.22L243.88,254.27L243.89,259.65L243.9,258.93L244.31,261.2L244.61,254.54L244.66,258.26L244.67,260.52L244.75,254.21L244.87,261.49L245.41,258.56L245.42,260.6L245.59,252.58L245.82,261.13L246.18,257.62L246.19,259.37L246.34,254.88L246.54,261.45L246.76,257.66L246.77,260.81L247.21,253.94L247.33,261.41L247.53,258.68L247.54,259.95L247.59,261.02L248.06,254.37L248.28,259.74L248.29,260.97L248.74,261.01L248.87,252.26L249.04,258.86L249.05,257.46L249.12,261.45L249.55,255.34L249.7,259.94L249.71,257.09L249.82,261.58L250.35,255.82L250.46,259.45L250.47,257.11L250.49,254.54L250.61,261.5L251.22,259.04L251.23,257.39L251.47,260.9L251.76,253.59L251.98,259.35L251.99,258.1L252.15,253.01L252.4,261.12L252.74,259.28L252.75,258.29L253.1,261.47L253.39,254.43L253.49,257.28L253.5,257.82L253.72,254.16L253.92,261.51L254.21,257.32L254.22,255.73L254.62,255.15L254.75,260.94L254.98,259.92L254.99,259.87L255.43,253.02L255.68,261.56L255.72,258.53L255.73,259.58L256.11,254.48L256.38,261.26L256.48,256.91L256.49,260.27L257,254.22L257.2,261.26L257.24,257.7L257.25,259.41L257.72,261.2L257.87,254.01L257.98,258.62L257.99,261.35L258.71,253.39L258.74,258.8L258.75,258.78L258.96,261.57L259.39,255.3L259.5,258.47L259.51,258.86L259.66,261.39L259.95,254.92L260.23,258.45L260.24,258.34L260.28,254.67L260.48,261.42L260.98,259.46L260.99,258.07L261,261.4L261.01,254.51L261.74,260.45L261.75,259.12L261.99,252.15L262.23,261.62L262.51,257.61L262.52,258.19L262.74,255.12L262.94,261.51L263.26,257.2L263.27,257.59L263.61,254.61L263.73,261.68L264.02,259.28L264.03,258.9L264.46,254.92L264.69,261.08L264.77,259.76L264.78,259.04L264.88,254.28L265.14,260.87L265.22,259.42L265.23,256.26L265.27,252.78L265.52,261.24L265.98,257.07L265.99,259.99L266.22,261.54L266.51,255.76L266.73,257.96L266.74,260.54L266.89,254.67L267.01,261.33L267.49,259.96L267.5,259.91L267.74,254.16L267.87,261.12L268.27,257.05L268.28,258.59L268.55,252.35L268.8,261.26L269.03,257.83L269.04,257.54L269.23,253.58L269.5,260.99L269.78,257.05L269.79,254.44L270.12,251.08L270.55,261.12L270.56,259.71L271.02,254.65L271.15,261.1L271.24,259.78L271.25,260.72L271.83,253.62L271.9,261.2L272,259.2L272.01,257.79L272.08,261.28L272.51,255.36L272.64,259.12L272.65,260.87L272.78,261.79L273.07,254.76L273.38,258.76L273.39,260.62L273.4,254.42L274.12,261.34L274.14,260.44L274.15,259.14L274.39,261.33L274.72,254.31L274.85,257.33L274.86,260.45L275.11,253.7L275.36,261.53L275.61,258.23L275.62,259.37L276.06,261.59L276.35,255.11L276.36,260.15L276.68,254.51L276.88,261.4L277.1,257.32L277.11,260.89L277.41,254.56L277.67,261.46L277.87,258.61L277.88,260.04L278.39,252.53L278.53,261.02L278.61,259.8L278.63,261.07L278.81,254.59L279.34,261.49L279.38,258.12L279.39,258.8L279.57,261.25L280.01,254.83L280.12,259.2L280.13,260.86L280.39,260.96L280.86,254.81L280.88,259.51L280.89,257.8L281.28,254.13L281.54,260.93L281.64,260.62L281.65,256.64L281.67,251.28L281.92,260.94L282.41,259.77L282.42,260.1L282.62,261.19L282.91,255.76L283.15,256.17L283.16,261.18L283.29,253.18L283.41,261.19L283.92,257.71L283.93,258.63L284.14,252.5L284.37,261.12L284.67,257.29L284.68,258.94L284.95,252.69L285.2,261.5L285.43,257.25L285.44,257.82L285.63,255.16L285.9,261.6L286.17,258.95L286.18,256.97L286.19,254.48L286.72,261.03L286.91,259.61L286.93,259.55L286.95,261.25L287.42,255.35L287.68,259.41L287.69,258.23L287.84,254.27L288.1,261.01L288.22,259.74L288.23,253.52L288.48,261.17L288.99,258.61L289,255.93L289.18,261.44L289.47,254.81L289.76,258.48L289.78,258.26L289.8,250.94L290.52,261.26L290.53,254.74L290.67,254.15L290.79,261.27L291.28,259.31L291.29,258.91L291.52,253.08L291.76,261.24L292.02,259.42L292.03,259.82L292.19,253.37L292.46,261.37L292.78,258.22L292.79,259.15L293.08,251.35L293.51,261.49L293.54,259.54L293.55,259.17L293.8,261.5L293.95,254.32L294.29,258.82L294.3,259.47L294.8,252.62L295.03,261.62L295.05,258.13L295.06,258.79L295.21,254.87L295.27,260.54L295.72,258.66L295.73,259.89L295.74,261.26L296.41,254.45L296.47,259.95L296.48,259.16L296.53,261.35L296.86,255.97L297.23,257.59L297.24,259.94L297.68,254.33L297.94,261.05L297.99,259.02L298,259.42L298.08,252.59L298.32,261.43L298.75,254.02L298.76,259.63L299.25,261.26L299.31,256.49L299.45,259.03L299.46,259.89L299.62,261.13L299.69,253.73L300.19,258.65L300.2,260.23L300.54,254.08L300.77,261.08L300.96,254.1L300.97,259.62L301.22,261.06L301.36,253.64L301.72,259.32L301.73,259.01L302.03,255.51L302.17,260.75L302.29,259.28L302.3,261.59L302.92,254.32L303.06,257.19L303.07,259.45L303.12,261.29L303.82,255.79L303.83,259.44L303.95,261.05L304.24,254.42L304.46,259.39L304.47,257.89L304.64,253.59L304.88,261.72L305.22,259.18L305.23,258.45L305.58,261.41L305.87,254.86L305.97,258.06L305.98,258.17L306.2,252.78L306.63,261.34L306.71,258.89L306.72,257.31L307.07,254.36L307.19,261.48L307.46,259.88L307.48,257.94L307.92,253.63L308.16,261.3L308.23,258.43L308.24,259.04L308.59,255.77L308.86,261.36L308.95,259.35L308.96,257.21L309.47,260.95L309.48,254.47L309.71,258.22L309.72,257.49L309.91,261.39L310.35,254.46L310.47,261.23L310.48,257.48L310.72,261.03L310.8,254.85L311.18,259.44L311.2,253.18L311.43,261.26L311.95,259.33L311.96,258.21L312.14,261.26L312.43,256.18L312.66,260.66L312.67,256.23L312.81,255.14L312.93,261.36L313.42,259.64L313.43,259.33L313.89,261.11L314.08,254.09L314.19,257.25L314.2,258.68L314.48,252.72L314.72,261.37L314.95,256.96L314.96,257.6L315.15,251.33L315.42,261.64L315.67,258.97L315.68,259.75L316.09,252.82L316.21,261.12L316.35,257.33L316.36,259.64L316.47,261.27L316.94,252.6L317.13,258.11L317.14,259.16L317.62,261.09L317.76,253.08L317.88,258.7L317.89,259.84L318,261.56L318.43,253.74L318.61,259.47L318.63,257.65L318.7,261.22L319.32,254.25L319.36,259.01L319.37,259.58L319.52,261.08L319.82,255.72L320.12,258.84L320.13,260.33L320.64,254.42L320.7,260.85L320.87,257.97L320.88,261.23L320.9,261.24L321.04,253.26L321.63,257.84L321.64,259.19L321.98,261.52L322.27,254.56L322.39,258.53L322.4,259.51L322.6,255.3L322.8,261.58L323.14,259.2L323.15,260.08L323.32,261.37L323.92,254.16L323.93,259.57L324.32,253.92L324.56,261.25L324.68,258.75L324.69,258.75L324.99,255.44L325.26,261.35L325.36,257.17L325.37,260.3L325.55,254.6L325.97,260.91L326.12,257.92L326.13,259.31L326.6,261.41L326.75,254.4L326.86,258.77L326.87,261.62L327.6,252.99L327.62,259.01L327.63,258.97L327.83,261.18L328.01,254.03L328.33,260.3L328.34,254.68L328.54,261.19L329.09,259.26L329.1,259.23L329.21,254.69L329.34,261.49L329.86,257.12L329.87,259.78L330.06,255.41L330.19,261.12L330.47,257.62L330.48,254.3L330.88,253.5L330.94,261.29L331.23,259.37L331.24,259.13L331.55,255.5L331.82,261.29L331.98,258.77L331.99,259.14L332.05,260.65L332.11,256.17L332.34,260.52L332.35,256.38L332.49,255.07L332.62,261.29L333.1,260.04L333.11,258.98L333.57,260.98L333.76,254.51L333.87,257.41L333.88,258.99L334.16,253.81L334.22,261.14L334.63,256.95L334.64,257.7L334.83,255.94L335.1,261.86L335.37,258.95L335.38,257.26L335.39,254.67L335.92,261.07L336.12,259.47L336.13,259.93L336.15,261.39L336.62,256.06L336.88,259.38L336.89,258.52L337.04,253.69L337.5,260.95L337.63,258.92L337.65,259.02L338.11,255.63L338.25,261.19L338.37,259.25L338.38,261.45L339,253.59L339.14,257.17L339.15,259.39L339.72,261.56L339.87,254.04L339.89,259.18L339.9,259.46L340.24,261.25L340.32,254L340.65,258.43L340.66,259.21L340.72,252.56L340.96,261.18L341.4,259.69L341.41,259.57L341.66,261.44L341.95,255.05L342.16,258.01L342.17,260.76L342.28,251.85L342.48,261.51L342.92,260.56L342.93,259.88L343.01,254.43L343.52,261.62L343.69,258.09L343.7,258.44L344,253.45L344.23,261.26L344.45,258.35L344.46,258.94L344.74,254.9L344.94,261.39L345.21,259.2L345.22,256.88L345.61,254.46L345.74,261.15L345.93,259.02L345.94,259.58L345.99,261.24L346.46,254.54L346.67,258.86L346.68,260.17L347.14,261.09L347.28,252.33L347.42,260.68L347.43,258.04L347.52,261.25L347.95,255.31L348.18,259.24L348.19,258.31L348.22,261.55L348.89,255.57L348.93,258.53L348.94,258.56L349.02,261.38L349.34,256.47L349.68,258.48L349.69,258.55L350.16,254.45L350.42,261.15L350.44,258.87L350.45,259.21L350.56,254.32L350.8,261.45L351.18,258.6L351.2,259.2L351.5,261.96L351.79,254.96L351.82,258.12L351.83,259.38L352.12,253.44L352.55,261.44L352.58,259.65L352.59,259.3L353.02,254.06L353.15,261.12L353.33,259.84L353.34,259.54L353.44,254.43L353.7,261.11L353.83,260.27L353.84,251.26L354.08,261.34L354.59,258.74L354.6,256.39L354.78,261.59L355.07,254.87L355.36,258.58L355.37,258.93L355.4,249.36L355.6,261.32L355.7,258.04L355.71,260.4L356.27,254.85L356.39,261.43L356.46,259.07L356.47,259.98L356.98,261.52L357.12,254.25L357.22,257.88L357.23,259.71L357.88,256.6L357.93,261.37L358,257.29L358.01,258.71L358.06,261.31L358.35,255.07L358.73,260.08L358.74,257.2L359.4,261.83L359.41,254.99L359.49,259.03L359.51,258.61L359.55,255.01L359.67,261.39L360.26,261.1L360.27,259.2L360.4,253.45L360.63,261.59L361.02,259.16L361.04,260.57L361.14,255.64L361.34,261.55L361.79,259.71L361.8,260.39L362.01,255.61L362.14,261.67L362.55,257.56L362.57,259.11L362.99,261.23L363.28,254.46L363.31,257.47L363.32,259.98L363.68,254.31L363.92,261.32L364.08,257.28L364.1,257.86L364.35,256.32L364.62,261.55L364.86,260.26L364.87,258.66L365.29,254.7L365.42,261.45L365.63,260.1L365.64,259.44L365.67,261.56L366.14,255.07L366.39,258.38L366.4,259.32L366.8,261.25L366.96,251.41L367.14,257.79L367.16,258.9L367.2,261.21L367.36,257.28L367.62,259.02L367.63,251.05L367.9,261.3L368.39,260.01L368.4,258.2L368.52,246.3L368.72,261.39L369.14,257.36L369.15,258.14L369.42,255.65L369.55,260.98L369.83,258.14L369.84,254.31L370.08,261.21L370.24,253L370.59,259.56L370.6,259.21L370.91,255.02L371.18,261.3L371.27,259.07L371.28,257.76L371.47,254.82L372,261.74L372.03,258.89L372.04,258.14L372.52,261.37L372.53,254.45L372.79,261.3L372.8,258L373.04,261.59L373.12,254.54L373.51,260.31L373.52,253.92L373.76,261.29L374.27,258.98L374.28,256.64L374.46,261.42L374.75,255.02L375.03,259.08L375.04,258.61L375.08,255.47L375.28,261.45L375.74,259.55L375.75,257.63L376.32,261.55L376.4,254.87L376.5,258.64L376.51,257.16L376.8,254.21L377.03,261.37L377.27,260.22L377.28,259.15L377.54,255.47L377.74,261.8L377.96,257.78L377.97,261.19L378.41,255.51L378.54,261.63L378.73,259.05L378.75,260.18L378.79,261.06L379.26,255.69L379.51,258.31L379.52,259.66L379.94,261.11L380.08,254.35L380.28,258.46L380.29,259.05L380.32,261.46L380.75,256.71L381.01,259.51L381.02,261.68L381.69,255.52L381.78,258.37L381.79,259.41L382.07,261.58L382.14,255.8L382.52,260.29L382.53,257.96L382.96,254.72L383.22,261.1L383.27,259.35L383.28,259.88L383.6,261.29L384.03,253.05L384.04,259.66L384.3,261.55L384.59,255.18L384.78,258.92L384.79,259.67L384.92,246.54L385.35,261.47L385.54,257.39L385.55,258.65L385.96,261.27L386.24,254.51L386.29,259L386.3,261.03L386.64,254.35L386.88,261.24L387.06,257.87L387.07,258.04L387.4,256.38L387.58,261.67L387.82,260.26L387.83,258.86L387.87,255.01L388.4,261.49L388.59,260.27L388.6,259.31L388.93,254.92L389.19,261.33L389.32,259.12L389.33,257.89L389.44,261.4L389.92,254.73L390.08,259.21L390.09,257.96L390.59,256.62L390.86,261.37L390.87,259.63L390.88,257.97L391.09,260.92L391.15,255.3L391.61,258.19L391.62,257.63L391.68,261.55L392.21,255.09L392.37,259.31L392.38,259.54L392.72,261.65L392.8,254.83L393.13,258.74L393.14,258.53L393.2,253.99L393.43,261.29L393.89,259.61L393.9,257.93L393.94,254.61L394.14,261.41L394.66,260.67L394.67,256.25L394.68,261.61L394.81,254.59L395.42,259.86L395.43,259.51L395.66,253.54L396.14,261.17L396.18,258.55L396.19,257.61L396.48,249.99L396.72,261.2L396.94,259.34L396.95,257.6L397.15,249.32L397.42,261.3L397.69,259.16L397.7,257.07L398.09,255.46L398.22,261.64L398.42,259.26L398.43,259.84L398.47,261.42L398.94,256.14L399.15,258.94L399.16,260.39L399.36,254.58L399.82,261.34L399.9,260.47L399.91,258.18L400,261.38L400.52,256.61L400.66,259.34L400.67,258L400.7,261.31L400.99,254.72L401.42,258.17L401.43,258.59L401.52,261.67L401.82,256.25L402.14,260.7L402.15,257.87L402.64,254.59L402.88,261.08L402.91,259.7L402.92,259.28L403.04,253.38L403.28,261.53L403.64,260L403.65,258.67L403.71,253.54L403.98,261.4L404.08,257.47L404.09,260.54L404.6,248.71L404.8,261.17L404.86,258.74L404.87,259.08L405.03,261.45L405.1,256.86L405.32,261.4L405.33,255.29L405.59,261.63L405.92,254.38L406.08,259.63L406.09,259.49L406.32,255.02L406.56,261.36L406.81,258.74L406.82,259.6L407.08,256.63L407.26,262.08L407.48,257.92L407.49,261.16L407.55,255.11L408.08,261.52L408.24,259.76L408.26,259.44L408.61,254.65L408.87,261.75L409,258.94L409.01,257.69L409.12,261.59L409.6,254.47L409.76,258.64L409.77,258.79L409.83,261.43L410.02,254.79L410.51,258.6L410.52,259L410.54,261.76L411.21,255.21L411.27,260.37L411.28,259.18L411.59,261.4L411.66,256.36L412.03,258.13L412.04,260L412.29,261.33L412.48,254.5L412.78,258.51L412.79,259.49L412.88,250.86L413.12,261.26L413.47,258.93L413.48,259.79L413.55,248.82L413.82,261.18L414.18,260.56L414.19,260.52L414.49,255.69L414.62,261.68L414.94,256.26L414.95,259.93L415.34,256.17L415.48,261.23L415.7,259.13L415.71,259.91L415.76,254.91L416.4,261.59L416.41,258.17L416.83,256.6L417.1,261.46L417.17,259.32L417.18,259.38L417.33,261.43L417.72,255.29L417.91,259.07L417.92,261.51L418.62,256L418.65,258.02L418.66,260.75L419.04,254.59L419.3,261.26L419.39,256.83L419.41,260.76L419.68,261.29L420.11,253.61L420.16,258.23L420.17,260.67L420.38,261.45L420.67,254.94L420.9,258.29L420.91,259.8L421,250L421.43,261.43L421.66,259.51L421.67,257.97L421.99,261.51L422.32,255.12L422.41,258.53L422.42,258.31L422.72,254.64L422.96,261.51L423.15,258.16L423.16,259.7L423.48,256.55L423.66,261.75L423.88,258.22L423.89,260.94L423.95,254.9L424.48,261.54L424.58,258.38L424.59,260.51L425,261.45L425.15,255.57L425.34,259.26L425.35,259.75L425.53,261.45L426,254.17L426.11,258.17L426.12,258.94L426.23,261.66L426.42,255.38L426.86,258.29L426.87,258.22L427.17,261.37L427.23,256.15L427.43,257.59L427.44,260.4L427.61,256.33L427.99,261.5L428.19,258.48L428.2,258.62L428.6,261.35L428.88,254.55L428.95,259.55L428.96,258.49L429.28,253.83L429.52,261.48L429.69,257.27L429.7,257.54L429.95,254.68L430.22,261.35L430.46,260.12L430.47,259.04L430.89,255.62L431.02,261.68L431.23,260.35L431.24,258.92L431.27,261.37L431.74,256.31L431.97,260.79L431.98,257.79L432.16,254.71L432.42,261.24L432.73,258.35L432.75,257.88L432.8,261.64L433.23,256.24L433.51,259.71L433.52,258.07L433.73,260.97L433.79,254.98L434.11,260.78L434.12,252.24L434.32,261.4L434.88,259.81L434.89,259.16L435.44,254.56L435.5,261.09L435.62,259.19L435.63,257.81L435.68,261.42L435.84,254.03L436.39,258.72L436.4,258.93L436.51,255.27L436.78,261.59L437.14,259.94L437.15,258.73L437.4,253.71L437.6,261.45L437.9,257.12L437.91,258.6L438.13,254.69L438.39,261.48L438.63,257.77L438.65,261.08L438.72,254.82L438.98,261.43L439.4,258.91L439.41,259.72L439.88,256.77L440.06,261.71L440.16,257.78L440.18,260.6L440.35,255.39L440.88,261.4L440.94,258.82L440.95,258.77L441.41,255.36L441.67,261.85L441.69,259.29L441.71,258.83L441.93,261.34L442.4,255.06L442.45,258.21L442.46,259.77L442.63,261.51L442.82,255.7L443.13,260.57L443.14,255.37L443.89,261.85L443.9,259.53L443.91,259.7L444.01,255.76L444.14,261.58L444.66,257.73L444.67,259.95L445.09,261.16L445.28,254.62L445.38,258.47L445.39,257.55L445.54,261.51L445.68,250.28L446.14,259.71L446.15,258.11L446.21,258.09L446.25,260.52L446.34,258.62L446.35,246.9L446.62,261.67L447.1,258.67L447.11,257.52L447.29,255.69L447.42,261.59L447.85,259.25L447.86,257.37L448.18,261.12L448.56,254.85L448.62,260.91L448.63,259.51L448.96,253.92L449.02,261.49L449.39,258.44L449.4,259.77L449.63,253.59L449.77,261.34L449.89,259.25L449.9,261.91L450.52,251.34L450.67,257.7L450.68,259.91L450.95,261.56L451.42,256.14L451.43,259.83L451.44,259.58L451.56,261.38L451.84,254.79L452.2,256.91L452.21,260.66L452.24,255.04L452.48,261.27L452.96,258.56L452.97,260.4L453.18,261.6L453.47,255.54L453.7,259.19L453.71,260.1L453.8,255.85L454,261.6L454.47,257.8L454.48,258.93L454.79,261.54L455.12,254.62L455.23,257.26L455.24,259.57L455.52,255.26L455.76,261.51L456,258.25L456.01,258.84L456.28,256.82L456.46,261.72L456.74,257.3L456.75,254.96L457.28,261.7L457.51,261.44L457.52,260.07L457.8,261.34L457.81,255.52L457.95,255.55L457.96,260.49L458.33,261.39L458.4,255.71L458.7,259.05L458.71,260.77L458.8,254.59L459.03,261.65L459.46,259.17L459.47,258.04L459.54,255.58L459.74,261.4L460.22,258.62L460.23,257.41L460.41,256.08L460.79,261.62L460.98,257.82L460.99,258.88L461.26,256.2L461.4,261.32L461.65,259.69L461.66,257.67L461.68,254.73L462.32,261.42L462.43,259.67L462.44,259.16L462.84,256.1L463.02,261.64L463.16,259.63L463.17,259.92L463.69,255.73L463.82,261.42L463.93,258.99L463.94,259.29L464.07,261.3L464.54,256.11L464.69,257.73L464.7,259.83L464.96,254.2L465.22,261.37L465.46,258.11L465.47,259.6L465.6,261.42L466.12,256.64L466.16,260.02L466.17,261.04L466.3,261.48L466.59,255.46L466.9,258.47L466.91,261.02L466.92,255.84L467.12,261.44L467.66,257L467.67,258.89L467.74,261.3L468.24,254.78L468.42,259.14L468.43,257.71L468.64,254.55L468.88,261.61L469.19,259.52L469.2,259.27L469.58,261.64L469.87,254.96L469.95,259.28L469.96,257.73L470.2,256.08L470.4,261.65L470.69,256.39L470.7,256.71L470.93,255.65L471.19,261.73L471.46,258.95L471.47,260.62L471.52,254.67L472.16,261.37L472.23,258.8L472.24,259.11L472.59,254.17L472.86,261.51L472.99,259.26L473,259.16L473.48,246.64L473.68,261.16L473.74,258.86L473.75,259.13L473.98,256.83L474.2,261.25L474.21,255.19L474.35,255.04L474.47,261.76L474.96,259.93L474.97,258.94L475.2,253.81L475.43,261.82L475.72,258.23L475.73,259.17L475.94,255.71L476.14,261.77L476.42,257.03L476.43,256.25L476.81,256.09L476.94,261.79L477.21,259.84L477.22,259.88L477.66,256.22L477.8,260.97L477.87,258.74L477.88,259.78L478.32,261.32L478.48,254.73L478.62,260.6L478.63,258.03L478.72,261.49L479.15,255.53L479.38,259.71L479.39,258.29L479.97,261.52L480.09,255.68L480.15,260.42L480.16,259.2L480.22,261.8L480.54,256.42L480.91,257.95L480.92,260.13L480.94,255.07L481.62,261.18L481.67,259.61L481.68,259.74L481.76,253.9L481.82,261.3L482.43,255.98L482.44,259.7L482.7,261.63L482.99,254.71L483.18,258.53L483.19,259.79L483.32,256.1L483.52,261.32L483.94,257.51L483.95,259.01L484.36,261.24L484.64,254.7L484.65,260.39L485.04,254.7L485.28,261.43L485.4,258.88L485.41,259.51L485.71,255.98L485.98,261.6L486.07,259.21L486.09,257.83L486.21,261.13L486.6,251.94L486.84,258.39L486.85,259.58L487.03,261.42L487.33,255.42L487.58,258.83L487.59,261.45L487.92,254.65L488.34,259.6L488.35,259.07L488.56,261.53L488.99,256.39L489.09,258.85L489.1,259.38L489.26,261.71L489.55,255.08L489.86,258.92L489.87,260.73L489.88,253.73L490.6,261.86L490.61,255.2L490.62,260.82L491.13,261.6L491.2,255.17L491.38,258.07L491.39,257.86L491.6,254.67L491.83,261.8L492.11,258.3L492.12,258.13L492.34,255.51L492.54,261.52L492.87,258.33L492.88,258.13L493.21,255.99L493.34,261.34L493.63,259.3L493.64,257.57L494.06,256.23L494.2,261.12L494.34,258.6L494.35,259.62L494.74,261.24L494.88,254.17L495.09,259.22L495.1,258L495.55,255.14L495.82,261.61L495.85,258.12L495.86,258.96L496.49,252.48L496.62,261.65L496.63,257.73L496.87,261.24L497.34,254.48L497.38,260.65L497.39,259.1L497.76,254.94L497.91,261.39L498.11,259.66L498.12,256.85L498.16,253.66L498.4,261.37L498.87,260.24L498.88,258.46L499.1,261.78L499.39,255.16L499.62,258.64L499.64,259.98L499.72,253.43L499.92,261.52L500.4,257.47L500.41,259.13L501.04,254.81L501.1,261.16L501.15,257.58L501.17,259.31L501.44,255.19L501.68,261.36L501.92,258.59L501.93,259.08L502.2,257.14L502.38,261.57L502.65,259.07L502.66,257.39L502.67,254.77L503.2,261.48L503.4,259.87L503.41,260.06L503.72,261.6L503.73,255.53L504.16,259.99L504.17,259.42L504.32,255.13L504.58,261.39L504.92,259.02L504.93,259.36L504.96,261.52L505.48,256.53L505.65,259.81L505.66,261.71L506.28,254.3L506.43,257.81L506.44,260.28L506.48,261.59L507.15,255.19L507.2,257.74L507.21,260.18L507.27,261.38L507.6,255.12L507.96,259.35L507.97,259.27L508,254.19L508.23,261.73L508.69,259.4L508.7,258.51L508.74,255.53L508.94,261.57L509.44,260.14L509.45,258.2L509.74,261.56L510.06,256.27L510.2,259.35L510.21,260.59L510.69,261.09L510.88,254.5L510.93,259.09L510.94,260.81L511.12,261.33L511.28,255.8L511.71,258.42L511.72,259.54L512.04,256.68L512.22,261.62L512.44,258.01L512.45,261.3L512.89,256.06L513.02,261.89L513.19,259.1L513.2,260.23L513.27,261.47L513.74,256.14L513.95,259.34L513.96,260.47L514.42,261.24L514.56,253.26L514.64,259.9L514.65,257.38L514.8,261.63L515.23,254.61L515.39,260.33L515.4,257.74L515.5,261.45L515.79,255.29L516.11,260.9L516.12,254.32L516.32,261.58L516.88,260L516.89,259.34L517.02,255.42L517.25,261.3L517.43,258.31L517.44,254.99L517.84,254.62L518.08,261.37L518.19,259.51L518.2,259.07L518.51,256.58L518.78,261.79L518.99,260.28L519,258.32L519.07,255.61L519.6,261.59L519.75,260L519.76,259.4L520.13,255.18L520.39,261.48L520.5,258.57L520.51,258.97L520.72,254.77L520.87,261.36L521.26,260.62L521.28,258.53L521.36,261.39L521.79,256.4L522.02,259.76L522.03,258.14L522.06,261.89L522.35,255.16L522.78,258.37L522.79,259.24L523.4,261.63L523.41,255.37L523.53,257.51L523.54,260.23L523.67,261.6L524,255.23L524.29,257.96L524.3,259.01L524.4,253.65L524.63,261.61L525.04,260.69L525.05,258.87L525.14,250.38L525.34,261.45L525.45,258.34L525.46,260.6L526.01,255.02L526.14,261.62L526.2,258.92L526.21,260.97L526.39,261.13L526.86,255.6L526.95,257.91L526.97,259.81L527.54,261.35L527.68,253.98L527.73,258.13L527.74,260.88L527.92,261.2L528.35,255.99L528.48,259.45L528.5,260.95L528.62,261.5L528.91,256.21L529.21,258.28L529.22,261.38L529.29,256.49L529.42,261.51L529.98,257.23L529.99,258.61L530.37,261.43L530.56,254.95L530.74,259.51L530.75,257.67L530.96,255.14L531.2,261.29L531.51,259.11L531.52,259.48L531.63,254.46L531.9,261.35L532.26,260L532.27,259.12L532.52,250.51L532.72,261.93L533.02,256.18L533.03,259.85L533.42,256.37L533.56,261.35L533.78,258.93L533.79,259.89L533.84,254.67L534.3,261.55L534.52,258.98L534.53,260.25L535,256.79L535.18,261.82L535.29,258.19L535.3,260.74L535.47,255.15L536,261.67L536.06,258.98L536.07,259.25L536.23,261.25L536.53,255.42L536.78,259.01L536.8,261.78L537.12,254.63L537.55,259.34L537.56,258.22L537.76,261.53L538.19,256.73L538.27,259.18L538.28,256.38L538.46,261.92L538.75,255.49L539.03,259.22L539.04,258.37L539.08,255.28L539.8,261.78L539.81,256.07L540.08,261.75L540.4,255.46L540.56,260.05L540.57,259.11L540.8,254.5L541.03,261.62L541.32,258.45L541.33,259.7L541.54,256.23L541.74,261.85L541.96,257.66L541.97,261.14L542.41,256.55L542.54,261.53L542.74,259.19L542.75,260.43L542.86,256.72L543.49,261.28L543.51,258.48L543.52,259.96L543.68,254.79L543.83,261.25L544.27,258.18L544.28,259.51L544.32,261.54L544.84,256.31L545.01,259.2L545.02,261.83L545.31,256.47L545.78,257.64L545.79,258.69L546.07,261.61L546.14,256.64L546.53,258.38L546.54,257.15L546.96,254.6L547.02,261.41L547.28,259.78L547.3,258.21L547.36,255.79L547.6,261.45L548.05,259.76L548.06,257.46L548.3,261.54L548.59,255.28L548.81,260.92L548.83,258.74L548.92,250.55L549.35,261.51L549.59,259.81L549.6,257.6L549.82,253.92L549.96,261.28L550.34,258.42L550.36,257.2L550.64,249.19L550.88,261.58L551.11,258.6L551.12,258.64L551.31,254.62L551.58,261.76L551.85,259.4L551.86,257.4L552.2,252.58L552.4,261.56L552.6,259.02L552.61,260.08L552.93,254.57L553.2,261.74L553.36,259.77L553.37,259.74L553.45,261.48L553.52,254.71L554.12,259.21L554.13,259.62L554.68,256.52L554.86,261.64L554.88,258.56L554.89,258.72L555.15,255.13L555.47,261.11L555.48,256.05L556.2,261.82L556.21,255.39L556.23,259.51L556.24,259.3L556.48,261.84L556.8,255.39L556.94,257.95L556.95,261.07L557.2,254.87L557.43,261.46L557.72,258.01L557.73,260.19L557.94,255.86L558.14,261.62L558.49,259.38L558.5,260.67L558.94,261.82L559.26,256.26L559.27,259.81L559.66,255.61L559.8,261.21L560.02,259.54L560.03,260.28L560.34,261.24L560.48,253.07L560.7,258.24L560.71,259.86L561.15,254.06L561.42,261.73L561.45,258.84L561.46,258.95L561.65,261.67L562.09,256.15L562.17,259.81L562.18,257.68L562.22,262.12L562.54,256.61L562.92,260.44L562.93,258.09L563.08,261.33L563.36,255.05L563.67,259.46L563.69,259.87L563.76,255.35L564,261.68L564.43,257.42L564.44,260.22L564.7,261.95L565,255.01L565.16,258.26L565.17,260.13L565.32,254.73L565.75,261.53L565.92,258.11L565.93,259.24L566.36,261.3L566.64,254.91L566.67,257.68L566.68,260.06L567.04,253.67L567.28,261.33L567.43,259.49L567.44,259.1L567.71,254.99L567.98,261.56L568.18,259.6L568.19,260.12L568.21,261.43L568.6,251.3L568.94,259.33L568.95,260.04L569.32,261.56L569.33,255.66L569.7,258.17L569.71,259.42L569.85,261.61L569.92,254.99L570.44,259.47L570.45,260.39L570.56,261.8L570.73,257.26L570.98,259.28L570.99,257.69L571.26,261.88L571.56,255.46L571.75,260.35L571.76,258.62L571.88,256.62L572.31,261.66L572.52,261.01L572.53,259.8L572.6,261.66L573.2,255.28L573.23,257.85L573.24,259.83L573.6,254.55L573.83,261.67L574,256.94L574.01,258.21L574.02,254.56L574.54,261.68L574.75,260.02L574.76,258.3L575.21,256.47L575.34,261.71L575.51,259.09L575.52,259.65L575.59,261.61L575.66,256.54L576.04,260.26L576.05,257.71L576.1,261.29L576.48,254.72L576.78,258.91L576.79,259.46L576.88,254.69L577.12,261.61L577.5,258.86L577.51,258.68L577.64,256.41L577.82,261.71L578.28,260.37L578.29,257.4L578.87,261.58L578.94,256.41L579.05,259.12L579.06,257.5L579.48,261.32L579.76,254.48L579.82,261.23L579.83,259.44L579.91,261.26L580.16,255.45L580.59,258.45L580.6,259.32L580.92,256.63L581.1,261.74L581.31,260.08L581.32,257.87L581.4,255.63L581.92,261.47L582.07,259.71L582.08,259.38L582.22,256.41L582.76,261.39L582.79,258.81L582.8,257.98L583.28,261.13L583.44,253.88L583.56,259.55L583.57,260.19L583.68,261.4L584.11,252.82L584.27,260.55L584.28,257.62L584.38,261.88L584.68,255.7L584.99,261L585,247.95L585.2,261.61L585.75,259.49L585.77,259.3L586,261.42L586.32,255.5L586.52,258.56L586.53,259.19L586.72,255.28L586.96,261.47L587.27,258.83L587.28,259.06L587.66,261.89L587.96,255.36L588.03,259.1L588.04,257.73L588.28,256.37L588.48,261.9L588.77,257.19L588.78,256.64L589,261.67L589.15,255.81L589.53,261.38L589.54,258.91L590,255.06L590.23,261.72L590.29,259.26L590.3,260.55L590.42,255.82L590.94,261.65L591.05,258.34L591.06,260.26L591.61,256.63L591.74,261.6L591.8,258.74L591.81,260.83L591.99,261.55L592.06,256.64L592.56,257.61L592.57,259.72L592.6,261.45L592.88,254.81L593.33,258.28L593.34,260.84L593.52,261.42L594.04,256.65L594.09,259.91L594.1,261.29L594.22,261.67L594.52,256.56L594.85,258.86L594.86,260.21L594.89,255.9L595.02,262.08L595.59,258.92L595.61,260.37L595.97,261.4L596.16,255.09L596.36,258.98L596.37,259.08L596.56,254.9L596.8,261.39L597.12,259.13L597.14,260.19L597.5,261.58L597.8,255.12L597.9,259.01L597.91,259.11L598.12,254.11L598.32,261.71L598.65,258.07L598.67,259.97L599.25,261.37L599.44,254.89L599.45,260.45L599.84,253.44L600.08,261.59L600.2,259.99L600.21,259.22L600.51,254.58L600.78,261.86L600.97,259.7L600.98,259.65L601.08,255.54L601.6,261.66L601.71,260.5L601.73,259.18L602.13,255.3L602.4,261.76L602.47,259.88L602.48,258.93L602.65,261.8L602.72,254.93L603.17,258.23L603.18,261.05L603.36,261.49L603.88,256.74L603.93,259.65L603.94,261.36L604.06,261.69L604.36,255.58L604.69,259.93L604.7,259.51L605.11,261.59L605.41,255.64L605.43,259.54L605.45,259.6L605.68,261.58L606,255.51L606.14,258.6L606.15,260.81L606.4,255.4L606.63,261.57L606.92,258.04L606.93,260.18L607.14,255.12L607.34,261.96L607.68,258.14L607.69,259.64L608.01,256.61L608.14,261.92L608.43,260.15L608.44,258.06L608.46,256.84L609,261.22L609.14,258.41L609.16,260.03L609.28,254.69L609.54,261.33L609.67,260.02L609.68,255.68L609.92,261.65L610.43,259.35L610.44,256.79L610.62,261.94L610.92,256.47L611.19,259.62L611.2,258.57L611.29,256.08L611.42,261.78L611.96,260.35L611.97,259.62L612.56,254.43L612.71,261.43L612.72,260.16L612.96,254.53L613.2,261.47L613.45,259.54L613.46,260.13L613.9,261.66L614.2,255.03L614.21,260.39L614.52,253.32L614.72,261.52L614.96,260.15L614.97,259.69L615.34,261.2L615.42,256.36L615.45,258.17L615.46,260.85L615.65,261.52L615.84,254.66L616.22,257.49L616.23,260.16L616.24,255.1L616.48,261.2L616.97,260.17L616.98,260.59L617.18,261.7L617.48,255.27L617.73,257.96L617.74,260.31L617.8,254.4L618,261.66L618.49,258.08L618.5,260.15L619.05,261.67L619.12,254.89L619.26,258.16L619.27,261.42L619.52,255.02L620.04,258.39L620.05,258.52L620.46,261.42L620.76,255.08L620.8,259.17L620.81,260.18L621.08,255.06L621.28,261.4L621.5,258.4L621.51,261.83L621.81,255.78L622.26,258.7L622.28,259.44L622.4,254.66L623.03,261.86L623.04,258.18L623.22,255.43L623.74,261.61L623.79,259.46L623.81,258.71L624.04,256.14L624.54,261.6L624.55,258.16L624.79,261.37L624.86,256.77L625.3,261.01L625.31,259.16L625.68,255.03L625.94,261.39L626.03,259.42L626.04,256.72L626.08,255.73L626.32,261.49L626.79,260.42L626.8,258.62L627.02,261.83L627.32,256.14L627.55,260.89L627.56,257.34L628.07,261.85L628.14,256.43L628.31,259.88L628.32,257.59L628.58,261.26L628.96,254.81L629.07,258.68L629.08,257.56L629.36,255.11L629.6,261.58L629.83,258.1L629.84,258.69L630.03,254.49L630.3,261.67L630.57,259.47L630.59,257.62L630.92,250.26L631.12,261.57L631.32,259.7L631.33,260.15L631.35,261.63L631.82,256.24L632.08,259.65L632.09,258.29L632.24,254.91L632.3,261.32L632.85,259.64L632.86,258.16L633.4,256.21L633.58,261.6L633.61,258.67L633.62,258.81L633.81,261.23L633.88,255.49L634.37,259.53L634.38,258.26L634.4,261.7L634.93,255.58L635.13,259.9L635.14,260.13L635.52,254.69L635.67,261.61L635.88,257.09L635.89,260.68L635.92,255.62L636.16,261.58L636.64,258.77L636.65,259.95L636.86,261.59L637.16,255.52L637.3,259.63L637.31,257.14L637.68,261.76L637.97,256.54L638.06,259.01L638.07,258.75L638.73,261.51L638.8,255.23L638.81,260.94L639.2,255.71L639.43,261.65L639.56,258.86L639.57,260.35L639.62,255.42L640.14,262.12L640.25,258.21L640.26,260.63L640.44,256.23L640.69,261.47L641,258.84L641.01,260.98L641.19,261.65L641.26,256.64L641.76,257.72L641.77,259.42L642.08,254.61L642.23,261.36L642.53,258.23L642.54,261.25L643.24,257.08L643.29,259.56L643.3,261.06L643.42,261.68L643.72,256.74L644.01,258.44L644.02,261.2L644.47,261.67L644.54,256.49L644.78,257.94L644.8,259.04L645.36,254.63L645.42,261.21L645.54,259.17L645.55,257.75L645.76,255.27L646,261.72L646.31,259.43L646.33,259.69L646.43,253.02L646.7,261.55L647.06,260.1L647.07,258.92L647.32,241.88L647.52,261.99L647.82,256.7L647.83,259.99L648.22,256.41L648.45,261.3L648.58,259.39L648.59,260.04L648.64,254.73L648.9,261.52L649.25,259.83L649.26,258.11L649.8,256.81L649.98,261.93L650.01,258.55L650.02,259.03L650.21,261.26L650.28,255.04L650.73,259.14L650.74,258.2L650.8,261.86L651.33,256.12L651.39,258.9L651.4,260.73L651.6,261.55L651.92,255.27L652.15,258.17L652.16,261.04L652.32,255.23L652.56,261.62L652.91,259.76L652.92,259.06L653.26,261.92L653.56,255.33L653.67,259.28L653.68,259.77L653.88,256.26L654.08,261.43L654.42,258.15L654.43,259.77L654.75,256.05L654.88,261.89L655.11,259.63L655.12,257.72L655.6,255.5L655.83,261.72L655.87,258.93L655.88,259L656.02,255L656.54,261.87L656.6,259.5L656.61,258.68L656.84,256.45L657.34,261.82L657.36,259.57L657.37,258.39L657.59,261.39L657.66,256.47L658.04,260.34L658.05,258.31L658.48,254.93L658.72,261.35L658.79,259L658.8,259.76L658.88,255.6L659.12,261.3L659.55,257.97L659.56,260.29L659.64,256.66L659.82,261.75L660.32,257.45L660.33,259.99L660.49,256.57L660.62,261.69L661.08,259.39L661.09,260.92L661.57,261.49L661.76,254.78L661.85,258.61L661.86,259.27L662.16,255.12L662.4,261.7L662.6,259.82L662.61,259.44L662.83,255.41L663.1,261.62L663.36,260.41L663.38,259.67L663.72,254.36L663.92,261.56L664.12,259.31L664.13,260.1L664.15,261.48L664.62,255L664.88,259.88L664.89,258.92L665.04,254.54L665.19,261.5L665.43,260.34L665.44,252.18L665.68,261.26L666.11,251.66L666.19,259.38L666.2,256.88L666.38,261.64L666.68,255.39L666.97,259.06L666.98,258.87L667,255.45L667.43,261.75L667.72,261.6L667.73,255.58L668.25,261.55L668.32,254.88L668.49,259.24L668.5,259.44L668.72,255.67L668.96,261.52L669.25,258.27L669.26,260.39L669.66,261.98L669.96,255.6L670,258.56L670.01,260.73L670.28,256.22L670.48,261.78L670.78,257.16L670.79,259.14L671.01,255.83L671.28,262.05L671.52,257.65L671.53,261.53L672,255.41L672.23,261.8L672.28,259.03L672.29,259.3L672.42,255.71L672.94,261.52L673.04,259.39L673.05,257.96L673.24,256.61L673.74,261.77L673.8,259.01L673.81,260.85L673.99,261.37L674.06,256.55L674.56,258.08L674.57,259.57L674.6,261.45L674.88,254.99L675.33,258.32L675.34,261.13L675.52,261.48L676.04,256.99L676.09,259.72L676.1,260.94L676.22,261.76L676.52,256.56L676.81,258.62L676.82,261.05L676.89,256.2L677.02,261.9L677.57,259.44L677.59,257.47L677.74,254.98L677.97,261.34L678.34,259.08L678.35,258.11L678.56,251.78L678.8,261.52L678.96,259.15L678.97,257.57L679.23,252.54L679.5,261.87L679.74,260.51L679.75,258.99L680.12,248.59L680.32,261.54L680.51,260.19L680.52,259.24L680.55,261.6L680.62,256.58L681.25,261.09L681.26,257.76L681.44,254.43L681.7,261.55L682.01,259.35L682.02,258.21L682.08,261.42L682.61,257.02L682.65,259.71L682.66,261.26L682.78,261.72L683.08,255.55L683.4,256.64L683.41,260.04L683.6,261.53L683.9,257.25L684.11,257.98L684.12,261.37L684.4,261.81L684.72,254.86L684.86,258.43L684.87,261.47L684.96,261.53L685.12,255.84L685.62,260.31L685.63,259.9L686.06,262.1L686.36,255.18L686.39,258.66L686.4,258.98L686.68,256.55L686.88,261.91L687.15,259.57L687.16,257.99L687.55,255.91L687.68,261.24L687.88,259.58L687.89,260.38L688,255.24L688.63,261.78L688.64,258.65L688.65,258.79L688.82,255.43L689.34,261.76L689.4,259.5L689.41,258.71L690.01,255.69L690.14,261.54L690.15,257.72L690.39,261.48L690.86,256.06L690.9,260.93L690.92,259.12L691.28,255.03L691.34,261.48L691.63,259.58L691.64,256.86L691.68,254.33L691.92,261.5L692.39,260.47L692.4,258.69L692.62,261.64L692.92,256.59L693.15,260.67L693.16,257.34L693.29,255.85L693.67,261.66L693.91,259.6L693.92,257.79L694.06,261.24L694.56,255.05L694.67,258.58L694.68,257.54L694.96,254.74L695.2,261.56L695.43,257.86L695.44,258.2L695.63,257.07L695.9,261.96L696.18,259.48L696.19,257.81L696.2,255.24L696.72,261.46L696.93,259.87L696.94,258.4L696.95,261.67L697.02,256.38L697.68,260.39L697.7,258.45L697.84,254.69L698.1,261.25L698.45,259.41L698.46,258.58L699.01,256.64L699.18,261.72L699.2,258.63L699.21,258.18L699.41,261.09L699.8,254.79L699.97,259.17L699.98,258.57L700,261.91L700.67,255.83L700.71,258.47L700.72,258.68L701.12,254.79L701.27,261.86L701.47,259.44L701.48,257.17L701.52,255.42L701.76,261.43L702.23,260.88L702.24,258.72L702.46,261.68L702.76,255.57L702.99,258.95L703,260.31L703.08,253.15L703.28,261.62L703.75,257.7L703.76,258.83L703.8,261.71L704.4,255.35L704.5,258.88L704.51,259.13L704.8,255.19L705.03,261.68L705.25,258.51L705.26,259.15L705.54,255.9L705.74,261.75L706.01,260.38L706.02,259.1L706.41,256.94L706.54,261.63L706.76,259.4L706.77,260.08L706.79,261.37L706.86,256.53L707.51,258.63L707.52,260.3L707.68,254.85L707.83,261.54L708.28,259.11L708.29,259.71L708.85,256.38L709.02,261.81L709.04,258.22L709.05,258.64L709.32,256.61L709.62,261.25L709.77,259.61L709.78,257.97L709.82,261.89L710.14,256.75L710.5,259.85L710.51,258.18L710.96,255.16L711.11,261.31L711.26,259.66L711.27,259.25L711.36,255.68L711.42,261.57L712.02,259.65L712.03,256.93L712.3,261.68L712.6,255.65L712.78,260.01L712.79,258.9L712.92,254.99L713.35,261.63L713.53,259.53L713.54,257.54L714.05,261.35L714.24,254.93L714.31,261.13L714.32,260.24L714.5,261.45L714.64,254.51L715.07,258.48L715.08,259.22L715.31,255.97L715.58,261.92L715.82,260.54L715.84,259.27L716.2,252.69L716.4,261.66L716.59,260.74L716.6,259.79L717.07,255.37L717.2,261.74L717.28,259.12L717.29,258.05L717.52,254.74L717.78,261.45L718.07,260.76L718.08,258.04L718.16,261.83L718.59,255.96L718.83,258.67L718.84,259.86L718.86,261.62L719.48,253.56L719.52,259.45L719.53,260.32L719.68,261.8L720.22,255.72L720.27,258.93L720.28,260.41L720.48,261.8L720.8,255.54L721.03,258.63L721.04,258.84L721.43,261.67L721.62,255.34L721.78,258.3L721.79,258.19L721.94,256.28L722.14,261.83L722.54,258.96L722.55,257.65L722.81,256.28L723.19,261.67L723.29,258.08L723.3,257.64L723.66,256.73L723.89,261.47L724.05,260.08L724.06,257.79L724.08,255.32L724.32,261.62L724.82,259.4L724.83,259.2L725.15,256.79L725.42,261.42L725.57,259.84L725.58,258.92L726.09,256.21L726.22,261.8L726.32,259.05L726.34,258.83L726.47,261.51L726.94,256.5L727.08,261.07L727.09,257.87L727.17,261.5L727.76,254.98L727.84,260.11L727.85,258.1L728,261.53L728.43,256.82L728.6,258.11L728.61,258.36L728.7,261.98L729,255.65L729.37,260.17L729.38,257.33L729.52,261.55L729.83,256.48L730.14,260.83L730.15,258.45L730.64,254.98L730.71,261.54L730.88,260.97L730.89,258.23L731.04,255.92L731.28,261.52L731.64,259.58L731.65,260.24L731.98,261.8L732.28,255.16L732.39,259.21L732.4,260.52L732.6,256.64L732.8,261.8L733.15,259.99L733.16,260.38L733.33,261.74L733.34,256.05L733.85,261.3L733.86,258.66L733.92,254.53L734.56,261.55L734.61,260.06L734.62,259.07L735.09,257.01L735.26,261.81L735.36,259.11L735.37,258.48L735.56,255.46L736.08,261.83L736.11,259.14L736.12,258.17L736.31,261.63L736.62,255.73L736.88,261.34L736.89,258.34L737.2,255.04L737.35,261.84L737.59,259.58L737.6,253.15L737.83,261.34L738.34,249.51L738.36,260.14L738.54,261.79L738.84,256.59L739.11,259.63L739.12,258.65L739.21,255.58L739.34,261.65L739.77,258.97L739.78,258.02L740.48,255.03L740.55,261.44L740.56,259.78L740.88,255.22L741.12,261.49L741.31,258.51L741.32,259.99L741.65,256.81L741.82,261.58L742.04,258.33L742.05,261.46L742.49,256.27L742.62,261.71L742.82,259.45L742.83,260.23L742.87,261.67L742.95,256.8L743.56,260.3L743.57,261.31L743.76,254.77L743.91,261.4L744.32,258.34L744.33,259.68L744.4,261.53L744.93,256.76L745.08,259.65L745.09,259.74L745.1,261.69L745.4,255.36L745.83,258.5L745.84,259.23L746.15,261.69L746.23,256.81L746.51,259.57L746.52,258.23L747.04,254.71L747.19,261.46L747.26,260.27L747.27,258.17L747.44,255.68L747.68,261.71L748.02,260.72L748.03,259.52L748.11,256.05L748.38,261.86L748.67,257.48L748.68,255.24L749,251.77L749.2,261.65L749.43,261.58L749.44,259.85L749.73,261.97L749.87,255.62L750.18,259.79L750.19,258.94L750.25,261.56L750.32,255.09L750.93,259.37L750.94,258.45L751.39,256.7L751.66,262.07L751.69,258.58L751.7,258.47L752.27,261.26L752.28,254.66L752.45,259.21L752.46,258.34L752.48,261.8L753.02,256.06L753.21,260.02L753.23,260.36L753.28,261.77L753.6,255.39L753.98,259.12L753.99,259.51L754.23,261.85L754.42,255.04L754.74,256.54L754.76,260.19L754.94,261.76L755.24,256.38L755.51,259.77L755.52,258.66L755.74,261.78L756.07,256.67L756.27,259.91L756.29,260.4L756.69,261.37L756.88,255.11L757.04,259.95L757.05,259.63L757.28,255.99L757.52,261.45L757.76,258.79L757.77,259.33L758.05,256.69L758.22,261.72L758.5,259.65L758.51,257.26L758.52,256.32L759.02,261.65L759.22,259.18L759.23,260.31L759.27,261.47L759.74,256.39L759.98,257.78L760,258.39L760.16,254.85L760.4,261.28L760.74,258.27L760.75,257.85L761.23,255.34L761.5,261.86L761.51,260.12L761.53,258.78L761.73,261.57L762.12,251.55L762.21,259.17L762.22,260.9L762.55,261.83L762.63,256.59L762.97,258.82L762.98,259.53L763.44,254.64L763.59,261.58L763.73,259.32L763.74,259.76L763.84,254.42L764.08,261.35L764.49,258.95L764.5,259.2L764.78,261.67L765.08,255.34L765.25,258.29L765.26,260.31L765.4,255.47L765.83,261.71L766.01,257.62L766.02,258.83L766.27,255.92L766.4,261.73L766.71,258.7L766.72,255.19L766.87,261.7L767.47,259.73L767.48,259.81L767.89,256.6L768.06,261.89L768.17,258.86L768.18,260.56L768.36,255.38L768.88,261.76L768.94,258.55L768.96,259.49L769.41,261.78L769.42,256.18L769.67,259.28L769.68,261.68L770,255.3L770.43,259.16L770.44,259.86L770.63,261.88L770.82,255.26L771.18,258.83L771.19,260.17L771.34,261.88L771.64,256.4L771.93,258.67L771.94,261.31L772.01,256.43L772.14,261.95L772.69,260.68L772.7,259.71L773,261.29L773.28,255.11L773.45,259.46L773.46,259.33L773.68,254.95L773.92,261.48L774.22,257.92L774.23,260.59L774.35,256.01L774.62,261.61L774.97,259.16L774.98,260.86L775.3,255.94L775.42,261.76L775.65,260.5L775.66,258.41L775.67,261.52L776.14,256.37L776.41,259.98L776.42,258.91L776.96,254.87L777.02,261.28L777.17,259.29L777.18,258.36L777.2,261.91L777.63,257L777.93,258.53L777.94,258.58L778.13,261.34L778.2,255.13L778.69,259.21L778.7,258.69L778.95,261.94L779.03,256.2L779.44,259.67L779.46,258.57L779.84,254.66L779.99,261.27L780.21,260.9L780.22,257.76L780.24,256.39L780.48,261.55L780.97,260.36L780.99,260.68L781.18,261.94L781.48,255.5L781.73,258.09L781.74,260.3L781.8,256.31L782.23,261.82L782.49,257.6L782.5,260.18L783.05,261.86L783.12,255.15L783.24,257.81L783.25,259.51L783.27,261.52L783.52,255.49L784,258.88L784.01,259.58L784.29,256.83L784.46,261.87L784.74,259.69L784.75,257.52L785.08,255.19L785.28,261.87L785.48,259.8L785.49,260.11L785.81,261.74L785.82,256.01L786.24,259.25L786.25,259.8L786.33,261.63L786.8,254.26L786.99,257.95L787,259.84L787.03,262.14L787.55,254.61L787.73,259.65L787.74,261.78L788.42,254.69L788.5,258.1L788.51,258.46L788.79,261.73L788.87,256.19L789.25,258.57L789.26,253.39L789.83,261.52L790.01,259.69L790.02,258.56L790.08,249.49L790.32,261.53L790.74,259.33L790.75,256.01L791.02,261.61L791.5,257.42L791.51,258.84L791.62,261.79L791.7,255.86L792.26,257.93L792.27,259.06L792.46,261.29L792.54,256.76L792.95,258.73L792.96,255L793.6,261.88L793.71,259.79L793.72,260.02L794.13,256.34L794.3,261.93L794.46,259.51L794.47,260.13L794.6,255.5L795.12,261.8L795.23,258.69L795.24,260.85L795.35,261.81L795.43,256.4L796,258.34L796.01,259.33L796.24,254.89L796.48,261.62L796.63,260.57L796.64,255.73L796.88,261.85L797.39,260.43L797.4,259.06L797.58,262.2L797.88,255.53L798.14,260.44L798.15,259.68L798.2,256.5L798.63,261.64L798.89,257.98L798.91,260.44L799.2,261.79L799.52,255.25L799.66,257.93L799.67,261.51L799.92,256L800.42,259.91L800.44,260.01L800.86,261.71L801.16,255.65L801.19,258.95L801.2,259.38L801.48,256.63L801.68,261.79L801.95,259.81L801.97,258.05L802.21,261.7L802.35,256.19L802.68,259.73L802.69,260.65L802.8,254.9L803.43,261.85L803.44,258.6L803.45,258.93L803.62,255.18L804.14,261.79L804.2,259.32L804.21,258.8L804.44,256.41L804.94,261.81L804.95,257.38L805.19,261.45L805.27,256.9L805.71,260.83L805.72,259.26L806.08,255.25L806.15,261.36L806.43,259.4L806.44,257.09L806.48,255.53L806.72,261.96L807.19,260.56L807.2,258.84L807.25,256.82L807.42,262.01L807.95,261.08L807.96,257.73L808.22,261.89L808.55,256.82L808.71,259.77L808.72,257.91L809.17,261.3L809.36,254.92L809.47,258.48L809.48,258.1L809.76,255.85L810,261.79L810.23,258.47L810.24,258.75L810.53,256.5L810.7,262.05L810.98,259.35L810.99,257.4L811,255.96L811.52,261.7L811.72,259.86L811.73,260.04L811.75,261.52L811.83,256.7L812.48,258.75L812.49,260.11L812.64,254.87L812.88,261.37L813.24,259.38L813.25,259.53L813.28,261.54L813.71,255.39L813.97,259.66L813.98,261.62L814.6,249.52L814.75,257.95L814.76,260.55L815.33,261.65L815.47,255.12L815.51,258.68L815.53,258.96L815.6,261.91L815.92,254.67L816.27,260.11L816.28,257.47L816.32,254.68L816.56,261.7L817.03,260.6L817.04,259.1L817.26,261.35L817.56,255.44L817.78,261.07L817.79,259.07L817.88,255.38L818.08,261.74L818.54,259.56L818.55,257.77L818.61,261.66L819.2,255.8L819.3,258.84L819.31,259.13L819.6,255.43L819.83,261.9L820,256.94" style="vector-effect: non-scaling-stroke; fill: none; stroke: rgb(31, 119, 180); stroke-opacity: 1; stroke-width: 2px; opacity: 1;"/></g><g class="points"/><g class="text"/></g></g></g><g class="overplot"/><path class="xlines-above crisp" d="M0,0" style="fill: none;"/><path class="ylines-above crisp" d="M0,0" style="fill: none;"/><g class="overlines-above"/><g class="xaxislayer-above"><g class="xtick"><text text-anchor="middle" x="0" y="349" transform="translate(60,0)" style="font-family: 'Open Sans', verdana, arial, sans-serif; font-size: 12px; fill: rgb(68, 68, 68); fill-opacity: 1; white-space: pre;">0</text></g><g class="xtick"><text text-anchor="middle" x="0" y="349" transform="translate(164.79000000000002,0)" style="font-family: 'Open Sans', verdana, arial, sans-serif; font-size: 12px; fill: rgb(68, 68, 68); fill-opacity: 1; white-space: pre;">10k</text></g><g class="xtick"><text text-anchor="middle" x="0" y="349" transform="translate(269.59000000000003,0)" style="font-family: 'Open Sans', verdana, arial, sans-serif; font-size: 12px; fill: rgb(68, 68, 68); fill-opacity: 1; white-space: pre;">20k</text></g><g class="xtick"><text text-anchor="middle" x="0" y="349" transform="translate(374.38,0)" style="font-family: 'Open Sans', verdana, arial, sans-serif; font-size: 12px; fill: rgb(68, 68, 68); fill-opacity: 1; white-space: pre;">30k</text></g><g class="xtick"><text text-anchor="middle" x="0" y="349" transform="translate(479.17,0)" style="font-family: 'Open Sans', verdana, arial, sans-serif; font-size: 12px; fill: rgb(68, 68, 68); fill-opacity: 1; white-space: pre;">40k</text></g><g class="xtick"><text text-anchor="middle" x="0" y="349" transform="translate(583.97,0)" style="font-family: 'Open Sans', verdana, arial, sans-serif; font-size: 12px; fill: rgb(68, 68, 68); fill-opacity: 1; white-space: pre;">50k</text></g><g class="xtick"><text text-anchor="middle" x="0" y="349" transform="translate(688.76,0)" style="font-family: 'Open Sans', verdana, arial, sans-serif; font-size: 12px; fill: rgb(68, 68, 68); fill-opacity: 1; white-space: pre;">60k</text></g><g class="xtick"><text text-anchor="middle" x="0" y="349" transform="translate(793.56,0)" style="font-family: 'Open Sans', verdana, arial, sans-serif; font-size: 12px; fill: rgb(68, 68, 68); fill-opacity: 1; white-space: pre;">70k</text></g></g><g class="yaxislayer-above"><g class="ytick"><text text-anchor="end" x="59" y="4.199999999999999" transform="translate(0,328.72)" style="font-family: 'Open Sans', verdana, arial, sans-serif; font-size: 12px; fill: rgb(68, 68, 68); fill-opacity: 1; white-space: pre;">0</text></g><g class="ytick"><text text-anchor="end" x="59" y="4.199999999999999" transform="translate(0,252.13)" style="font-family: 'Open Sans', verdana, arial, sans-serif; font-size: 12px; fill: rgb(68, 68, 68); fill-opacity: 1; white-space: pre;">5</text></g><g class="ytick"><text text-anchor="end" x="59" y="4.199999999999999" transform="translate(0,175.54000000000002)" style="font-family: 'Open Sans', verdana, arial, sans-serif; font-size: 12px; fill: rgb(68, 68, 68); fill-opacity: 1; white-space: pre;">10</text></g><g class="ytick"><text text-anchor="end" x="59" y="4.199999999999999" transform="translate(0,98.95)" style="font-family: 'Open Sans', verdana, arial, sans-serif; font-size: 12px; fill: rgb(68, 68, 68); fill-opacity: 1; white-space: pre;">15</text></g></g><g class="overaxes-above"/></g></g><g class="polarlayer"/><g class="ternarylayer"/><g class="geolayer"/><g class="funnelarealayer"/><g class="pielayer"/><g class="treemaplayer"/><g class="sunburstlayer"/><g class="glimages"/><defs id="topdefs-ad2af3"><g class="clips"/></defs><g class="layer-above"><g class="imagelayer"/><g class="shapelayer"/></g><g class="infolayer"><g class="g-gtitle"><text class="gtitle" x="470" y="30" text-anchor="middle" dy="0em" style="font-family: 'Open Sans', verdana, arial, sans-serif; font-size: 17px; fill: rgb(68, 68, 68); opacity: 1; font-weight: normal; white-space: pre;">DCN_train_loss</text></g><g class="g-xtitle"/><g class="g-ytitle"/></g></svg>