<svg class="main-svg" xmlns="http://www.w3.org/2000/svg" xmlns:xlink="http://www.w3.org/1999/xlink" width="940" height="396" style="" viewBox="0 0 940 396"><rect x="0" y="0" width="940" height="396" style="fill: rgb(255, 255, 255); fill-opacity: 1;"/><defs id="defs-21185b"><g class="clips"><clipPath id="clip21185bxyplot" class="plotclip"><rect width="820" height="276"/></clipPath><clipPath class="axesclip" id="clip21185bx"><rect x="60" y="0" width="820" height="396"/></clipPath><clipPath class="axesclip" id="clip21185by"><rect x="0" y="60" width="940" height="276"/></clipPath><clipPath class="axesclip" id="clip21185bxy"><rect x="60" y="60" width="820" height="276"/></clipPath></g><g class="gradients"/></defs><g class="bglayer"/><g class="layer-below"><g class="imagelayer"/><g class="shapelayer"/></g><g class="cartesianlayer"><g class="subplot xy"><g class="layer-subplot"><g class="shapelayer"/><g class="imagelayer"/></g><g class="gridlayer"><g class="x"><path class="xgrid crisp" transform="translate(172.07,0)" d="M0,60v276" style="stroke: rgb(238, 238, 238); stroke-opacity: 1; stroke-width: 1px;"/><path class="xgrid crisp" transform="translate(274.47,0)" d="M0,60v276" style="stroke: rgb(238, 238, 238); stroke-opacity: 1; stroke-width: 1px;"/><path class="xgrid crisp" transform="translate(376.87,0)" d="M0,60v276" style="stroke: rgb(238, 238, 238); stroke-opacity: 1; stroke-width: 1px;"/><path class="xgrid crisp" transform="translate(479.27,0)" d="M0,60v276" style="stroke: rgb(238, 238, 238); stroke-opacity: 1; stroke-width: 1px;"/><path class="xgrid crisp" transform="translate(581.67,0)" d="M0,60v276" style="stroke: rgb(238, 238, 238); stroke-opacity: 1; stroke-width: 1px;"/><path class="xgrid crisp" transform="translate(684.07,0)" d="M0,60v276" style="stroke: rgb(238, 238, 238); stroke-opacity: 1; stroke-width: 1px;"/><path class="xgrid crisp" transform="translate(786.47,0)" d="M0,60v276" style="stroke: rgb(238, 238, 238); stroke-opacity: 1; stroke-width: 1px;"/></g><g class="y"><path class="ygrid crisp" transform="translate(0,253.44)" d="M60,0h820" style="stroke: rgb(238, 238, 238); stroke-opacity: 1; stroke-width: 1px;"/><path class="ygrid crisp" transform="translate(0,209.91)" d="M60,0h820" style="stroke: rgb(238, 238, 238); stroke-opacity: 1; stroke-width: 1px;"/><path class="ygrid crisp" transform="translate(0,166.38)" d="M60,0h820" style="stroke: rgb(238, 238, 238); stroke-opacity: 1; stroke-width: 1px;"/><path class="ygrid crisp" transform="translate(0,122.85)" d="M60,0h820" style="stroke: rgb(238, 238, 238); stroke-opacity: 1; stroke-width: 1px;"/><path class="ygrid crisp" transform="translate(0,79.32)" d="M60,0h820" style="stroke: rgb(238, 238, 238); stroke-opacity: 1; stroke-width: 1px;"/></g></g><g class="zerolinelayer"><path class="xzl zl crisp" transform="translate(69.67,0)" d="M0,60v276" style="stroke: rgb(68, 68, 68); stroke-opacity: 1; stroke-width: 1px;"/><path class="yzl zl crisp" transform="translate(0,296.97)" d="M60,0h820" style="stroke: rgb(68, 68, 68); stroke-opacity: 1; stroke-width: 1px;"/></g><path class="xlines-below"/><path class="ylines-below"/><g class="overlines-below"/><g class="xaxislayer-below"/><g class="yaxislayer-below"/><g class="overaxes-below"/><g class="plot" transform="translate(60, 60)" clip-path="url('#clip21185bxyplot')"><g class="scatterlayer mlayer"><g class="trace scatter trace16cb9f" style="stroke-miterlimit: 2; opacity: 1;"><g class="fills"/><g class="errorbars"/><g class="lines"><path class="js-line" d="M9.67,53.25L10.31,198.29L10.44,193.86L10.45,193.51L10.73,206.27L10.85,118.18L11.17,202.15L11.18,201.5L11.55,212.47L11.68,167.58L11.9,206.98L11.91,208.81L12.35,214.41L12.48,192.15L12.66,207.97L12.67,199.58L13.13,192.19L13.28,215.22L13.42,209.2L13.43,203.41L14.06,197.29L14.18,217.54L14.19,210.37L14.2,210.33L14.42,218.1L14.63,202.78L14.85,211.83L14.87,216.34L14.89,200.54L15.18,217.29L15.61,215.62L15.62,214.46L15.65,217.7L16.34,194.31L16.37,211.1L16.38,212.09L16.45,201.59L16.72,218.4L16.94,213.77L16.95,215.34L17.21,197.18L17.41,218.77L17.7,206.64L17.71,212.54L18.09,202.07L18.32,219.21L18.44,212.53L18.45,216.52L18.86,218.74L18.89,200.31L19.2,211.82L19.21,216.55L19.54,196.33L19.92,219.43L19.97,211.21L19.99,210.69L20.31,219.04L20.42,198.07L20.5,215.34L20.51,218.84L20.62,219.6L21.27,205.2L21.28,213.1L21.39,220.69L21.71,205.76L22.03,215.83L22.04,212.38L22.06,219.55L22.75,197.93L22.78,211.66L22.79,213.67L22.86,206.59L23.13,219.38L23.51,213.01L23.52,219.28L23.62,201.31L23.83,220.17L24.28,212.51L24.29,213.26L24.47,206.02L24.59,221.43L24.96,212.28L24.97,217.88L25.3,197.99L25.43,220.87L25.71,208.62L25.72,216.75L26.03,202.71L26.45,219.72L26.47,215.54L26.48,215.79L26.88,204.2L27,221.26L27.14,216.97L27.15,217.02L27.62,220.62L27.71,203.93L27.91,213.77L27.92,216.86L28.37,219.86L28.5,202.47L28.66,214.95L28.67,213.53L28.74,219.57L29.16,197.59L29.41,214.72L29.42,215.94L30.01,221.31L30.08,203.25L30.15,214.21L30.16,211.65L30.2,221.59L30.66,207.1L30.9,214.21L30.91,203.52L31.58,220.14L31.66,213.93L31.67,211.37L31.95,219.87L32.37,197.08L32.42,213.28L32.43,216.56L32.48,208.33L33.13,219.59L33.16,212.51L33.17,219.57L33.24,201.35L33.44,220.95L33.93,214.17L33.94,216.29L34.12,204.51L34.34,220.91L34.58,213L34.59,219.62L34.91,202.05L35.15,220.57L35.33,211.77L35.34,216.98L35.57,199.26L35.95,219.72L36.05,212.34L36.06,219.77L36.44,200.39L36.65,221.23L36.81,214.02L36.82,214.53L37.29,207.17L37.41,222.11L37.57,217.55L37.58,216.53L37.66,221.08L38.12,203.49L38.34,212.98L38.35,219.18L38.36,220.87L38.78,200.75L39.06,214.43L39.07,213.3L39.54,220.38L39.65,201.8L39.73,217.39L39.74,220.32L40.35,221.41L40.5,207.31L40.51,215.41L40.62,222.35L40.94,208.61L41.25,214.06L41.26,214.92L41.33,200.08L41.46,221.39L41.98,214.57L41.99,219.84L42.05,204.6L42.47,220.58L42.75,213.58L42.76,219.48L42.9,205.47L43.02,222.11L43.51,214.09L43.52,213.66L43.65,220.82L43.73,205.27L44.26,211.97L44.27,210.13L44.4,221.04L44.53,204.64L45.03,216.53L45.04,215.52L45.19,200.06L45.33,219.49L45.44,216.5L45.45,219.29L45.98,221.6L46.11,202.26L46.21,214.91L46.22,217.2L46.23,222.36L46.94,203.83L46.96,217.73L46.97,215.42L47.35,208.11L47.41,220.24L47.59,212.54L47.6,221.39L47.74,204.28L48.36,217.04L48.37,218.17L48.39,201.7L48.53,220.25L49.06,210.77L49.07,215L49.26,204.03L49.68,220.88L49.82,216.97L49.83,216.51L50.14,204.45L50.37,220.67L50.58,214.29L50.59,217.58L50.81,221.58L50.94,204.47L51.35,212.11L51.36,212.27L51.6,201.36L51.74,220.3L52.11,214.93L52.12,216.64L52.36,221.07L52.47,203.26L52.65,218.31L52.66,220.8L53.17,221.89L53.32,206.73L53.42,215.4L53.43,215.89L53.44,222.27L54.15,203.86L54.18,216.98L54.19,212.54L54.8,202.53L54.94,220.43L54.95,218.04L54.96,214.26L55.35,210.52L55.57,221.18L55.66,218.96L55.67,203.36L56.38,222.28L56.42,217.35L56.43,217.67L56.52,207.03L56.64,222.43L57.17,215.48L57.18,218.7L57.35,201.24L57.48,221.82L57.93,215.4L57.94,216.61L57.98,221.12L58.08,206.89L58.65,215.43L58.66,212.98L58.8,222.03L58.93,206.14L59.04,217.57L59.05,222.32L59.76,204.1L59.8,215.27L59.81,215.97L60.17,208.68L60.42,222L60.55,217.85L60.56,203.97L60.79,220.41L61.21,201.49L61.31,217.07L61.32,213.94L61.77,209.79L62.01,222.33L62.08,216.6L62.09,213.84L62.13,204.3L62.26,222.72L62.84,217.65L62.85,217.73L62.88,220.84L62.96,203L63.6,215.52L63.61,220.79L63.63,222.05L63.76,204.7L64.36,216.01L64.38,214.78L64.42,202.44L64.68,220.61L65.13,215.42L65.14,215.73L65.18,221.46L65.21,213.39L65.28,218.95L65.29,204.36L65.48,221.23L66.04,217.85L66.05,217.62L66.17,204.61L66.39,221.32L66.8,215.32L66.81,220.76L66.83,221.94L66.97,204.74L67.56,217.5L67.57,216.02L67.62,202.63L67.76,220.41L68.22,216.46L68.23,217.5L68.49,205.63L68.69,221.44L68.95,217.85L68.96,213.45L69.34,207.02L69.46,222.55L69.72,216.82L69.73,216.47L70.14,221.97L70.17,204.49L70.39,214.26L70.4,220.33L70.41,220.73L70.58,212.61L70.82,216.79L70.83,203.93L71.59,221.32L71.6,216.6L71.7,204.72L71.89,221.23L72.34,214.88L72.35,214.41L72.4,222.9L72.55,207.33L73.09,214.04L73.1,211.82L73.38,202.98L73.51,222.3L73.66,213.61L73.67,220.18L74.1,208.26L74.3,221.4L74.42,218.06L74.43,217.89L74.95,206.98L75.08,222.79L75.19,213.13L75.2,218.93L75.7,221.12L75.78,205.5L75.95,212.04L75.96,212.8L76.45,222.28L76.58,204.59L76.72,220.97L76.73,216.37L76.82,221.38L77.24,205.15L77.47,213.51L77.48,218.25L77.8,210.09L78.04,222.69L78.15,218.72L78.16,206.98L78.28,223.01L78.91,221.05L78.92,215.57L78.99,204.73L79.12,220.64L79.54,215.51L79.55,219.37L79.65,222.52L79.79,205.27L80.31,216.27L80.32,218.26L80.44,203.48L80.71,221.24L81.09,212.19L81.1,213.46L81.31,205.93L81.51,222.02L81.82,213.15L81.83,216.43L82.19,204.34L82.42,221.47L82.57,218.02L82.58,212.51L82.86,222.39L82.99,205.02L83.33,216.21L83.34,214.61L83.65,203.3L83.91,221.31L84.09,215.02L84.1,214.03L84.52,206.89L84.71,222.09L84.85,215.68L84.87,214.95L85.22,222.43L85.37,206.84L85.61,217.34L85.62,213.85L86.17,222.23L86.2,205.08L86.36,215.86L86.37,212.57L86.85,205.18L87.12,221.39L87.13,218.64L87.14,215.08L87.34,220.51L87.4,211.43L87.59,216.4L87.6,219.57L87.72,207.29L87.92,221.99L88.35,216.67L88.36,219.22L88.43,222.9L88.57,207.78L89.12,212.54L89.14,211.67L89.4,203.09L89.53,222.56L89.88,216.87L89.89,213.08L90.13,207.49L90.32,221.47L90.58,217.77L90.59,218.43L90.86,222.79L90.98,207.13L91.34,216.17L91.35,221.37L91.81,205.55L92.1,219.66L92.12,217.18L92.47,222.59L92.61,205.16L92.74,219.28L92.75,221.16L92.84,221.44L93.26,206.01L93.5,214.12L93.51,218.63L93.83,210.86L94.06,222.75L94.17,218.88L94.18,207.04L94.31,223.06L94.93,221.29L94.94,215.71L95.01,205.65L95.02,219.39L95.14,218.33L95.15,221.05L95.68,222.63L95.81,204.94L95.9,215.04L95.91,216.52L96.05,221.44L96.47,204.88L96.6,218.37L96.61,220.86L96.73,221.53L96.84,211.53L97.22,216.12L97.23,221.72L97.34,206.83L97.53,221.98L98,215.07L98.01,217.45L98.22,205.49L98.44,221.57L98.76,212.13L98.77,217.2L98.99,222.66L99.02,205.68L99.52,218.01L99.53,216.48L99.58,221.27L99.63,215.59L99.66,217L99.67,206.68L99.94,221.41L100.42,219.75L100.43,216.27L100.54,206.93L100.74,222.51L101.18,219.27L101.19,215.45L101.25,223.08L101.39,207.59L101.86,215.7L101.87,219.45L102.19,222.45L102.22,205.92L102.63,213.63L102.64,214.02L102.88,207.3L103.14,221.42L103.39,216.05L103.4,218.12L103.43,211.66L103.49,220.01L103.63,216.3L103.65,221.58L103.75,207.97L103.94,222.58L104.4,214.79L104.41,217.6L104.45,223.27L104.6,207.66L105.17,213.54L105.18,217.64L105.43,204.98L105.56,222.96L105.91,217.41L105.92,213.23L106.05,221.92L106.15,209.09L106.54,217.59L106.55,220.83L106.88,222.94L107,207.89L107.3,216.37L107.31,217.26L107.75,221.54L107.83,206.95L108.04,217.39L108.05,219.13L108.5,222.63L108.63,205.69L108.78,220.8L108.79,216.6L108.87,221.7L109.29,207.17L109.3,219.91L109.55,221.71L109.85,211.15L110.03,215.11L110.05,217.44L110.21,207.84L110.33,223.02L110.79,217.56L110.8,219.8L110.96,221.34L111.04,206.03L111.56,213.29L111.57,214.69L111.81,222.68L111.84,206.28L112.32,213.15L112.33,218.07L112.4,221.04L112.45,215.81L112.48,217.25L112.49,208.14L112.76,221.74L113.24,219.67L113.25,216.35L113.36,209.01L113.56,222.93L114,217.72L114.01,219.5L114.24,208.42L114.47,222.17L114.77,213.03L114.78,214.82L114.91,222.63L115.04,206.09L115.52,213.42L115.53,217.7L115.7,209.07L115.96,221.63L116.23,217.82L116.24,214.1L116.57,209.21L116.76,222.82L116.96,217.19L116.97,220.02L117.27,222.91L117.42,208.11L117.71,216.79L117.73,216.6L118.22,222.7L118.25,206.07L118.48,221.95L118.49,214.7L118.9,209.07L119.17,221.85L119.25,218.78L119.26,215.39L119.77,209.35L119.97,222.77L120.01,214.96L120.02,217.43L120.48,223.22L120.62,208.65L120.78,213.77L120.79,213.69L121.32,221.62L121.45,205.77L121.55,217.24L121.56,216.23L121.59,222.99L122.18,210.58L122.29,217.64L122.3,213L122.67,211.88L122.91,222.88L123.02,219.15L123.03,208.46L123.15,222.66L123.78,221.46L123.79,216.11L123.84,219.6L123.85,214.43L123.86,207.68L124.52,222.36L124.61,214.79L124.62,213.36L124.63,222.82L124.66,206.58L125.37,219.01L125.38,219.07L125.88,211.56L126.09,222.18L126.1,212.75L126.11,222.65L126.23,208.65L126.36,222.92L126.87,215.36L126.88,217.18L126.98,221.67L127.06,207.85L127.63,218.88L127.64,217.05L127.83,222.83L127.86,206.65L128.28,214.32L128.29,219.5L128.52,209.22L128.78,221.75L129.04,218.36L129.05,218.27L129.39,209.7L129.58,222.94L129.8,216.16L129.81,221.69L130.27,209.18L130.49,221.9L130.56,216.95L130.57,220.2L131.04,222.78L131.07,206.5L131.34,215.56L131.35,218.31L131.63,221.68L131.72,209.62L132.09,212.35L132.1,219.14L132.59,209.85L132.79,222.91L132.86,215L132.87,218.11L133.3,223.53L133.44,208.55L133.62,217.03L133.63,218.8L134.24,222.7L134.27,206.19L134.36,214.96L134.38,216.98L134.51,222.16L134.93,209.9L135.06,216.96L135.07,221.31L135.48,211.87L135.7,222.23L135.78,217.5L135.79,220.26L135.8,209.87L136.5,223.63L136.54,220.14L136.55,218.89L136.65,208.66L136.77,222.19L137.22,213.77L137.23,218.06L137.48,206.08L137.61,223.06L137.96,217.66L137.97,214.05L138.2,210.84L138.4,222.4L138.61,216.23L138.62,221.39L138.93,222.77L139.05,208.71L139.39,216.7L139.4,220.42L139.42,221.56L139.88,207.77L140.16,216.44L140.17,217.18L140.65,222.92L140.68,206.28L140.92,222.21L140.93,214.54L141.34,209.48L141.6,221.67L141.69,219.05L141.7,216.71L142.26,208.66L142.38,222.81L142.44,218.24L142.45,222.1L143.09,208.57L143.2,215.84L143.21,218.5L143.86,222.81L143.89,206.42L143.95,222.25L143.96,216.83L144.12,222.41L144.54,209.85L144.7,220.52L144.71,215.57L145.31,222.34L145.41,209.73L145.46,218.93L145.48,215.68L145.61,223.07L145.91,211.86L146.23,216.03L146.24,215.18L146.29,209.24L146.96,222.19L146.99,219.77L147,217.43L147.06,222.81L147.09,206.03L147.74,217.48L147.75,209.57L148.01,221.67L148.5,220.08L148.51,216.6L148.62,209.96L148.81,223.11L149.25,220.09L149.26,216.34L149.33,223.86L149.47,208.77L149.94,216.16L149.95,220.15L150.27,222.84L150.3,206.29L150.71,214.3L150.72,214.26L150.86,221.79L150.95,209.94L151.47,217.4L151.48,218.62L151.82,209.78L152.02,222.74L152.14,218.32L152.15,218.82L152.53,223.67L152.67,208.12L152.91,214.96L152.92,218.1L153.5,206.02L153.64,223.1L153.68,214.87L153.69,214.3L154.23,210.85L154.42,222.59L154.44,220.65L154.45,215.22L154.96,222.83L155.08,208.37L155.2,222.62L155.21,216.02L155.27,222.15L155.52,212.13L155.83,221.65L155.84,215.99L155.91,208.39L156.04,221.66L156.44,215.37L156.45,213.03L156.68,222.85L156.71,206.41L157.2,218.75L157.21,218.45L157.36,209.21L157.86,221.59L157.97,216.69L157.98,219.22L158.29,208.29L158.41,222.79L158.72,217.95L158.73,212.33L159.03,221.84L159.11,208.59L159.49,218.92L159.5,214.15L159.88,222.65L159.91,206.66L160.25,217.07L160.26,216.99L160.57,209.86L160.83,221.9L161,218.91L161.01,216.59L161.44,209.96L161.63,223.07L161.74,214.48L161.75,219.43L161.86,221.92L162.32,209.05L162.51,216.31L162.52,218.18L163.09,223.02L163.12,205.84L163.26,221.48L163.27,216.62L163.29,213.67L163.35,222.83L163.76,217.62L163.77,209.31L164.04,221.86L164.52,220.16L164.53,216.58L164.64,209.99L164.84,223.16L165.28,220.1L165.29,216.56L165.35,224.08L165.49,208.88L165.99,216.2L166,221.31L166.29,222.83L166.32,206.25L166.74,214.43L166.75,219.85L166.98,210.17L167.25,222.17L167.5,218.91L167.51,218.45L167.85,209.83L168.04,223.08L168.26,216.63L168.27,222.01L168.56,223.87L168.7,208.51L169.02,218.21L169.03,218.35L169.53,206.49L169.66,223.1L169.79,214.71L169.81,218.88L170.26,210.72L170.45,222.45L170.55,213.15L170.56,220.23L170.98,222.97L171.11,208.5L171.29,218.32L171.3,222.17L171.94,208.56L172.05,216.56L172.06,218.88L172.7,222.96L172.73,205.83L172.8,222.69L172.81,216.02L172.97,222.68L173.39,209.14L173.56,217.69L173.57,215.88L174.17,222.59L174.31,208.14L174.32,218.95L174.43,222.87L174.75,212.5L175.05,218.89L175.06,221.91L175.14,207.42L175.79,222.17L175.8,213.98L175.81,222.54L175.91,222.64L175.94,206.68L176.59,209.73L176.6,220.9L176.86,222.3L177.15,212.44L177.33,217.67L177.34,220.1L177.46,209.89L177.66,223.08L178.09,215.9L178.1,218.68L178.35,209.43L178.57,222.16L178.83,220.11L178.84,216L179.11,223.11L179.14,206.16L179.59,220.07L179.6,214.93L179.8,209.62L180.07,222.09L180.33,218.77L180.34,214.77L180.67,209.88L180.86,223.17L181.06,217.51L181.07,220.42L181.38,224.18L181.52,208.82L181.82,217.4L181.83,217.02L182.32,222.89L182.35,206.19L182.58,222.61L182.59,214.72L183,209.98L183.27,222.47L183.35,218.9L183.36,217.5L183.87,209.8L184.07,223.07L184.11,215.35L184.12,217.59L184.58,224.01L184.72,208.67L184.84,218.59L184.85,222.84L185.55,206.53L185.6,217.04L185.61,217.45L185.69,223.12L186.28,210.71L186.37,220.6L186.38,217.82L186.48,222.44L186.77,212.94L186.95,218.47L186.96,215.23L187.01,223.18L187.13,208.61L187.72,220.07L187.74,216.54L187.88,222.13L187.96,208.45L188.47,214.95L188.48,214.23L188.73,222.97L188.76,206.39L189.22,214.88L189.23,215.76L189.41,209.42L189.68,222.15L189.9,216.21L189.91,222L190.34,208.28L190.46,222.76L190.67,216.66L190.68,220.63L190.7,222.18L191.17,208.23L191.44,216.62L191.45,217.25L191.93,222.77L191.96,207.08L192.2,222.56L192.21,215.01L192.62,209.9L192.89,222.41L192.97,219.17L192.98,217.78L193.49,209.54L193.68,223.1L193.73,215.58L193.74,217.93L194.29,222.02L194.37,209.01L194.48,216.77L194.49,219.09L195.14,223.12L195.17,205.3L195.23,222.64L195.24,217.28L195.4,222.92L195.82,209.86L195.98,220.74L195.99,215.53L196.59,222.61L196.7,209.84L196.75,219.46L196.76,216.51L197.4,224.16L197.41,212.34L197.51,219.63L197.52,216.25L197.55,208.94L197.67,223.04L198.27,220.06L198.28,217.37L198.34,222.8L198.37,206.71L199.02,217.84L199.03,209.91L199.3,222.32L199.78,220.21L199.79,216.57L199.9,209.7L200.09,223.02L200.54,220.35L200.55,217.22L200.61,224.07L200.75,208.67L201.31,214.05L201.32,215.07L201.58,206.43L201.71,223.02L202.06,217.78L202.07,214.83L202.2,222.58L202.31,210.75L202.49,220.63L202.5,222.7L203.03,223.27L203.16,208.67L203.26,217.84L203.27,218.7L203.28,222.57L203.99,209.31L204.01,218.41L204.02,217.29L204.4,211.29L204.75,222.98L204.77,218.92L204.78,206.87L204.85,222.96L205.53,214.91L205.54,218.18L205.81,212.74L206.22,222.73L206.28,216.56L206.29,221.71L206.36,208.75L206.48,222.75L207.04,215.7L207.05,217.86L207.19,208.46L207.66,221.66L207.8,218.5L207.81,217.42L207.96,223.02L207.99,206.95L208.53,217.4L208.54,217.78L208.65,210.04L208.91,222.7L209.28,213.83L209.29,214.48L209.52,209.52L209.71,223.17L210.05,220L210.06,216.58L210.4,209.4L210.62,221.97L210.8,219.29L210.81,211.21L211.16,223.11L211.19,206.14L211.56,219.82L211.57,218.5L211.85,209.86L212.12,222.51L212.31,218.14L212.32,220.71L212.72,209.84L212.92,223.29L213.07,217.08L213.08,217.86L213.43,224.09L213.57,209.11L213.75,219.22L213.77,221.17L214.37,222.9L214.4,206.49L214.52,218.35L214.53,219.47L214.64,222.76L215.06,210.22L215.25,214.52L215.26,213.38L215.32,222.72L215.93,209.77L216.02,221.82L216.03,217.4L216.63,223.83L216.64,211.98L216.77,218.89L216.78,208.79L216.9,222.75L217.53,215.55L217.54,217.49L217.6,206.5L217.74,223.06L218.26,216.25L218.27,221.27L218.33,210.64L218.53,222.83L219.03,216.9L219.04,222.59L219.06,223.29L219.18,208.63L219.79,216.76L219.8,216.87L219.93,221.99L220.01,209.45L220.54,216.04L220.55,213.69L220.78,223.03L220.81,206.99L221.3,218.87L221.31,219.16L221.47,210.04L221.73,222.3L222.06,218.02L222.07,218.01L222.26,222.95L222.39,208.66L222.8,219.51L222.81,214.75L223.08,221.7L223.22,208.41L223.57,220.21L223.59,221.31L223.98,223.15L224.02,206.87L224.33,218.68L224.34,218.72L224.67,209.96L224.94,222.92L225.09,217.22L225.1,219.18L225.54,209.63L225.74,223.29L225.84,215.16L225.85,219.64L225.96,222.2L226.42,209.39L226.62,217.24L226.63,218.43L227.19,223.15L227.22,206.31L227.37,217.12L227.38,217.45L227.46,223L227.88,209.94L228.12,219.45L228.13,220.47L228.64,222.84L228.75,209.74L228.86,219.27L228.87,215.83L229.45,224.22L229.6,209.25L229.61,218.09L229.72,223.15L230.04,211.86L230.36,218.49L230.37,216.52L230.39,222.94L230.43,206.74L231.11,214.67L231.12,219.51L231.35,222.86L231.63,212.8L231.86,217.97L231.87,220.97L231.95,209.65L232.15,223.08L232.62,217.75L232.63,215.85L232.66,223.93L232.8,209.07L233.36,214.49L233.37,215.26L233.63,206.53L233.76,223.11L234.11,217.75L234.12,215.21L234.36,210.71L234.55,222.94L234.77,216.98L234.78,222.41L235.08,223.44L235.21,208.69L235.55,216.93L235.56,220.95L235.58,222.36L236.04,209.45L236.31,216.66L236.32,217.44L236.8,222.96L236.84,207.18L237.07,222.9L237.08,214.77L237.49,210.11L237.76,222.65L237.84,219.3L237.85,217.79L238.29,222.94L238.41,208.66L238.59,218.4L238.6,218.4L238.78,222.16L239.24,208.1L239.34,216.91L239.35,216.85L240.01,223.16L240.04,206.29L240.1,221.74L240.11,217.28L240.28,222.86L240.7,209.7L240.85,220.26L240.86,216.34L240.96,222.97L241.57,209.55L241.62,219.71L241.63,216.52L241.76,223.11L242.06,212.82L242.37,221.93L242.38,216.46L242.45,209.05L243.09,222.31L243.1,214.08L243.21,223.29L243.25,206.78L243.85,217.93L243.86,217.29L243.9,210.26L244.17,222.93L244.6,217.52L244.61,215.56L244.77,209.68L244.97,223.46L245.34,216.69L245.36,214.38L245.48,224.31L245.62,209.5L246.03,220.84L246.04,214.86L246.42,222.9L246.45,206.91L246.79,217.77L246.8,218.23L247.11,210.38L247.37,222.98L247.46,217.67L247.47,213.31L247.98,209.74L248.17,223.39L248.22,217.88L248.23,215.63L248.68,224.08L248.69,212.21L248.82,219.55L248.83,208.94L248.95,222.98L249.58,215.62L249.59,217.64L249.66,206.66L249.79,223.06L250.31,216.31L250.32,221.38L250.38,210.64L250.58,222.92L251.08,217.27L251.09,222.79L251.11,223.52L251.23,208.79L251.84,217.03L251.85,217.13L251.98,222.31L252.06,209.58L252.59,216.08L252.6,213.89L252.83,223.04L252.86,206.96L253.36,219.3L253.37,217.77L253.52,210.1L253.78,222.89L254.11,218.1L254.12,218.45L254.32,223.15L254.44,208.35L254.85,219.83L254.86,214.98L255.13,221.9L255.27,208.88L255.61,216.07L255.62,218.36L256.04,223.15L256.07,207.07L256.35,218.7L256.36,216.03L256.63,222.06L256.72,210.23L256.97,219.03L256.98,220.56L256.99,222.95L257.59,209.63L257.7,219.15L257.71,215.7L257.79,223.53L258.08,213.06L258.44,216.9L258.45,220.53L258.47,209.69L259.14,222.98L259.19,219.97L259.2,219.61L259.24,223.13L259.27,206.41L259.89,217.58L259.9,219.67L259.93,210.22L260.19,222.95L260.59,215.7L260.6,219.79L260.8,209.68L260.99,223.56L261.33,219.06L261.34,219.68L261.5,224.36L261.65,209.91L262.06,220.82L262.07,214.99L262.34,222.98L262.48,206.93L262.82,218.26L262.83,218.99L263.13,210.41L263.4,223L263.57,217.89L263.58,216.96L264,209.82L264.2,223.46L264.33,219.22L264.34,218.46L264.71,224.25L264.85,209.28L265.09,216.1L265.1,218.48L265.68,206.66L265.81,223.1L265.86,215.44L265.87,214.61L266.41,210.82L266.6,222.99L266.62,216.3L266.63,217.37L267.14,223.59L267.26,208.93L267.36,218.41L267.37,218.96L267.38,222.92L268.09,209.66L268.11,219.13L268.12,217.75L268.5,211.7L268.86,222.99L268.87,216.37L268.89,207.38L269.12,222.88L269.62,217.67L269.63,215.25L269.91,213.26L270.34,223.41L270.39,222.73L270.4,217.72L270.46,208.28L270.59,222.86L271.13,219.65L271.14,215.96L271.21,222.18L271.29,208.87L271.88,218.48L271.89,215.22L271.96,223.2L272.09,207.02L272.65,222.06L272.66,219.18L272.75,210.42L273.01,222.97L273.23,216.79L273.24,222.25L273.62,209.83L273.81,223.53L274,217.93L274.01,217.52L274.04,222.21L274.5,209.5L274.75,217.79L274.76,215.76L275.27,223.2L275.3,206.41L275.5,218.03L275.51,215.6L275.53,223.12L275.95,209.49L276.26,216.25L276.27,217.47L276.72,222.91L276.82,209.99L277,216.71L277.01,220.56L277.53,224.35L277.67,209.53L277.74,218.71L277.75,216.11L278.11,211.96L278.47,223.14L278.49,219.92L278.5,206.92L278.74,222.99L279.25,215.12L279.26,218.53L279.42,223.12L279.71,213.12L279.89,218.13L279.9,220.14L280.03,209.9L280.22,223.62L280.64,216.04L280.65,220.29L280.73,224.43L280.88,209.64L281.29,220.94L281.3,215.13L281.71,206.86L281.93,223.07L282.05,219.21L282.07,221.32L282.43,210.63L282.63,223.07L282.81,217.14L282.82,218.78L283.16,223.67L283.28,208.72L283.57,218.78L283.58,217.94L283.65,222.55L283.72,212.95L284.1,215.72L284.11,209.63L284.78,223.04L284.86,217.51L284.87,214.73L284.88,222.96L284.91,207.1L285.62,217.26L285.63,219.66L285.83,223.11L285.94,213.06L286.34,217.1L286.35,223.02L286.37,223.27L286.49,208.69L287.1,217.19L287.11,218.3L287.24,222.18L287.32,208.83L287.86,214.82L287.87,220.55L287.98,223.26L288.12,206.8L288.61,219.32L288.62,219.44L288.77,210.23L289.04,223.02L289.37,218.58L289.38,219.97L289.64,209.86L289.84,223.5L290.1,219.96L290.11,215L290.52,209.54L290.75,222.14L290.87,218.93L290.88,220.65L291.32,206.96L291.56,223.36L291.59,216.73L291.6,216.72L291.98,210.28L292.24,222.78L292.34,218.01L292.35,213.22L292.85,209.88L293.04,222.93L293.1,215.9L293.11,216.14L293.55,223.87L293.7,209.3L293.85,215.65L293.86,215.15L294.39,222.99L294.53,206.81L294.61,219.28L294.62,215.59L294.76,222.82L295.18,210.61L295.37,217.33L295.38,213.05L295.95,222.74L296.04,221.02L296.05,209.74L296.76,223.77L296.8,219.39L296.81,218.47L296.9,208.98L297.27,222.73L297.55,218.14L297.56,221.07L297.73,206.66L297.87,222.98L298.32,218.55L298.33,219.06L298.36,222.79L298.46,210.74L298.64,221.07L298.65,223.17L299.19,223.66L299.31,208.99L299.41,218.35L299.42,219.28L299.43,223.07L300.14,209.66L300.16,219.2L300.17,218.02L300.55,211.84L300.91,223.15L300.92,216.65L300.94,207.21L301.17,223.04L301.67,218.19L301.68,215.16L301.96,213.33L302.39,223.42L302.44,222.97L302.45,218.1L302.51,209.16L302.64,223.21L303.18,219.9L303.19,216.07L303.26,222.42L303.34,209.7L303.93,218.75L303.94,215.33L304.01,223.23L304.14,207.05L304.69,218.36L304.7,218.15L304.8,210.39L305.06,223.03L305.44,214.91L305.45,216.2L305.57,223.06L305.67,209.83L305.85,220.98L305.86,223.73L306.55,209.86L306.6,218.21L306.61,219.3L307.32,223.21L307.35,206.95L307.36,219.66L307.52,215.35L307.58,223.28L307.99,218.42L308,210.27L308.27,223.05L308.75,219.92L308.76,217.02L308.87,209.92L309.07,223.63L309.51,220.55L309.52,217.76L309.58,224.54L309.72,209.85L310.22,221.91L310.24,221.19L310.55,206.95L310.79,223.14L310.99,218.45L311,220.21L311.21,210.69L311.47,222.94L311.76,213.25L311.77,220.09L312.08,209.75L312.27,223.35L312.52,219.19L312.53,219.36L312.78,223.78L312.93,209.25L313.26,219.32L313.27,215.2L313.76,206.51L313.98,222.88L314.02,215.44L314.03,218.44L314.48,210.76L314.68,223.18L314.78,213.68L314.79,220.92L315.21,223.54L315.33,209.14L315.55,214.84L315.56,217.95L315.7,222.65L316.16,209.53L316.29,219L316.3,221.63L316.83,223.03L316.96,206.72L317.05,216.47L317.07,217.52L317.14,214.67L317.2,223.03L317.61,218.54L317.62,209.75L317.88,223.08L318.37,215.35L318.38,218.64L318.42,223.41L318.54,208.77L319.12,219.33L319.13,220.55L319.37,209.65L319.59,222.52L319.89,214.76L319.9,215.87L320.03,223.32L320.17,207.27L320.59,215.79L320.6,220.27L320.82,210.61L321.09,223.04L321.35,219.45L321.36,219.6L321.69,209.87L321.89,223.71L322.1,217.42L322.11,222.39L322.57,209.84L322.86,218.46L322.87,221.07L323.34,223.07L323.37,206.87L323.6,221.23L323.61,223.4L324.03,210.05L324.36,215.46L324.37,217.5L324.9,209.92L325.09,223.57L325.1,222.47L325.11,215.57L325.61,224.58L325.75,209.89L325.87,223.23L325.88,216L326.44,223.12L326.58,207.15L326.64,222.68L326.65,217.56L326.81,223.09L327.23,210.81L327.39,221.08L327.4,216.13L327.5,223.09L328.1,209.89L328.15,219.58L328.17,216.75L328.81,224.38L328.82,212.97L328.92,219.6L328.93,215.9L328.95,209.76L329.08,223.09L329.68,217.2L329.69,218.5L329.78,207.01L330.01,223.35L330.43,220.23L330.44,216.35L330.51,210.68L330.7,223.38L331.18,218.7L331.19,215.77L331.24,223.73L331.36,209.3L331.95,220.63L331.96,217.42L332.11,222.52L332.19,209.48L332.59,219.63L332.6,212.04L332.96,223.19L332.99,207.14L333.35,218.88L333.36,220.19L333.64,210.34L333.91,223.48L334.1,218.9L334.11,221.5L334.44,223.5L334.57,208.8L334.86,218.15L334.87,218.6L334.93,222.6L335.01,213.54L335.25,218.69L335.26,222.09L335.31,222.54L335.39,209.75L336.02,218.85L336.03,217.8L336.19,207.28L336.43,223.34L336.78,218.78L336.79,219.92L336.85,210.59L337.11,223.15L337.56,215.83L337.57,217.25L337.72,210L337.91,223.82L338.31,216.81L338.32,216.22L338.6,210.21L338.82,222.63L339.04,216.67L339.05,220.46L339.4,207.24L339.63,223.45L339.81,216.1L339.82,215.86L340.05,210.42L340.32,223.07L340.57,219.02L340.58,219.46L340.61,213.69L340.82,223.06L340.91,221.32L340.92,210.17L341.63,224.75L341.67,219.68L341.68,219.08L341.77,210.17L341.9,223.38L342.43,218.86L342.44,217.91L342.6,207.29L342.84,223.18L343.19,218.8L343.2,219.97L343.26,210.85L343.53,223.13L343.97,215.93L343.98,217.25L344.13,209.94L344.32,223.8L344.71,214.94L344.72,215.12L344.84,224.49L344.98,209.64L345.41,220.02L345.42,213.38L345.81,207.08L346.03,223.5L346.18,220.71L346.19,219.62L346.54,210.65L346.73,223.4L346.92,219.12L346.93,221.66L347.26,223.81L347.39,209.23L347.69,218.31L347.7,219.45L347.75,222.83L348.21,209.54L348.43,220.98L348.44,222.16L348.88,223.12L349.01,207.15L349.2,215.31L349.21,216.54L349.67,210.53L349.94,223.28L349.95,220.08L349.96,216.57L350.04,213.52L350.05,221.21L350.13,218.51L350.14,221.39L350.47,223.37L350.59,209.05L350.89,218.09L350.9,218.45L350.96,222.42L351.42,209.75L351.54,217.52L351.55,222.03L352.09,223.24L352.22,207.28L352.3,218.91L352.31,216.99L352.45,223.31L352.87,210.07L353.05,218.59L353.06,216.85L353.64,223.05L353.74,209.81L353.79,219.73L353.8,219.94L353.94,223.7L354.24,213.64L354.55,216.58L354.56,217.57L354.63,210.26L354.85,222.52L355.17,215.69L355.18,220.84L355.42,207.02L355.66,223.36L355.92,219.42L355.93,219.67L356.08,210.49L356.35,223.24L356.67,218.84L356.68,220.21L356.95,210.2L357.14,223.85L357.41,220.1L357.42,215.08L357.66,224.56L357.8,209.99L358.19,221.21L358.2,218.16L358.63,207.19L358.86,223.41L358.95,219.1L358.96,219.44L359.28,210.69L359.55,223.32L359.7,217.89L359.71,219.99L360.15,210.26L360.35,223.92L360.45,216.16L360.46,220.42L360.86,224.67L361,210.1L361.23,217.43L361.24,216.96L361.83,207.17L361.97,223.41L361.99,218.96L362,215.75L362.06,223.43L362.24,213.25L362.55,221.16L362.56,210.9L363.29,223.67L363.31,220.98L363.32,218.71L363.41,209.05L363.53,223.26L364.06,218.77L364.07,221.11L364.16,222.52L364.24,208.71L364.78,215.84L364.79,220.94L364.91,223.24L365.04,206.33L365.56,217.48L365.57,220.24L365.69,210.63L365.96,223.31L366.31,220.24L366.32,221.57L366.62,208.94L366.74,223.66L367.08,215.86L367.09,218.2L367.36,222.41L367.45,209.88L367.82,219.98L367.83,215.44L368.11,223.27L368.24,207.25L368.58,217.55L368.59,218.09L368.9,210.83L369.17,222.89L369.34,218.74L369.35,216.96L369.77,209.58L369.96,223.71L370.1,219.33L370.11,218.85L370.19,222.08L370.65,209.42L370.86,218.42L370.87,221.11L371.42,223.28L371.45,206.59L371.59,220.82L371.6,217.47L371.68,223.26L372.1,210.3L372.34,216L372.35,219.94L372.37,223.21L372.98,210.28L373.07,222.29L373.08,218.19L373.68,224.92L373.69,212.96L373.81,220.26L373.82,210.34L373.95,223.51L374.59,219.34L374.6,218.12L374.65,207.43L374.89,223.12L375.34,216.19L375.35,220.63L375.58,223.05L375.86,213.48L376.09,218.33L376.1,221.41L376.18,209.71L376.37,223.89L376.85,217.44L376.86,216.4L376.89,224.72L377.03,210.01L377.62,220.37L377.63,217.18L377.86,207.11L378.08,223.68L378.36,215.27L378.37,214.65L378.59,210.68L378.78,223.58L379.14,221.75L379.15,217.85L379.31,223.72L379.44,209.33L379.88,213.71L379.89,219.09L380.18,222.51L380.27,209.86L380.63,221.82L380.64,219.88L381.06,207.03L381.3,223.35L381.39,219.28L381.4,217.76L381.72,210.59L381.99,223.36L382.08,218.56L382.09,213.85L382.64,208.97L382.76,223.72L382.84,221.94L382.85,218.1L383.39,222.64L383.47,210.26L383.59,218.71L383.6,221.85L384.14,223.29L384.27,207.3L384.35,219.06L384.36,216.98L384.51,222.92L384.92,210.83L385.08,221.31L385.09,216.79L385.69,223.05L385.8,209.67L385.85,219.91L385.86,217.1L385.99,223.63L386.29,213.66L386.61,217.47L386.62,217.41L386.68,209.98L387.34,222.99L387.37,220.29L387.38,217.27L387.47,206.84L387.71,223.44L388.12,218.42L388.13,210.55L388.4,223.18L388.88,220.31L388.89,217.03L389,210.19L389.2,223.8L389.64,220.99L389.65,218.02L389.71,224.9L389.85,210.21L390.41,216.38L390.42,216.15L390.68,207.39L390.92,223.49L391.17,219.52L391.18,219.86L391.34,210.98L391.6,223.32L391.93,218.95L391.94,220.28L392.21,210.23L392.4,223.99L392.67,220.29L392.68,215.24L392.91,224.85L393.06,210.22L393.44,221.27L393.45,218.06L393.88,207.25L394.11,223.7L394.2,218.21L394.21,219.47L394.61,210.93L394.81,223.63L394.96,217.76L394.97,219.57L395.34,223.87L395.46,209.33L395.7,216.14L395.71,220.24L395.83,222.83L396.29,209.76L396.47,214.81L396.48,216.36L397.09,207.24L397.15,223.05L397.23,221.65L397.24,215.78L397.75,210.75L398.01,223.47L398.02,219.79L398.54,223.86L398.67,209.1L398.77,218.63L398.78,218.65L398.79,223.59L399.5,210.36L399.52,219.8L399.53,218.06L399.91,212.64L400.16,223.46L400.28,220.46L400.3,207.31L400.53,222.85L401.05,218.32L401.06,218.28L401.22,223.13L401.5,213.59L401.7,219.49L401.71,217.05L401.82,209.87L402.02,223.91L402.46,219.76L402.47,220.74L402.7,210.69L402.93,223L403.23,216.5L403.24,215.95L403.5,207.31L403.74,223.51L403.99,219.44L404,219.63L404.16,210.52L404.42,223.41L404.75,218.94L404.76,220.5L405.03,210.33L405.22,223.9L405.49,220.16L405.5,215.2L405.73,224.92L405.88,210.16L406.26,221.43L406.28,218.22L406.71,207.37L406.94,223.4L407.03,219.58L407.04,218.37L407.36,210.85L407.63,223.42L407.72,219.18L407.73,214.39L408.23,210.38L408.43,223.98L408.48,218.6L408.49,216.76L408.94,225.07L409.08,209.97L409.23,216.85L409.24,215.63L409.45,223.43L409.91,207.32L409.99,218.38L410,216.43L410.04,223.83L410.64,210.95L410.75,219.21L410.76,215.43L411.35,214.15L411.36,223.9L411.48,220.28L411.49,209.33L411.61,223.36L412.23,222.47L412.25,217.07L412.32,209.32L412.96,222.87L412.97,214.78L412.98,223.46L413.12,206.36L413.72,218.5L413.73,218.06L413.77,210.68L414.04,222.82L414.48,219.84L414.49,218.73L414.69,209.14L414.82,223.67L415.26,214.31L415.27,217.1L415.52,209.95L415.75,222.02L416.02,217.79L416.03,215.13L416.19,223.05L416.32,206.75L416.68,218.94L416.69,220.33L416.98,210.85L417.24,222.77L417.44,218.14L417.45,221.12L417.85,209.86L418.04,223.59L418.2,219.32L418.21,218.73L418.27,222.64L418.73,210.24L418.85,219.19L418.86,222.07L419.39,223.24L419.53,207.5L419.61,219.86L419.62,216.67L419.76,223.5L420.18,210.86L420.37,218.27L420.38,216.24L420.95,223.21L421.05,210.31L421.11,217.15L421.12,219.34L421.76,225.03L421.77,212.78L421.87,219.92L421.88,216.39L421.9,210.55L422.02,223.73L422.63,220.48L422.64,218.06L422.73,207.47L422.97,223.49L423.38,218.46L423.39,211.13L423.65,223.14L424.15,223.12L424.16,218.6L424.26,210.1L424.45,223.83L424.9,218.13L424.91,217.3L424.96,224.77L425.11,210.06L425.54,220.09L425.55,213.84L425.94,207.23L426.16,223.79L426.31,219.79L426.32,217.78L426.66,211.08L426.86,223.72L427.05,219.5L427.06,222.06L427.39,223.91L427.51,209.61L427.81,218.86L427.82,218.68L428.34,210.08L428.57,222.86L428.58,215.88L429.01,223.25L429.14,207.13L429.33,215.9L429.34,217.03L429.38,223.4L429.8,210.82L430.07,220.37L430.08,216.94L430.58,213.96L430.59,223.95L430.64,217.42L430.65,223.14L430.72,209.32L430.84,223.66L431.4,219L431.41,222L431.55,210.38L431.77,222.81L432.17,219.11L432.18,218.1L432.21,223.47L432.35,207.36L432.93,218.98L432.94,220.28L433,210.95L433.27,223.1L433.71,216.16L433.72,217.69L433.87,210.02L434.07,223.95L434.45,218.91L434.46,216L434.75,210.72L434.98,223.08L435.23,220.81L435.24,216.65L435.55,207.53L435.79,223.58L436,220.74L436.01,216.07L436.21,210.62L436.47,223.45L436.74,219.88L436.75,216.01L437.08,210.24L437.27,224.05L437.47,218.75L437.48,221.23L437.78,224.99L437.93,210.28L438.23,218.17L438.24,219.68L438.62,223.33L438.76,207.69L438.97,216.89L438.98,222.41L438.99,223.56L439.41,211.07L439.69,220.49L439.7,217.38L439.9,222.75L439.96,214.33L440.17,217.24L440.18,223.16L440.28,210.43L440.48,224.11L440.94,217.5L440.95,218.35L440.99,225.14L441.13,210.2L441.69,215.47L441.71,216.92L441.96,207.4L442.09,223.94L442.45,216.76L442.46,215.43L442.69,211.13L442.88,223.68L443.24,221.96L443.25,218.17L443.42,224.02L443.54,209.39L443.88,218.42L443.89,221.7L443.91,222.91L444.37,209.62L444.64,217.81L444.65,218.89L445.17,206.9L445.4,223.56L445.41,216.01L445.82,211.01L446.09,222.88L446.17,219.44L446.18,218.34L446.62,223.93L446.74,209.3L446.92,219.05L446.93,218.92L447.11,221.89L447.18,212.79L447.39,218.33L447.4,220.95L447.57,210.22L447.8,221.93L448.12,216.07L448.13,220.33L448.24,223.02L448.37,206.47L448.5,218.6L448.51,221.74L448.61,222.73L449.03,210.51L449.26,216.32L449.27,219.17L449.79,223.05L449.9,210.2L450.01,220L450.02,217.25L450.09,223.58L450.39,214.04L450.75,217.13L450.76,220.84L450.78,210.28L451.44,223.2L451.5,219.17L451.52,219.34L451.58,207.2L451.81,223.65L452.26,216.53L452.27,220.72L452.78,214.32L453,223.21L453.01,218.85L453.02,221.73L453.1,210.21L453.3,223.91L453.77,218.41L453.78,216.41L453.81,225.01L453.95,210.58L454.52,216.54L454.53,216.49L454.65,223.46L454.78,207.3L455.28,219.82L455.29,218.46L455.44,211.22L455.7,223.08L456.03,218.82L456.04,219.89L456.31,210.1L456.5,223.5L456.77,220.13L456.78,214.98L457.01,224.53L457.16,210.1L457.55,220.99L457.56,217.74L457.99,207.17L458.21,223.63L458.31,219.46L458.32,217.59L458.71,211.24L458.91,223.64L459.07,219.86L459.08,218.94L459.44,224.01L459.56,209.54L459.82,215.62L459.83,219.49L459.93,222.75L460,214.37L460.37,221.02L460.38,216.53L460.39,209.93L461.06,223.28L461.12,220.07L461.13,219.54L461.19,207.13L461.43,223.4L461.81,218.07L461.82,220.44L461.85,210.93L462.11,223.44L462.52,215.62L462.53,218.04L462.65,224.01L462.77,209.45L463.28,219.5L463.29,218.69L463.6,210.63L463.82,223L464.04,217.15L464.05,220.43L464.26,223.51L464.4,207.61L464.81,216.4L464.82,216.17L465.05,211.03L465.32,223.22L465.57,219.56L465.58,219.59L465.92,210.12L466.12,224.04L466.33,217.79L466.34,222.88L466.8,210.85L467.03,223.25L467.09,219.28L467.1,221.65L467.47,223.41L467.6,207.67L467.83,222.13L467.84,223.58L468.26,210.92L468.58,216.65L468.6,218.11L469.13,210.28L469.32,224.05L469.33,222.64L469.34,216.1L469.83,225.03L469.98,210.15L470.1,223.66L470.11,216.71L470.42,213.28L470.67,223.36L470.8,220.3L470.81,207.72L471.04,223.68L471.56,219.07L471.58,218.14L471.73,223.55L472.02,214.41L472.32,221.42L472.33,210.5L473.04,225.16L473.08,219.86L473.09,219.55L473.18,210.27L473.31,223.78L473.83,218.42L473.84,221.39L474.01,207.4L474.15,223.91L474.6,219.18L474.61,219.25L474.74,211.34L474.93,223.64L475.28,220.89L475.29,221.63L475.47,224.04L475.59,209.55L476.05,216.19L476.06,218.51L476.42,209.68L476.64,223.15L476.8,219.92L476.81,215.43L477.08,223.53L477.22,206.97L477.56,218.14L477.57,218.31L477.87,211L478.14,223.4L478.31,218.93L478.32,217.56L478.67,224.02L478.79,209.17L479.07,218.86L479.08,217.45L479.54,222.4L479.62,210.52L479.79,215.84L479.8,214.67L480.29,223.36L480.42,207.49L480.57,221.96L480.58,217.38L481.08,210.78L481.34,223.23L481.35,220.26L481.36,216.8L481.85,223.29L481.95,210.26L482.11,217.85L482.12,217.23L482.14,224.02L482.83,210.62L482.87,220.43L482.88,218.46L483.24,213.03L483.49,223.69L483.62,220.26L483.63,207.68L483.86,223.32L484.37,215.47L484.39,218.79L484.55,223.38L484.84,214.35L485.13,219L485.14,221.49L485.15,210.46L485.86,225.1L485.89,220.84L485.9,219.43L486,210.24L486.13,223.53L486.63,215.88L486.64,219.13L486.7,223.48L486.83,207.84L487.39,218.58L487.4,222.16L487.49,210.54L487.75,223.08L488.15,216.52L488.16,220.46L488.36,210.32L488.55,223.78L488.89,219.38L488.9,219.88L489.06,225.17L489.21,209.91L489.62,221.07L489.63,215.59L490.04,207.43L490.17,224.07L490.38,218.57L490.39,219.65L490.76,211.02L490.96,223.47L491.13,219.01L491.14,217.57L491.49,224.11L491.61,209.38L491.89,219.74L491.9,219.09L491.98,222.98L492.05,214.39L492.3,219.19L492.31,222.53L492.44,209.97L492.67,223.22L493.08,218.57L493.09,222.68L493.11,223.67L493.24,207.18L493.84,220.2L493.85,218.93L493.9,211.2L494.16,222.91L494.51,220.06L494.52,221.34L494.7,224L494.82,209.64L495.28,216.17L495.29,218.26L495.65,210.33L495.87,222.07L496.03,219.46L496.04,214.98L496.31,223.11L496.45,206.54L496.79,217.5L496.8,217.48L497.1,210.82L497.37,222.98L497.54,218.89L497.55,217.27L497.97,210.28L498.17,223.64L498.29,219.28L498.3,218.64L498.39,222.96L498.85,210.5L499.01,218.81L499.02,216.09L499.52,223.39L499.65,207.34L499.7,215.9L499.71,222.36L499.89,223.57L500.31,211.09L500.47,217.18L500.48,218.95L500.86,214.42L501.08,223.25L501.16,219.26L501.17,221.5L501.18,210.44L501.89,225.14L501.92,221.16L501.93,219.88L502.03,210.34L502.15,223.83L502.6,216.59L502.61,221.32L502.86,207.7L503.09,223.73L503.38,217.78L503.39,220.04L503.51,211.3L503.78,223.32L504.12,220.34L504.13,221.39L504.38,210.49L504.58,223.88L504.89,217.32L504.9,217.66L505.09,225.01L505.23,210.37L505.64,221.07L505.65,215.55L506.06,207.45L506.29,223.81L506.4,218.03L506.41,219.78L506.79,211.31L506.98,223.75L507.15,220.11L507.16,219.04L507.52,224.15L507.64,209.63L507.9,215.75L507.91,219.5L508.01,222.86L508.08,214.55L508.46,216.89L508.47,210.15L509.13,223.47L509.22,218.58L509.23,215.5L509.27,207.35L509.5,223.42L509.98,220.42L510,220.47L510.19,223.33L510.47,214.53L510.69,218.05L510.7,223.26L510.72,224L510.85,209.56L511.45,218.02L511.46,217.67L511.67,210.77L511.9,223.11L512.19,216.88L512.2,215.7L512.34,223.65L512.47,207.9L512.92,220.61L512.93,216.15L513.13,211.14L513.39,223.38L513.66,219.87L513.67,216.02L514,210.33L514.19,224.05L514.39,219.09L514.4,221.17L514.88,210.95L515.1,223.26L515.16,217.86L515.17,219.44L515.55,223.68L515.68,208L515.91,223.61L515.92,216.35L516.33,210.96L516.6,223.47L516.68,219.61L516.69,219.49L517.2,210.46L517.4,223.6L517.44,216.46L517.45,218.59L517.91,225.3L518.05,210.23L518.17,219.69L518.18,223.81L518.88,207.87L518.93,216.19L518.94,222.78L519.12,223.44L519.54,210.4L519.7,215.97L519.71,218.95L520.31,223.19L520.41,210.55L520.42,221.44L521.12,225.26L521.13,213.01L521.18,218.29L521.19,221.67L521.26,209.68L521.63,223.65L521.95,218.36L521.96,223.18L522.09,207.47L522.22,224.08L522.72,218.38L522.73,220.41L522.82,211.33L523.01,223.64L523.49,216.42L523.5,219.78L523.54,224.23L523.67,209.58L524.24,217.69L524.25,220.11L524.49,210.28L524.72,223.28L524.98,221.44L524.99,216.93L525.16,223.71L525.29,207.19L525.74,220.74L525.75,215.99L525.95,211.22L526.22,223.16L526.48,219.6L526.49,214.03L526.75,224.13L526.87,209.87L527.26,219.76L527.27,219.27L527.7,210.78L527.93,222.63L528.01,218.37L528.02,217.01L528.5,207.29L528.73,223.39L528.76,216.42L528.78,217.07L529.15,211L529.42,223.18L529.53,221.27L529.54,219.06L529.92,223.17L530.02,210.44L530.21,220.83L530.22,224.11L530.91,210.76L530.96,218.62L530.97,219.85L531.57,223.5L531.7,207.91L531.71,220.07L531.72,220.05L531.94,223.71L532.36,211.01L532.47,218.05L532.48,219.71L532.63,223.53L532.91,214.68L533.1,218.84L533.11,220.74L533.23,210.7L533.42,224.15L533.85,220.74L533.86,221.24L533.94,225.27L534.08,210.37L534.62,217.16L534.63,215.87L534.91,208.16L535.14,223.84L535.36,220.65L535.37,216.34L535.56,211.3L535.83,223.66L536.1,220.03L536.11,216.2L536.43,210.64L536.63,224.3L536.82,219.21L536.83,221.6L537.14,225.39L537.28,210.36L537.58,219.67L537.59,218.14L538.11,207.73L538.34,223.94L538.35,216.52L538.84,211.39L539.04,223.74L539.13,219.77L539.14,215.44L539.57,224.22L539.69,209.69L539.89,222.84L539.9,218.58L540.06,223.01L540.52,210.4L540.64,219.82L540.65,222.44L541.19,223.68L541.32,207.36L541.41,217.12L541.42,217.59L541.55,223.55L541.97,211.19L542.13,221.5L542.14,216.86L542.52,214.25L542.77,224.12L542.89,220.5L542.9,209.65L543.02,223.93L543.65,216.89L543.66,217.57L543.73,210.76L544.39,223.31L544.42,219.91L544.43,217.73L544.52,207.45L544.76,223.43L545.17,218.26L545.18,210.89L545.45,223.29L545.93,220.63L545.94,217.41L546.05,210.34L546.24,224.07L546.69,220.99L546.71,217.58L546.93,210.8L547.16,222.95L547.31,219.99L547.32,215.55L547.6,223.67L547.73,207.96L548.07,218.58L548.08,218.38L548.38,210.67L548.65,223.44L548.82,218.87L548.84,217.52L549.25,210.67L549.45,223.8L549.59,219.15L549.6,218.18L549.96,225.22L550.1,209.99L550.35,219.57L550.36,217.42L550.47,223.63L550.93,208.26L551.1,218.6L551.11,215.9L551.17,223.78L551.59,211.11L551.81,219.29L551.83,216.41L551.86,223.41L552.46,210.41L552.58,217.71L552.59,216.58L553.17,225.32L553.18,213.05L553.27,218.21L553.28,220.21L553.31,209.84L553.68,223.77L554.02,220.24L554.03,220.71L554.14,207.61L554.36,223.91L554.79,217.02L554.8,221.41L554.87,211.24L555.06,223.55L555.4,219.14L555.41,221.05L555.59,224.21L555.72,209.67L556.13,220.48L556.14,215.56L556.55,210.6L556.77,223.47L556.9,221.45L556.91,222.11L557.21,223.75L557.34,207.54L557.66,219.02L557.67,219.36L558,211.48L558.27,223.05L558.42,217.94L558.43,220.07L558.8,224.11L558.92,209.79L559.18,215.3L559.19,219.19L559.29,222.61L559.75,210.84L559.87,219.38L559.88,222.08L560.42,223.41L560.55,207.43L560.63,219.19L560.64,216.94L560.79,223.54L561.2,210.97L561.36,221.74L561.37,217.09L561.47,223.31L562.08,210.4L562.13,220.29L562.14,217.46L562.27,224.08L562.57,214.62L562.89,217.86L562.9,217.84L562.96,210.82L563.62,223.51L563.65,220.17L563.66,217.67L563.75,207.86L563.99,223.62L564.4,219.04L564.41,211.13L564.68,223.27L565.16,220.67L565.17,217.52L565.28,210.59L565.47,224.24L565.92,221.21L565.93,218.33L565.99,225.33L566.13,210.49L566.62,217.9L566.63,222.49L566.96,208.06L567.2,223.89L567.38,216.66L567.39,220.6L567.62,211.46L567.88,223.6L568.14,220.05L568.15,220.12L568.49,210.7L568.68,224.27L568.9,218.2L568.91,223.01L569.19,225.33L569.34,210.34L569.67,217.05L569.68,221.79L570.16,207.65L570.39,224.12L570.43,217.77L570.44,219.78L570.89,211.51L571.09,223.91L571.19,215.43L571.2,221.61L571.62,224.23L571.74,209.81L571.96,215.47L571.97,218.17L572.11,223.04L572.57,210.46L572.69,219.82L572.7,222.46L573.24,223.46L573.37,207.53L573.46,217.15L573.47,217.68L573.54,215.86L573.61,223.62L574.01,219.36L574.03,211.09L574.29,223.46L574.78,219.56L574.79,217.96L574.82,223.94L574.95,209.44L575.54,220.75L575.55,218.07L575.78,210.74L576,222.82L576.32,216.53L576.33,220.6L576.44,223.49L576.57,207.57L576.93,219.31L576.94,220.38L577.23,211.1L577.5,223.28L577.69,219.3L577.7,222.02L578.1,210.5L578.3,224.09L578.45,218.13L578.46,219.45L578.52,222.95L578.98,210.87L579.1,219.88L579.11,222.41L579.65,223.42L579.78,207.89L579.86,219.09L579.87,216.82L580.02,223.74L580.44,210.66L580.62,218.36L580.63,216.82L580.7,223.58L581.31,210.7L581.35,220.31L581.36,220.59L582.01,225.34L582.02,213.17L582.11,218.31L582.12,220.31L582.16,210.5L582.28,223.84L582.82,218.66L582.83,223.41L582.99,208.19L583.22,223.92L583.58,220.37L583.59,218.96L583.64,211.33L583.91,223.69L584.23,219.28L584.24,220.8L584.51,210.81L584.71,224.34L584.97,220.38L584.98,215.66L585.22,225.47L585.36,210.48L585.75,221.6L585.76,218.85L586.19,207.65L586.42,224.2L586.51,218.86L586.52,220.06L586.92,211.6L587.11,223.88L587.27,218.42L587.28,220.19L587.64,224.31L587.77,209.73L588.02,216L588.03,219.74L588.14,223.15L588.21,214.93L588.58,221.54L588.59,217.28L588.6,210.5L589.26,223.65L589.33,219.76L589.34,218.77L589.4,207.58L589.63,223.59L590.08,216.95L590.09,221.16L590.32,223.57L590.59,214.36L590.84,214.52L590.85,224.16L590.97,209.74L591.61,216.12L591.62,219.3L591.8,210.93L592.03,222.91L592.36,220.34L592.38,218.88L592.6,207.8L592.84,223.68L593.12,217.58L593.13,220.14L593.26,211.01L593.52,223.27L593.9,216.27L593.91,216.78L594.13,210.46L594.32,224.19L594.59,220.1L594.6,215.56L595.01,211L595.23,223.18L595.35,219.75L595.37,221.49L595.67,223.67L595.81,208.06L596.06,218.37L596.07,216.89L596.46,211.01L596.73,223.32L596.82,219.73L596.83,214.4L597.33,210.79L597.53,223.77L597.58,218.62L597.59,217.19L598.04,225.15L598.18,210.33L598.33,217.64L598.35,215.94L598.55,223.82L599.01,208.3L599.1,217.45L599.11,218.43L599.25,223.8L599.67,211.43L599.85,218.5L599.86,216.72L599.93,223.54L600.54,210.68L600.58,220.4L600.59,220.66L601.24,225.41L601.25,212.97L601.34,219.35L601.35,218.36L601.39,209.79L601.75,223.84L602.1,220.79L602.11,218.07L602.22,207.74L602.44,224.21L602.84,223.18L602.85,218.35L602.94,211.27L603.14,223.78L603.59,219.25L603.6,217.07L603.67,224.26L603.79,209.48L604.35,217.36L604.36,216.26L604.62,210.54L604.85,223.28L605.1,221.02L605.11,217.02L605.42,207.39L605.66,223.87L605.87,220.63L605.88,216L606.08,211.05L606.34,222.95L606.52,219L606.53,216.84L606.87,224.15L607,209.47L607.27,218.2L607.28,216.98L607.37,222.45L607.83,209.96L607.99,215.8L608,213.52L608.49,223.26L608.63,206.75L608.77,221.6L608.78,215.7L608.86,223.38L609.28,210.32L609.55,223.02L609.56,219.87L610.05,223.17L610.15,210.63L610.29,216.26L610.31,219.99L610.35,223.41L611.03,210.71L611.06,218.69L611.07,220.39L611.26,222.99L611.83,207.55L611.84,220.38L612.07,223.82L612.08,215.98L612.24,217.05L612.25,215.97L612.49,210.76L612.75,223.27L613,219.48L613.01,219.92L613.36,210.52L613.55,224.01L613.75,218.64L613.76,221.09L614.06,225.08L614.21,210.78L614.51,217.89L614.52,220.42L614.9,223.66L615.04,207.79L615.09,217.37L615.1,222.74L615.27,223.85L615.69,211.33L615.86,216.89L615.87,219.13L615.96,223.3L616.24,214.74L616.54,219.58L616.55,221.69L616.56,210.62L617.27,224.58L617.3,221.19L617.31,219.94L617.41,210.56L617.53,223.59L618.06,218.57L618.07,221.62L618.24,207.65L618.37,224.1L618.82,219.06L618.84,219.65L618.97,211.57L619.16,223.76L619.36,219.83L619.37,222.16L619.7,224.2L619.82,209.52L620.12,219.66L620.13,219.11L620.65,210.52L620.87,223.37L620.88,216.49L621.31,223.62L621.45,207.82L621.63,216.97L621.64,217.53L621.68,223.62L622.1,211.26L622.38,220.61L622.39,217.59L622.89,214.53L622.9,224.16L623.01,220.95L623.02,210.07L623.15,223.86L623.77,222.56L623.78,217.56L623.85,210.99L624.5,223.42L624.51,215.19L624.65,208.08L624.89,223.86L625.26,219.14L625.27,218.75L625.31,211.02L625.57,223.65L626,218.58L626.01,216.66L626.18,210.72L626.37,224.3L626.75,219.41L626.76,216.63L627.06,211.11L627.28,223.4L627.51,220.97L627.52,218.07L627.86,208.36L628.09,223.9L628.26,217.68L628.27,217.3L628.51,210.98L628.78,223.65L628.97,219.46L628.98,222.14L629.38,210.94L629.58,224.2L629.73,218.37L629.74,219.62L630.09,225.43L630.23,210.28L630.49,217.51L630.5,219.01L630.6,223.87L631.06,208.49L631.23,218.84L631.24,216.5L631.3,224.05L631.31,216.43L631.71,219.36L631.72,211.42L631.98,223.66L632.48,223.35L632.5,218.81L632.59,210.92L632.78,224.34L633.24,217.91L633.25,218.79L633.29,225.4L633.44,210.48L634,215.99L634.01,217.36L634.27,207.84L634.49,224.11L634.76,217.57L634.77,216.36L634.99,211.54L635.19,223.8L635.4,217.64L635.41,223.13L635.72,224.41L635.84,209.99L636.18,219.14L636.19,221.65L636.67,210.83L636.9,223.59L636.95,218.34L636.96,219.51L637.34,223.77L637.47,207.92L637.71,223.64L637.72,216.83L638.13,211.23L638.39,223.65L638.48,219.72L638.49,219.06L638.93,224.15L639.05,209.77L639.23,219.59L639.24,221.94L639.42,222.93L639.88,210.89L639.99,218.66L640,219.82L640.54,223.67L640.68,207.8L640.74,222.94L640.75,218.11L640.91,223.79L641.33,210.55L641.49,221.67L641.5,217.24L641.6,223.42L642.2,210.54L642.25,220.61L642.26,217.62L642.4,224.04L642.69,214.98L643,220.98L643.01,217.35L643.08,210.45L643.09,220.78L643.21,219.5L643.22,222.16L643.73,223.47L643.88,208.16L643.97,215.63L643.98,216.82L644.06,215.51L644.12,223.64L644.53,218.77L644.54,210.04L644.8,223.69L645.29,217.66L645.31,223.19L645.41,210.96L645.6,223.78L646.07,218.44L646.08,216.96L646.11,225.26L646.26,209.86L646.82,217.15L646.83,216.79L647.09,208.5L647.32,223.72L647.58,219.74L647.59,219.59L647.74,211.08L648.01,223.67L648.34,219.34L648.35,220.55L648.38,215.73L648.51,223.35L648.6,221.58L648.61,210.65L649.32,225.47L649.36,220.03L649.37,219.97L649.46,210L649.83,223.85L650.11,218.87L650.12,222.05L650.29,207.82L650.52,224.13L650.88,219.21L650.89,219.93L651.02,211.72L651.21,223.83L651.32,215.71L651.33,221.65L651.75,224.4L651.87,209.62L652.1,216.62L652.11,220.49L652.24,223.25L652.7,210.58L652.87,216.01L652.88,217.54L653.11,213.63L653.36,223.8L653.49,220.94L653.5,207.58L653.73,223.78L654.25,219.09L654.27,218.23L654.7,214.5L654.95,224.13L655.02,219.55L655.03,217.96L655.07,209.67L655.2,223.98L655.78,220.55L655.79,220.71L655.9,210.91L656.13,223.34L656.54,218.36L656.55,222.9L656.7,207.47L656.94,223.84L657.3,220.27L657.31,218.9L657.36,209.91L657.37,221.57L657.49,219.8L657.5,222.72L657.62,223.55L658.23,210.6L658.24,221.58L658.42,224.24L658.72,214.91L658.99,220.5L659,220.11L659.11,210.91L659.33,223.12L659.74,218.19L659.75,222.56L659.91,208.22L660.14,223.77L660.5,219.68L660.51,218.56L660.56,210.75L660.83,223.52L660.92,219.97L660.93,214.91L661.43,210.82L661.63,224.25L661.68,218.8L661.69,217.33L662.14,225.49L662.15,213.29L662.27,220.87L662.28,210.54L662.41,223.94L663.04,220.25L663.05,219.94L663.11,208.35L663.35,223.99L663.77,211.4L663.78,221.99L664.03,223.73L664.32,214.79L664.53,217.73L664.54,223.44L664.64,210.96L664.83,224.34L665.29,217.89L665.3,218.92L665.34,225.32L665.49,210.7L666.05,216.05L666.06,217.35L666.32,207.84L666.54,224.21L666.81,217.62L666.82,216.59L667.04,211.76L667.24,224.04L667.54,216.04L667.55,218.71L667.77,224.39L667.89,209.89L668.23,219.22L668.24,221.68L668.72,210.89L668.95,223.59L669,218.39L669.01,219.59L669.39,223.79L669.52,207.87L669.76,223.67L669.77,216.89L670.18,210.98L670.44,223.79L670.53,219.84L670.54,219.36L670.98,224.23L671.1,209.72L671.28,219.59L671.29,222.02L671.47,222.94L671.93,211.01L672.04,218.45L672.05,219.77L672.59,223.65L672.73,207.8L672.79,222.63L672.8,218.26L672.96,223.8L673.38,210.11L673.54,221.55L673.55,217.34L673.65,223.49L674.25,210.82L674.3,220.54L674.31,217.6L674.45,224.05L674.74,214.77L675.05,221.11L675.06,217.47L675.13,210.66L675.36,222.97L675.72,218.22L675.73,214.74L675.93,207.92L676.17,223.54L676.48,219.02L676.49,218.79L676.59,209.56L676.85,223.52L677.23,216.55L677.24,216.95L677.36,223.1L677.46,210.98L677.54,220.1L677.55,222.51L678.17,225.35L678.31,209.71L678.32,220.09L678.68,223.93L678.75,213.76L678.88,217.08L678.89,221.41L679.14,208.66L679.37,223.9L679.66,218.19L679.67,220.38L679.79,211.06L680.06,223.76L680.4,220.85L680.41,221.45L680.66,210.92L680.86,224.42L681.17,218.24L681.18,217.89L681.37,225.52L681.51,210.28L681.92,221.17L681.93,216.13L682.34,207.85L682.57,224.36L682.68,218.84L682.69,220.03L683.07,211.63L683.26,224.07L683.43,220.46L683.44,219.47L683.8,224.41L683.92,209.83L684.18,216.24L684.19,219.94L684.29,223.26L684.36,215.21L684.67,222.64L684.68,217.81L684.75,210.97L684.97,223.55L685.39,223.35L685.4,215.26L685.41,223.87L685.55,207.97L686.15,219.24L686.16,218.52L686.2,211.14L686.47,223.69L686.91,220.96L686.92,219.49L687,224.25L687.12,209.67L687.67,217.41L687.68,217.42L687.95,210.86L688.18,223.21L688.42,217.83L688.43,221.6L688.75,207.37L688.99,223.79L689.17,216.64L689.18,220.7L689.41,209.9L689.67,223.42L689.93,220L689.94,220.12L690.28,210.68L690.47,224.29L690.69,218.36L690.7,223.27L691.16,210.58L691.45,219.51L691.46,222.05L691.96,208.08L692.19,223.69L692.23,217.8L692.24,219.42L692.61,209.84L692.88,223.74L692.98,214.52L692.99,221.81L693.48,210.93L693.68,224.17L693.75,217.58L693.76,218.72L694.19,225.43L694.33,210.73L694.49,218.13L694.5,216.31L694.7,223.87L695.16,208.44L695.25,220.7L695.26,217.63L695.4,223.97L695.82,211.26L696,218.92L696.01,217.28L696.08,223.85L696.69,210.95L696.75,217.68L696.76,219.83L697.18,215.81L697.4,225.5L697.41,213.5L697.54,210.81L697.66,224.03L698.16,217.68L698.17,218.59L698.37,207.98L698.59,224.35L698.77,218.69L698.78,214.56L699.1,211.82L699.29,224.04L699.53,221.34L699.54,219.91L699.81,214.59L699.82,224.43L699.94,220.84L699.95,209.92L700.07,224.02L700.7,217.84L700.71,218.59L700.77,210.82L701,223.63L701.13,221.93L701.14,222.4L701.44,223.89L701.57,208.05L701.89,219.49L701.9,219.87L702.23,210.99L702.5,223.69L702.65,218.48L702.66,220.37L703.03,224.2L703.15,209.93L703.39,216.63L703.4,220.66L703.52,223.01L703.98,210.94L704.15,215.76L704.16,217.45L704.65,223.72L704.78,207.64L704.92,222.23L704.93,217.21L705.01,223.84L705.43,210.26L705.7,223.41L705.71,220.3L706.2,223.29L706.3,210.9L706.46,220.26L706.47,218.45L706.5,224.17L707.18,210.84L707.2,221.31L707.59,213.7L707.85,223.28L707.94,214.05L707.95,221.62L707.98,208.05L708.22,223.51L708.7,220.21L708.71,220.02L708.91,223.46L709.01,214.59L709.36,218.36L709.37,219.6L709.51,211.03L709.7,224L710.12,217.78L710.13,220.76L710.22,225.54L710.36,210.1L710.77,221.14L710.78,216.21L711.19,208.63L711.42,224.08L711.53,218.84L711.54,219.62L711.84,211.24L712.11,223.79L712.28,219.5L712.29,218.14L712.71,211L712.91,224.4L713.05,219.91L713.06,218.57L713.42,225.49L713.56,210.55L713.81,220.04L713.82,217.62L714.39,207.87L714.53,224.21L714.56,217.24L714.57,217.49L714.62,224.33L715.12,211.84L715.29,218.59L715.31,221.6L715.85,224.46L715.97,209.98L716.04,219.16L716.05,217.35L716.09,224.06L716.41,215.37L716.79,217.46L716.8,210.99L717.47,223.97L717.55,218.7L717.56,215.84L717.6,208.1L717.83,223.79L718.31,218.64L718.32,221.01L718.52,223.76L718.8,214.64L718.87,221.22L718.88,222.31L719.05,224.32L719.18,209.96L719.64,216.91L719.65,218.54L720.01,211.03L720.23,223.37L720.38,220.08L720.39,215.84L720.8,207.74L721.04,223.82L721.14,218.6L721.15,219.38L721.46,210.11L721.73,223.57L721.82,219.19L721.83,215.31L722.33,210.68L722.52,224.19L722.58,219.05L722.59,217.22L722.75,223.3L722.82,215.05L723.2,217.18L723.21,210.89L723.88,223.29L723.96,217.84L723.97,214.3L724.01,208.23L724.24,223.52L724.72,217.78L724.73,220.57L724.93,223.51L725.03,214.8L725.42,217.9L725.43,223.35L725.53,211.04L725.73,224.13L726.19,217.91L726.2,218.87L726.24,225.48L726.38,209.7L726.95,217.45L726.96,217.26L727.21,208.62L727.45,224.07L727.71,220.21L727.72,220.04L727.87,211.41L728.14,223.85L728.46,219.49L728.47,220.92L728.74,211L728.93,224.42L729.2,220.46L729.21,215.92L729.45,225.54L729.59,210.67L729.98,221.4L729.99,219.11L730.42,207.95L730.64,224.34L730.73,219.55L730.74,219.08L731.15,211.89L731.34,223.99L731.48,219.65L731.49,218.83L731.87,224.48L732,209.95L732.22,218.38L732.23,216.81L732.36,223.3L732.83,210.89L732.98,219.49L732.99,216.9L733.24,213.79L733.49,223.96L733.58,215.81L733.59,223.59L733.62,207.83L733.86,223.87L734.34,221.03L734.35,220.93L734.55,223.74L734.82,214.49L735.05,218.3L735.06,223.19L735.08,224.22L735.2,209.42L735.81,218.03L735.82,217.9L736.03,210.3L736.26,223.33L736.53,218.72L736.54,215.36L736.7,223.7L736.83,207.67L737.28,221.01L737.29,216.63L737.48,209.96L737.75,223.32L737.95,219.6L737.96,221.93L738.36,211.05L738.55,224.23L738.71,219.1L738.72,219.7L738.78,223.41L739.24,210.8L739.45,219.56L739.46,223.02L739.9,223.24L740.03,208.19L740.21,216.59L740.22,216.53L740.27,223.72L740.69,210.58L740.97,220.16L740.98,218L741.46,223.45L741.56,210.81L741.64,219.68L741.65,222.77L742.27,225.51L742.41,210.33L742.42,219.93L742.53,224.09L742.85,214.04L743.17,220.48L743.18,219.98L743.24,208.65L743.48,224.16L743.89,211.54L743.91,222L744.16,223.83L744.45,215L744.65,218.12L744.66,223.49L744.77,210.98L744.96,224.07L745.42,217.89L745.43,219.01L745.47,225.24L745.62,211.07L746.18,216.29L746.19,217.55L746.44,207.91L746.58,224.05L746.93,219L746.94,217.33L747.17,211.97L747.37,223.93L747.66,216.15L747.67,218.8L747.9,224.37L748.02,209.67L748.36,219.12L748.37,221.72L748.85,210.54L749.08,223.57L749.13,218.4L749.14,219.52L749.52,224.06L749.65,208.03L749.89,223.64L749.9,216.85L750.31,210.91L750.57,223.77L750.66,219.7L750.67,215.25L751.1,224.14L751.23,210.29L751.42,222.6L751.43,218.69L751.6,223.18L752.06,211.13L752.17,218.89L752.18,220.06L752.72,223.79L752.85,208.13L752.92,223.2L752.93,218.39L753.09,223.97L753.51,210.56L753.68,219.35L753.69,218.99L753.78,223.71L754.38,211.01L754.42,220.49L754.43,220.79L754.58,224.13L754.87,215.16L755.17,220.05L755.18,222.29L755.26,211.13L755.91,223.61L755.92,215L755.93,223.72L756.06,208.51L756.3,223.88L756.69,219.74L756.71,219.36L756.72,210.52L756.98,223.57L757.45,218.5L757.46,220.84L757.59,211.03L757.78,224.12L758.21,220.8L758.22,221.03L758.29,225.52L758.44,209.64L758.98,217.78L758.99,216.29L759.27,208.71L759.5,224.02L759.73,216.69L759.74,217.63L759.92,211.59L760.19,223.79L760.46,216.46L760.47,214.81L760.79,211.08L760.99,224.35L761.22,220.45L761.23,220.2L761.26,215.92L761.5,225.52L761.51,213.45L761.64,210.98L761.76,224.08L762.26,219.14L762.27,217.69L762.47,208.04L762.7,224.2L763.02,219.28L763.03,217.8L763.2,211.79L763.39,224.11L763.66,220.68L763.67,215.4L763.92,224.44L764.05,210.03L764.44,220.37L764.45,220.36L764.88,210.99L765.1,223.69L765.11,216.69L765.54,224.07L765.68,208.26L765.86,217.22L765.87,217.69L766.33,210.89L766.6,223.86L766.61,220.59L766.62,218.04L767.12,214.94L767.13,224.16L767.24,221.05L767.25,210.07L767.38,223.87L768,222.68L768.01,217.86L768.08,211.13L768.31,223.48L768.73,223.38L768.74,215.57L768.88,208.03L769.12,224.02L769.49,218.83L769.5,220.61L769.54,210.33L769.8,223.72L770.09,215.12L770.1,221.13L770.41,210.74L770.6,224.25L770.85,219.94L770.86,219.91L771.29,211.25L771.51,223.34L771.59,220.27L771.6,218.99L772.09,208.11L772.32,223.85L772.34,219.05L772.35,216.78L772.74,210.16L773.01,223.67L773.1,219.94L773.11,215.25L773.61,210.65L773.81,224.4L773.86,218.85L773.87,217.39L774.32,225.48L774.33,213.62L774.45,220.91L774.46,210.43L774.83,223.93L775.22,220.63L775.23,219.81L775.29,208.57L775.53,224.01L775.95,211.55L775.96,221.68L776.21,223.78L776.5,215.14L776.7,218.06L776.71,223.59L776.82,211L777.01,224.4L777.47,217.98L777.48,219.21L777.52,225.23L777.67,210.75L778.23,216.55L778.24,217.76L778.5,208.08L778.63,224.32L778.98,218.96L778.99,217.68L779.22,211.95L779.42,224.11L779.73,218.66L779.74,219.3L779.94,214.75L779.95,224.49L780.06,220.9L780.07,209.97L780.2,224.12L780.82,222.64L780.83,217.94L780.9,210.9L781.13,223.58L781.55,223.56L781.56,215.49L781.57,224L781.7,208.1L782.3,219.4L782.32,218.61L782.36,211.28L782.62,223.78L783.07,219.54L783.08,217.19L783.15,224.3L783.28,210.25L783.83,217.55L783.84,216.57L784.11,211.02L784.33,223.38L784.59,220.99L784.6,216.96L784.91,208L785.14,223.83L785.36,220.97L785.37,216.81L785.56,210.15L785.83,223.43L785.93,215.22L785.94,222.05L786.43,211.1L786.63,224.14L786.7,217.66L786.71,218.64L786.85,223.41L787.31,210.85L787.45,222.21L787.46,216.91L787.96,223.57L788.11,208.5L788.21,217.83L788.22,217.94L788.35,223.81L788.77,208.57L788.96,217.05L788.97,215.5L789.53,223.43L789.64,210.87L789.73,222.61L789.74,218.84L790.34,225.56L790.35,213.47L790.48,220.92L790.49,210.76L790.86,224L791.25,220.13L791.26,218.89L791.32,208.75L791.55,224.02L792,217L792.01,221.5L792.24,223.89L792.52,215.04L792.75,219.09L792.76,221.92L792.84,211.01L793.04,224.56L793.51,219.15L793.52,217.06L793.55,225.63L793.69,210.35L794.28,221.47L794.29,221.05L794.52,208L794.75,224.38L795.04,219.55L795.05,220.2L795.25,211.99L795.44,224.21L795.78,219.9L795.79,221.59L795.98,224.56L796.1,210.04L796.51,220.65L796.52,216.23L796.93,210.87L797.15,223.7L797.28,220.22L797.29,222.06L797.34,213.99L797.59,224.08L797.72,221.07L797.73,208.28L797.96,223.82L798.48,219.12L798.49,218.7L799.17,215.02L799.18,224.21L799.24,219.13L799.25,219.77L799.3,209.98L799.43,223.77L799.95,219.79L799.96,222.06L800.13,211.12L800.36,223.46L800.69,221.12L800.7,220.61L800.8,223.96L800.93,208.08L801.45,218.18L801.46,220.43L801.59,210.5L801.85,223.8L802.19,220.9L802.2,221.62L802.46,211.07L802.65,224.15L802.95,215.16L802.96,219.97L803.34,211.17L803.56,223.5L803.7,221.65L803.71,222.26L804.14,208.25L804.37,223.82L804.46,219.71L804.47,218.72L804.79,210.19L805.06,223.65L805.15,219.89L805.16,215.2L805.66,211.13L805.86,224L805.91,218.86L805.92,217.29L806.37,225.44L806.38,213.47L806.5,220.4L806.51,209.62L806.88,224.12L807.26,220.29L807.27,220.21L807.34,208.89L807.58,223.96L807.89,219.43L807.9,222.78L808,211.44L808.26,223.8L808.66,217.56L808.67,220.79L808.87,211.12L809.06,224.52L809.39,219.67L809.4,220.28L809.57,225.61L809.72,210.32L810.04,220.56L810.05,217.78L810.55,207.96L810.77,224.51L810.8,218.14L810.81,218.24L810.84,222.6L810.94,218.35" style="vector-effect: non-scaling-stroke; fill: none; stroke: rgb(31, 119, 180); stroke-opacity: 1; stroke-width: 2px; opacity: 1;"/></g><g class="points"/><g class="text"/></g></g></g><g class="overplot"/><path class="xlines-above crisp" d="M0,0" style="fill: none;"/><path class="ylines-above crisp" d="M0,0" style="fill: none;"/><g class="overlines-above"/><g class="xaxislayer-above"><g class="xtick"><text text-anchor="middle" x="0" y="349" transform="translate(69.67,0)" style="font-family: 'Open Sans', verdana, arial, sans-serif; font-size: 12px; fill: rgb(68, 68, 68); fill-opacity: 1; white-space: pre;">0</text></g><g class="xtick"><text text-anchor="middle" x="0" y="349" transform="translate(172.07,0)" style="font-family: 'Open Sans', verdana, arial, sans-serif; font-size: 12px; fill: rgb(68, 68, 68); fill-opacity: 1; white-space: pre;">10k</text></g><g class="xtick"><text text-anchor="middle" x="0" y="349" transform="translate(274.47,0)" style="font-family: 'Open Sans', verdana, arial, sans-serif; font-size: 12px; fill: rgb(68, 68, 68); fill-opacity: 1; white-space: pre;">20k</text></g><g class="xtick"><text text-anchor="middle" x="0" y="349" transform="translate(376.87,0)" style="font-family: 'Open Sans', verdana, arial, sans-serif; font-size: 12px; fill: rgb(68, 68, 68); fill-opacity: 1; white-space: pre;">30k</text></g><g class="xtick"><text text-anchor="middle" x="0" y="349" transform="translate(479.27,0)" style="font-family: 'Open Sans', verdana, arial, sans-serif; font-size: 12px; fill: rgb(68, 68, 68); fill-opacity: 1; white-space: pre;">40k</text></g><g class="xtick"><text text-anchor="middle" x="0" y="349" transform="translate(581.67,0)" style="font-family: 'Open Sans', verdana, arial, sans-serif; font-size: 12px; fill: rgb(68, 68, 68); fill-opacity: 1; white-space: pre;">50k</text></g><g class="xtick"><text text-anchor="middle" x="0" y="349" transform="translate(684.07,0)" style="font-family: 'Open Sans', verdana, arial, sans-serif; font-size: 12px; fill: rgb(68, 68, 68); fill-opacity: 1; white-space: pre;">60k</text></g><g class="xtick"><text text-anchor="middle" x="0" y="349" transform="translate(786.47,0)" style="font-family: 'Open Sans', verdana, arial, sans-serif; font-size: 12px; fill: rgb(68, 68, 68); fill-opacity: 1; white-space: pre;">70k</text></g></g><g class="yaxislayer-above"><g class="ytick"><text text-anchor="end" x="59" y="4.199999999999999" transform="translate(0,296.97)" style="font-family: 'Open Sans', verdana, arial, sans-serif; font-size: 12px; fill: rgb(68, 68, 68); fill-opacity: 1; white-space: pre;">0</text></g><g class="ytick"><text text-anchor="end" x="59" y="4.199999999999999" transform="translate(0,253.44)" style="font-family: 'Open Sans', verdana, arial, sans-serif; font-size: 12px; fill: rgb(68, 68, 68); fill-opacity: 1; white-space: pre;">2</text></g><g class="ytick"><text text-anchor="end" x="59" y="4.199999999999999" transform="translate(0,209.91)" style="font-family: 'Open Sans', verdana, arial, sans-serif; font-size: 12px; fill: rgb(68, 68, 68); fill-opacity: 1; white-space: pre;">4</text></g><g class="ytick"><text text-anchor="end" x="59" y="4.199999999999999" transform="translate(0,166.38)" style="font-family: 'Open Sans', verdana, arial, sans-serif; font-size: 12px; fill: rgb(68, 68, 68); fill-opacity: 1; white-space: pre;">6</text></g><g class="ytick"><text text-anchor="end" x="59" y="4.199999999999999" transform="translate(0,122.85)" style="font-family: 'Open Sans', verdana, arial, sans-serif; font-size: 12px; fill: rgb(68, 68, 68); fill-opacity: 1; white-space: pre;">8</text></g><g class="ytick"><text text-anchor="end" x="59" y="4.199999999999999" transform="translate(0,79.32)" style="font-family: 'Open Sans', verdana, arial, sans-serif; font-size: 12px; fill: rgb(68, 68, 68); fill-opacity: 1; white-space: pre;">10</text></g></g><g class="overaxes-above"/></g></g><g class="polarlayer"/><g class="ternarylayer"/><g class="geolayer"/><g class="funnelarealayer"/><g class="pielayer"/><g class="treemaplayer"/><g class="sunburstlayer"/><g class="glimages"/><defs id="topdefs-21185b"><g class="clips"/></defs><g class="layer-above"><g class="imagelayer"/><g class="shapelayer"/></g><g class="infolayer"><g class="g-gtitle"><text class="gtitle" x="470" y="30" text-anchor="middle" dy="0em" style="font-family: 'Open Sans', verdana, arial, sans-serif; font-size: 17px; fill: rgb(68, 68, 68); opacity: 1; font-weight: normal; white-space: pre;">train_loss</text></g><g class="g-xtitle"/><g class="g-ytitle"/></g></svg>