<svg class="main-svg" xmlns="http://www.w3.org/2000/svg" xmlns:xlink="http://www.w3.org/1999/xlink" width="940" height="396" style="" viewBox="0 0 940 396"><rect x="0" y="0" width="940" height="396" style="fill: rgb(255, 255, 255); fill-opacity: 1;"/><defs id="defs-adcf81"><g class="clips"><clipPath id="clipadcf81xyplot" class="plotclip"><rect width="820" height="276"/></clipPath><clipPath class="axesclip" id="clipadcf81x"><rect x="60" y="0" width="820" height="396"/></clipPath><clipPath class="axesclip" id="clipadcf81y"><rect x="0" y="60" width="940" height="276"/></clipPath><clipPath class="axesclip" id="clipadcf81xy"><rect x="60" y="60" width="820" height="276"/></clipPath></g><g class="gradients"/></defs><g class="bglayer"/><g class="layer-below"><g class="imagelayer"/><g class="shapelayer"/></g><g class="cartesianlayer"><g class="subplot xy"><g class="layer-subplot"><g class="shapelayer"/><g class="imagelayer"/></g><g class="gridlayer"><g class="x"><path class="xgrid crisp" transform="translate(164.79000000000002,0)" d="M0,60v276" style="stroke: rgb(238, 238, 238); stroke-opacity: 1; stroke-width: 1px;"/><path class="xgrid crisp" transform="translate(269.59000000000003,0)" d="M0,60v276" style="stroke: rgb(238, 238, 238); stroke-opacity: 1; stroke-width: 1px;"/><path class="xgrid crisp" transform="translate(374.38,0)" d="M0,60v276" style="stroke: rgb(238, 238, 238); stroke-opacity: 1; stroke-width: 1px;"/><path class="xgrid crisp" transform="translate(479.17,0)" d="M0,60v276" style="stroke: rgb(238, 238, 238); stroke-opacity: 1; stroke-width: 1px;"/><path class="xgrid crisp" transform="translate(583.97,0)" d="M0,60v276" style="stroke: rgb(238, 238, 238); stroke-opacity: 1; stroke-width: 1px;"/><path class="xgrid crisp" transform="translate(688.76,0)" d="M0,60v276" style="stroke: rgb(238, 238, 238); stroke-opacity: 1; stroke-width: 1px;"/><path class="xgrid crisp" transform="translate(793.56,0)" d="M0,60v276" style="stroke: rgb(238, 238, 238); stroke-opacity: 1; stroke-width: 1px;"/></g><g class="y"><path class="ygrid crisp" transform="translate(0,250.74)" d="M60,0h820" style="stroke: rgb(238, 238, 238); stroke-opacity: 1; stroke-width: 1px;"/><path class="ygrid crisp" transform="translate(0,171.51999999999998)" d="M60,0h820" style="stroke: rgb(238, 238, 238); stroke-opacity: 1; stroke-width: 1px;"/><path class="ygrid crisp" transform="translate(0,92.3)" d="M60,0h820" style="stroke: rgb(238, 238, 238); stroke-opacity: 1; stroke-width: 1px;"/></g></g><g class="zerolinelayer"><path class="xzl zl crisp" transform="translate(60,0)" d="M0,60v276" style="stroke: rgb(68, 68, 68); stroke-opacity: 1; stroke-width: 1px;"/><path class="yzl zl crisp" transform="translate(0,329.96)" d="M60,0h820" style="stroke: rgb(68, 68, 68); stroke-opacity: 1; stroke-width: 1px;"/></g><path class="xlines-below"/><path class="ylines-below"/><g class="overlines-below"/><g class="xaxislayer-below"/><g class="yaxislayer-below"/><g class="overaxes-below"/><g class="plot" transform="translate(60, 60)" clip-path="url('#clipadcf81xyplot')"><g class="scatterlayer mlayer"><g class="trace scatter trace2cb580" style="stroke-miterlimit: 2; opacity: 1;"><g class="fills"/><g class="errorbars"/><g class="lines"><path class="js-line" d="M0,13.8L0.67,245.1L0.76,242.16L0.78,244.42L1.21,203.6L1.24,247.77L1.52,231.34L1.53,247.93L2.01,251.91L2.05,206.19L2.29,238.58L2.31,249.74L2.32,250.09L2.33,237.85L2.34,224.45L2.87,215.77L2.93,256.36L3.09,241.33L3.1,241.41L3.54,217.05L3.77,254.23L3.87,253.3L3.88,238.68L3.9,222.3L4.52,254.92L4.63,248.95L4.64,244.96L5.2,254.93L5.33,217.57L5.4,252.69L5.41,247.59L6.04,229.49L6.12,255.95L6.14,253.16L6.15,223.59L6.21,258.42L6.91,247.27L6.92,250.73L7.09,257.43L7.18,230.99L7.67,247.66L7.68,253.42L7.71,232.77L7.91,257.8L8.36,251.79L8.37,253.24L8.4,254.21L8.41,244.15L8.44,254.14L8.45,239.25L8.61,224.44L9.1,256.18L9.21,253.61L9.22,249.93L9.28,245.34L9.4,256.48L9.42,254.49L9.43,229.05L9.49,258.64L10.18,253.23L10.19,247.33L10.37,257.51L10.46,235.15L10.92,249.86L10.93,236.04L11.19,258.28L11.68,246.38L11.69,250.25L11.72,257.21L12.18,240.72L12.31,243.94L12.32,254.81L12.71,234.1L12.77,258.54L13.07,254.47L13.08,254.2L13.38,235.66L13.65,258.43L13.83,253.35L13.84,253.74L14.21,235.55L14.47,258.63L14.59,253.6L14.6,253.38L14.7,257.41L15.14,242.43L15.35,250.42L15.36,252.06L15.52,257.2L15.99,234.24L16.11,249.73L16.12,254.32L16.63,256.43L16.67,240.35L16.87,251.54L16.88,252.15L16.93,257.93L17.53,241.42L17.59,250.75L17.61,239.79L17.98,257.71L18.36,255.65L18.37,233.04L19.11,256.88L19.12,247.75L19.14,256.3L19.24,258.09L19.27,240.06L19.89,247.66L19.9,252.43L19.94,241.76L20.21,258.57L20.63,251.19L20.64,246.94L20.76,257.52L20.81,242.19L21.4,256.5L21.41,254.35L21.65,233.77L21.86,256.47L22.15,247.96L22.16,254.99L22.55,240.54L22.61,258.47L22.91,254.34L22.92,254.68L23.22,243.99L23.49,258.28L23.67,254.56L23.68,254.85L23.73,257.75L24.05,241.09L24.26,251.36L24.27,256.44L24.31,258.04L24.93,234.89L25.02,256.02L25.04,255.5L25.34,240.28L25.51,257.42L25.79,251.74L25.8,258.26L25.83,243.07L26.55,253.14L26.57,252.13L26.59,244.78L26.77,258.62L27.32,253.29L27.33,242.36L27.59,258.33L28.08,251.26L28.1,254.51L28.12,258.64L28.58,245.11L28.71,247.87L28.72,255.37L29.11,245.43L29.17,258.54L29.47,254.45L29.48,253.85L29.73,248.01L30.05,258.25L30.21,250.35L30.22,256.23L30.61,245.65L30.87,258.63L30.98,252.51L30.99,254.71L31.4,258.98L31.54,247.88L31.69,253.69L31.7,248.04L32.21,257.65L32.39,245.27L32.45,255.45L32.47,254.22L32.62,257.33L32.93,245.96L33.2,252.24L33.21,255.24L33.33,258.84L33.36,248.19L33.86,258.04L33.87,249.78L34.01,248.08L34.38,258.94L34.62,253.96L34.63,250.49L34.68,256.9L34.77,241.1L35.38,250.81L35.39,250.71L35.67,245.38L35.73,258.5L36.14,251.59L36.15,251.92L36.21,245.99L36.85,257.86L36.88,256.07L36.89,255.73L37.16,257.91L37.29,247.8L37.63,253.42L37.64,256.09L37.66,257.63L38.05,242.48L38.39,254.28L38.4,252.63L38.55,244.26L39.01,258.61L39.12,255.25L39.13,249.74L39.37,246.88L39.89,257.08L39.91,255.85L40.41,257.72L40.51,247.1L40.66,249.33L40.67,254.63L40.71,259.24L41.33,246.29L41.41,249.36L41.42,255.67L41.74,247.04L42.1,257.56L42.19,252.35L42.2,258.16L42.23,246.1L42.29,258.55L42.95,253.24L42.97,255.17L43.17,257.89L43.2,247.78L43.72,252.77L43.73,254.72L43.98,247.41L43.99,259.09L44.48,252.5L44.5,256.02L44.53,248.05L44.79,257.64L45.25,251.82L45.26,255.3L45.48,259.02L45.51,245.86L46.01,254.83L46.03,255.49L46.46,258.42L46.48,247.57L46.78,253.05L46.79,254.05L47.07,248.57L47.27,259.78L47.54,255.38L47.56,251.98L47.94,249.11L48.07,258.7L48.33,255.07L48.34,255.27L48.79,246.21L48.93,258.42L49.09,250.79L49.1,256.26L49.23,247.97L49.63,257.35L49.72,256.38L49.74,259.27L50.41,246.8L50.49,254.19L50.5,255.42L50.53,258.8L51.1,249.91L51.2,254.87L51.21,255.83L51.25,248.25L51.94,258.38L51.96,255.31L51.97,256.77L52.07,246.34L52.31,258.9L52.61,253.81L52.62,256.58L52.74,249.32L53.02,259.15L53.37,256.02L53.38,256.35L53.69,248.23L53.81,259L54.14,251.97L54.15,255.75L54.53,249.22L54.77,258.77L54.89,255.17L54.9,257.16L55.35,246.53L55.41,258.96L55.59,258.72L55.6,254.35L55.82,251.32L55.93,258.17L56.01,254.72L56.02,248.53L56.3,259.4L56.77,256.44L56.78,255.37L56.91,249.04L57.34,258.73L57.51,253.33L57.52,254.02L57.81,249.66L58.05,258.58L58.22,254.6L58.23,250.06L58.63,246.92L58.69,259.21L58.98,254.17L58.99,255.84L59.3,249.27L59.58,258.9L59.72,254.77L59.73,254.29L60.19,248.97L60.39,259.26L60.48,254.86L60.49,255.71L60.92,259.78L61.06,248.84L61.23,253.75L61.24,256.74L61.91,245.07L61.97,259.4L61.99,254.97L62,256.62L62.15,258.76L62.58,248.36L62.76,253.41L62.77,253.28L62.86,259.85L63.47,247.88L63.53,256.93L63.54,254.01L64.2,259.18L64.21,250.29L64.29,254.32L64.3,255.36L64.34,247.65L64.72,259.36L65.03,254.34L65.05,254.29L65.19,245.98L65.42,259.45L65.8,256.19L65.81,255.59L65.94,248.7L66.37,259.36L66.56,254.1L66.58,256.65L66.68,259.15L66.81,248.18L67.23,256.91L67.24,252.9L67.48,258.76L67.65,249.17L68,256.58L68.01,255.29L68.47,247.39L68.54,259.76L68.74,255.24L68.76,254.64L69.14,249.15L69.42,259.78L69.51,255.55L69.52,253.17L69.96,259.06L70.09,248.83L70.27,256L70.29,259.04L70.46,259.05L70.93,250.32L71.05,255.01L71.06,258.09L71.35,249.36L71.72,259.31L71.74,257.33L71.75,246.81L71.82,259.85L72.5,256.33L72.51,254.72L72.7,259.87L72.99,250.34L73.2,254.11L73.21,258.42L73.31,249.31L73.51,259.47L73.96,256.87L73.97,256.84L74.21,250.65L74.35,259.01L74.7,258.01L74.71,258.56L75.03,247.75L75.1,259.9L75.46,254.36L75.47,257.53L75.7,250.28L75.98,259.41L76.23,255.56L76.24,257.49L76.59,249.59L76.79,259.34L76.9,254.75L76.91,257.65L77.32,259.81L77.46,249.24L77.68,254.29L77.69,254.15L78.28,259.38L78.31,246.19L78.36,253.81L78.38,259.8L78.98,249.78L79.13,258.84L79.14,257.1L79.26,259.71L79.87,249.96L79.89,257.02L79.91,254.77L80.6,260.23L80.61,250.84L80.66,256.41L80.67,257.15L80.74,249.91L81.12,259.5L81.4,254.89L81.41,258.68L81.59,247.7L81.82,259.26L82.18,253.99L82.19,256.97L82.34,249.72L82.54,260.27L82.73,256.76L82.75,257.64L83.21,248.38L83.33,260.32L83.51,254.73L83.52,255.75L84.06,250.9L84.19,259.37L84.26,256.07L84.28,256.8L84.87,247.18L84.94,259.72L85.02,258.13L85.03,255.65L85.11,259.25L85.54,250.48L85.55,257.77L85.82,259.72L86.1,252.94L86.26,256.34L86.27,257.35L86.49,249.68L86.61,259.6L86.99,255.43L87,258.32L87.34,250.48L87.47,259.3L87.75,252.07L87.76,257.98L88.15,246.92L88.22,260.25L88.51,257.39L88.52,257.37L88.82,250.78L89.1,259.82L89.25,255.66L89.26,257.62L89.71,249.72L89.91,259.5L90.02,255.48L90.03,257.51L90.62,250.43L90.75,258.99L90.8,254.58L90.81,255.95L91.03,251.14L91.3,259.26L91.42,258.37L91.43,247.53L91.5,259.65L92.18,255.7L92.19,256.03L92.38,260.29L92.67,252.04L92.93,256.85L92.94,257.18L92.99,250.24L93.42,259.45L93.69,253.26L93.7,258.02L93.72,260.25L93.86,250.17L94.45,253.71L94.46,257.43L94.71,247.91L94.78,260.06L95.22,256.27L95.23,256.15L95.38,250.4L95.66,259.93L95.88,255.58L95.89,258.73L96.27,250.53L96.47,259.19L96.58,255.49L96.59,257.63L97,260.19L97.14,250.15L97.33,256.73L97.34,258.29L97.52,259.1L97.99,248.13L98.09,254.86L98.1,256.71L98.22,259.53L98.74,250.41L98.86,254.23L98.87,255.12L98.94,259.85L99.47,251.73L99.59,254.93L99.6,257.37L99.61,249.01L99.73,259.76L100.35,254.94L100.36,257.16L100.46,250.81L100.83,259.8L101.1,256.38L101.12,258.87L101.27,247.6L101.34,260.07L101.87,256L101.88,257.06L101.94,250.72L102.22,259.93L102.63,255.06L102.65,255.19L102.76,259.96L102.89,249.4L103.4,258.41L103.41,256.4L103.74,251.16L103.87,259.45L104.1,257.31L104.11,258.93L104.55,247.97L104.62,260.37L104.84,256.47L104.85,257.7L105.22,251.05L105.5,260.07L105.6,254.87L105.61,258.14L106.11,250.8L106.31,259.38L106.36,254.74L106.37,257.36L106.54,258.84L107.02,251.38L107.12,257.25L107.13,256.18L107.69,252.29L107.7,260.06L107.82,257.71L107.83,247.68L107.9,260.27L108.58,256.33L108.59,256.23L108.78,259.9L109.07,252.55L109.32,255.31L109.33,257.8L109.39,251.18L109.59,259.87L110.09,254.72L110.1,257.39L110.12,260.51L110.26,251.03L110.85,254.14L110.86,257.39L111.11,247.61L111.18,260.22L111.61,254.73L111.62,256.51L111.78,250.33L112.06,260.16L112.33,257.19L112.34,254.2L112.67,250.09L112.87,260.12L113.07,257.75L113.08,257.86L113.4,260.37L113.54,250.61L113.83,257.49L113.84,257.53L113.92,259.84L114.39,247.46L114.6,255.63L114.61,258L115.14,250.66L115.34,260.06L115.35,258.46L115.36,253.64L116.01,249.47L116.13,260.2L116.14,254.54L116.38,260.02L116.86,250.71L116.9,258.28L116.91,256.36L117.27,251.18L117.54,259.92L117.66,258.43L117.67,248.36L117.74,260.18L118.42,257.22L118.43,255.05L118.62,260.45L118.64,253.37L119.14,259.08L119.15,251.94L119.16,260.16L119.29,250.48L119.9,256.34L119.92,255.23L120.14,251.19L120.37,259.87L120.66,255.65L120.67,254.07L120.95,248.75L121.19,260.42L121.42,254.52L121.43,255.89L121.49,254.85L121.53,258.97L121.61,257.22L121.62,250.34L121.9,260.03L122.37,257.61L122.38,257.62L122.51,250.78L122.71,259.89L123.15,254.86L123.16,256.98L123.42,251.37L123.65,259.59L123.88,258.21L123.89,255.82L124.23,248.86L124.3,260.56L124.63,257.37L124.64,254.5L124.9,251.09L125.18,260.38L125.39,258.15L125.4,255.77L125.79,250.91L125.99,259.91L126.15,256.71L126.16,257.61L126.52,260.2L126.66,250.34L126.91,255.59L126.92,256.49L127.51,248.21L127.58,260.43L127.65,258.29L127.66,258.83L127.75,259.88L128.18,251.47L128.42,254.67L128.44,256.99L128.46,260.7L129.07,250.34L129.17,259L129.18,256.48L129.8,260.81L129.81,251.15L129.91,256.85L129.92,255.41L129.94,250.78L130.07,259.85L130.67,257.35L130.68,257.39L130.79,249.02L131.02,260.39L131.42,255.58L131.43,259.16L131.54,250.7L131.74,260.4L132.18,257.55L132.19,257.41L132.41,249.6L132.53,260.42L132.76,257.94L132.77,254.42L132.78,259.71L133.26,250.87L133.52,256.05L133.53,256.96L134.07,248.67L134.14,260.54L134.27,256.11L134.28,256.97L134.31,260.19L134.74,250.74L135.01,257.92L135.02,260.11L135.69,250.09L135.77,255.03L135.78,257.02L136.14,253.72L136.36,259.84L136.5,255.83L136.51,258.66L136.54,251.33L136.67,260.04L137.24,256.83L137.25,258.55L137.35,249.24L137.42,260.35L137.95,256.9L137.96,257.9L138.02,251.61L138.3,260.57L138.7,254.99L138.72,257.26L138.91,251.27L139.11,260L139.45,256.25L139.46,258.44L139.82,252.3L140.19,260.01L140.21,254.69L140.22,256.88L140.63,248.87L140.7,260.45L140.97,256.69L140.98,256.48L141.3,251.03L141.58,260.4L141.71,257.42L141.72,256.66L142.19,251.15L142.29,259.65L142.38,256.61L142.39,259.6L142.41,254.02L142.92,260.53L142.93,251.32L143.06,250.71L143.44,259.81L143.68,257.14L143.69,257.4L143.91,248.62L144.15,260.12L144.44,257.04L144.45,256.02L144.58,250.87L144.86,260.51L145.2,258.12L145.21,258.26L145.47,250.75L145.67,260.16L145.97,255.05L145.98,254.88L146.2,260.69L146.34,250.97L146.74,259.5L146.75,256.64L147.19,248.46L147.42,260.41L147.5,258.98L147.51,257.95L147.94,251L148.14,260.47L148.24,254.83L148.25,259.14L148.68,260.38L148.81,250.38L149,257.39L149.01,259.21L149.18,259.64L149.66,251.81L149.77,256.3L149.78,257.88L149.79,259.87L150.47,248.98L150.52,256.11L150.53,255.94L150.54,260.59L151.14,251.33L151.28,258.13L151.29,259.49L151.95,252.77L151.96,260.03L152.03,256.45L152.05,257.3L152.09,250.53L152.76,259.67L152.77,257.42L152.78,255.12L152.94,251.81L153.31,259.76L153.53,256.81L153.54,255.25L153.75,248.79L153.82,260.58L154.3,258.6L154.31,256.98L154.42,251.95L154.7,260.45L155.08,254.03L155.09,255.49L155.31,251.52L155.52,260.02L155.73,255.99L155.74,259.96L156.22,252.19L156.5,256.7L156.51,256.41L157.03,249.14L157.1,260.34L157.27,259.73L157.28,256.49L157.7,250.92L157.98,260.51L157.99,258.99L158,255.03L158.59,251.37L158.69,259.71L158.75,258.22L158.76,256.15L158.79,260.25L159.2,253.37L159.31,257.21L159.32,260.49L159.46,250.27L160.07,257.18L160.08,257.83L160.31,248.82L160.55,260.71L160.82,256.65L160.83,258.13L160.98,251.6L161.26,261.13L161.59,256.32L161.6,258.51L161.87,251.94L162.08,259.9L162.29,255.21L162.3,259.47L162.6,260.55L162.74,250.39L163.06,256.12L163.07,258.12L163.12,260.36L163.59,248.91L163.81,258.18L163.82,260.48L164.34,250.28L164.54,260.82L164.57,256.6L164.58,256.27L164.82,254.38L165.06,259.79L165.07,253.04L165.08,260.53L165.21,250.24L165.82,257.53L165.83,256.63L166.06,251.37L166.29,259.71L166.55,259.29L166.56,255.07L166.87,247.75L167.11,260.09L167.33,258.87L167.35,255.03L167.54,251.3L167.82,260.48L168.09,258.38L168.1,253.79L168.49,250.86L168.61,260.36L168.68,257.46L168.69,260.59L169.34,251.6L169.45,256.11L169.46,258.27L169.76,251.64L170,259.63L170.14,258.86L170.15,249.18L170.39,260.78L170.9,257.27L170.91,256.62L171.1,260.16L171.39,253.07L171.64,256.73L171.65,258.92L171.71,251.62L171.92,260.53L172.4,254.99L172.41,257.31L172.62,251.64L172.99,260.25L173.16,256.7L173.17,255.35L173.43,248.99L173.67,260.65L173.92,255.8L173.93,256.58L174.1,251.88L174.38,260.54L174.65,257.41L174.66,254.88L174.99,251.94L175.19,260.42L175.37,257.21L175.38,258.47L175.72,260.38L175.86,250.63L176.14,257.37L176.15,256.76L176.71,249.19L176.78,260.88L176.88,257.35L176.89,255.19L177.38,251.61L177.66,260.52L177.67,258.54L177.89,259.99L178.27,251.52L178.42,255.18L178.43,258.35L179,260.6L179.14,250.71L179.17,257.88L179.18,258.77L179.27,260.41L179.6,253.76L179.93,255.93L179.94,256.46L179.99,248.9L180.22,261.39L180.69,257.73L180.7,254.7L180.74,251.35L180.94,260.7L181.46,259.83L181.47,252.29L181.61,250.89L181.81,260.39L182.22,258.38L182.23,256.91L182.46,252L182.69,260.09L182.99,254.85L183,257.08L183.27,249.29L183.51,260.6L183.75,255.26L183.76,256.1L183.94,251.99L184.22,260.6L184.44,255.76L184.45,259.3L184.89,250.91L185.01,260.25L185.18,257.12L185.19,257.91L185.26,260.27L185.74,252.19L185.77,256.8L185.78,259.15L186.16,252.83L186.42,260.39L186.53,255.72L186.54,259.24L186.55,249.05L186.62,260.41L187.29,258.62L187.3,257.62L187.5,260.74L187.52,253.4L188.04,256.66L188.05,258.5L188.12,251.36L188.54,260.12L188.8,255.64L188.81,256.9L189.02,251.6L189.25,260.19L189.55,254.9L189.56,257.15L189.83,249.15L189.9,260.47L190.31,254.74L190.32,256.68L190.5,252.03L190.65,260.15L191,255.97L191.01,259.56L191.4,251.3L191.6,260.26L191.77,257.79L191.78,257.43L192.26,250.52L192.39,260.76L192.47,257.52L192.49,256.35L192.64,260.59L193.11,249.39L193.17,255.7L193.18,260.44L193.35,260.69L193.78,251.17L193.93,259.71L193.94,258.79L194.06,260.78L194.68,251.03L194.69,258.43L194.7,258.06L194.88,260.81L195.41,251.55L195.44,257.2L195.45,258.6L195.54,251.69L195.67,260.63L196.21,256.89L196.22,260.03L196.39,248.89L196.62,260.5L196.98,256.11L196.99,258.31L197.14,252.24L197.34,261.01L197.77,255.66L197.78,257.19L198.01,250.6L198.13,260.56L198.53,257.5L198.54,257.37L198.86,251.78L198.99,260.15L199.22,258.89L199.23,259.78L199.52,260.6L199.67,249.85L199.96,256.34L199.97,258.22L200.34,252.05L200.62,260.75L200.72,255.06L200.73,259.58L201.29,250.87L201.41,260.37L201.48,258.25L201.49,259.98L202.14,251.97L202.25,257.03L202.26,258.15L202.82,260.2L202.95,249.35L202.99,258.07L203,256.3L203.19,260.68L203.62,251.52L203.76,258.3L203.77,259.61L203.9,260.5L204.52,251.58L204.53,258.42L204.72,260.5L204.74,254.27L205.27,256.59L205.28,258.64L205.42,251.89L205.79,260.77L205.97,255.18L205.98,258.56L206.23,249.16L206.3,260.89L206.73,256.18L206.74,257.51L206.9,252.69L207.18,260.65L207.45,258.55L207.46,255.19L207.8,251.62L208,260.03L208.19,258.08L208.2,258.43L208.52,260.64L208.67,251.08L208.95,257.57L208.96,258.44L209.51,249.27L209.58,260.66L209.71,256.61L209.72,257.43L209.76,260.39L210.18,251.8L210.45,258.75L210.46,260.68L211.08,252.48L211.22,256.03L211.23,258.3L211.27,260.79L211.95,250.48L211.97,257.33L211.98,258.34L212.07,260.35L212.4,254.21L212.74,256.92L212.75,257.06L212.79,249.8L213.02,260.77L213.41,257.22L213.42,255.98L213.54,251.08L213.74,260.65L214.16,256.17L214.17,255.89L214.28,260.71L214.41,250.62L214.93,258.13L214.94,256.86L215.26,252.05L215.39,260.4L215.62,258.59L215.63,260.2L216.07,249.75L216.14,260.78L216.38,256.55L216.39,256.84L216.74,251.71L217.02,260.72L217.16,258.15L217.17,257.48L217.69,251.05L217.81,260.61L217.9,257.83L217.91,256.33L218.54,252.68L218.67,260.36L218.68,256.69L219.35,249.63L219.42,260.9L219.43,256.91L219.44,257.81L219.6,260.02L220.02,251.84L220.19,256.96L220.2,257.58L220.3,260.88L220.92,252.36L220.93,258.42L220.94,257.98L221.11,260.18L221.62,254.65L221.68,258.98L221.69,258.26L221.82,251.98L221.95,260.88L222.45,257.08L222.46,259.03L222.5,260.79L222.63,249.14L223.2,256.17L223.21,259.36L223.3,251.96L223.58,260.66L223.97,256.07L223.98,256.77L224.2,252L224.39,260.26L224.72,256.47L224.73,258.26L224.92,260.91L225.07,251.79L225.47,257.64L225.48,258.65L225.91,249.59L226.16,260.97L226.23,257.04L226.24,257.92L226.32,254.89L226.49,259.75L226.57,257.67L226.58,251.96L226.86,261.17L227.35,258.66L227.36,256.39L227.48,251.31L227.69,260.89L228.11,259.02L228.13,258.86L228.35,251.58L228.47,261.02L228.86,259.16L228.87,259.43L229.19,249L229.42,261.22L229.63,254.94L229.64,257.72L229.94,251.5L230.14,261.3L230.36,256.15L230.37,260.1L230.68,260.72L230.81,250.44L231.13,257.82L231.14,257.92L231.19,260.45L231.5,254.77L231.65,256.28L231.66,252.15L231.89,260.19L232.41,256.06L232.42,257.69L232.47,249.96L232.54,260.53L233.16,258.7L233.17,258.63L233.42,260.79L233.71,254.75L233.91,255.68L233.92,259.24L233.96,260.8L234.09,251.09L234.67,256.08L234.69,257.83L234.94,252.23L235.07,260.55L235.41,257.16L235.42,259.39L235.62,260.62L235.75,248.78L236.12,258.35L236.13,258.1L236.43,252.5L236.7,260.65L236.88,258.09L236.89,258.27L237.32,252.03L237.51,260.74L237.64,257.21L237.65,258.17L238.04,260.24L238.22,251.79L238.37,258.12L238.38,255.87L238.89,254.07L238.9,260.75L239.02,258.52L239.03,249.9L239.28,260.76L239.78,257.87L239.79,256.93L239.98,260.88L240.27,253.51L240.52,257.15L240.53,259.2L240.6,251.72L241.03,260.34L241.29,255.73L241.3,258.67L241.32,260.95L241.47,250.98L242.03,255.18L242.04,257.52L242.31,249.67L242.56,260.65L242.79,255.62L242.8,256.61L242.99,252.48L243.26,260.67L243.53,258.29L243.54,255.69L243.88,252L244.07,260.24L244.28,258.44L244.3,256.54L244.6,260.52L244.75,251.66L245.05,257.7L245.06,257.3L245.12,260.96L245.59,249.69L245.82,260.95L245.84,256.77L246.34,252.34L246.54,261.18L246.57,258L246.58,255.7L247.21,251.33L247.33,260.76L247.34,256.56L247.41,260.22L248.06,252.35L248.08,258.76L248.09,256.46L248.73,253.53L248.74,260.54L248.84,259.93L248.85,255.45L248.87,249.54L248.94,261.09L249.6,257.11L249.61,258.34L249.82,261.06L250.1,255.1L250.33,257.4L250.34,259.42L250.36,260.56L250.49,251.72L251.09,258.46L251.1,258.34L251.34,252.46L251.57,260.39L251.87,255.34L251.88,257.98L252.15,249.84L252.22,260.45L252.63,255.81L252.64,256.89L252.83,252.53L253.1,260.58L253.37,258.21L253.38,255.34L253.72,251.71L253.93,260.51L254.1,258.25L254.11,257.92L254.62,252.29L254.75,260.46L254.8,256.55L254.81,256.4L255.43,249.7L255.5,260.53L255.58,259.73L255.59,257.08L255.68,260.62L256.11,252.26L256.34,258.39L256.35,256.64L256.38,261.21L257,252.32L257.09,259.56L257.1,256.56L257.2,260.78L257.73,252.64L257.86,259.1L257.87,250.56L257.99,260.46L258.63,258.89L258.64,258.52L258.71,249.7L258.78,261.13L259.39,252.17L259.4,259.39L259.66,260.9L259.95,254.01L260.16,256.72L260.17,259.94L260.28,252.12L260.49,260.8L260.92,258.46L260.93,258.68L261.15,251.55L261.27,260.72L261.69,257.32L261.7,257.03L261.99,249.68L262.23,261.07L262.43,255.05L262.45,257.94L262.74,251.32L262.94,260.72L263.16,256.75L263.17,260.4L263.48,260.55L263.61,250.79L263.92,258.22L263.93,257.92L263.99,260.48L264.46,252.08L264.69,260.32L264.7,256.02L265.27,249.32L265.34,260.78L265.44,258.68L265.45,255.8L265.52,261L265.95,252.2L266.23,259.63L266.24,255.79L266.76,260.61L266.89,251.13L266.99,259.03L267,258.07L267.01,260.87L267.58,255.4L267.73,256.39L267.74,252.43L267.97,260.55L268.49,256.38L268.5,257.62L268.55,250.55L268.8,260.66L269.24,258.82L269.25,258.59L269.5,261.24L269.79,253.2L270,256.63L270.01,260.34L270.12,251.77L270.55,260.78L270.76,255.17L270.77,258.94L271.02,252.74L271.25,260.65L271.49,257.58L271.5,259.85L271.83,250.1L271.9,260.66L272.05,256.68L272.07,259.28L272.51,252.29L272.78,261.4L272.81,257.95L272.82,257.07L273.4,252.27L273.6,260.93L273.61,260.31L273.62,255.24L274.12,260.72L274.13,251.74L274.39,260.5L274.4,256.84L274.72,252.95L274.98,261.07L275.1,259.24L275.11,250.22L275.36,261.21L275.87,258.24L275.88,256.82L276.06,260.98L276.35,253.31L276.63,257.09L276.64,256.9L276.68,251.91L277.4,260.95L277.41,252.57L277.55,251.32L277.67,261.05L278.16,257.69L278.17,257.64L278.39,249.77L278.63,261.28L278.86,257.52L278.87,259.24L279.14,250.81L279.34,261.72L279.56,256.9L279.57,260.39L280.01,251.33L280.21,260.65L280.33,258.53L280.34,258.43L280.86,252.69L280.99,260.2L281.07,257.85L281.08,258.99L281.09,260.74L281.67,250.17L281.82,259.77L281.83,256.45L282.25,260.64L282.35,252.1L282.58,259L282.59,255.89L282.62,261.24L283.29,251.73L283.35,259.97L283.36,258.09L283.41,260.98L283.74,254.95L284.11,257.18L284.12,259.36L284.14,252.27L284.27,260.58L284.86,258.23L284.87,259.1L284.95,250.32L285.02,260.8L285.59,257.98L285.6,258.61L285.63,252.2L285.9,261.05L286.12,256.93L286.13,260.16L286.52,251.93L286.61,260.25L286.71,258.7L286.72,260.79L286.74,255.12L287.39,256.14L287.4,259.31L287.42,252.47L287.65,260.93L288.14,258.37L288.15,258.94L288.23,250.09L288.48,260.95L288.91,251.75L288.92,259.56L289.18,261.09L289.47,254.22L289.66,257.91L289.67,258.61L289.8,251.42L290,260.64L290.41,257.92L290.43,257.01L290.52,261.1L290.67,251.55L291.18,260.14L291.19,259.59L291.52,249.64L291.76,261.01L291.94,256.62L291.96,259.31L292.19,252.53L292.46,261.35L292.68,256.35L292.69,260.41L293.08,252.28L293.28,260.74L293.41,258.27L293.42,259.04L293.8,261.1L293.95,251.91L294.18,256.68L294.19,257.27L294.32,261.15L294.4,253.91L294.78,259.14L294.8,249.8L295.03,261.14L295.55,258.32L295.56,257.87L295.74,260.96L296.02,255.11L296.25,257.63L296.26,260.34L296.41,251.67L296.53,261.07L297.01,258.83L297.02,258.44L297.26,252.5L297.49,260.86L297.79,255.87L297.8,257.91L297.94,260.68L298.08,250.27L298.55,256.64L298.56,256.76L298.75,252.53L299.02,261.01L299.29,258.7L299.3,254.82L299.69,251.87L299.89,260.44L300.05,259.19L300.06,256.11L300.54,252.69L300.67,260.49L300.81,257.72L300.82,257.07L301.22,260.93L301.36,250.21L301.56,258.21L301.58,256.41L301.6,261.1L302.03,252.3L302.33,258.61L302.34,257.31L302.92,252.51L303.01,260.04L303.05,256.89L303.06,256.19L303.13,260.49L303.66,255.16L303.81,257.27L303.82,253.04L303.95,260.96L304.57,256.81L304.58,258.25L304.64,250.44L304.88,261.26L305.32,259.81L305.33,259.14L305.58,261.06L305.87,254.07L306.08,256.99L306.09,260.17L306.2,251.66L306.4,260.83L306.84,259.4L306.85,258.81L306.92,261.08L307.07,251.71L307.35,258.25L307.36,258.49L307.44,260.67L307.92,250.05L307.97,256.24L307.98,260.86L308.16,261.14L308.59,253.22L308.73,260.31L308.74,259.39L308.86,260.91L309.48,251.7L309.49,258.92L309.5,258.33L310.2,260.87L310.21,253.01L310.24,257.84L310.25,258.66L310.35,251.43L310.47,260.88L310.96,258.39L310.98,257.45L311.2,249.83L311.43,260.89L311.72,256.88L311.73,257.09L311.94,251.62L312.14,261.36L312.49,259.57L312.51,259.97L312.68,261.12L312.81,251.53L313.26,254.58L313.27,259.3L313.66,252.69L313.89,260.57L314.02,259.29L314.04,259.98L314.48,249.79L314.72,260.84L314.76,257.68L314.77,258.99L315.15,252.42L315.42,260.7L315.52,255.13L315.53,260.15L316.09,251.63L316.21,260.6L316.28,258.65L316.29,260.34L316.94,252.21L317.05,257.35L317.06,258.66L317.07,260.92L317.76,249.92L317.79,258.18L317.8,256.36L317.95,256.08L318,261.18L318.42,257.49L318.43,251.83L318.7,261.02L319.18,258.12L319.19,258.81L319.32,251.62L319.53,260.95L319.94,256.45L319.95,257.01L320.22,251.98L320.6,261.18L320.69,257.41L320.7,260.05L321.04,249.24L321.28,261.09L321.47,256.64L321.48,259.73L321.71,252.24L321.98,261.13L322.23,258.75L322.24,259.22L322.6,251.39L322.8,260.52L322.97,258.12L322.98,259.03L323.32,261.23L323.47,251.53L323.66,258.63L323.67,259.54L324.18,260.77L324.32,250.12L324.42,257.52L324.43,258.38L324.56,261.04L324.99,252.52L325.16,258.28L325.17,257.63L325.26,260.83L325.88,252.29L325.89,259.56L326.08,261.03L326.61,253.23L326.64,257.91L326.65,258.06L326.75,251.95L327.12,260.78L327.38,257.92L327.39,257.03L327.6,249.76L327.73,261.15L328.13,256.66L328.14,258.05L328.34,252.43L328.54,261.14L328.73,258.35L328.74,259.15L329.21,252.01L329.34,260.49L329.47,256.69L329.48,259.2L329.88,260.24L330.06,252.21L330.25,256.56L330.26,258.21L330.29,260.93L330.88,250.56L330.98,257.96L330.99,259.06L331.12,260.94L331.55,252.73L331.77,256.82L331.78,258.56L331.82,261.23L332.49,251.85L332.53,257.68L332.54,257.9L332.62,260.95L332.94,255.44L333.29,258.52L333.3,258.54L333.34,252.53L333.47,260.8L334.04,257.95L334.05,258.86L334.11,256.24L334.12,260.13L334.15,259.47L334.16,250.15L334.4,261.04L334.91,258.15L334.92,256.57L335.1,261.18L335.39,253.5L335.66,258.43L335.68,256.89L335.72,252.25L335.92,260.71L336.35,257.81L336.36,256.28L336.62,252.66L337.1,260.65L337.11,260.03L337.12,256.56L337.44,250.48L337.68,261.36L337.88,259.34L337.89,258.63L338.11,252.39L338.38,261.05L338.64,259.09L338.65,258.37L339,252L339.2,260.96L339.38,258.63L339.4,258.9L339.72,261.38L339.87,251.82L340.15,258.71L340.16,258.97L340.72,249.75L340.78,260.84L340.91,256.22L340.93,258.03L340.96,260.9L341.39,252.79L341.65,259.08L341.66,261.38L342.28,252.26L342.42,256.31L342.43,258.8L342.48,261.21L343.15,252L343.19,256.82L343.2,257.92L343.27,261.2L343.6,254.52L343.94,257.26L343.95,257.33L344,250.32L344.23,261.66L344.69,258.33L344.7,255.75L344.74,251.74L344.94,261.25L345.46,260.27L345.47,253.74L345.61,251.66L345.74,261.1L346.22,258.6L346.23,258.74L346.46,252.57L346.69,261.19L346.99,255.97L347,258.3L347.28,250.31L347.52,261.08L347.75,256.39L347.76,257.31L347.95,252.73L348.22,261.52L348.49,258.84L348.5,255.61L348.89,251.72L349.02,261.34L349.22,258.33L349.24,258.93L349.56,260.84L349.74,252.91L349.95,257.98L349.96,259.8L350.56,250.1L350.62,260.68L350.7,259.84L350.71,257.76L350.8,260.89L351.23,252.81L351.43,257.11L351.44,256.12L351.5,261.16L351.79,253.39L352.04,257.1L352.05,259.96L352.12,252.09L352.32,261.16L352.8,257.1L352.81,258.58L353.02,252.74L353.25,260.67L353.56,257.62L353.57,256.57L353.84,250.47L354.08,260.98L354.32,256.92L354.33,257.51L354.51,252.71L354.78,260.73L355.06,255.66L355.07,253.43L355.4,252.68L355.6,261.13L355.83,260.35L355.84,259.36L356.12,261.22L356.27,251.24L356.38,258.15L356.39,260.67L356.98,261.06L357.12,250.95L357.14,259.11L357.15,258.25L357.36,260.87L357.79,252.62L357.89,258.23L357.9,258.71L358.06,261.35L358.35,253.96L358.66,258L358.67,259.7L358.68,252.62L358.88,261.42L359.41,253.24L359.42,260.14L359.55,252.4L359.92,261.14L360.2,256.27L360.21,257.42L360.4,250.08L360.63,261.31L360.96,258.17L360.97,257.53L361.14,252.54L361.34,261.6L361.68,257.62L361.7,260.13L362.01,251.91L362.14,260.75L362.46,256.3L362.47,258.67L362.86,252.73L363.09,260.91L363.21,257.88L363.23,259.22L363.68,250.02L363.92,261.06L363.97,259.14L363.98,257.38L364.35,252.46L364.62,260.77L364.71,258.33L364.72,256.99L365.29,251.29L365.42,261.14L365.47,258.98L365.48,258.5L365.67,260.38L366.14,252.43L366.22,258.72L366.23,257.59L366.81,254.15L366.82,260.85L366.95,259.39L366.96,250.16L367.2,261.15L367.71,258.6L367.72,256.66L367.9,261.14L368.19,254.6L368.47,258L368.48,256.73L368.52,252.82L368.72,261.17L369.24,260.34L369.25,259.15L369.42,252.98L369.55,260.96L370,257.47L370.01,258.71L370.24,250.91L370.48,261.57L370.76,258.29L370.77,257.68L370.91,253.1L371.18,261.36L371.51,257.16L371.53,259.62L371.8,252.28L372.23,261.08L372.3,256.08L372.31,257.28L372.52,261.6L372.67,252.02L373.07,259.98L373.08,258.63L373.52,250.81L373.58,260.75L373.82,258.5L373.83,257.5L374.19,252.71L374.46,261.32L374.58,259.3L374.6,259.04L374.69,260.35L375.08,252.72L375.22,256.47L375.23,259.56L375.8,261.53L375.95,251.74L375.99,257.38L376,257.95L376.07,260.78L376.4,254L376.74,257.12L376.75,257.15L376.8,250.6L377.03,261.31L377.49,258.44L377.5,256.78L377.54,252.12L377.74,261.57L378.26,260.24L378.27,253.91L378.41,251.72L378.54,261.01L379.02,258.8L379.03,258.21L379.26,252.62L379.49,260.86L379.79,255.77L379.8,258.4L380.08,250.69L380.32,261.23L380.55,256.69L380.56,257.14L380.75,252.43L381.02,261.36L381.29,258.38L381.3,255.1L381.56,261.19L381.69,251.75L382.1,259.42L382.11,258.63L382.54,253.22L382.68,260.86L382.85,259.39L382.86,258.72L382.96,254.34L383.22,260.97L383.35,259.87L383.36,250.94L383.6,260.93L384.11,258.04L384.12,257L384.3,261.27L384.59,254.33L384.87,258.35L384.88,256.99L384.92,252.53L385.13,260.93L385.55,257.64L385.56,256.05L385.82,252.56L386.05,260.78L386.31,260L386.32,257.15L386.64,250.9L386.7,260.86L387.08,259.25L387.09,258.52L387.31,252.79L387.58,261.49L387.84,259.5L387.85,258.6L388.2,253L388.4,261.1L388.59,258.94L388.6,259.1L388.92,261.12L389.07,251.92L389.33,257.02L389.34,258.57L389.44,260.92L389.52,253.96L389.91,259.98L389.92,250.45L390.16,261.05L390.67,258.2L390.68,256.49L390.86,260.69L391.15,254.77L391.43,258.58L391.44,256.93L391.48,252.43L391.69,261.25L392.16,257.72L392.17,256.47L392.2,261.43L392.35,252.39L392.92,257.31L392.93,256.17L393.2,250.05L393.43,261.53L393.68,258.69L393.69,257.88L393.94,252.18L394.14,261.34L394.44,255.12L394.45,257.49L394.81,251.71L394.94,261.04L395.17,258.65L395.18,257.18L395.66,253.15L395.8,260.87L395.93,257.98L395.94,258.4L396.33,254.28L396.34,260.8L396.47,259.28L396.48,250.44L396.72,261.26L397.23,258.75L397.24,257.08L397.42,261.03L397.95,253.61L398,258.7L398.01,258.39L398.09,252.04L398.22,260.88L398.76,260.26L398.77,258.94L398.94,253.18L399.17,261L399.52,258.04L399.53,258.39L399.76,250.59L400,261.42L400.27,259.32L400.28,258.49L400.43,252.6L400.7,260.93L401.03,257.68L401.05,259.44L401.32,252.68L401.53,261.05L401.79,259.22L401.8,255.93L402.22,253.23L402.45,260.84L402.56,258.96L402.58,258.25L403.04,250.33L403.28,261.11L403.33,259.78L403.34,258.23L403.71,252.51L403.98,261.46L404.08,256.13L404.09,260.2L404.6,252.52L404.8,260.89L404.88,257.82L404.89,258.5L405.03,261L405.47,251.77L405.64,256.68L405.65,259.01L406.18,260.89L406.32,250.3L406.37,257.34L406.38,261.18L406.99,252.82L407.13,260.57L407.14,259.94L407.26,261.38L407.88,251.51L407.89,259.06L407.9,259.11L408.6,261.35L408.61,253.25L408.65,258.5L408.66,258.4L408.75,252.37L409.12,261.63L409.4,257.32L409.41,258.12L409.6,250.01L409.83,261.99L410.15,258.21L410.16,257.9L410.34,251.91L410.54,261.28L410.89,258.02L410.9,259.68L411.08,261.15L411.21,251.67L411.63,258.93L411.64,255.96L412.06,252.59L412.2,261.22L412.41,258.93L412.42,257.92L412.88,250.48L413.12,261.22L413.17,259.14L413.18,257.14L413.55,252.99L413.82,260.84L413.94,259.92L413.95,259.23L414.42,260.8L414.49,251.89L414.61,258.9L414.62,260.92L414.87,260.93L415.34,252.73L415.37,257.46L415.38,259.65L415.57,261.05L415.76,254.64L416.11,256.45L416.13,260.36L416.16,250.11L416.4,261.3L416.88,257.77L416.89,259.71L417.1,261.51L417.39,255.44L417.64,257.49L417.66,259.82L417.72,252.63L417.92,261.27L418.42,256.37L418.43,258.78L418.62,252.72L418.85,261.3L419.16,258.32L419.17,256.23L419.44,250.97L419.5,261.26L419.93,257.78L419.94,258.72L420.11,252.47L420.38,261.52L420.65,258.47L420.66,256.49L421,252.41L421.2,261.1L421.4,258.2L421.41,258.94L421.72,261.09L421.87,252.31L422.15,258.4L422.16,259.64L422.58,260.88L422.72,250.33L422.92,257.15L422.93,258.19L422.96,261.21L423.39,252.3L423.65,259.28L423.66,261.43L424.28,252.63L424.42,256.91L424.44,259.09L424.49,260.94L425.15,252.55L425.2,258.15L425.21,259.32L425.53,261L425.6,254.76L425.97,258.19L425.98,258.44L426,249.89L426.23,261.56L426.73,259.85L426.74,252.4L426.94,261.43L427.48,261.08L427.5,258.8L427.61,251.6L427.74,261.28L428.03,258.9L428.04,256.49L428.46,252.8L428.69,261.02L428.81,259L428.82,257.27L429.28,250.39L429.52,261.29L429.57,260.05L429.58,257.5L429.95,253.04L430.22,261.42L430.31,258.5L430.32,256.59L430.89,252.22L431.02,260.99L431.09,260.83L431.1,258.17L431.27,261.16L431.74,252.88L431.85,257.36L431.87,259.32L432.16,254.7L432.42,261.2L432.55,259.52L432.56,250.6L432.62,261.39L433.31,258.72L433.32,256.79L433.5,261.23L433.79,254.8L434.07,257.95L434.08,256.8L434.12,251.99L434.33,261.28L434.81,257.99L434.82,256.51L435.02,253.34L435.25,261.31L435.56,257.98L435.57,256.17L435.84,250.32L435.9,261.58L436.33,257.9L436.34,258.41L436.51,253.37L436.78,261.31L437.05,258.78L437.06,256.04L437.4,252.44L437.61,261.36L437.78,259.02L437.79,258.8L437.83,260.88L438.13,252.62L438.38,259.26L438.39,261.17L439.12,250.39L439.14,259.23L439.15,258.41L439.36,261.41L439.79,253.08L439.89,258.63L439.9,258.67L440.06,261.18L440.35,254.27L440.65,258.35L440.66,258.83L440.68,252.56L441.4,261.07L441.41,252.74L441.93,260.78L442.16,259.16L442.17,258.05L442.4,250.22L442.63,261.49L442.93,257.52L442.94,258.24L443.14,253.02L443.34,261.43L443.61,258.5L443.62,255.55L444.01,252.47L444.14,261.4L444.37,258.97L444.38,256.64L444.86,252.36L445.09,260.95L445.13,258.04L445.14,258.24L445.68,250.82L445.74,261.28L445.87,257.88L445.88,257L446.35,252.65L446.62,261.46L446.63,259.51L446.64,257.01L447.17,260.88L447.29,251.79L447.4,259.08L447.41,258.58L447.42,261.09L447.76,255.75L448.13,257.75L448.14,253.33L448.28,261.23L448.89,257.25L448.9,258.46L448.96,250.76L449.02,261.17L449.64,259.46L449.65,259.63L449.9,261.6L450.19,254.59L450.4,257L450.41,260.41L450.52,253.19L450.72,261.04L451.16,257.12L451.17,259L451.42,253.42L451.65,261.16L451.91,260.28L451.92,256.87L452.24,250.72L452.3,261.47L452.68,260.26L452.69,258.93L452.91,253.38L453.18,261.32L453.44,259.3L453.45,259.2L453.8,253.46L454,261.04L454.2,259.02L454.21,258.8L454.52,261.28L454.67,251.59L454.95,258.47L454.96,259.22L455.38,261.23L455.52,250.9L455.72,257.36L455.73,258.6L455.76,261.34L456.19,252.71L456.48,258.08L456.49,258.18L457.08,253.2L457.17,260.64L457.23,256.91L457.24,259.19L457.29,261.06L457.95,252.62L457.99,257.43L458,258.49L458.07,261.29L458.4,254.98L458.74,257.51L458.76,257.93L458.8,250.24L459.03,261.29L459.38,257.15L459.39,259.36L459.54,252.27L459.74,261.64L460.09,258.32L460.1,259.86L460.29,261.03L460.41,252.7L460.77,259.2L460.78,256.77L461.26,252.74L461.49,261.19L461.53,258.28L461.54,258.03L461.94,261.01L462.08,250.56L462.27,257.79L462.28,256.78L462.32,261.33L462.75,252.86L463.03,259.23L463.04,257.47L463.57,261.41L463.69,252.44L463.8,258.97L463.81,259.36L463.82,261.24L464.38,255.95L464.53,257.4L464.54,253L465.22,261.38L465.29,257.95L465.3,258.36L465.36,250.43L465.42,261.27L466.03,253.43L466.04,259.84L466.3,261.53L466.59,254.68L466.64,257.79L466.65,259.8L466.92,253.36L467.13,261.12L467.32,258.59L467.33,259.12L467.35,261.1L467.82,253.21L468.08,259.03L468.09,257.99L468.64,250.76L468.7,261L468.8,259.08L468.82,257.26L468.88,261.64L469.31,253.22L469.54,259.22L469.55,256.96L469.58,261.38L470.2,252.52L470.31,259.44L470.32,258.32L470.92,261.11L471.07,252.64L471.08,258.24L471.19,261.05L471.52,254.04L471.84,259.37L471.85,257.52L471.92,250.53L472.16,261.21L472.58,258.75L472.59,252.99L472.86,261.25L473.34,258.49L473.35,258.93L473.48,253.12L473.91,261.13L474.1,258.25L474.11,257.25L474.2,261.68L474.35,252.6L474.86,260.22L474.87,259.25L475.2,249.33L475.43,261.57L475.62,255.13L475.63,260.5L475.94,253.11L476.14,261.56L476.38,260.01L476.39,259.29L476.81,252.56L477.01,261.27L477.13,258.93L477.14,258.78L477.19,260.55L477.66,253.04L477.75,257.06L477.76,259.34L477.8,261.07L478.48,251.27L478.53,256.88L478.54,260.92L478.72,261.26L479.15,252.89L479.29,260.78L479.31,259.98L479.42,261.27L479.96,254.06L480.07,257.13L480.08,259.66L480.09,253.1L480.76,260.89L480.82,258.72L480.84,258.39L480.94,253.36L481.17,261.09L481.58,259.8L481.59,258.04L481.76,251.3L482,261.52L482.34,258.98L482.35,259.17L482.43,253.28L482.7,261.57L482.97,258.19L482.98,256.41L483.32,252.75L483.53,261.14L483.7,258.59L483.71,259.37L484.22,253.31L484.36,261.31L484.44,259.54L484.45,261.01L485.04,250.81L485.19,257.77L485.21,258.66L485.28,261.52L485.71,253.05L485.96,258.6L485.97,259.74L485.98,261.56L486.6,252.68L486.71,259.34L486.72,258.33L487.32,261.76L487.33,253.09L487.45,257.35L487.46,259.82L487.47,252.01L488.16,261.14L488.21,259.47L488.22,259.27L488.32,249.92L488.38,260.94L488.54,257.43L488.55,259.71L488.56,261.52L488.99,253.11L489.29,258.29L489.3,257.57L489.88,253.09L489.97,260.82L490.05,257.8L490.06,257.68L490.09,261.18L490.75,252.94L490.81,259.75L490.82,258.95L490.87,261.07L491.2,254.63L491.57,258.47L491.58,259.22L491.6,250.67L491.83,261.45L492.29,258.85L492.3,257.52L492.34,253.11L492.54,261.33L493.06,260.58L493.08,253.95L493.21,252.63L493.34,261.47L493.83,258.67L493.84,256.42L494.06,253.11L494.2,260.93L494.59,256.52L494.61,258.2L494.88,250.91L494.94,261.01L495.36,257.81L495.37,258.78L495.42,260.1L495.44,257.18L495.54,258.36L495.55,252.82L495.82,261.42L496.3,258.08L496.31,256.5L496.49,252.22L496.69,261.27L497.06,257.25L497.07,257.82L497.34,252.92L497.57,260.93L497.79,257.29L497.8,259.54L498.16,250.84L498.4,261.52L498.55,258.93L498.56,260L498.83,253.75L499.1,261.32L499.31,259.3L499.32,257.46L499.72,252.39L499.92,261.41L500.06,259.16L500.08,258.92L500.15,260.77L500.2,255.99L500.45,259.05L500.46,255.89L500.62,253.62L500.76,261.19L501.22,259.43L501.23,257.18L501.44,250.11L501.68,261.59L501.98,259.54L501.99,257.72L502.11,253.3L502.38,261.52L502.72,257.91L502.73,259.72L503,253.03L503.21,261.23L503.41,259.38L503.42,257.59L503.43,261.23L503.87,252.74L504.17,258.66L504.18,257.76L504.72,250.8L504.78,260.89L504.93,259L504.94,258.14L505.39,252.27L505.66,261.75L505.69,258.84L505.7,257.9L506.17,260.74L506.28,252.15L506.36,259.19L506.37,260.51L506.48,261.51L507.01,253.37L507.13,257.5L507.14,259.07L507.15,251.83L507.82,261.05L507.89,258.05L507.9,258.63L508,249.68L508.23,261.66L508.64,259.99L508.65,258.13L508.74,251.91L508.94,261.16L509.4,259.55L509.41,257.78L509.61,252.25L509.99,261.13L510.14,258.74L510.15,258.04L510.46,253.44L510.6,261.12L510.85,259.47L510.86,256.47L511.28,250.5L511.34,261.23L511.62,258.85L511.63,259.26L511.95,252.64L512.22,261.37L512.27,258.49L512.28,257.05L512.89,252.82L513.02,261.4L513.04,259.32L513.05,257.59L513.09,260.96L513.74,252.88L513.77,257.14L513.78,260.07L514.16,254.14L514.22,260.93L514.52,256.17L514.53,260.78L514.56,251.01L514.8,261.36L515.28,258.17L515.29,260.15L515.5,261.91L515.79,254.31L516.05,257.62L516.06,260.29L516.12,252.73L516.55,261.19L516.82,257L516.83,259.19L517.02,252.65L517.4,260.98L517.57,258.16L517.58,256.44L517.84,251.12L518.08,261.33L518.33,258.72L518.34,258.01L518.51,253.1L518.78,261.96L519.06,256.1L519.07,254.36L519.4,253.36L519.83,260.99L519.84,259.31L520.12,261.13L520.27,252.56L520.52,258.21L520.53,256.61L521.12,251.21L521.18,261.16L521.29,259.31L521.3,257.17L521.79,253.15L522.06,261.83L522.07,259.75L522.08,257.67L522.57,260.85L522.68,253.08L522.82,257.91L522.83,256.9L523.4,261.45L523.41,252.58L523.58,259.51L523.59,257.82L523.67,261.22L524,254.72L524.31,260.54L524.32,257.19L524.39,259.91L524.4,250.55L524.63,261.6L525.15,259.2L525.16,258.63L525.34,261.37L525.88,255.07L525.89,260.74L526.01,252.37L526.14,261.72L526.66,256.37L526.67,259.36L526.86,252.98L527,261.07L527.38,257.77L527.4,256.78L527.54,261.27L527.68,250.54L528.15,257.29L528.16,257.85L528.35,253.15L528.62,261.47L528.89,259.21L528.9,255.45L529.29,252.44L529.42,261.15L529.65,259.24L529.66,257.28L529.67,261.13L530.14,253.08L530.41,258.4L530.42,258.51L530.52,261.13L530.81,254.83L530.95,260L530.96,251.13L531.2,261.33L531.71,258.41L531.72,256.96L531.9,261.34L532.19,254.13L532.47,258.19L532.48,257.14L532.52,252.57L532.73,261.12L533.21,258.65L533.22,256.89L533.42,253.48L533.56,261.25L533.97,258.15L533.98,257.11L534.24,250.58L534.48,261.59L534.73,257.68L534.74,258.45L534.91,253.39L535.18,261.53L535.46,256.81L535.47,255.1L535.8,252.64L536,261.33L536.23,261.02L536.24,259.49L536.52,261.13L536.53,253.41L536.66,259.78L536.67,252.38L537.38,261.12L537.43,259.82L537.44,259.42L537.52,250.72L537.58,261.87L538.19,252.83L538.2,259.67L538.46,261.16L538.75,254.7L538.96,257.04L538.97,260.35L539.08,252.96L539.28,261.19L539.72,259.72L539.73,259.29L539.8,261.74L539.95,252.65L540.45,258.21L540.46,261.17L540.8,250.3L541.03,262.04L541.22,254.71L541.23,260.11L541.54,253.57L541.74,261.42L541.97,261.08L541.98,260.77L542.34,261.29L542.41,252.41L542.74,258.77L542.75,259.23L542.79,260.87L543.26,253.06L543.48,259.56L543.49,261.42L544.08,250.96L544.24,257.92L544.25,258.88L544.32,261.22L544.75,253.43L544.99,257.41L545,259.2L545.02,261.89L545.3,255.56L545.44,258.3L545.45,256.97L545.69,252.66L545.82,261.56L546.21,260.63L546.22,258.2L546.54,252.96L546.77,261.19L546.93,259.94L546.94,256.46L547.36,250.5L547.42,261.13L547.69,258.82L547.7,258.56L548.03,252.82L548.3,261.59L548.45,259.75L548.46,259.09L548.92,252.71L549.01,260.96L549.11,259.69L549.12,260.83L549.35,261.32L549.82,253.42L549.87,258.35L549.88,259.17L550.05,261.57L550.24,254.26L550.6,256.21L550.61,260.39L550.64,250.91L550.88,261.2L551.36,258.51L551.37,259.56L551.58,261.57L551.87,254.96L552.08,257.15L552.09,260.49L552.2,252.04L552.63,261.28L552.84,259.58L552.85,259.69L552.92,261.48L553.07,252.66L553.57,258.23L553.58,260.85L553.78,261.6L553.92,251.18L554.34,256.74L554.35,257.91L554.59,253.34L554.86,261.29L555.1,260.18L555.11,259.31L555.15,254.82L555.38,260.66L555.47,260.52L555.48,252.56L556.2,261.38L556.23,259.18L556.24,259.17L556.35,253.25L556.48,261.25L556.79,258.77L556.8,255.11L557.2,250.17L557.43,261.68L557.55,258.27L557.57,259.81L557.94,252.4L558.14,261.44L558.31,259.71L558.32,258.98L558.81,252.84L558.94,261.35L559.07,257.46L559.08,259.59L559.19,261.03L559.66,253.1L559.79,259.23L559.8,261.21L559.89,261.39L560.48,251.22L560.55,258.36L560.56,259.31L560.72,261.34L561.15,253.34L561.3,260.72L561.31,260.04L561.42,261.8L561.96,254.78L562.07,257.14L562.08,259.42L562.09,252.23L562.22,261.15L562.83,258.95L562.84,257.87L562.94,253.1L563.17,261.21L563.6,261.12L563.61,254.6L563.76,251.17L563.82,261.1L564.36,259.5L564.37,259.63L564.43,253.7L564.7,261.39L565.12,259.22L565.13,258.94L565.32,253.09L565.52,261.39L565.85,257.42L565.86,259.33L566.22,252.84L566.45,261.19L566.59,258.9L566.6,260.58L567.04,251.41L567.28,261.46L567.34,258.65L567.35,258.92L567.45,256.6L567.61,260.11L567.7,258.64L567.71,253.13L567.98,261.41L568.46,258.67L568.47,259.04L568.6,252.82L568.8,261.36L569.21,256.21L569.22,259.29L569.32,261.69L569.47,252.26L569.97,258.32L569.98,260.9L570.32,250.82L570.56,261.44L570.71,259.11L570.72,258.98L570.99,253.12L571.26,261.41L571.46,259.81L571.47,259.36L571.88,252.61L572.09,261.45L572.22,258.87L572.23,259.62L572.6,261.45L572.75,252.31L572.99,258.47L573,258.48L573.13,261.26L573.6,250.09L573.72,258.6L573.73,261.1L573.83,261.77L574.34,252.69L574.49,256.58L574.5,259.09L574.54,261.29L575.21,252.95L575.25,257.8L575.26,259.36L575.34,261.57L575.66,255.85L575.98,259.56L575.99,257.68L576.06,253.54L576.29,261.1L576.69,258.17L576.7,260.28L576.88,250.98L577.12,261.54L577.44,258.19L577.46,260.14L577.55,253.49L577.82,261.72L578.18,260.09L578.19,260.48L578.49,253.57L578.62,261.8L578.94,257.2L578.95,259.52L579.34,253.02L579.57,261.23L579.7,258.18L579.71,259.38L580.16,251.45L580.4,261.52L580.45,259.55L580.46,258.4L580.83,253.37L581.1,261.98L581.2,258.92L581.21,257.58L581.72,253.22L581.92,261.01L581.96,257.69L581.97,259.29L582.15,261.47L582.62,252.84L582.72,257.75L582.73,259.42L583.3,261.33L583.44,250.8L583.49,257.63L583.5,261.1L583.68,261.69L584.11,253.08L584.25,259.61L584.26,260.6L584.38,261.63L584.68,254.68L584.98,258.68L584.99,260.27L585.72,261.29L585.73,253.38L585.74,260.79L585.87,253.22L586,261.33L586.51,257.36L586.52,259.25L586.72,251.32L586.96,261.37L587.25,257.3L587.26,259.99L587.39,252.82L587.66,261.34L588,258.27L588.01,260.06L588.28,253.46L588.49,261.36L588.78,257.17L588.79,258.14L589,261.62L589.01,253.21L589.52,256.8L589.53,261.05L590,250.06L590.23,262.01L590.29,258.15L590.3,260.07L590.74,253.3L590.94,261.82L591.05,257.67L591.06,260.45L591.61,252.13L591.74,261.4L591.8,259.16L591.81,260.63L591.99,261.11L592.46,253.07L592.56,257.51L592.57,259.43L592.69,261.34L593.28,250.64L593.33,257.46L593.34,261.17L593.52,261.47L593.95,252.96L594.09,259.06L594.1,260.85L594.22,261.47L594.76,254.87L594.85,258.97L594.86,258.99L594.89,252.98L595.02,261.45L595.59,257.89L595.61,260.17L595.74,253.6L595.88,261.54L596.37,258.13L596.38,259.4L596.56,251.09L596.8,261.49L597.12,257.76L597.14,260.13L597.23,253.31L597.5,261.54L597.91,256.9L597.92,259.29L598.12,252.68L598.33,261.3L598.65,258.7L598.67,259.74L599.02,253.72L599.25,261.37L599.42,256.49L599.43,257.99L599.84,251.23L599.9,261.45L600.17,259.63L600.18,259.51L600.51,252.85L600.67,260.56L600.77,259.33L600.78,261.81L601.4,253.54L601.55,257.62L601.56,259.83L601.61,261.37L602.27,252.78L602.31,257.49L602.32,259.1L602.65,261.36L602.72,254.62L603.06,258.18L603.07,258.54L603.12,250.77L603.36,261.48L603.82,256.75L603.83,259.84L604.06,261.52L604.36,255.19L604.57,257.33L604.58,260.26L604.68,253.02L604.89,261.42L605.33,260.16L605.34,258.97L605.41,253.49L605.68,261.69L606.08,257.33L606.1,258.46L606.4,250.37L606.63,261.69L606.77,259.61L606.78,260.39L607.14,253.78L607.34,261.91L607.5,259.32L607.51,259.49L607.88,254.54L607.89,261.56L608,259.75L608.01,252.41L608.14,261.58L608.77,260.13L608.78,260.42L608.86,253.3L609.24,261.13L609.53,254.77L609.54,260.89L609.68,251.18L609.92,261.72L610.3,258.51L610.31,258.3L610.35,253.22L610.62,261.22L611.08,259.7L611.09,257.77L611.17,261.29L611.29,252.62L611.84,257.9L611.85,258.28L612.14,254.1L612.37,261.57L612.59,257.92L612.6,259.55L612.96,251.45L613.2,261.39L613.35,259.03L613.36,259.06L613.63,253.65L613.9,261.42L614.1,259.98L614.11,259.24L614.51,261.09L614.52,253.44L614.85,258.31L614.86,259.77L615.42,253.19L615.56,260.95L615.63,258.41L615.64,259.73L616.24,250.61L616.3,261.5L616.39,260.37L616.4,258.26L616.48,261.82L616.91,253.44L617.14,258.89L617.15,257.37L617.18,261.48L617.8,252.78L617.89,260.31L617.91,257.7L618.52,261.33L618.53,253.28L618.66,259.79L618.67,252.95L619.38,261.21L619.42,259.77L619.44,259.57L619.52,250.28L619.58,261.18L620.09,257.92L620.1,260.88L620.19,253.53L620.46,261.38L620.86,257.88L620.87,257.18L621.08,253.05L621.29,261.28L621.62,259.16L621.63,258.52L621.8,261.47L621.95,252.42L622.37,260.12L622.38,256.41L622.8,249.89L623.03,261.88L623.13,259.45L623.15,258.97L623.54,253.27L623.74,261.51L623.9,258.67L623.91,259.09L624.29,261.16L624.41,252.56L624.64,258.25L624.65,257.72L624.79,261.35L625.26,252.96L625.4,261.01L625.41,257.79L626.08,250.71L626.14,261.71L626.16,259.29L626.17,257.85L626.32,261.59L626.75,253.72L626.91,260.52L626.92,258.11L627.02,261.66L627.56,254.33L627.66,258.74L627.67,257.41L627.69,253.05L627.82,261.83L628.43,259.57L628.44,258.04L628.54,253.17L629.02,261.38L629.2,260.85L629.21,254.97L629.36,250.96L629.6,261.29L629.96,259.26L629.97,259.4L630.03,253.63L630.3,261.72L630.71,257.01L630.72,259.51L630.92,252.48L631.13,261.43L631.22,257.35L631.24,260.31L631.82,253.53L631.96,261.33L632,257.25L632.01,257.31L632.05,261.39L632.64,250.97L632.77,258.87L632.78,259.78L632.88,261.33L633.31,252.74L633.51,257.86L633.52,257.07L633.58,261.55L633.88,255.02L634.19,260.5L634.2,253.63L634.41,261.59L634.93,253.07L634.94,259.98L634.96,259.68L635.07,252.93L635.45,261.25L635.71,257.17L635.72,259.14L635.92,251.09L636.16,261.43L636.45,257.96L636.46,260.17L636.59,253.3L636.86,261.63L637.21,259.6L637.22,260.26L637.48,253.18L637.69,261.39L637.98,256.98L637.99,257.28L638.35,252.77L638.48,261.43L638.77,260.35L638.78,256.57L639.2,250.57L639.43,262.16L639.53,259.06L639.55,259.63L639.94,252.77L640.14,261.51L640.3,258.82L640.31,259.42L640.69,261.43L640.81,252.75L641.04,259.28L641.05,257.87L641.66,253.46L641.8,261.28L641.81,257.68L642.48,251.28L642.54,261.32L642.56,259.4L642.57,258.23L642.72,261.91L643.15,253.54L643.31,260.15L643.32,257.44L643.96,254.46L643.97,261.77L644.08,259.85L644.09,252.79L644.22,261.49L644.85,259.77L644.86,260.29L644.94,254.28L645.08,261.48L645.61,255.43L645.62,261.17L645.76,251.37L646,261.67L646.38,258.27L646.39,258.81L646.43,253.27L646.7,261.38L646.99,256.31L647,254.84L647.32,253.34L647.53,261.49L647.75,260.99L647.76,259.56L648.22,253.78L648.45,261.43L648.46,257.59L648.6,261.18L649.04,250.82L649.21,259.33L649.22,258.05L649.28,261.73L649.71,253.89L649.95,257.42L649.96,259.52L649.98,261.97L650.6,253.54L650.7,260.75L650.71,258.26L650.81,261.41L651.33,253.58L651.46,260.21L651.47,252.47L652.18,261.09L652.23,259.65L652.24,259.9L652.32,251.22L652.56,261.66L652.99,253.63L653,259.85L653.2,256.22L653.26,261.76L653.55,257.12L653.56,255.37L653.88,253.86L654.09,261.41L654.32,260.04L654.33,259.76L654.6,261.53L654.75,252.67L655.05,259.3L655.07,258.1L655.6,250.69L655.83,261.77L655.84,257.89L656.34,253.71L656.54,261.83L656.57,258.6L656.58,257.5L657.08,254.64L657.09,261.18L657.2,259.33L657.21,253.1L657.34,261.25L657.97,259.3L657.98,260.37L658.06,253.21L658.29,261.36L658.73,254.85L658.74,261.41L658.88,250.99L658.94,261.78L659.5,258.28L659.51,258.53L659.55,253.61L659.82,261.57L660.1,259.59L660.11,255.05L660.49,252.82L660.62,261.36L660.91,259.98L660.92,257.4L661.34,253.36L661.57,261.57L661.66,260.68L661.67,258.72L661.82,261.03L662.01,254.82L662.15,259.84L662.16,251.49L662.4,261.48L662.91,258.96L662.92,256.94L663.1,261.9L663.4,254.51L663.67,259.42L663.68,257.44L663.72,253.45L663.93,261.45L664.41,258.39L664.42,256.43L664.62,252.83L664.85,261.76L665.17,258.35L665.18,257.38L665.44,251.08L665.68,261.85L665.93,258.42L665.94,258.83L666.11,253.5L666.38,261.85L666.66,259.67L666.67,256.03L667,252.83L667.21,261.53L667.37,259.25L667.38,259.51L667.73,253.3L668,261L668.03,258.05L668.04,256.99L668.72,251.04L668.78,261.32L668.79,258.5L668.8,259.27L668.96,261.65L669.39,253.34L669.53,259.91L669.54,260.7L669.66,261.41L669.96,254.73L670.26,259.25L670.27,260.78L670.28,253.31L671,261.37L671.01,253.74L671.03,260.58L671.15,253.25L671.53,261.61L671.8,257.57L671.81,257.69L672,250.16L672.23,261.84L672.56,258.61L672.57,258.94L672.74,253.31L672.94,261.58L673.3,260.39L673.31,261.38L673.49,261.68L673.61,252.82L674.06,255.69L674.07,259.45L674.46,253.43L674.69,261.18L674.82,258.62L674.83,259.97L675.28,251.35L675.52,261.76L675.57,259.74L675.58,258.29L675.95,253.23L676.22,261.59L676.32,259.45L676.33,256.97L676.89,252.69L677.02,262.14L677.08,259.47L677.09,260.38L677.27,261.2L677.74,253.38L677.84,258.04L677.85,259.49L677.97,261.36L678.56,251.32L678.6,257.54L678.61,258.08L678.8,261.38L679.23,253.5L679.36,258.73L679.37,259.47L679.5,261.51L679.8,254.78L680.11,260.56L680.12,253.28L680.33,261.53L680.87,256.34L680.88,257.68L681.02,253.4L681.25,261.52L681.62,259.06L681.63,256.58L681.84,250.95L681.9,261.62L682.38,259.78L682.4,258.77L682.51,253.4L682.78,261.66L683.13,259.94L683.14,260.5L683.4,253.38L683.61,261.04L683.9,257.76L683.91,257.47L684.01,256.5L684.12,261.54L684.14,253.65L684.27,252.93L684.65,261.55L684.89,258.96L684.9,259.12L685.12,251.73L685.36,261.7L685.65,257.87L685.66,260.37L685.79,253.09L686.06,261.53L686.4,258.32L686.41,260.3L686.68,253.68L686.89,261.32L687.09,259.18L687.1,257.25L687.4,261.55L687.55,252.29L687.84,259.46L687.86,259.36L688.22,261.37L688.4,250.3L688.45,259.19L688.46,260.37L688.63,261.96L689.14,253.51L689.21,257.69L689.22,259.08L689.34,261.55L689.88,254.88L689.94,260.78L689.95,257.78L690.01,252.38L690.14,261.69L690.7,260.1L690.71,256.15L690.86,253.3L691.09,261.55L691.46,259L691.47,257.22L691.68,250.65L691.92,261.39L692.23,260.01L692.24,258.8L692.35,253.19L692.62,261.29L692.97,259.15L692.98,260.44L693.22,261.48L693.29,252.8L693.74,256.64L693.76,259.55L693.96,261.19L694.14,253.75L694.5,258.56L694.51,260.15L694.96,250.62L695.2,261.6L695.25,259.8L695.26,258.31L695.63,253.48L695.9,261.81L696,259.32L696.01,257.27L696.52,253.17L696.73,261.75L696.76,257.88L696.77,259.87L697.09,261.08L697.42,252.87L697.52,258.24L697.53,259.44L697.65,261.5L698.24,251.13L698.29,257.78L698.3,261.09L698.48,261.97L698.91,253.55L699.05,260.02L699.06,260.73L699.18,261.7L699.48,254.82L699.78,259.48L699.79,260.24L699.8,253.16L700.52,261.63L700.54,253.7L700.55,260.4L700.67,252.27L701.05,261.15L701.31,257.45L701.32,259.08L701.38,261.12L701.52,251.04L701.57,256.76L701.58,261.46L702.19,253.29L702.33,259.52L702.34,260.62L702.46,261.63L703.08,253.42L703.09,260.25L703.8,261.77L703.82,253.33L703.83,261.01L703.95,252.96L704.08,261.45L704.6,257.41L704.61,257.89L704.8,250.56L705.03,262.2L705.36,258.67L705.37,259.18L705.54,253.29L705.74,261.87L706.1,260.64L706.11,260.7L706.34,261.28L706.41,253.02L706.86,257.03L706.88,259.31L707.26,253.19L707.49,261.18L707.63,259.15L707.64,260.91L707.94,261.31L708.08,251.37L708.31,260.46L708.32,261.63L708.75,253.71L709.02,261.67L709.07,258.14L709.08,258.71L709.57,261.42L709.69,252.93L709.79,258.52L709.8,259.89L709.82,261.52L710.39,256L710.51,258.42L710.52,260.48L710.54,253.96L710.77,261.4L711.27,260.06L711.28,259.7L711.36,251.51L711.42,261.71L712,258.46L712.01,259.77L712.03,253.38L712.3,261.51L712.71,257.62L712.72,259.19L712.91,260.9L712.92,253.17L713.11,260.01L713.12,261.53L713.82,253.51L713.88,259.25L713.89,259.18L714.05,261.48L714.24,254.78L714.6,256.6L714.61,260.42L714.64,251.87L714.88,261.71L715.36,257.99L715.37,260.02L715.58,261.92L715.88,255.35L716.04,258.28L716.06,260.11L716.2,252.88L716.41,261.51L716.82,258.61L716.83,258.09L717.07,253.22L717.45,261.4L717.59,260.76L717.6,260.09L717.92,251.53L718.16,261.59L718.35,258.21L718.36,260.13L718.59,253.71L718.86,261.48L719.1,260.6L719.12,259.25L719.48,253.17L719.69,261.6L719.87,259.27L719.88,259.91L720.2,261.44L720.22,253.81L720.62,259.32L720.63,259.21L721.02,261.34L721.2,250.9L721.33,258.84L721.34,260.91L721.43,261.83L721.94,253.5L722.09,257.57L722.1,259.2L722.14,261.66L722.81,252.76L722.84,258.48L722.85,260.5L722.94,261.54L723.26,256.13L723.6,257.11L723.61,259.45L723.66,252.9L723.89,261.41L724.31,258.42L724.32,261.1L724.34,261.46L724.48,251.38L725.07,258.9L725.08,259.5L725.15,252.61L725.42,261.68L725.77,258.24L725.78,260.4L726.09,252.49L726.22,261.38L726.45,259.67L726.46,256.97L726.94,254.12L727.17,261.4L727.21,259.39L727.22,258.74L727.62,261.21L727.76,250.96L727.98,257.53L727.99,260.33L728,261.86L728.43,253.31L728.72,258.4L728.74,259.3L729.32,254.06L729.42,261.2L729.49,257.96L729.5,258.51L729.53,261.44L730.07,256.44L730.21,258.07L730.22,253.27L730.45,261.35L730.97,259.03L730.98,258.3L731.04,251.34L731.28,261.68L731.7,258.27L731.71,253.53L731.98,261.84L732.46,260.38L732.47,258.92L732.6,253.04L732.81,261.48L733.21,255.92L733.22,259.37L733.33,261.47L733.47,252.91L733.97,258.61L733.99,261.15L734.32,251.17L734.56,261.72L734.75,258.32L734.76,260.42L734.99,253.5L735.26,261.79L735.5,260.58L735.52,259.77L735.88,253.13L736.09,261.33L736.25,259.46L736.26,259.16L736.49,256.09L736.61,261.24L736.62,253.62L736.75,253.31L737.13,261.81L737.37,259.48L737.38,258.64L737.6,250.5L737.83,262.06L738.02,254.42L738.03,260.73L738.34,253.47L738.54,261.26L738.78,260.39L738.8,259.4L739.21,252.8L739.34,261.59L739.55,259.63L739.56,259.23L740.06,253.31L740.29,261.62L740.3,258.04L740.88,251.55L740.94,261.22L741.05,258.98L741.06,257.38L741.12,261.74L741.55,253.99L741.83,259.61L741.84,258.08L742.37,261.23L742.49,253.15L742.6,260.03L742.61,259.19L742.62,261.5L743.19,255.85L743.33,258.44L743.34,253.22L743.57,261.54L744.09,260.35L744.1,258.47L744.16,251.19L744.22,261.56L744.82,259.16L744.83,253.11L745.1,261.85L745.58,259.6L745.59,259.03L745.72,252.81L745.93,261.48L746.21,257.61L746.23,256.89L746.62,253.93L746.85,261.64L746.99,260.09L747,261.17L747.44,251.43L747.68,261.67L747.74,258.43L747.76,258.32L748.11,253.17L748.38,261.31L748.52,259.51L748.53,259.68L749,254.21L749.21,261.46L749.29,258.57L749.3,258.61L749.73,261.99L749.87,252.97L750.04,257.5L750.05,259.79L750.69,261.32L750.72,250.88L750.77,257.82L750.78,261.08L750.96,261.69L751.39,253.86L751.53,259.77L751.54,260.56L751.66,261.82L751.96,255.61L752.26,258.52L752.27,260.6L752.28,253.47L752.49,261.58L753.02,254.21L753.03,260.73L753.15,252.76L753.28,261.54L753.8,258.21L753.81,258.42L754,250.68L754.23,261.74L754.56,259.25L754.57,259.11L754.74,252.87L754.94,261.67L755.3,259.99L755.31,260.56L755.61,253.19L755.74,261.73L756.07,256.64L756.08,259.82L756.46,253.51L756.69,261.27L756.82,258.97L756.83,259.97L757.28,251.02L757.52,261.86L757.57,259.7L757.58,258.31L757.95,253.42L758.22,261.78L758.32,258.85L758.33,257.26L758.89,252.57L759.02,261.32L759.09,260.81L759.1,258.87L759.27,261L759.74,253.47L759.84,257.95L759.85,259.69L759.97,261.78L760.56,251.11L760.61,258.38L760.62,261.02L760.8,261.74L761.23,253.59L761.37,259.98L761.38,261.11L761.5,261.37L762.12,253.31L762.13,260.39L762.55,261.39L762.87,256.48L762.88,258.34L762.89,260.09L763.02,253.45L763.25,261.37L763.65,258.84L763.66,260.23L763.84,251.45L764.08,261.77L764.41,258.05L764.42,260.65L764.51,253.84L764.78,261.65L765.19,257.42L765.2,259.96L765.4,253.53L765.61,261.49L765.95,259.16L765.96,259.77L766.13,261.72L766.27,252.82L766.69,259.94L766.7,256.75L767.12,251.11L767.36,261.85L767.46,259.04L767.47,259.33L767.79,253.08L768.06,261.67L768.21,259.47L768.22,258.83L768.68,253.44L768.89,261.83L768.97,258.9L768.98,259.01L769.55,253.13L769.68,261.55L769.72,257.12L769.73,259.58L769.93,261.36L770.4,250.7L770.41,260.37L770.63,261.97L771.15,253.08L771.17,257.88L771.18,258.76L771.34,261.61L771.88,254.35L771.94,261.39L771.95,258.49L772.01,252.49L772.14,261.37L772.6,257.12L772.61,259.55L772.86,253.76L773.09,261.7L773.27,259.23L773.28,255.09L773.68,251.65L773.92,261.75L774.03,259.15L774.04,259.6L774.35,253.52L774.62,261.81L774.7,259.38L774.71,259.91L775.3,252.43L775.42,261.86L775.46,257.52L775.47,259.58L775.49,261.5L776.14,253.51L776.2,259.15L776.21,259.97L776.37,261.7L776.96,251.29L776.97,259.75L777.2,261.75L777.63,253.92L777.68,258.53L777.69,260.27L777.9,262.14L778.2,255.12L778.41,257.3L778.42,260.88L778.52,253.41L778.73,261.64L779.17,259.87L779.18,259.48L779.42,252.43L779.56,261.54L779.9,258.41L779.91,261.08L780.24,251.85L780.48,261.87L780.67,258.01L780.68,260.36L780.91,253.62L781.18,261.48L781.41,261.02L781.43,260.47L781.8,253.39L782.01,261.41L782.18,258.93L782.19,259.46L782.23,261.26L782.54,253.27L782.66,259.95L782.67,253.14L783.39,261.31L783.42,260.18L783.43,259.2L783.52,251.08L783.76,261.97L784.08,259.23L784.09,257.7L784.19,253.81L784.46,261.81L784.84,258.16L784.85,257.25L784.98,261.31L785.08,253.73L785.6,258.05L785.61,258.15L785.95,252.53L786.33,261.75L786.37,260.46L786.38,256.99L786.8,250.65L787.03,261.7L787.14,259.7L787.15,259.23L787.55,252.88L787.74,261.52L787.9,259.18L787.91,259.48L788.29,261.42L788.42,252.94L788.62,258.45L788.64,257.54L789.09,261.2L789.26,253.51L789.4,261.13L789.41,258.48L790.08,250.97L790.14,261.61L790.17,259.8L790.18,258.66L790.32,262.15L790.49,256.71L790.74,258.66L790.75,252.65L791.02,261.85L791.5,257.88L791.51,258.61L791.7,253.14L791.82,261.66L792.24,258.43L792.25,259.38L792.54,253.75L792.92,261.44L792.99,258.22L793.01,259.95L793.36,251.81L793.6,261.79L793.77,256.89L793.78,258.16L794.03,253.67L794.3,261.45L794.49,258.86L794.5,260.62L794.92,253.74L795.13,261.49L795.23,257.66L795.24,260.2L795.35,261.5L795.82,253.55L796,257.59L796.01,258.08L796.64,251.64L796.7,261.33L796.76,259.93L796.77,258.6L796.88,261.67L797.31,253.28L797.51,257.92L797.52,256.87L797.58,261.52L797.88,255.26L798.19,261.15L798.2,253.57L798.41,261.49L798.95,260.59L798.96,260.12L799.07,252.98L799.2,261.5L799.71,257.6L799.72,258.95L799.79,261.92L799.92,251.86L800.42,258.94L800.44,259.21L800.59,253.52L800.86,261.55L801.18,257.06L801.19,259.44L801.48,253.03L801.68,261.53L801.93,259.78L801.94,259.66L802.35,253.21L802.48,261.83L802.66,259.32L802.67,257.7L803.2,250.32L803.43,262.02L803.44,257.75L803.95,253.46L804.14,261.63L804.19,258.27L804.2,258.63L804.68,254.93L804.69,261.87L804.8,259.82L804.82,252.04L804.94,261.48L805.58,260.33L805.59,257.44L805.66,253.06L805.89,261.81L806.32,260.66L806.33,255.55L806.48,251.25L806.72,261.61L807.09,260.17L807.1,258.39L807.15,253.4L807.42,261.45L807.84,258.45L807.85,258.3L808.1,252.73L808.22,261.84L808.61,260.62L808.62,258.91L808.94,253.74L809.17,261.44L809.31,259.95L809.32,261.36L809.76,251.67L810,262.06L810.07,258.64L810.08,258.43L810.43,253.87L810.7,261.67L810.8,258.35L810.81,257.37L811.32,253.83L811.53,261.49L811.56,257.49L811.57,258.95L812.05,261.65L812.22,253.54L812.26,257.81L812.27,260.74L812.64,254.81L812.91,261.74L813.02,257.83L813.03,260.03L813.04,251.66L813.28,262.04L813.78,259.72L813.79,259.91L814.28,254.92L814.5,261.46L814.53,258.8L814.54,260.49L814.6,253.34L814.81,261.81L815.29,257.62L815.31,259.85L815.33,261.75L815.47,252.69L815.98,258L815.99,260.89L816.32,251.87L816.56,261.6L816.74,258.29L816.75,258.26L816.99,253.76L817.26,261.63L817.51,260.83L817.52,259.62L817.88,253.54L818.08,261.47L818.27,259.8L818.28,259.47L818.75,252.87L818.88,261.77L818.97,258.58L818.98,258.25L819.13,261.44L819.6,250.91L819.74,261.4L819.75,257.09L819.79,256.77L819.83,261.96L820,257.37" style="vector-effect: non-scaling-stroke; fill: none; stroke: rgb(31, 119, 180); stroke-opacity: 1; stroke-width: 2px; opacity: 1;"/></g><g class="points"/><g class="text"/></g></g></g><g class="overplot"/><path class="xlines-above crisp" d="M0,0" style="fill: none;"/><path class="ylines-above crisp" d="M0,0" style="fill: none;"/><g class="overlines-above"/><g class="xaxislayer-above"><g class="xtick"><text text-anchor="middle" x="0" y="349" transform="translate(60,0)" style="font-family: 'Open Sans', verdana, arial, sans-serif; font-size: 12px; fill: rgb(68, 68, 68); fill-opacity: 1; white-space: pre;">0</text></g><g class="xtick"><text text-anchor="middle" x="0" y="349" transform="translate(164.79000000000002,0)" style="font-family: 'Open Sans', verdana, arial, sans-serif; font-size: 12px; fill: rgb(68, 68, 68); fill-opacity: 1; white-space: pre;">10k</text></g><g class="xtick"><text text-anchor="middle" x="0" y="349" transform="translate(269.59000000000003,0)" style="font-family: 'Open Sans', verdana, arial, sans-serif; font-size: 12px; fill: rgb(68, 68, 68); fill-opacity: 1; white-space: pre;">20k</text></g><g class="xtick"><text text-anchor="middle" x="0" y="349" transform="translate(374.38,0)" style="font-family: 'Open Sans', verdana, arial, sans-serif; font-size: 12px; fill: rgb(68, 68, 68); fill-opacity: 1; white-space: pre;">30k</text></g><g class="xtick"><text text-anchor="middle" x="0" y="349" transform="translate(479.17,0)" style="font-family: 'Open Sans', verdana, arial, sans-serif; font-size: 12px; fill: rgb(68, 68, 68); fill-opacity: 1; white-space: pre;">40k</text></g><g class="xtick"><text text-anchor="middle" x="0" y="349" transform="translate(583.97,0)" style="font-family: 'Open Sans', verdana, arial, sans-serif; font-size: 12px; fill: rgb(68, 68, 68); fill-opacity: 1; white-space: pre;">50k</text></g><g class="xtick"><text text-anchor="middle" x="0" y="349" transform="translate(688.76,0)" style="font-family: 'Open Sans', verdana, arial, sans-serif; font-size: 12px; fill: rgb(68, 68, 68); fill-opacity: 1; white-space: pre;">60k</text></g><g class="xtick"><text text-anchor="middle" x="0" y="349" transform="translate(793.56,0)" style="font-family: 'Open Sans', verdana, arial, sans-serif; font-size: 12px; fill: rgb(68, 68, 68); fill-opacity: 1; white-space: pre;">70k</text></g></g><g class="yaxislayer-above"><g class="ytick"><text text-anchor="end" x="59" y="4.199999999999999" transform="translate(0,329.96)" style="font-family: 'Open Sans', verdana, arial, sans-serif; font-size: 12px; fill: rgb(68, 68, 68); fill-opacity: 1; white-space: pre;">0</text></g><g class="ytick"><text text-anchor="end" x="59" y="4.199999999999999" transform="translate(0,250.74)" style="font-family: 'Open Sans', verdana, arial, sans-serif; font-size: 12px; fill: rgb(68, 68, 68); fill-opacity: 1; white-space: pre;">5</text></g><g class="ytick"><text text-anchor="end" x="59" y="4.199999999999999" transform="translate(0,171.51999999999998)" style="font-family: 'Open Sans', verdana, arial, sans-serif; font-size: 12px; fill: rgb(68, 68, 68); fill-opacity: 1; white-space: pre;">10</text></g><g class="ytick"><text text-anchor="end" x="59" y="4.199999999999999" transform="translate(0,92.3)" style="font-family: 'Open Sans', verdana, arial, sans-serif; font-size: 12px; fill: rgb(68, 68, 68); fill-opacity: 1; white-space: pre;">15</text></g></g><g class="overaxes-above"/></g></g><g class="polarlayer"/><g class="ternarylayer"/><g class="geolayer"/><g class="funnelarealayer"/><g class="pielayer"/><g class="treemaplayer"/><g class="sunburstlayer"/><g class="glimages"/><defs id="topdefs-adcf81"><g class="clips"/></defs><g class="layer-above"><g class="imagelayer"/><g class="shapelayer"/></g><g class="infolayer"><g class="g-gtitle"><text class="gtitle" x="470" y="30" text-anchor="middle" dy="0em" style="font-family: 'Open Sans', verdana, arial, sans-serif; font-size: 17px; fill: rgb(68, 68, 68); opacity: 1; font-weight: normal; white-space: pre;">XDeepFM_train_loss</text></g><g class="g-xtitle"/><g class="g-ytitle"/></g></svg>